<svg xmlns="http://www.w3.org/2000/svg"
  xmlns:xlink="http://www.w3.org/1999/xlink" viewBox="0 0 486 84">
  <defs>
    <path id="a" d="M0 0h486v84H0z"/>
  </defs>
  <clipPath id="b">
    <use xlink:href="#a" style="overflow:visible"/>
  </clipPath>
  <g style="clip-path:url(#b)">
    <path d="M24.3 10.8 43 77.6c1.3 4.5 6 7.1 10.6 5.9 4.6-1.2 7.3-5.9 6-10.4L40.9 6.4c-1.3-4.5-6-7.1-10.6-5.9-4.5 1.2-7.2 5.8-6 10.3z" style="fill:#ff5543"/>
    <path d="M58.9 10.3 12.1 62c-3.1 3.5-2.8 8.9.8 12 3.6 3.1 9 2.8 12.2-.7l46.8-51.7c3.2-3.5 2.8-8.8-.7-11.9a8.88 8.88 0 0 0-12.3.6z" style="fill:#b200f8"/>
    <path d="m5.9 39.2 66.7 21.6c4.5 1.5 9.4-.9 10.9-5.4 1.5-4.4-1-9.2-5.5-10.6L11.3 23.2c-4.5-1.5-9.4.9-10.9 5.4-1.5 4.4 1 9.1 5.5 10.6z" style="fill:#00cbec"/>
    <path d="M127.1 52.5c0-1.5-.6-2.8-1.7-3.7-1.1-1-2.5-1.8-4.2-2.6-1.7-.8-3.5-1.6-5.5-2.4-2-.9-3.8-1.9-5.5-3.1-1.7-1.2-3.1-2.8-4.2-4.6-1.1-1.8-1.7-4.2-1.7-7 0-2.4.4-4.6 1.2-6.3.8-1.8 2-3.3 3.5-4.5 1.5-1.2 3.3-2.1 5.4-2.7 2.1-.6 4.4-.9 6.9-.9 2.9 0 5.7.3 8.3.8 2.6.5 4.7 1.2 6.4 2.2l-3.1 8.3c-1.1-.7-2.6-1.3-4.8-1.8-2.1-.6-4.4-.9-6.8-.9-2.3 0-4.1.5-5.3 1.4-1.2.9-1.8 2.1-1.8 3.7 0 1.4.6 2.6 1.7 3.6 1.2 1 2.6 1.8 4.2 2.7 1.7.8 3.6 1.7 5.5 2.5 2 .9 3.9 1.9 5.5 3.2 1.7 1.2 3.1 2.7 4.2 4.5 1.2 1.8 1.7 4 1.7 6.7s-.5 5-1.4 7c-.9 1.9-2.1 3.5-3.7 4.8-1.6 1.3-3.5 2.3-5.8 2.9-2.3.6-4.8.9-7.5.9-3.6 0-6.8-.3-9.5-1s-4.8-1.3-6-2l3.2-8.4c.5.3 1.2.6 2 .9.9.3 1.8.6 2.9.9 1.1.3 2.2.5 3.3.7 1.2.2 2.4.3 3.7.3 2.9 0 5.2-.5 6.7-1.4 1.4-1.2 2.2-2.7 2.2-4.7zm14.5-4.5c0-6.1 1.5-10.8 4.5-14 3-3.3 7.2-5 12.5-5 2.9 0 5.4.5 7.5 1.4 2.1.9 3.9 2.2 5.3 3.9 1.4 1.6 2.4 3.6 3.1 6 .7 2.4 1.1 4.9 1.1 7.8 0 6.1-1.5 10.8-4.5 14.1-2.9 3.3-7.1 4.9-12.5 4.9-2.9 0-5.4-.5-7.5-1.4s-3.9-2.2-5.3-3.8c-1.4-1.7-2.4-3.7-3.2-6-.7-2.5-1-5.1-1-7.9zm9.6 0c0 1.6.1 3 .4 4.4.3 1.3.7 2.5 1.3 3.5.6 1 1.3 1.8 2.2 2.4 1 .5 2.1.8 3.4.8 2.4 0 4.3-.9 5.5-2.7s1.8-4.6 1.8-8.4c0-3.3-.6-6-1.7-8-1.1-2.1-3-3.1-5.6-3.1-2.3 0-4.1.9-5.4 2.6-1.2 1.7-1.9 4.6-1.9 8.5zM191 30v20.4c0 2.9.3 5 1 6.3.7 1.3 2.1 1.9 4.1 1.9 1.8 0 3.2-.5 4.4-1.6 1.2-1.1 2.1-2.4 2.7-3.9V30h9.4v25.1c0 2 .1 3.9.3 5.8.2 1.9.5 3.6.9 5.1h-7.1l-1.7-5.3h-.3c-1.1 1.8-2.6 3.3-4.6 4.5s-4.3 1.8-7 1.8c-1.8 0-3.5-.2-4.9-.7-1.4-.5-2.6-1.3-3.6-2.4-1-1.1-1.7-2.6-2.2-4.5-.5-1.9-.7-4.2-.7-7.1V30h9.3zm49.6 8.8c-1.5-.5-2.8-.8-4-.8-1.7 0-3.1.5-4.2 1.4-1.1.9-1.8 2-2.2 3.4V66h-9.4V30h7.3l1.1 4.8h.3c.8-1.8 1.9-3.1 3.3-4.1 1.4-1 3-1.4 4.9-1.4 1.2 0 2.7.3 4.2.8l-1.3 8.7zm30.8 25c-1.4 1.1-3.2 1.8-5.3 2.4-2 .6-4.1.9-6.3.9-2.9 0-5.3-.5-7.3-1.4-2-.9-3.6-2.2-4.8-3.8-1.2-1.7-2.2-3.7-2.7-6-.5-2.4-.8-4.9-.8-7.8 0-6.1 1.4-10.8 4.1-14 2.7-3.3 6.7-5 12-5 2.6 0 4.8.2 6.3.6 1.6.4 3.1 1 4.4 1.7l-2.2 7.6c-1.1-.5-2.2-.9-3.3-1.2-1.1-.3-2.3-.4-3.7-.4-2.6 0-4.6.9-5.9 2.6-1.3 1.7-2 4.4-2 8.1 0 1.5.2 3 .5 4.2.3 1.3.8 2.4 1.5 3.4s1.5 1.7 2.6 2.3c1.1.5 2.4.8 3.8.8 1.6 0 2.9-.2 4-.6 1.1-.4 2.1-.9 3-1.5l2.1 7.1zm33.3-.9c-1.4 1.2-3.4 2.1-5.9 3-2.4.8-5.1 1.2-7.8 1.2-5.8 0-10.1-1.7-12.7-5-2.7-3.4-4-8.1-4-14 0-6.3 1.5-11.1 4.5-14.3 3-3.2 7.3-4.8 12.7-4.8 1.8 0 3.6.2 5.3.7s3.3 1.3 4.6 2.4c1.3 1.1 2.4 2.6 3.2 4.5.8 1.9 1.2 4.2 1.2 7 0 1-.1 2.1-.2 3.2-.1 1.2-.3 2.4-.5 3.6h-21.6c.1 3 .9 5.3 2.3 6.8s3.7 2.3 6.9 2.3c2 0 3.7-.3 5.3-.9 1.6-.6 2.8-1.2 3.6-1.9l3.1 6.2zm-13.4-26.4c-2.4 0-4.3.7-5.5 2.2-1.2 1.4-1.8 3.4-2.1 5.8h13.4c.2-2.6-.2-4.6-1.2-6-1-1.3-2.5-2-4.6-2zM342.6 66c0 5.2-1.4 9.1-4.2 11.5-2.8 2.5-6.8 3.7-11.9 3.7-3.5 0-6.2-.2-8.2-.7-2-.5-3.5-1-4.5-1.5l1.9-7.4c1.1.4 2.4.9 3.8 1.3 1.5.4 3.3.6 5.5.6 3.3 0 5.5-.7 6.6-2.2 1.2-1.4 1.8-3.4 1.8-5.9v-2.3h-.3c-1.7 2.3-4.7 3.4-8.9 3.4-4.7 0-8.1-1.4-10.4-4.3-2.3-2.9-3.4-7.4-3.4-13.5 0-6.4 1.5-11.3 4.6-14.6 3.1-3.3 7.5-5 13.4-5 3.1 0 5.8.2 8.2.6 2.4.4 4.4.9 6 1.5V66zm-15.9-6.9c1.8 0 3.2-.4 4.2-1.2 1-.8 1.8-2 2.3-3.7V38c-1.5-.6-3.3-.9-5.5-.9-2.4 0-4.3.9-5.6 2.7-1.3 1.8-2 4.6-2 8.6 0 3.5.6 6.2 1.7 8 1.1 1.8 2.8 2.7 4.9 2.7zm43.9-20.3c-1.5-.5-2.8-.8-4-.8-1.7 0-3.1.5-4.2 1.4-1.1.9-1.8 2-2.2 3.4V66h-9.4V30h7.3l1.1 4.8h.3c.8-1.8 1.9-3.1 3.3-4.1 1.4-1 3-1.4 4.9-1.4 1.2 0 2.7.3 4.2.8l-1.3 8.7zm5.1-6.7c1.9-.9 4.2-1.5 6.8-2 2.6-.5 5.4-.8 8.3-.8 2.5 0 4.6.3 6.3.9 1.7.6 3 1.4 4 2.5s1.7 2.4 2.1 4c.4 1.5.6 3.3.6 5.2 0 2.1-.1 4.2-.2 6.4l-.3 6.3c0 2.1.1 4.1.2 6 .1 1.9.5 3.7 1.1 5.5H397l-1.5-5h-.4c-1 1.5-2.3 2.8-4 3.9-1.7 1.1-3.9 1.6-6.6 1.6-1.7 0-3.2-.2-4.5-.7-1.3-.5-2.5-1.2-3.5-2.2-1-1-1.7-2.1-2.2-3.3-.5-1.3-.8-2.7-.8-4.3 0-2.2.5-4.1 1.4-5.5 1-1.5 2.4-2.8 4.2-3.7 1.9-1 4.1-1.6 6.6-1.9 2.6-.4 5.5-.5 8.6-.4.3-2.7.1-4.6-.6-5.8-.7-1.2-2.3-1.8-4.8-1.8-1.9 0-3.9.2-6 .6-2.1.4-3.8.9-5.1 1.5l-2.1-7zm11.9 26.8c1.9 0 3.4-.4 4.5-1.2 1.1-.9 1.9-1.8 2.4-2.7v-4.7c-1.5-.1-2.9-.2-4.3-.1-1.3.1-2.5.3-3.6.6s-1.9.8-2.5 1.4c-.6.6-.9 1.4-.9 2.4 0 1.3.4 2.4 1.2 3.2.7.7 1.8 1.1 3.2 1.1zM411.7 30h6.8l1.1 4.3h.3c1.2-1.8 2.7-3.2 4.4-4 1.7-.9 3.8-1.3 6.3-1.3 4.5 0 7.9 1.4 10.2 4.3 2.3 2.8 3.4 7.4 3.4 13.8 0 3.1-.4 5.9-1.1 8.4-.7 2.4-1.8 4.5-3.2 6.3-1.4 1.7-3.1 3-5.2 4-2 .9-4.3 1.4-7 1.4-1.5 0-2.7-.1-3.7-.4-1-.2-1.9-.5-2.9-1v14.8h-9.4V30zm16 6.9c-1.8 0-3.3.5-4.3 1.4-1 .9-1.8 2.3-2.4 4.1v15c.7.5 1.4 1 2.2 1.3.8.3 1.9.4 3.2.4 2.7 0 4.7-.9 6-2.8 1.3-1.9 2-5.1 2-9.4 0-3.2-.5-5.6-1.6-7.3-1-1.8-2.7-2.7-5.1-2.7zM472.6 66V45.6c0-2.9-.4-5-1.2-6.3s-2.3-1.9-4.5-1.9c-1.6 0-3 .6-4.4 1.7-1.3 1.1-2.2 2.4-2.6 4.1v23h-9.4V15.6h9.4V34h.3c1.2-1.5 2.6-2.8 4.2-3.7 1.7-.9 3.8-1.4 6.4-1.4 1.8 0 3.4.2 4.8.7s2.5 1.3 3.5 2.4c1 1.1 1.7 2.6 2.1 4.5.5 1.9.7 4.2.7 7V66h-9.3z" style="fill:#f2f4f8"/>
  </g>
</svg>
