<svg xmlns="http://www.w3.org/2000/svg" width="1200" height="630" viewBox="0 0 1200 630">
  <defs>
    <style>
      @font-face {
        font-family: 'Source Sans Pro';
        font-style: normal;
        font-weight: 400;
        font-display: swap;
        src: url('/fonts/SourceSansPro-Regular.otf') format('truetype');
      }

      .bg {
        fill: #2A2A2A;
      }

      .logo {
        fill: #f56e0f;
        stroke: #fff;
        stroke-width: 3;
      }

      .scissors {
        fill-rule: evenodd;
        clip-rule: evenodd;
        fill: #fff;
        fill-opacity: 0.8;
      }

      .text {
        fill: #ededed;
      }

      .dot {
        fill: #f56e0f;
      }

      text {
        font-family: 'Source Sans Pro';
      }
    </style>
  </defs>
  <g>
    <path class="bg" d="M0 0H1200V630H0V0Z" />
    <path class="logo" d="M109.234 71H236.766C257.882 71 275 88.1179 275 109.234V236.766C275 257.882 257.882 275 236.766 275H109.234C88.1179 275 71 257.882 71 236.766V109.234C71 88.1179 88.1179 71 109.234 71Z" />
    <path class="scissors" d="M191.926 109.926C200.819 97.0394 211.096 91.1877 222.495 91.9723L174.421 175.802C173.268 179.041 171.14 181.843 168.329 183.823C165.72 185.536 164.304 185.332 161.714 186.26C159.388 187.032 157.461 188.69 156.351 190.874L155.459 193.719C154.657 196.259 153.393 198.798 155.283 201.275C156.53 202.905 158.895 203.51 162.023 203.402C164.737 203.954 167.306 205.069 169.563 206.673C171.879 208.392 173.852 210.53 175.381 212.975C179.841 221.632 180.139 231.179 173.885 242.171C167 255.126 157.421 259.617 146.414 259.454C139.281 258.495 134.39 255.216 131.368 250.029C126.726 242.059 126.801 233.459 129.818 225.023C132.055 219.34 134.834 213.887 138.118 208.739L146.603 187.473L147.433 188.257L191.926 109.926ZM234.782 183.505C250.379 182.128 260.539 176.076 265.481 165.774L185.616 166.151L175.43 183.548L234.782 183.505ZM150.175 174.077C149.101 174.423 147.973 174.575 146.844 174.527L143.93 173.899C141.325 173.343 138.493 173.19 137.27 170.323C136.462 168.424 137.103 166.068 138.746 163.412C139.595 160.756 139.876 157.951 139.571 155.179C139.223 152.338 138.349 149.586 136.992 147.066C131.663 138.914 123.5 133.934 110.859 133.962C96.2679 133.635 87.6033 139.696 82.3143 149.35C79.5809 155.996 80.0453 161.912 83.0471 167.066C87.6569 174.981 95.2066 179.215 104.027 180.742C110.072 181.605 116.187 181.878 122.286 181.556L144.294 184.584L144.735 183.805L144.685 183.566L144.871 183.577L150.175 174.077ZM129.21 162.243C131.909 156.869 129.566 151.823 125.305 148.193C121.892 145.276 117.301 143.716 111.659 143.499C105.976 143.314 100.376 144.894 95.6279 148.021C86.7321 154.35 89.8712 163.733 98.1938 168.68C102.032 170.913 106.456 171.933 110.884 171.604C114.308 171.438 117.68 170.707 120.866 169.443C124.428 168.137 127.395 165.582 129.216 162.254L129.21 162.243ZM168.659 173.076C169.119 173.865 169.334 174.772 169.277 175.683C169.221 176.594 168.895 177.467 168.342 178.193C167.788 178.919 167.032 179.464 166.169 179.76C165.305 180.056 164.373 180.089 163.491 179.855C162.609 179.62 161.816 179.13 161.213 178.445C160.61 177.76 160.224 176.912 160.103 176.007C159.982 175.102 160.133 174.182 160.535 173.363C160.938 172.544 161.574 171.863 162.364 171.406C162.887 171.101 163.465 170.903 164.064 170.822C164.664 170.741 165.274 170.779 165.858 170.934C166.443 171.09 166.992 171.359 167.472 171.726C167.953 172.094 168.356 172.552 168.659 173.076ZM158.34 212.256C164.345 212.56 167.572 217.076 168.627 222.573C169.487 226.992 168.572 231.744 166.01 236.814C163.34 241.825 159.192 245.892 154.128 248.46C144.228 253.064 137.616 245.705 137.419 236.025C137.368 231.587 138.666 227.238 141.143 223.555C142.972 220.656 145.272 218.082 147.947 215.939C150.844 213.487 154.532 212.171 158.327 212.234L158.34 212.256Z" />
    <path class="text" d="M804 69.6716H812.909L813.356 110.939H813.714L834.786 89.4001H844.799L812.909 121.486V133.133H804V69.6716ZM821.174 110.811L826.445 105.109L847.783 133.138H837.093L821.171 110.814L821.174 110.811Z" />
    <path class="text" d="M851.861 89.3978H859.145L859.853 96.3708H860.211C864.588 91.8773 869.562 88.3237 876.307 88.3237C886.523 88.3237 891.18 94.6119 891.18 106.002V133.136H882.271V107.173C882.271 99.5396 879.709 96.0083 873.231 96.0083C868.478 96.0083 865.274 98.3535 860.768 102.977V133.138H851.859V89.3978H851.861Z" />
    <path class="text" d="M916.055 96.5163H896.521V89.3978H924.964V133.136H916.055V96.5163Z" />
    <path class="text" d="M937.259 89.3978H944.543L945.252 94.6791H945.535C949.443 90.98 954.949 88.3237 960.091 88.3237C971.638 88.3237 978.014 97.0556 978.014 110.623C978.014 125.509 968.714 134.21 958.385 134.21C954.395 134.21 949.687 132.234 945.954 128.788H945.741L946.166 136.754V151H937.257V89.3978H937.259ZM968.895 110.657C968.895 101.498 965.568 95.7599 957.697 95.7599C954.12 95.7599 950.132 97.5278 946.168 101.603V122.296C949.792 125.581 953.901 126.774 956.684 126.774C963.639 126.774 968.895 120.998 968.895 110.657Z" />
    <path class="text" d="M1006.03 111.339C1006.03 97.0959 1015.4 88.3237 1025.52 88.3237C1030.62 88.3237 1034.46 90.2997 1038.09 93.672H1038.3L1037.88 85.9897V69.6716H1046.78V133.136H1039.5L1038.79 127.707H1038.51C1035.01 131.26 1029.98 134.21 1024.79 134.21C1013.51 134.21 1006.03 125.84 1006.03 111.339H1006.03ZM1037.88 120.931V100.238C1034.34 96.9526 1030.99 95.7599 1027.54 95.7599C1020.73 95.7599 1015.15 101.681 1015.15 111.234C1015.15 120.787 1019.56 126.774 1026.85 126.774C1030.81 126.774 1034.43 124.892 1037.88 120.931H1037.88Z" />
    <path class="text" d="M1051.45 111.194C1051.45 96.9504 1062.17 88.3237 1073.86 88.3237C1086.68 88.3237 1093.98 96.7535 1093.98 108.965C1093.98 110.849 1093.75 112.662 1093.57 113.808H1057.62V107.278H1088.03L1086.1 109.453C1086.1 99.9782 1081.52 95.2273 1074.11 95.2273C1066.7 95.2273 1060.19 100.88 1060.19 111.192C1060.19 121.504 1066.92 127.23 1076.31 127.23C1081.2 127.23 1085.15 125.753 1089.08 123.379L1092.2 129.014C1087.7 131.979 1081.89 134.205 1075.19 134.205C1061.93 134.205 1051.46 125.758 1051.46 111.19L1051.45 111.194Z" />
    <path class="text" d="M1094.42 89.3978H1103.48L1112.71 113.06C1114.34 117.462 1115.85 121.826 1117.32 126.151H1117.68C1119.15 121.828 1120.51 117.464 1122.21 113.06L1131.44 89.3978H1140L1122.4 133.133H1112.33L1094.42 89.3978Z" />
    <path class="dot" d="M985.539 127.72C985.539 123.974 988.342 121.231 992.022 121.231C995.701 121.231 998.505 123.974 998.505 127.72C998.505 131.466 995.701 134.21 992.022 134.21C988.342 134.21 985.539 131.536 985.539 127.72Z" />
    <path class="dot" d="M913.308 74.5075C913.308 70.654 916.046 68 919.791 68C923.535 68 926.274 70.654 926.274 74.5075C926.274 78.361 923.533 80.9792 919.791 80.9792C916.048 80.9792 913.308 78.4349 913.308 74.5075Z" />
    <!-- titleText -->
  </g>
</svg>
