<svg xmlns="http://www.w3.org/2000/svg" viewBox="0 0 500 500">
  <symbol id="rss" viewBox="0 0 461.432 461.432">
    <title>knip</title>
    <rect fill="#fff" x="0" y="0" width="424.14" height="424.14" rx="80.78" ry="80.78"/>
    <path fill="#000" d="m231.46,369.24c67.48-.78,64.82-94.87-.97-94.16"/>
    <line x1="213.07" y1="44.26" x2="216.54" y2="379.36"/>
    <line x1="343.44" y1="94.58" x2="104.02" y2="329.07"/>
    <path d="m167.97,245.42c-47.28-48.16-113.33,18.91-67.28,65.89"/>
  </symbol>
  <symbol id="replies" viewBox="0 0 24 24">
    <title>replies</title>
    <g>
      <path d="M1.751 10c0-4.42 3.584-8 8.005-8h4.366c4.49 0 8.129 3.64 8.129 8.13 0
  2.96-1.607 5.68-4.196 7.11l-8.054 4.46v-3.69h-.067c-4.49.1-8.183-3.51-8.183-8.01zm8.005-6c-3.317 0-6.005 2.69-6.005 6
  0 3.37 2.77 6.08 6.138 6.01l.351-.01h1.761v2.3l5.087-2.81c1.951-1.08 3.163-3.13 3.163-5.36
  0-3.39-2.744-6.13-6.129-6.13H9.756z"></path>
    </g>
  </symbol>
  <symbol id="reposts" viewBox="0 0 24 24">
    <title>reposts</title>
    <g>
      <path d="M4.75 3.79l4.603 4.3-1.706 1.82L6 8.38v7.37c0 .97.784 1.75 1.75 1.75H13V20H7.75c-2.347 0-4.25-1.9-4.25-4.25V8.38L1.853 9.91.147 8.09l4.603-4.3zm11.5 2.71H11V4h5.25c2.347 0 4.25 1.9 4.25 4.25v7.37l1.647-1.53 1.706 1.82-4.603 4.3-4.603-4.3 1.706-1.82L18 15.62V8.25c0-.97-.784-1.75-1.75-1.75z"></path>
    </g>
  </symbol>
  <symbol id="likes" viewBox="0 0 24 24">
    <title>likes</title>
    <g>
      <path d="M20.884 13.19c-1.351 2.48-4.001 5.12-8.379 7.67l-.503.3-.504-.3c-4.379-2.55-7.029-5.19-8.382-7.67-1.36-2.5-1.41-4.86-.514-6.67.887-1.79 2.647-2.91 4.601-3.01 1.651-.09 3.368.56 4.798 2.01 1.429-1.45 3.146-2.1 4.796-2.01 1.954.1 3.714 1.22 4.601 3.01.896 1.81.846 4.17-.514 6.67z"></path>
    </g>
  </symbol>
  <symbol id="bookmarks" viewBox="0 0 24 24">
    <title>bookmarks</title>
    <g>
      <path d="M4 4.5C4 3.12 5.119 2 6.5 2h11C18.881 2 20 3.12 20 4.5v18.44l-8-5.71-8 5.71V4.5zM6.5 4c-.276 0-.5.22-.5.5v14.56l6-4.29 6 4.29V4.5c0-.28-.224-.5-.5-.5h-11z"></path>
    </g>
  </symbol>
</svg>
