<?xml version="1.0" encoding="UTF-8"?>
<svg id="Layer_2" data-name="Layer 2"
  xmlns="http://www.w3.org/2000/svg" viewBox="0 0 1502.98 370.9">
  <defs>
    <style>
      .cls-1 {
        fill: #ededed;
      }

      .cls-1, .cls-2 {
        stroke-width: 0px;
      }

      .cls-2 {
        fill: #f56e0f;
      }
    </style>
  </defs>
  <g id="Layer_1-2" data-name="Layer 1">
    <g>
      <path class="cls-1" d="m0,7.47h39.85l2,184.41h1.6l94.26-96.25h44.79L39.85,239.01v52.05H0V7.47Zm76.82,183.84l23.58-25.48,95.45,125.25h-47.82l-71.22-99.76Z"/>
      <path class="cls-1" d="m214.09,95.62h32.58l3.17,31.16h1.6c19.58-20.08,41.83-35.96,72-35.96,45.7,0,66.53,28.1,66.53,79v121.25h-39.85v-116.02c0-34.11-11.46-49.89-40.44-49.89-21.26,0-35.59,10.48-55.75,31.14v134.78h-39.85V95.62Z"/>
      <polygon class="cls-1" points="501.24 127.43 413.86 127.43 413.86 95.62 541.09 95.62 541.09 291.07 501.24 291.07 501.24 127.43"/>
      <path class="cls-2" d="m488.95,29.08c0-17.22,12.25-29.08,29-29.08s29,11.86,29,29.08-12.26,28.92-29,28.92-29-11.37-29-28.92Z"/>
      <path class="cls-1" d="m596.09,95.62h32.58l3.17,23.6h1.27c17.48-16.53,42.11-28.4,65.11-28.4,51.65,0,80.17,39.02,80.17,99.65,0,66.52-41.6,105.4-87.8,105.4-17.85,0-38.91-8.83-55.61-24.23h-.95l1.9,35.6v63.66h-39.85V95.62Zm141.51,95c0-40.93-14.88-66.57-50.09-66.57-16,0-33.84,7.9-51.57,26.11v92.47c16.21,14.68,34.59,20.01,47.04,20.01,31.11,0,54.62-25.81,54.62-72.02Z"/>
      <path class="cls-2" d="m812.05,266.87c0-16.74,12.54-29,29-29s29,12.26,29,29-12.54,29-29,29-29-11.95-29-29Z"/>
      <path class="cls-1" d="m903.7,193.67c0-63.65,41.92-102.85,87.18-102.85,22.83,0,40,8.83,56.23,23.9h.95l-1.9-34.33V7.47h39.85v283.6h-32.58l-3.17-24.26h-1.27c-15.63,15.88-38.15,29.06-61.36,29.06-50.47,0-83.92-37.4-83.92-102.2Zm142.46,42.86v-92.47c-15.81-14.68-30.79-20.01-46.24-20.01-30.46,0-55.42,26.46-55.42,69.15s19.73,69.44,52.35,69.44c17.71,0,33.91-8.41,49.32-26.11Z"/>
      <path class="cls-1" d="m1106.9,193.02c0-63.65,47.95-102.2,100.24-102.2,57.34,0,89.99,37.67,89.99,92.24,0,8.42-1.02,16.52-1.82,21.64h-160.81v-29.18h135.99l-8.62,9.72c0-42.34-20.49-63.57-53.62-63.57s-62.27,25.26-62.27,71.34,30.11,71.67,72.12,71.67c21.86,0,39.51-6.6,57.11-17.21l13.94,25.18c-20.1,13.25-46.09,23.2-76.09,23.2-59.29,0-106.14-37.75-106.14-102.85Z"/>
      <path class="cls-1" d="m1299.1,95.62h40.5l41.29,105.74c7.3,19.67,14.05,39.17,20.63,58.5h1.6c6.58-19.32,12.68-38.82,20.3-58.5l41.29-105.74h38.27l-78.71,195.44h-45.04l-80.13-195.44Z"/>
    </g>
  </g>
</svg>
