<svg xmlns="http://www.w3.org/2000/svg" class="venz-chart" role="img" viewBox="-0 -0 928 384"><title>New labeled data series (5/7 15:43)</title><g transform="translate(60,30)"><style>
      .tooltip {
        opacity: 0;
        pointer-events: none;
        transition: opacity 0.2s ease-in-out;
      }
      .tooltip-bg {
        opacity: 0;
        pointer-events: none;
        transition: opacity 0.2s ease-in-out;
      }
      .hit-area:hover + .visible-dot + .tooltip-group &gt; .tooltip-bg,
      .hit-area:hover + .visible-dot + .tooltip-group &gt; .tooltip {
        opacity: 1;
      }
    </style><g class="grid" style="stroke: currentcolor; opacity: 0.2;" fill="none" font-size="10" font-family="sans-serif" text-anchor="end"><path class="domain" stroke="currentColor" d="M868,294H0V0H868"/><g class="tick" opacity="1" transform="translate(0,294)"><line stroke="currentColor" x2="868"/><text fill="currentColor" x="-3" dy="0.32em"/></g><g class="tick" opacity="1" transform="translate(0,273)"><line stroke="currentColor" x2="868"/><text fill="currentColor" x="-3" dy="0.32em"/></g><g class="tick" opacity="1" transform="translate(0,252.00000000000003)"><line stroke="currentColor" x2="868"/><text fill="currentColor" x="-3" dy="0.32em"/></g><g class="tick" opacity="1" transform="translate(0,231)"><line stroke="currentColor" x2="868"/><text fill="currentColor" x="-3" dy="0.32em"/></g><g class="tick" opacity="1" transform="translate(0,210)"><line stroke="currentColor" x2="868"/><text fill="currentColor" x="-3" dy="0.32em"/></g><g class="tick" opacity="1" transform="translate(0,188.99999999999997)"><line stroke="currentColor" x2="868"/><text fill="currentColor" x="-3" dy="0.32em"/></g><g class="tick" opacity="1" transform="translate(0,168)"><line stroke="currentColor" x2="868"/><text fill="currentColor" x="-3" dy="0.32em"/></g><g class="tick" opacity="1" transform="translate(0,147)"><line stroke="currentColor" x2="868"/><text fill="currentColor" x="-3" dy="0.32em"/></g><g class="tick" opacity="1" transform="translate(0,126.00000000000001)"><line stroke="currentColor" x2="868"/><text fill="currentColor" x="-3" dy="0.32em"/></g><g class="tick" opacity="1" transform="translate(0,104.99999999999999)"><line stroke="currentColor" x2="868"/><text fill="currentColor" x="-3" dy="0.32em"/></g><g class="tick" opacity="1" transform="translate(0,84)"><line stroke="currentColor" x2="868"/><text fill="currentColor" x="-3" dy="0.32em"/></g><g class="tick" opacity="1" transform="translate(0,63.00000000000001)"><line stroke="currentColor" x2="868"/><text fill="currentColor" x="-3" dy="0.32em"/></g><g class="tick" opacity="1" transform="translate(0,42.000000000000014)"><line stroke="currentColor" x2="868"/><text fill="currentColor" x="-3" dy="0.32em"/></g><g class="tick" opacity="1" transform="translate(0,20.99999999999999)"><line stroke="currentColor" x2="868"/><text fill="currentColor" x="-3" dy="0.32em"/></g><g class="tick" opacity="1" transform="translate(0,0)"><line stroke="currentColor" x2="868"/><text fill="currentColor" x="-3" dy="0.32em"/></g></g><g class="grid" transform="translate(0, 294)" style="stroke: currentcolor; opacity: 0.2;" fill="none" font-size="10" font-family="sans-serif" text-anchor="middle"><path class="domain" stroke="currentColor" d="M0,-294V0H868V-294"/><g class="tick" opacity="1" transform="translate(0,0)"><line stroke="currentColor" y2="-294"/><text fill="currentColor" y="3" dy="0.71em"/></g><g class="tick" opacity="1" transform="translate(51.05882352941177,0)"><line stroke="currentColor" y2="-294"/><text fill="currentColor" y="3" dy="0.71em"/></g><g class="tick" opacity="1" transform="translate(102.11764705882354,0)"><line stroke="currentColor" y2="-294"/><text fill="currentColor" y="3" dy="0.71em"/></g><g class="tick" opacity="1" transform="translate(153.1764705882353,0)"><line stroke="currentColor" y2="-294"/><text fill="currentColor" y="3" dy="0.71em"/></g><g class="tick" opacity="1" transform="translate(204.23529411764707,0)"><line stroke="currentColor" y2="-294"/><text fill="currentColor" y="3" dy="0.71em"/></g><g class="tick" opacity="1" transform="translate(255.29411764705884,0)"><line stroke="currentColor" y2="-294"/><text fill="currentColor" y="3" dy="0.71em"/></g><g class="tick" opacity="1" transform="translate(306.3529411764706,0)"><line stroke="currentColor" y2="-294"/><text fill="currentColor" y="3" dy="0.71em"/></g><g class="tick" opacity="1" transform="translate(357.4117647058824,0)"><line stroke="currentColor" y2="-294"/><text fill="currentColor" y="3" dy="0.71em"/></g><g class="tick" opacity="1" transform="translate(408.47058823529414,0)"><line stroke="currentColor" y2="-294"/><text fill="currentColor" y="3" dy="0.71em"/></g><g class="tick" opacity="1" transform="translate(459.5294117647059,0)"><line stroke="currentColor" y2="-294"/><text fill="currentColor" y="3" dy="0.71em"/></g><g class="tick" opacity="1" transform="translate(510.5882352941177,0)"><line stroke="currentColor" y2="-294"/><text fill="currentColor" y="3" dy="0.71em"/></g><g class="tick" opacity="1" transform="translate(561.6470588235295,0)"><line stroke="currentColor" y2="-294"/><text fill="currentColor" y="3" dy="0.71em"/></g><g class="tick" opacity="1" transform="translate(612.7058823529412,0)"><line stroke="currentColor" y2="-294"/><text fill="currentColor" y="3" dy="0.71em"/></g><g class="tick" opacity="1" transform="translate(663.7647058823529,0)"><line stroke="currentColor" y2="-294"/><text fill="currentColor" y="3" dy="0.71em"/></g><g class="tick" opacity="1" transform="translate(714.8235294117648,0)"><line stroke="currentColor" y2="-294"/><text fill="currentColor" y="3" dy="0.71em"/></g><g class="tick" opacity="1" transform="translate(765.8823529411766,0)"><line stroke="currentColor" y2="-294"/><text fill="currentColor" y="3" dy="0.71em"/></g><g class="tick" opacity="1" transform="translate(816.9411764705883,0)"><line stroke="currentColor" y2="-294"/><text fill="currentColor" y="3" dy="0.71em"/></g><g class="tick" opacity="1" transform="translate(868,0)"><line stroke="currentColor" y2="-294"/><text fill="currentColor" y="3" dy="0.71em"/></g></g><g fill="none" font-size="10" font-family="sans-serif" text-anchor="end"><path class="domain" stroke="currentColor" d="M-6,294H0V0H-6"/><g class="tick" opacity="1" transform="translate(0,294)"><line stroke="currentColor" x2="-6"/><text fill="currentColor" x="-9" dy="0.32em" style="fill: currentcolor;">0</text></g><g class="tick" opacity="1" transform="translate(0,273)"><line stroke="currentColor" x2="-6"/><text fill="currentColor" x="-9" dy="0.32em" style="fill: currentcolor;">200</text></g><g class="tick" opacity="1" transform="translate(0,252.00000000000003)"><line stroke="currentColor" x2="-6"/><text fill="currentColor" x="-9" dy="0.32em" style="fill: currentcolor;">400</text></g><g class="tick" opacity="1" transform="translate(0,231)"><line stroke="currentColor" x2="-6"/><text fill="currentColor" x="-9" dy="0.32em" style="fill: currentcolor;">600</text></g><g class="tick" opacity="1" transform="translate(0,210)"><line stroke="currentColor" x2="-6"/><text fill="currentColor" x="-9" dy="0.32em" style="fill: currentcolor;">800</text></g><g class="tick" opacity="1" transform="translate(0,188.99999999999997)"><line stroke="currentColor" x2="-6"/><text fill="currentColor" x="-9" dy="0.32em" style="fill: currentcolor;">1,000</text></g><g class="tick" opacity="1" transform="translate(0,168)"><line stroke="currentColor" x2="-6"/><text fill="currentColor" x="-9" dy="0.32em" style="fill: currentcolor;">1,200</text></g><g class="tick" opacity="1" transform="translate(0,147)"><line stroke="currentColor" x2="-6"/><text fill="currentColor" x="-9" dy="0.32em" style="fill: currentcolor;">1,400</text></g><g class="tick" opacity="1" transform="translate(0,126.00000000000001)"><line stroke="currentColor" x2="-6"/><text fill="currentColor" x="-9" dy="0.32em" style="fill: currentcolor;">1,600</text></g><g class="tick" opacity="1" transform="translate(0,104.99999999999999)"><line stroke="currentColor" x2="-6"/><text fill="currentColor" x="-9" dy="0.32em" style="fill: currentcolor;">1,800</text></g><g class="tick" opacity="1" transform="translate(0,84)"><line stroke="currentColor" x2="-6"/><text fill="currentColor" x="-9" dy="0.32em" style="fill: currentcolor;">2,000</text></g><g class="tick" opacity="1" transform="translate(0,63.00000000000001)"><line stroke="currentColor" x2="-6"/><text fill="currentColor" x="-9" dy="0.32em" style="fill: currentcolor;">2,200</text></g><g class="tick" opacity="1" transform="translate(0,42.000000000000014)"><line stroke="currentColor" x2="-6"/><text fill="currentColor" x="-9" dy="0.32em" style="fill: currentcolor;">2,400</text></g><g class="tick" opacity="1" transform="translate(0,20.99999999999999)"><line stroke="currentColor" x2="-6"/><text fill="currentColor" x="-9" dy="0.32em" style="fill: currentcolor;">2,600</text></g><g class="tick" opacity="1" transform="translate(0,0)"><line stroke="currentColor" x2="-6"/><text fill="currentColor" x="-9" dy="0.32em" style="fill: currentcolor;">2,800</text></g></g><g transform="translate(0,294)" fill="none" font-size="10" font-family="sans-serif" text-anchor="middle"><path class="domain" stroke="currentColor" d="M0,6V0H868V6"/><g class="tick" opacity="1" transform="translate(0,0)"><line stroke="currentColor" y2="6"/><text fill="currentColor" y="9" dy=".1em" transform="rotate(-45)" text-anchor="end" dx="-.8em" style="fill: currentcolor;">2023-11</text></g><g class="tick" opacity="1" transform="translate(51.05882352941177,0)"><line stroke="currentColor" y2="6"/><text fill="currentColor" y="9" dy=".1em" transform="rotate(-45)" text-anchor="end" dx="-.8em" style="fill: currentcolor;">2023-12</text></g><g class="tick" opacity="1" transform="translate(102.11764705882354,0)"><line stroke="currentColor" y2="6"/><text fill="currentColor" y="9" dy=".1em" transform="rotate(-45)" text-anchor="end" dx="-.8em" style="fill: currentcolor;">2024-01</text></g><g class="tick" opacity="1" transform="translate(153.1764705882353,0)"><line stroke="currentColor" y2="6"/><text fill="currentColor" y="9" dy=".1em" transform="rotate(-45)" text-anchor="end" dx="-.8em" style="fill: currentcolor;">2024-02</text></g><g class="tick" opacity="1" transform="translate(204.23529411764707,0)"><line stroke="currentColor" y2="6"/><text fill="currentColor" y="9" dy=".1em" transform="rotate(-45)" text-anchor="end" dx="-.8em" style="fill: currentcolor;">2024-03</text></g><g class="tick" opacity="1" transform="translate(255.29411764705884,0)"><line stroke="currentColor" y2="6"/><text fill="currentColor" y="9" dy=".1em" transform="rotate(-45)" text-anchor="end" dx="-.8em" style="fill: currentcolor;">2024-04</text></g><g class="tick" opacity="1" transform="translate(306.3529411764706,0)"><line stroke="currentColor" y2="6"/><text fill="currentColor" y="9" dy=".1em" transform="rotate(-45)" text-anchor="end" dx="-.8em" style="fill: currentcolor;">2024-05</text></g><g class="tick" opacity="1" transform="translate(357.4117647058824,0)"><line stroke="currentColor" y2="6"/><text fill="currentColor" y="9" dy=".1em" transform="rotate(-45)" text-anchor="end" dx="-.8em" style="fill: currentcolor;">2024-06</text></g><g class="tick" opacity="1" transform="translate(408.47058823529414,0)"><line stroke="currentColor" y2="6"/><text fill="currentColor" y="9" dy=".1em" transform="rotate(-45)" text-anchor="end" dx="-.8em" style="fill: currentcolor;">2024-07</text></g><g class="tick" opacity="1" transform="translate(459.5294117647059,0)"><line stroke="currentColor" y2="6"/><text fill="currentColor" y="9" dy=".1em" transform="rotate(-45)" text-anchor="end" dx="-.8em" style="fill: currentcolor;">2024-08</text></g><g class="tick" opacity="1" transform="translate(510.5882352941177,0)"><line stroke="currentColor" y2="6"/><text fill="currentColor" y="9" dy=".1em" transform="rotate(-45)" text-anchor="end" dx="-.8em" style="fill: currentcolor;">2024-09</text></g><g class="tick" opacity="1" transform="translate(561.6470588235295,0)"><line stroke="currentColor" y2="6"/><text fill="currentColor" y="9" dy=".1em" transform="rotate(-45)" text-anchor="end" dx="-.8em" style="fill: currentcolor;">2024-10</text></g><g class="tick" opacity="1" transform="translate(612.7058823529412,0)"><line stroke="currentColor" y2="6"/><text fill="currentColor" y="9" dy=".1em" transform="rotate(-45)" text-anchor="end" dx="-.8em" style="fill: currentcolor;">2024-11</text></g><g class="tick" opacity="1" transform="translate(663.7647058823529,0)"><line stroke="currentColor" y2="6"/><text fill="currentColor" y="9" dy=".1em" transform="rotate(-45)" text-anchor="end" dx="-.8em" style="fill: currentcolor;">2024-12</text></g><g class="tick" opacity="1" transform="translate(714.8235294117648,0)"><line stroke="currentColor" y2="6"/><text fill="currentColor" y="9" dy=".1em" transform="rotate(-45)" text-anchor="end" dx="-.8em" style="fill: currentcolor;">2025-01</text></g><g class="tick" opacity="1" transform="translate(765.8823529411766,0)"><line stroke="currentColor" y2="6"/><text fill="currentColor" y="9" dy=".1em" transform="rotate(-45)" text-anchor="end" dx="-.8em" style="fill: currentcolor;">2025-02</text></g><g class="tick" opacity="1" transform="translate(816.9411764705883,0)"><line stroke="currentColor" y2="6"/><text fill="currentColor" y="9" dy=".1em" transform="rotate(-45)" text-anchor="end" dx="-.8em" style="fill: currentcolor;">2025-03</text></g><g class="tick" opacity="1" transform="translate(868,0)"><line stroke="currentColor" y2="6"/><text fill="currentColor" y="9" dy=".1em" transform="rotate(-45)" text-anchor="end" dx="-.8em" style="fill: currentcolor;">2025-04</text></g></g><text x="434" y="349" text-anchor="middle" style="fill: currentcolor; font-family: sans-serif;">month</text><text x="-147" y="-45" transform="rotate(-90)" text-anchor="middle" style="fill: currentcolor; font-family: sans-serif;">amount ($)</text><g class="legend" transform="translate(824.5999999999999, 20)"><g transform="translate(0, 0)"><text x="0" y="10" style="fill: rgb(251, 251, 251); font-family: sans-serif;" text-anchor="end">GitHub Sponsors</text><circle cx="20" cy="6" r="4" style="fill: rgb(251, 251, 251);"/></g><g transform="translate(0, 25)"><text x="0" y="10" style="fill: rgb(36, 135, 255); font-family: sans-serif;" text-anchor="end">OpenCollective</text><circle cx="20" cy="6" r="4" style="fill: rgb(36, 135, 255);"/></g></g><path class="line" fill="none" stroke="#fbfbfb" stroke-width="2" d="M0,293.055C17.02,291.655,34.039,290.255,51.059,286.23C68.078,282.205,85.098,276.167,102.118,268.905C119.137,261.642,136.157,242.655,153.176,242.655C170.196,242.655,187.216,274.155,204.235,274.155C221.255,274.155,238.275,273.63,255.294,272.58C272.314,271.53,289.333,269.08,306.353,262.08C323.373,255.08,340.392,167.58,357.412,167.58C374.431,167.58,391.451,272.58,408.471,272.58C425.49,272.58,442.51,271.705,459.529,269.955C476.549,268.205,493.569,7.455,510.588,7.455C527.608,7.455,544.627,237.79,561.647,250.95C578.667,264.11,595.686,270.69,612.706,270.69C629.725,270.69,646.745,270.69,663.765,270.69C680.784,270.69,697.804,258.09,714.824,258.09C731.843,258.09,748.863,266.84,765.882,268.38C782.902,269.92,799.922,270.69,816.941,270.69C833.961,270.69,850.98,270.69,868,270.69"/><g transform="translate(0,293.055)"><circle r="12" fill="transparent" class="hit-area"/><circle r="2" fill="#fbfbfb" class="visible-dot"/><g class="tooltip-group"><rect class="tooltip-bg" x="2" y="-25" width="23.640625" height="20" rx="4" fill="var(--background-rgb)" stroke="rgba(255, 255, 255, 0.2)"/><text class="tooltip" y="-10" x="10" text-anchor="start" style="font-size: 12px; fill: rgb(251, 251, 251);">9</text></g></g><g transform="translate(51.05882352941177,286.22999999999996)"><circle r="12" fill="transparent" class="hit-area"/><circle r="2" fill="#fbfbfb" class="visible-dot"/><g class="tooltip-group"><rect class="tooltip-bg" x="-14.92578125" y="-25" width="29.8515625" height="20" rx="4" fill="var(--background-rgb)" stroke="rgba(255, 255, 255, 0.2)"/><text class="tooltip" y="-10" x="0" text-anchor="middle" style="font-size: 12px; fill: rgb(251, 251, 251);">74</text></g></g><g transform="translate(102.11764705882354,268.905)"><circle r="12" fill="transparent" class="hit-area"/><circle r="2" fill="#fbfbfb" class="visible-dot"/><g class="tooltip-group"><rect class="tooltip-bg" x="-19.203125" y="-25" width="38.40625" height="20" rx="4" fill="var(--background-rgb)" stroke="rgba(255, 255, 255, 0.2)"/><text class="tooltip" y="-10" x="0" text-anchor="middle" style="font-size: 12px; fill: rgb(251, 251, 251);">239</text></g></g><g transform="translate(153.1764705882353,242.655)"><circle r="12" fill="transparent" class="hit-area"/><circle r="2" fill="#fbfbfb" class="visible-dot"/><g class="tooltip-group"><rect class="tooltip-bg" x="-19.515625" y="-25" width="39.03125" height="20" rx="4" fill="var(--background-rgb)" stroke="rgba(255, 255, 255, 0.2)"/><text class="tooltip" y="-10" x="0" text-anchor="middle" style="font-size: 12px; fill: rgb(251, 251, 251);">489</text></g></g><g transform="translate(204.23529411764707,274.155)"><circle r="12" fill="transparent" class="hit-area"/><circle r="2" fill="#fbfbfb" class="visible-dot"/><g class="tooltip-group"><rect class="tooltip-bg" x="-18.4375" y="-25" width="36.875" height="20" rx="4" fill="var(--background-rgb)" stroke="rgba(255, 255, 255, 0.2)"/><text class="tooltip" y="-10" x="0" text-anchor="middle" style="font-size: 12px; fill: rgb(251, 251, 251);">189</text></g></g><g transform="translate(255.29411764705884,272.58)"><circle r="12" fill="transparent" class="hit-area"/><circle r="2" fill="#fbfbfb" class="visible-dot"/><g class="tooltip-group"><rect class="tooltip-bg" x="-19.26171875" y="-25" width="38.5234375" height="20" rx="4" fill="var(--background-rgb)" stroke="rgba(255, 255, 255, 0.2)"/><text class="tooltip" y="-10" x="0" text-anchor="middle" style="font-size: 12px; fill: rgb(251, 251, 251);">204</text></g></g><g transform="translate(306.3529411764706,262.08)"><circle r="12" fill="transparent" class="hit-area"/><circle r="2" fill="#fbfbfb" class="visible-dot"/><g class="tooltip-group"><rect class="tooltip-bg" x="-19.40234375" y="-25" width="38.8046875" height="20" rx="4" fill="var(--background-rgb)" stroke="rgba(255, 255, 255, 0.2)"/><text class="tooltip" y="-10" x="0" text-anchor="middle" style="font-size: 12px; fill: rgb(251, 251, 251);">304</text></g></g><g transform="translate(357.4117647058824,167.58)"><circle r="12" fill="transparent" class="hit-area"/><circle r="2" fill="#fbfbfb" class="visible-dot"/><g class="tooltip-group"><rect class="tooltip-bg" x="-22.046875" y="-25" width="44.09375" height="20" rx="4" fill="var(--background-rgb)" stroke="rgba(255, 255, 255, 0.2)"/><text class="tooltip" y="-10" x="0" text-anchor="middle" style="font-size: 12px; fill: rgb(251, 251, 251);">1204</text></g></g><g transform="translate(408.47058823529414,272.58)"><circle r="12" fill="transparent" class="hit-area"/><circle r="2" fill="#fbfbfb" class="visible-dot"/><g class="tooltip-group"><rect class="tooltip-bg" x="-19.26171875" y="-25" width="38.5234375" height="20" rx="4" fill="var(--background-rgb)" stroke="rgba(255, 255, 255, 0.2)"/><text class="tooltip" y="-10" x="0" text-anchor="middle" style="font-size: 12px; fill: rgb(251, 251, 251);">204</text></g></g><g transform="translate(459.5294117647059,269.95500000000004)"><circle r="12" fill="transparent" class="hit-area"/><circle r="2" fill="#fbfbfb" class="visible-dot"/><g class="tooltip-group"><rect class="tooltip-bg" x="-19.0625" y="-25" width="38.125" height="20" rx="4" fill="var(--background-rgb)" stroke="rgba(255, 255, 255, 0.2)"/><text class="tooltip" y="-10" x="0" text-anchor="middle" style="font-size: 12px; fill: rgb(251, 251, 251);">229</text></g></g><g transform="translate(510.5882352941177,7.455)"><circle r="12" fill="transparent" class="hit-area"/><circle r="2" fill="#fbfbfb" class="visible-dot"/><g class="tooltip-group"><rect class="tooltip-bg" x="-22.48046875" y="-25" width="44.9609375" height="20" rx="4" fill="var(--background-rgb)" stroke="rgba(255, 255, 255, 0.2)"/><text class="tooltip" y="-10" x="0" text-anchor="middle" style="font-size: 12px; fill: rgb(251, 251, 251);">2729</text></g></g><g transform="translate(561.6470588235295,250.95)"><circle r="12" fill="transparent" class="hit-area"/><circle r="2" fill="#fbfbfb" class="visible-dot"/><g class="tooltip-group"><rect class="tooltip-bg" x="-18.3671875" y="-25" width="36.734375" height="20" rx="4" fill="var(--background-rgb)" stroke="rgba(255, 255, 255, 0.2)"/><text class="tooltip" y="-10" x="0" text-anchor="middle" style="font-size: 12px; fill: rgb(251, 251, 251);">410</text></g></g><g transform="translate(612.7058823529412,270.69)"><circle r="12" fill="transparent" class="hit-area"/><circle r="2" fill="#fbfbfb" class="visible-dot"/><g class="tooltip-group"><rect class="tooltip-bg" x="-18.86328125" y="-25" width="37.7265625" height="20" rx="4" fill="var(--background-rgb)" stroke="rgba(255, 255, 255, 0.2)"/><text class="tooltip" y="-10" x="0" text-anchor="middle" style="font-size: 12px; fill: rgb(251, 251, 251);">222</text></g></g><g transform="translate(663.7647058823529,270.69)"><circle r="12" fill="transparent" class="hit-area"/><circle r="2" fill="#fbfbfb" class="visible-dot"/><g class="tooltip-group"><rect class="tooltip-bg" x="-18.86328125" y="-25" width="37.7265625" height="20" rx="4" fill="var(--background-rgb)" stroke="rgba(255, 255, 255, 0.2)"/><text class="tooltip" y="-10" x="0" text-anchor="middle" style="font-size: 12px; fill: rgb(251, 251, 251);">222</text></g></g><g transform="translate(714.8235294117648,258.09000000000003)"><circle r="12" fill="transparent" class="hit-area"/><circle r="2" fill="#fbfbfb" class="visible-dot"/><g class="tooltip-group"><rect class="tooltip-bg" x="-19.24609375" y="-25" width="38.4921875" height="20" rx="4" fill="var(--background-rgb)" stroke="rgba(255, 255, 255, 0.2)"/><text class="tooltip" y="-10" x="0" text-anchor="middle" style="font-size: 12px; fill: rgb(251, 251, 251);">342</text></g></g><g transform="translate(765.8823529411766,268.38)"><circle r="12" fill="transparent" class="hit-area"/><circle r="2" fill="#fbfbfb" class="visible-dot"/><g class="tooltip-group"><rect class="tooltip-bg" x="-19.2578125" y="-25" width="38.515625" height="20" rx="4" fill="var(--background-rgb)" stroke="rgba(255, 255, 255, 0.2)"/><text class="tooltip" y="-10" x="0" text-anchor="middle" style="font-size: 12px; fill: rgb(251, 251, 251);">244</text></g></g><g transform="translate(816.9411764705883,270.69)"><circle r="12" fill="transparent" class="hit-area"/><circle r="2" fill="#fbfbfb" class="visible-dot"/><g class="tooltip-group"><rect class="tooltip-bg" x="-18.86328125" y="-25" width="37.7265625" height="20" rx="4" fill="var(--background-rgb)" stroke="rgba(255, 255, 255, 0.2)"/><text class="tooltip" y="-10" x="0" text-anchor="middle" style="font-size: 12px; fill: rgb(251, 251, 251);">222</text></g></g><g transform="translate(868,270.69)"><circle r="12" fill="transparent" class="hit-area"/><circle r="2" fill="#fbfbfb" class="visible-dot"/><g class="tooltip-group"><rect class="tooltip-bg" x="-39.7265625" y="-25" width="37.7265625" height="20" rx="4" fill="var(--background-rgb)" stroke="rgba(255, 255, 255, 0.2)"/><text class="tooltip" y="-10" x="-10" text-anchor="end" style="font-size: 12px; fill: rgb(251, 251, 251);">222</text></g></g><path class="line" fill="none" stroke="#2487ff" stroke-width="2" d="M0,294C17.02,294,34.039,294,51.059,294C68.078,294,85.098,294,102.118,294C119.137,294,136.157,294,153.176,294C170.196,294,187.216,294,204.235,294C221.255,294,238.275,215.25,255.294,215.25C272.314,215.25,289.333,276.325,306.353,283.395C323.373,290.465,340.392,294,357.412,294C374.431,294,391.451,290.325,408.471,290.325C425.49,290.325,442.51,291.375,459.529,291.375C476.549,291.375,493.569,291.375,510.588,291.375C527.608,291.375,544.627,289.275,561.647,289.275C578.667,289.275,595.686,289.275,612.706,289.275C629.725,289.275,646.745,278.775,663.765,278.775C680.784,278.775,697.804,278.775,714.824,278.775C731.843,278.775,748.863,278.775,765.882,278.775C782.902,278.775,799.922,278.775,816.941,278.775C833.961,278.775,850.98,278.775,868,278.775"/><g transform="translate(0,294)"><circle r="12" fill="transparent" class="hit-area"/><circle r="2" fill="#2487ff" class="visible-dot"/><g class="tooltip-group"><rect class="tooltip-bg" x="2" y="-25" width="23.5625" height="20" rx="4" fill="var(--background-rgb)" stroke="rgba(255, 255, 255, 0.2)"/><text class="tooltip" y="-10" x="10" text-anchor="start" style="font-size: 12px; fill: rgb(36, 135, 255);">0</text></g></g><g transform="translate(51.05882352941177,294)"><circle r="12" fill="transparent" class="hit-area"/><circle r="2" fill="#2487ff" class="visible-dot"/><g class="tooltip-group"><rect class="tooltip-bg" x="-11.78125" y="-25" width="23.5625" height="20" rx="4" fill="var(--background-rgb)" stroke="rgba(255, 255, 255, 0.2)"/><text class="tooltip" y="-10" x="0" text-anchor="middle" style="font-size: 12px; fill: rgb(36, 135, 255);">0</text></g></g><g transform="translate(102.11764705882354,294)"><circle r="12" fill="transparent" class="hit-area"/><circle r="2" fill="#2487ff" class="visible-dot"/><g class="tooltip-group"><rect class="tooltip-bg" x="-11.78125" y="-25" width="23.5625" height="20" rx="4" fill="var(--background-rgb)" stroke="rgba(255, 255, 255, 0.2)"/><text class="tooltip" y="-10" x="0" text-anchor="middle" style="font-size: 12px; fill: rgb(36, 135, 255);">0</text></g></g><g transform="translate(153.1764705882353,294)"><circle r="12" fill="transparent" class="hit-area"/><circle r="2" fill="#2487ff" class="visible-dot"/><g class="tooltip-group"><rect class="tooltip-bg" x="-11.78125" y="-25" width="23.5625" height="20" rx="4" fill="var(--background-rgb)" stroke="rgba(255, 255, 255, 0.2)"/><text class="tooltip" y="-10" x="0" text-anchor="middle" style="font-size: 12px; fill: rgb(36, 135, 255);">0</text></g></g><g transform="translate(204.23529411764707,294)"><circle r="12" fill="transparent" class="hit-area"/><circle r="2" fill="#2487ff" class="visible-dot"/><g class="tooltip-group"><rect class="tooltip-bg" x="-11.78125" y="-25" width="23.5625" height="20" rx="4" fill="var(--background-rgb)" stroke="rgba(255, 255, 255, 0.2)"/><text class="tooltip" y="-10" x="0" text-anchor="middle" style="font-size: 12px; fill: rgb(36, 135, 255);">0</text></g></g><g transform="translate(255.29411764705884,215.25000000000003)"><circle r="12" fill="transparent" class="hit-area"/><circle r="2" fill="#2487ff" class="visible-dot"/><g class="tooltip-group"><rect class="tooltip-bg" x="-18.84765625" y="-25" width="37.6953125" height="20" rx="4" fill="var(--background-rgb)" stroke="rgba(255, 255, 255, 0.2)"/><text class="tooltip" y="-10" x="0" text-anchor="middle" style="font-size: 12px; fill: rgb(36, 135, 255);">750</text></g></g><g transform="translate(306.3529411764706,283.39500000000004)"><circle r="12" fill="transparent" class="hit-area"/><circle r="2" fill="#2487ff" class="visible-dot"/><g class="tooltip-group"><rect class="tooltip-bg" x="-17.34765625" y="-25" width="34.6953125" height="20" rx="4" fill="var(--background-rgb)" stroke="rgba(255, 255, 255, 0.2)"/><text class="tooltip" y="-10" x="0" text-anchor="middle" style="font-size: 12px; fill: rgb(36, 135, 255);">101</text></g></g><g transform="translate(357.4117647058824,294)"><circle r="12" fill="transparent" class="hit-area"/><circle r="2" fill="#2487ff" class="visible-dot"/><g class="tooltip-group"><rect class="tooltip-bg" x="-11.78125" y="-25" width="23.5625" height="20" rx="4" fill="var(--background-rgb)" stroke="rgba(255, 255, 255, 0.2)"/><text class="tooltip" y="-10" x="0" text-anchor="middle" style="font-size: 12px; fill: rgb(36, 135, 255);">0</text></g></g><g transform="translate(408.47058823529414,290.325)"><circle r="12" fill="transparent" class="hit-area"/><circle r="2" fill="#2487ff" class="visible-dot"/><g class="tooltip-group"><rect class="tooltip-bg" x="-15.47265625" y="-25" width="30.9453125" height="20" rx="4" fill="var(--background-rgb)" stroke="rgba(255, 255, 255, 0.2)"/><text class="tooltip" y="-10" x="0" text-anchor="middle" style="font-size: 12px; fill: rgb(36, 135, 255);">35</text></g></g><g transform="translate(459.5294117647059,291.375)"><circle r="12" fill="transparent" class="hit-area"/><circle r="2" fill="#2487ff" class="visible-dot"/><g class="tooltip-group"><rect class="tooltip-bg" x="-15.33203125" y="-25" width="30.6640625" height="20" rx="4" fill="var(--background-rgb)" stroke="rgba(255, 255, 255, 0.2)"/><text class="tooltip" y="-10" x="0" text-anchor="middle" style="font-size: 12px; fill: rgb(36, 135, 255);">25</text></g></g><g transform="translate(510.5882352941177,291.375)"><circle r="12" fill="transparent" class="hit-area"/><circle r="2" fill="#2487ff" class="visible-dot"/><g class="tooltip-group"><rect class="tooltip-bg" x="-15.33203125" y="-25" width="30.6640625" height="20" rx="4" fill="var(--background-rgb)" stroke="rgba(255, 255, 255, 0.2)"/><text class="tooltip" y="-10" x="0" text-anchor="middle" style="font-size: 12px; fill: rgb(36, 135, 255);">25</text></g></g><g transform="translate(561.6470588235295,289.27500000000003)"><circle r="12" fill="transparent" class="hit-area"/><circle r="2" fill="#2487ff" class="visible-dot"/><g class="tooltip-group"><rect class="tooltip-bg" x="-15.5703125" y="-25" width="31.140625" height="20" rx="4" fill="var(--background-rgb)" stroke="rgba(255, 255, 255, 0.2)"/><text class="tooltip" y="-10" x="0" text-anchor="middle" style="font-size: 12px; fill: rgb(36, 135, 255);">45</text></g></g><g transform="translate(612.7058823529412,289.27500000000003)"><circle r="12" fill="transparent" class="hit-area"/><circle r="2" fill="#2487ff" class="visible-dot"/><g class="tooltip-group"><rect class="tooltip-bg" x="-15.5703125" y="-25" width="31.140625" height="20" rx="4" fill="var(--background-rgb)" stroke="rgba(255, 255, 255, 0.2)"/><text class="tooltip" y="-10" x="0" text-anchor="middle" style="font-size: 12px; fill: rgb(36, 135, 255);">45</text></g></g><g transform="translate(663.7647058823529,278.775)"><circle r="12" fill="transparent" class="hit-area"/><circle r="2" fill="#2487ff" class="visible-dot"/><g class="tooltip-group"><rect class="tooltip-bg" x="-18.35546875" y="-25" width="36.7109375" height="20" rx="4" fill="var(--background-rgb)" stroke="rgba(255, 255, 255, 0.2)"/><text class="tooltip" y="-10" x="0" text-anchor="middle" style="font-size: 12px; fill: rgb(36, 135, 255);">145</text></g></g><g transform="translate(714.8235294117648,278.775)"><circle r="12" fill="transparent" class="hit-area"/><circle r="2" fill="#2487ff" class="visible-dot"/><g class="tooltip-group"><rect class="tooltip-bg" x="-18.35546875" y="-25" width="36.7109375" height="20" rx="4" fill="var(--background-rgb)" stroke="rgba(255, 255, 255, 0.2)"/><text class="tooltip" y="-10" x="0" text-anchor="middle" style="font-size: 12px; fill: rgb(36, 135, 255);">145</text></g></g><g transform="translate(765.8823529411766,278.775)"><circle r="12" fill="transparent" class="hit-area"/><circle r="2" fill="#2487ff" class="visible-dot"/><g class="tooltip-group"><rect class="tooltip-bg" x="-18.35546875" y="-25" width="36.7109375" height="20" rx="4" fill="var(--background-rgb)" stroke="rgba(255, 255, 255, 0.2)"/><text class="tooltip" y="-10" x="0" text-anchor="middle" style="font-size: 12px; fill: rgb(36, 135, 255);">145</text></g></g><g transform="translate(816.9411764705883,278.775)"><circle r="12" fill="transparent" class="hit-area"/><circle r="2" fill="#2487ff" class="visible-dot"/><g class="tooltip-group"><rect class="tooltip-bg" x="-18.35546875" y="-25" width="36.7109375" height="20" rx="4" fill="var(--background-rgb)" stroke="rgba(255, 255, 255, 0.2)"/><text class="tooltip" y="-10" x="0" text-anchor="middle" style="font-size: 12px; fill: rgb(36, 135, 255);">145</text></g></g><g transform="translate(868,278.775)"><circle r="12" fill="transparent" class="hit-area"/><circle r="2" fill="#2487ff" class="visible-dot"/><g class="tooltip-group"><rect class="tooltip-bg" x="-38.7109375" y="-25" width="36.7109375" height="20" rx="4" fill="var(--background-rgb)" stroke="rgba(255, 255, 255, 0.2)"/><text class="tooltip" y="-10" x="-10" text-anchor="end" style="font-size: 12px; fill: rgb(36, 135, 255);">145</text></g></g></g></svg>