<svg xmlns="http://www.w3.org/2000/svg" class="venz-chart" role="img" viewBox="0 0 928 384"><title>New labeled data series (4/2 9:09)</title><g transform="translate(60,30)"><style>
      .tooltip {
        opacity: 0;
        pointer-events: none;
        transition: opacity 0.2s ease-in-out;
      }
      .tooltip-bg {
        opacity: 0;
        pointer-events: none;
        transition: opacity 0.2s ease-in-out;
      }
      .hit-area:hover + .visible-dot + .tooltip-group &gt; .tooltip-bg,
      .hit-area:hover + .visible-dot + .tooltip-group &gt; .tooltip {
        opacity: 1;
      }
    </style><g class="grid" style="stroke: currentcolor; opacity: 0.2;" fill="none" font-size="10" font-family="sans-serif" text-anchor="end"><path class="domain" stroke="currentColor" d="M868,294H0V0H868"/><g class="tick" opacity="1" transform="translate(0,294)"><line stroke="currentColor" x2="868"/><text fill="currentColor" x="-3" dy="0.32em"/></g><g class="tick" opacity="1" transform="translate(0,273)"><line stroke="currentColor" x2="868"/><text fill="currentColor" x="-3" dy="0.32em"/></g><g class="tick" opacity="1" transform="translate(0,252.00000000000003)"><line stroke="currentColor" x2="868"/><text fill="currentColor" x="-3" dy="0.32em"/></g><g class="tick" opacity="1" transform="translate(0,231)"><line stroke="currentColor" x2="868"/><text fill="currentColor" x="-3" dy="0.32em"/></g><g class="tick" opacity="1" transform="translate(0,210)"><line stroke="currentColor" x2="868"/><text fill="currentColor" x="-3" dy="0.32em"/></g><g class="tick" opacity="1" transform="translate(0,188.99999999999997)"><line stroke="currentColor" x2="868"/><text fill="currentColor" x="-3" dy="0.32em"/></g><g class="tick" opacity="1" transform="translate(0,168)"><line stroke="currentColor" x2="868"/><text fill="currentColor" x="-3" dy="0.32em"/></g><g class="tick" opacity="1" transform="translate(0,147)"><line stroke="currentColor" x2="868"/><text fill="currentColor" x="-3" dy="0.32em"/></g><g class="tick" opacity="1" transform="translate(0,126.00000000000001)"><line stroke="currentColor" x2="868"/><text fill="currentColor" x="-3" dy="0.32em"/></g><g class="tick" opacity="1" transform="translate(0,104.99999999999999)"><line stroke="currentColor" x2="868"/><text fill="currentColor" x="-3" dy="0.32em"/></g><g class="tick" opacity="1" transform="translate(0,84)"><line stroke="currentColor" x2="868"/><text fill="currentColor" x="-3" dy="0.32em"/></g><g class="tick" opacity="1" transform="translate(0,63.00000000000001)"><line stroke="currentColor" x2="868"/><text fill="currentColor" x="-3" dy="0.32em"/></g><g class="tick" opacity="1" transform="translate(0,42.000000000000014)"><line stroke="currentColor" x2="868"/><text fill="currentColor" x="-3" dy="0.32em"/></g><g class="tick" opacity="1" transform="translate(0,20.99999999999999)"><line stroke="currentColor" x2="868"/><text fill="currentColor" x="-3" dy="0.32em"/></g><g class="tick" opacity="1" transform="translate(0,0)"><line stroke="currentColor" x2="868"/><text fill="currentColor" x="-3" dy="0.32em"/></g></g><g class="grid" transform="translate(0, 294)" style="stroke: currentcolor; opacity: 0.2;" fill="none" font-size="10" font-family="sans-serif" text-anchor="middle"><path class="domain" stroke="currentColor" d="M0,-294V0H868V-294"/><g class="tick" opacity="1" transform="translate(0,0)"><line stroke="currentColor" y2="-294"/><text fill="currentColor" y="3" dy="0.71em"/></g><g class="tick" opacity="1" transform="translate(54.25,0)"><line stroke="currentColor" y2="-294"/><text fill="currentColor" y="3" dy="0.71em"/></g><g class="tick" opacity="1" transform="translate(108.5,0)"><line stroke="currentColor" y2="-294"/><text fill="currentColor" y="3" dy="0.71em"/></g><g class="tick" opacity="1" transform="translate(162.75,0)"><line stroke="currentColor" y2="-294"/><text fill="currentColor" y="3" dy="0.71em"/></g><g class="tick" opacity="1" transform="translate(217,0)"><line stroke="currentColor" y2="-294"/><text fill="currentColor" y="3" dy="0.71em"/></g><g class="tick" opacity="1" transform="translate(271.25,0)"><line stroke="currentColor" y2="-294"/><text fill="currentColor" y="3" dy="0.71em"/></g><g class="tick" opacity="1" transform="translate(325.5,0)"><line stroke="currentColor" y2="-294"/><text fill="currentColor" y="3" dy="0.71em"/></g><g class="tick" opacity="1" transform="translate(379.75,0)"><line stroke="currentColor" y2="-294"/><text fill="currentColor" y="3" dy="0.71em"/></g><g class="tick" opacity="1" transform="translate(434,0)"><line stroke="currentColor" y2="-294"/><text fill="currentColor" y="3" dy="0.71em"/></g><g class="tick" opacity="1" transform="translate(488.25,0)"><line stroke="currentColor" y2="-294"/><text fill="currentColor" y="3" dy="0.71em"/></g><g class="tick" opacity="1" transform="translate(542.5,0)"><line stroke="currentColor" y2="-294"/><text fill="currentColor" y="3" dy="0.71em"/></g><g class="tick" opacity="1" transform="translate(596.75,0)"><line stroke="currentColor" y2="-294"/><text fill="currentColor" y="3" dy="0.71em"/></g><g class="tick" opacity="1" transform="translate(651,0)"><line stroke="currentColor" y2="-294"/><text fill="currentColor" y="3" dy="0.71em"/></g><g class="tick" opacity="1" transform="translate(705.25,0)"><line stroke="currentColor" y2="-294"/><text fill="currentColor" y="3" dy="0.71em"/></g><g class="tick" opacity="1" transform="translate(759.5,0)"><line stroke="currentColor" y2="-294"/><text fill="currentColor" y="3" dy="0.71em"/></g><g class="tick" opacity="1" transform="translate(813.75,0)"><line stroke="currentColor" y2="-294"/><text fill="currentColor" y="3" dy="0.71em"/></g><g class="tick" opacity="1" transform="translate(868,0)"><line stroke="currentColor" y2="-294"/><text fill="currentColor" y="3" dy="0.71em"/></g></g><g fill="none" font-size="10" font-family="sans-serif" text-anchor="end"><path class="domain" stroke="currentColor" d="M-6,294H0V0H-6"/><g class="tick" opacity="1" transform="translate(0,294)"><line stroke="currentColor" x2="-6"/><text fill="currentColor" x="-9" dy="0.32em" style="fill: currentcolor;">0</text></g><g class="tick" opacity="1" transform="translate(0,273)"><line stroke="currentColor" x2="-6"/><text fill="currentColor" x="-9" dy="0.32em" style="fill: currentcolor;">200</text></g><g class="tick" opacity="1" transform="translate(0,252.00000000000003)"><line stroke="currentColor" x2="-6"/><text fill="currentColor" x="-9" dy="0.32em" style="fill: currentcolor;">400</text></g><g class="tick" opacity="1" transform="translate(0,231)"><line stroke="currentColor" x2="-6"/><text fill="currentColor" x="-9" dy="0.32em" style="fill: currentcolor;">600</text></g><g class="tick" opacity="1" transform="translate(0,210)"><line stroke="currentColor" x2="-6"/><text fill="currentColor" x="-9" dy="0.32em" style="fill: currentcolor;">800</text></g><g class="tick" opacity="1" transform="translate(0,188.99999999999997)"><line stroke="currentColor" x2="-6"/><text fill="currentColor" x="-9" dy="0.32em" style="fill: currentcolor;">1,000</text></g><g class="tick" opacity="1" transform="translate(0,168)"><line stroke="currentColor" x2="-6"/><text fill="currentColor" x="-9" dy="0.32em" style="fill: currentcolor;">1,200</text></g><g class="tick" opacity="1" transform="translate(0,147)"><line stroke="currentColor" x2="-6"/><text fill="currentColor" x="-9" dy="0.32em" style="fill: currentcolor;">1,400</text></g><g class="tick" opacity="1" transform="translate(0,126.00000000000001)"><line stroke="currentColor" x2="-6"/><text fill="currentColor" x="-9" dy="0.32em" style="fill: currentcolor;">1,600</text></g><g class="tick" opacity="1" transform="translate(0,104.99999999999999)"><line stroke="currentColor" x2="-6"/><text fill="currentColor" x="-9" dy="0.32em" style="fill: currentcolor;">1,800</text></g><g class="tick" opacity="1" transform="translate(0,84)"><line stroke="currentColor" x2="-6"/><text fill="currentColor" x="-9" dy="0.32em" style="fill: currentcolor;">2,000</text></g><g class="tick" opacity="1" transform="translate(0,63.00000000000001)"><line stroke="currentColor" x2="-6"/><text fill="currentColor" x="-9" dy="0.32em" style="fill: currentcolor;">2,200</text></g><g class="tick" opacity="1" transform="translate(0,42.000000000000014)"><line stroke="currentColor" x2="-6"/><text fill="currentColor" x="-9" dy="0.32em" style="fill: currentcolor;">2,400</text></g><g class="tick" opacity="1" transform="translate(0,20.99999999999999)"><line stroke="currentColor" x2="-6"/><text fill="currentColor" x="-9" dy="0.32em" style="fill: currentcolor;">2,600</text></g><g class="tick" opacity="1" transform="translate(0,0)"><line stroke="currentColor" x2="-6"/><text fill="currentColor" x="-9" dy="0.32em" style="fill: currentcolor;">2,800</text></g></g><g transform="translate(0,294)" fill="none" font-size="10" font-family="sans-serif" text-anchor="middle"><path class="domain" stroke="currentColor" d="M0,6V0H868V6"/><g class="tick" opacity="1" transform="translate(0,0)"><line stroke="currentColor" y2="6"/><text fill="currentColor" y="9" dy=".1em" transform="rotate(-45)" text-anchor="end" dx="-.8em" style="fill: currentcolor;">2023-11</text></g><g class="tick" opacity="1" transform="translate(54.25,0)"><line stroke="currentColor" y2="6"/><text fill="currentColor" y="9" dy=".1em" transform="rotate(-45)" text-anchor="end" dx="-.8em" style="fill: currentcolor;">2023-12</text></g><g class="tick" opacity="1" transform="translate(108.5,0)"><line stroke="currentColor" y2="6"/><text fill="currentColor" y="9" dy=".1em" transform="rotate(-45)" text-anchor="end" dx="-.8em" style="fill: currentcolor;">2024-01</text></g><g class="tick" opacity="1" transform="translate(162.75,0)"><line stroke="currentColor" y2="6"/><text fill="currentColor" y="9" dy=".1em" transform="rotate(-45)" text-anchor="end" dx="-.8em" style="fill: currentcolor;">2024-02</text></g><g class="tick" opacity="1" transform="translate(217,0)"><line stroke="currentColor" y2="6"/><text fill="currentColor" y="9" dy=".1em" transform="rotate(-45)" text-anchor="end" dx="-.8em" style="fill: currentcolor;">2024-03</text></g><g class="tick" opacity="1" transform="translate(271.25,0)"><line stroke="currentColor" y2="6"/><text fill="currentColor" y="9" dy=".1em" transform="rotate(-45)" text-anchor="end" dx="-.8em" style="fill: currentcolor;">2024-04</text></g><g class="tick" opacity="1" transform="translate(325.5,0)"><line stroke="currentColor" y2="6"/><text fill="currentColor" y="9" dy=".1em" transform="rotate(-45)" text-anchor="end" dx="-.8em" style="fill: currentcolor;">2024-05</text></g><g class="tick" opacity="1" transform="translate(379.75,0)"><line stroke="currentColor" y2="6"/><text fill="currentColor" y="9" dy=".1em" transform="rotate(-45)" text-anchor="end" dx="-.8em" style="fill: currentcolor;">2024-06</text></g><g class="tick" opacity="1" transform="translate(434,0)"><line stroke="currentColor" y2="6"/><text fill="currentColor" y="9" dy=".1em" transform="rotate(-45)" text-anchor="end" dx="-.8em" style="fill: currentcolor;">2024-07</text></g><g class="tick" opacity="1" transform="translate(488.25,0)"><line stroke="currentColor" y2="6"/><text fill="currentColor" y="9" dy=".1em" transform="rotate(-45)" text-anchor="end" dx="-.8em" style="fill: currentcolor;">2024-08</text></g><g class="tick" opacity="1" transform="translate(542.5,0)"><line stroke="currentColor" y2="6"/><text fill="currentColor" y="9" dy=".1em" transform="rotate(-45)" text-anchor="end" dx="-.8em" style="fill: currentcolor;">2024-09</text></g><g class="tick" opacity="1" transform="translate(596.75,0)"><line stroke="currentColor" y2="6"/><text fill="currentColor" y="9" dy=".1em" transform="rotate(-45)" text-anchor="end" dx="-.8em" style="fill: currentcolor;">2024-10</text></g><g class="tick" opacity="1" transform="translate(651,0)"><line stroke="currentColor" y2="6"/><text fill="currentColor" y="9" dy=".1em" transform="rotate(-45)" text-anchor="end" dx="-.8em" style="fill: currentcolor;">2024-11</text></g><g class="tick" opacity="1" transform="translate(705.25,0)"><line stroke="currentColor" y2="6"/><text fill="currentColor" y="9" dy=".1em" transform="rotate(-45)" text-anchor="end" dx="-.8em" style="fill: currentcolor;">2024-12</text></g><g class="tick" opacity="1" transform="translate(759.5,0)"><line stroke="currentColor" y2="6"/><text fill="currentColor" y="9" dy=".1em" transform="rotate(-45)" text-anchor="end" dx="-.8em" style="fill: currentcolor;">2025-01</text></g><g class="tick" opacity="1" transform="translate(813.75,0)"><line stroke="currentColor" y2="6"/><text fill="currentColor" y="9" dy=".1em" transform="rotate(-45)" text-anchor="end" dx="-.8em" style="fill: currentcolor;">2025-02</text></g><g class="tick" opacity="1" transform="translate(868,0)"><line stroke="currentColor" y2="6"/><text fill="currentColor" y="9" dy=".1em" transform="rotate(-45)" text-anchor="end" dx="-.8em" style="fill: currentcolor;">2025-03</text></g></g><text x="434" y="354" text-anchor="middle" style="fill: currentcolor; font-family: sans-serif;">month</text><text x="-147" y="-45" transform="rotate(-90)" text-anchor="middle" style="fill: currentcolor; font-family: sans-serif;">amount ($)</text><g class="legend" transform="translate(43.400000000000006, 20)"><g transform="translate(0, 0)"><text x="0" y="10" style="fill: rgb(251, 251, 251); font-family: sans-serif;" text-anchor="start">GitHub Sponsors</text><circle cx="-15" cy="6" r="4" style="fill: rgb(251, 251, 251);"/></g><g transform="translate(0, 25)"><text x="0" y="10" style="fill: rgb(31, 135, 255); font-family: sans-serif;" text-anchor="start">OpenCollective</text><circle cx="-15" cy="6" r="4" style="fill: rgb(31, 135, 255);"/></g></g><path class="line" fill="none" stroke="#fbfbfb" stroke-width="2" d="M0,293.055C18.083,291.655,36.167,290.255,54.25,286.23C72.333,282.205,90.417,276.167,108.5,268.905C126.583,261.642,144.667,242.655,162.75,242.655C180.833,242.655,198.917,274.155,217,274.155C235.083,274.155,253.167,273.63,271.25,272.58C289.333,271.53,307.417,269.08,325.5,262.08C343.583,255.08,361.667,167.58,379.75,167.58C397.833,167.58,415.917,272.58,434,272.58C452.083,272.58,470.167,271.705,488.25,269.955C506.333,268.205,524.417,7.455,542.5,7.455C560.583,7.455,578.667,237.79,596.75,250.95C614.833,264.11,632.917,270.69,651,270.69C669.083,270.69,687.167,270.69,705.25,270.69C723.333,270.69,741.417,258.09,759.5,258.09C777.583,258.09,795.667,266.84,813.75,268.38C831.833,269.92,849.917,270.305,868,270.69"/><g transform="translate(0,293.055)"><circle r="12" fill="transparent" class="hit-area"/><circle r="2" fill="#fbfbfb" class="visible-dot"/><g class="tooltip-group"><rect class="tooltip-bg" x="2" y="-25" width="23.640625" height="20" rx="4" fill="var(--background-rgb)" stroke="rgba(255, 255, 255, 0.2)"/><text class="tooltip" y="-10" x="10" text-anchor="start" style="font-size: 12px; fill: rgb(251, 251, 251);">9</text></g></g><g transform="translate(54.25,286.22999999999996)"><circle r="12" fill="transparent" class="hit-area"/><circle r="2" fill="#fbfbfb" class="visible-dot"/><g class="tooltip-group"><rect class="tooltip-bg" x="-14.92578125" y="-25" width="29.8515625" height="20" rx="4" fill="var(--background-rgb)" stroke="rgba(255, 255, 255, 0.2)"/><text class="tooltip" y="-10" x="0" text-anchor="middle" style="font-size: 12px; fill: rgb(251, 251, 251);">74</text></g></g><g transform="translate(108.5,268.905)"><circle r="12" fill="transparent" class="hit-area"/><circle r="2" fill="#fbfbfb" class="visible-dot"/><g class="tooltip-group"><rect class="tooltip-bg" x="-19.203125" y="-25" width="38.40625" height="20" rx="4" fill="var(--background-rgb)" stroke="rgba(255, 255, 255, 0.2)"/><text class="tooltip" y="-10" x="0" text-anchor="middle" style="font-size: 12px; fill: rgb(251, 251, 251);">239</text></g></g><g transform="translate(162.75,242.655)"><circle r="12" fill="transparent" class="hit-area"/><circle r="2" fill="#fbfbfb" class="visible-dot"/><g class="tooltip-group"><rect class="tooltip-bg" x="-19.515625" y="-25" width="39.03125" height="20" rx="4" fill="var(--background-rgb)" stroke="rgba(255, 255, 255, 0.2)"/><text class="tooltip" y="-10" x="0" text-anchor="middle" style="font-size: 12px; fill: rgb(251, 251, 251);">489</text></g></g><g transform="translate(217,274.155)"><circle r="12" fill="transparent" class="hit-area"/><circle r="2" fill="#fbfbfb" class="visible-dot"/><g class="tooltip-group"><rect class="tooltip-bg" x="-18.4375" y="-25" width="36.875" height="20" rx="4" fill="var(--background-rgb)" stroke="rgba(255, 255, 255, 0.2)"/><text class="tooltip" y="-10" x="0" text-anchor="middle" style="font-size: 12px; fill: rgb(251, 251, 251);">189</text></g></g><g transform="translate(271.25,272.58)"><circle r="12" fill="transparent" class="hit-area"/><circle r="2" fill="#fbfbfb" class="visible-dot"/><g class="tooltip-group"><rect class="tooltip-bg" x="-19.26171875" y="-25" width="38.5234375" height="20" rx="4" fill="var(--background-rgb)" stroke="rgba(255, 255, 255, 0.2)"/><text class="tooltip" y="-10" x="0" text-anchor="middle" style="font-size: 12px; fill: rgb(251, 251, 251);">204</text></g></g><g transform="translate(325.5,262.08)"><circle r="12" fill="transparent" class="hit-area"/><circle r="2" fill="#fbfbfb" class="visible-dot"/><g class="tooltip-group"><rect class="tooltip-bg" x="-19.40234375" y="-25" width="38.8046875" height="20" rx="4" fill="var(--background-rgb)" stroke="rgba(255, 255, 255, 0.2)"/><text class="tooltip" y="-10" x="0" text-anchor="middle" style="font-size: 12px; fill: rgb(251, 251, 251);">304</text></g></g><g transform="translate(379.75,167.58)"><circle r="12" fill="transparent" class="hit-area"/><circle r="2" fill="#fbfbfb" class="visible-dot"/><g class="tooltip-group"><rect class="tooltip-bg" x="-22.046875" y="-25" width="44.09375" height="20" rx="4" fill="var(--background-rgb)" stroke="rgba(255, 255, 255, 0.2)"/><text class="tooltip" y="-10" x="0" text-anchor="middle" style="font-size: 12px; fill: rgb(251, 251, 251);">1204</text></g></g><g transform="translate(434,272.58)"><circle r="12" fill="transparent" class="hit-area"/><circle r="2" fill="#fbfbfb" class="visible-dot"/><g class="tooltip-group"><rect class="tooltip-bg" x="-19.26171875" y="-25" width="38.5234375" height="20" rx="4" fill="var(--background-rgb)" stroke="rgba(255, 255, 255, 0.2)"/><text class="tooltip" y="-10" x="0" text-anchor="middle" style="font-size: 12px; fill: rgb(251, 251, 251);">204</text></g></g><g transform="translate(488.25,269.95500000000004)"><circle r="12" fill="transparent" class="hit-area"/><circle r="2" fill="#fbfbfb" class="visible-dot"/><g class="tooltip-group"><rect class="tooltip-bg" x="-19.0625" y="-25" width="38.125" height="20" rx="4" fill="var(--background-rgb)" stroke="rgba(255, 255, 255, 0.2)"/><text class="tooltip" y="-10" x="0" text-anchor="middle" style="font-size: 12px; fill: rgb(251, 251, 251);">229</text></g></g><g transform="translate(542.5,7.455)"><circle r="12" fill="transparent" class="hit-area"/><circle r="2" fill="#fbfbfb" class="visible-dot"/><g class="tooltip-group"><rect class="tooltip-bg" x="-22.48046875" y="-25" width="44.9609375" height="20" rx="4" fill="var(--background-rgb)" stroke="rgba(255, 255, 255, 0.2)"/><text class="tooltip" y="-10" x="0" text-anchor="middle" style="font-size: 12px; fill: rgb(251, 251, 251);">2729</text></g></g><g transform="translate(596.75,250.95)"><circle r="12" fill="transparent" class="hit-area"/><circle r="2" fill="#fbfbfb" class="visible-dot"/><g class="tooltip-group"><rect class="tooltip-bg" x="-18.3671875" y="-25" width="36.734375" height="20" rx="4" fill="var(--background-rgb)" stroke="rgba(255, 255, 255, 0.2)"/><text class="tooltip" y="-10" x="0" text-anchor="middle" style="font-size: 12px; fill: rgb(251, 251, 251);">410</text></g></g><g transform="translate(651,270.69)"><circle r="12" fill="transparent" class="hit-area"/><circle r="2" fill="#fbfbfb" class="visible-dot"/><g class="tooltip-group"><rect class="tooltip-bg" x="-18.86328125" y="-25" width="37.7265625" height="20" rx="4" fill="var(--background-rgb)" stroke="rgba(255, 255, 255, 0.2)"/><text class="tooltip" y="-10" x="0" text-anchor="middle" style="font-size: 12px; fill: rgb(251, 251, 251);">222</text></g></g><g transform="translate(705.25,270.69)"><circle r="12" fill="transparent" class="hit-area"/><circle r="2" fill="#fbfbfb" class="visible-dot"/><g class="tooltip-group"><rect class="tooltip-bg" x="-18.86328125" y="-25" width="37.7265625" height="20" rx="4" fill="var(--background-rgb)" stroke="rgba(255, 255, 255, 0.2)"/><text class="tooltip" y="-10" x="0" text-anchor="middle" style="font-size: 12px; fill: rgb(251, 251, 251);">222</text></g></g><g transform="translate(759.5,258.09000000000003)"><circle r="12" fill="transparent" class="hit-area"/><circle r="2" fill="#fbfbfb" class="visible-dot"/><g class="tooltip-group"><rect class="tooltip-bg" x="-19.24609375" y="-25" width="38.4921875" height="20" rx="4" fill="var(--background-rgb)" stroke="rgba(255, 255, 255, 0.2)"/><text class="tooltip" y="-10" x="0" text-anchor="middle" style="font-size: 12px; fill: rgb(251, 251, 251);">342</text></g></g><g transform="translate(813.75,268.38)"><circle r="12" fill="transparent" class="hit-area"/><circle r="2" fill="#fbfbfb" class="visible-dot"/><g class="tooltip-group"><rect class="tooltip-bg" x="-19.2578125" y="-25" width="38.515625" height="20" rx="4" fill="var(--background-rgb)" stroke="rgba(255, 255, 255, 0.2)"/><text class="tooltip" y="-10" x="0" text-anchor="middle" style="font-size: 12px; fill: rgb(251, 251, 251);">244</text></g></g><g transform="translate(868,270.69)"><circle r="12" fill="transparent" class="hit-area"/><circle r="2" fill="#fbfbfb" class="visible-dot"/><g class="tooltip-group"><rect class="tooltip-bg" x="-39.7265625" y="-25" width="37.7265625" height="20" rx="4" fill="var(--background-rgb)" stroke="rgba(255, 255, 255, 0.2)"/><text class="tooltip" y="-10" x="-10" text-anchor="end" style="font-size: 12px; fill: rgb(251, 251, 251);">222</text></g></g><path class="line" fill="none" stroke="#1f87ff" stroke-width="2" d="M0,294C18.083,294,36.167,294,54.25,294C72.333,294,90.417,294,108.5,294C126.583,294,144.667,294,162.75,294C180.833,294,198.917,294,217,294C235.083,294,253.167,215.25,271.25,215.25C289.333,215.25,307.417,276.325,325.5,283.395C343.583,290.465,361.667,294,379.75,294C397.833,294,415.917,290.325,434,290.325C452.083,290.325,470.167,291.375,488.25,291.375C506.333,291.375,524.417,291.375,542.5,291.375C560.583,291.375,578.667,289.275,596.75,289.275C614.833,289.275,632.917,289.275,651,289.275C669.083,289.275,687.167,278.775,705.25,278.775C723.333,278.775,741.417,278.775,759.5,278.775C777.583,278.775,795.667,278.775,813.75,278.775C831.833,278.775,849.917,278.775,868,278.775"/><g transform="translate(0,294)"><circle r="12" fill="transparent" class="hit-area"/><circle r="2" fill="#1f87ff" class="visible-dot"/><g class="tooltip-group"><rect class="tooltip-bg" x="2" y="-25" width="23.5625" height="20" rx="4" fill="var(--background-rgb)" stroke="rgba(255, 255, 255, 0.2)"/><text class="tooltip" y="-10" x="10" text-anchor="start" style="font-size: 12px; fill: rgb(31, 135, 255);">0</text></g></g><g transform="translate(54.25,294)"><circle r="12" fill="transparent" class="hit-area"/><circle r="2" fill="#1f87ff" class="visible-dot"/><g class="tooltip-group"><rect class="tooltip-bg" x="-11.78125" y="-25" width="23.5625" height="20" rx="4" fill="var(--background-rgb)" stroke="rgba(255, 255, 255, 0.2)"/><text class="tooltip" y="-10" x="0" text-anchor="middle" style="font-size: 12px; fill: rgb(31, 135, 255);">0</text></g></g><g transform="translate(108.5,294)"><circle r="12" fill="transparent" class="hit-area"/><circle r="2" fill="#1f87ff" class="visible-dot"/><g class="tooltip-group"><rect class="tooltip-bg" x="-11.78125" y="-25" width="23.5625" height="20" rx="4" fill="var(--background-rgb)" stroke="rgba(255, 255, 255, 0.2)"/><text class="tooltip" y="-10" x="0" text-anchor="middle" style="font-size: 12px; fill: rgb(31, 135, 255);">0</text></g></g><g transform="translate(162.75,294)"><circle r="12" fill="transparent" class="hit-area"/><circle r="2" fill="#1f87ff" class="visible-dot"/><g class="tooltip-group"><rect class="tooltip-bg" x="-11.78125" y="-25" width="23.5625" height="20" rx="4" fill="var(--background-rgb)" stroke="rgba(255, 255, 255, 0.2)"/><text class="tooltip" y="-10" x="0" text-anchor="middle" style="font-size: 12px; fill: rgb(31, 135, 255);">0</text></g></g><g transform="translate(217,294)"><circle r="12" fill="transparent" class="hit-area"/><circle r="2" fill="#1f87ff" class="visible-dot"/><g class="tooltip-group"><rect class="tooltip-bg" x="-11.78125" y="-25" width="23.5625" height="20" rx="4" fill="var(--background-rgb)" stroke="rgba(255, 255, 255, 0.2)"/><text class="tooltip" y="-10" x="0" text-anchor="middle" style="font-size: 12px; fill: rgb(31, 135, 255);">0</text></g></g><g transform="translate(271.25,215.25000000000003)"><circle r="12" fill="transparent" class="hit-area"/><circle r="2" fill="#1f87ff" class="visible-dot"/><g class="tooltip-group"><rect class="tooltip-bg" x="-18.84765625" y="-25" width="37.6953125" height="20" rx="4" fill="var(--background-rgb)" stroke="rgba(255, 255, 255, 0.2)"/><text class="tooltip" y="-10" x="0" text-anchor="middle" style="font-size: 12px; fill: rgb(31, 135, 255);">750</text></g></g><g transform="translate(325.5,283.39500000000004)"><circle r="12" fill="transparent" class="hit-area"/><circle r="2" fill="#1f87ff" class="visible-dot"/><g class="tooltip-group"><rect class="tooltip-bg" x="-17.34765625" y="-25" width="34.6953125" height="20" rx="4" fill="var(--background-rgb)" stroke="rgba(255, 255, 255, 0.2)"/><text class="tooltip" y="-10" x="0" text-anchor="middle" style="font-size: 12px; fill: rgb(31, 135, 255);">101</text></g></g><g transform="translate(379.75,294)"><circle r="12" fill="transparent" class="hit-area"/><circle r="2" fill="#1f87ff" class="visible-dot"/><g class="tooltip-group"><rect class="tooltip-bg" x="-11.78125" y="-25" width="23.5625" height="20" rx="4" fill="var(--background-rgb)" stroke="rgba(255, 255, 255, 0.2)"/><text class="tooltip" y="-10" x="0" text-anchor="middle" style="font-size: 12px; fill: rgb(31, 135, 255);">0</text></g></g><g transform="translate(434,290.325)"><circle r="12" fill="transparent" class="hit-area"/><circle r="2" fill="#1f87ff" class="visible-dot"/><g class="tooltip-group"><rect class="tooltip-bg" x="-15.47265625" y="-25" width="30.9453125" height="20" rx="4" fill="var(--background-rgb)" stroke="rgba(255, 255, 255, 0.2)"/><text class="tooltip" y="-10" x="0" text-anchor="middle" style="font-size: 12px; fill: rgb(31, 135, 255);">35</text></g></g><g transform="translate(488.25,291.375)"><circle r="12" fill="transparent" class="hit-area"/><circle r="2" fill="#1f87ff" class="visible-dot"/><g class="tooltip-group"><rect class="tooltip-bg" x="-15.33203125" y="-25" width="30.6640625" height="20" rx="4" fill="var(--background-rgb)" stroke="rgba(255, 255, 255, 0.2)"/><text class="tooltip" y="-10" x="0" text-anchor="middle" style="font-size: 12px; fill: rgb(31, 135, 255);">25</text></g></g><g transform="translate(542.5,291.375)"><circle r="12" fill="transparent" class="hit-area"/><circle r="2" fill="#1f87ff" class="visible-dot"/><g class="tooltip-group"><rect class="tooltip-bg" x="-15.33203125" y="-25" width="30.6640625" height="20" rx="4" fill="var(--background-rgb)" stroke="rgba(255, 255, 255, 0.2)"/><text class="tooltip" y="-10" x="0" text-anchor="middle" style="font-size: 12px; fill: rgb(31, 135, 255);">25</text></g></g><g transform="translate(596.75,289.27500000000003)"><circle r="12" fill="transparent" class="hit-area"/><circle r="2" fill="#1f87ff" class="visible-dot"/><g class="tooltip-group"><rect class="tooltip-bg" x="-15.5703125" y="-25" width="31.140625" height="20" rx="4" fill="var(--background-rgb)" stroke="rgba(255, 255, 255, 0.2)"/><text class="tooltip" y="-10" x="0" text-anchor="middle" style="font-size: 12px; fill: rgb(31, 135, 255);">45</text></g></g><g transform="translate(651,289.27500000000003)"><circle r="12" fill="transparent" class="hit-area"/><circle r="2" fill="#1f87ff" class="visible-dot"/><g class="tooltip-group"><rect class="tooltip-bg" x="-15.5703125" y="-25" width="31.140625" height="20" rx="4" fill="var(--background-rgb)" stroke="rgba(255, 255, 255, 0.2)"/><text class="tooltip" y="-10" x="0" text-anchor="middle" style="font-size: 12px; fill: rgb(31, 135, 255);">45</text></g></g><g transform="translate(705.25,278.775)"><circle r="12" fill="transparent" class="hit-area"/><circle r="2" fill="#1f87ff" class="visible-dot"/><g class="tooltip-group"><rect class="tooltip-bg" x="-18.35546875" y="-25" width="36.7109375" height="20" rx="4" fill="var(--background-rgb)" stroke="rgba(255, 255, 255, 0.2)"/><text class="tooltip" y="-10" x="0" text-anchor="middle" style="font-size: 12px; fill: rgb(31, 135, 255);">145</text></g></g><g transform="translate(759.5,278.775)"><circle r="12" fill="transparent" class="hit-area"/><circle r="2" fill="#1f87ff" class="visible-dot"/><g class="tooltip-group"><rect class="tooltip-bg" x="-18.35546875" y="-25" width="36.7109375" height="20" rx="4" fill="var(--background-rgb)" stroke="rgba(255, 255, 255, 0.2)"/><text class="tooltip" y="-10" x="0" text-anchor="middle" style="font-size: 12px; fill: rgb(31, 135, 255);">145</text></g></g><g transform="translate(813.75,278.775)"><circle r="12" fill="transparent" class="hit-area"/><circle r="2" fill="#1f87ff" class="visible-dot"/><g class="tooltip-group"><rect class="tooltip-bg" x="-18.35546875" y="-25" width="36.7109375" height="20" rx="4" fill="var(--background-rgb)" stroke="rgba(255, 255, 255, 0.2)"/><text class="tooltip" y="-10" x="0" text-anchor="middle" style="font-size: 12px; fill: rgb(31, 135, 255);">145</text></g></g><g transform="translate(868,278.775)"><circle r="12" fill="transparent" class="hit-area"/><circle r="2" fill="#1f87ff" class="visible-dot"/><g class="tooltip-group"><rect class="tooltip-bg" x="-38.7109375" y="-25" width="36.7109375" height="20" rx="4" fill="var(--background-rgb)" stroke="rgba(255, 255, 255, 0.2)"/><text class="tooltip" y="-10" x="-10" text-anchor="end" style="font-size: 12px; fill: rgb(31, 135, 255);">145</text></g></g></g></svg>