<svg xmlns="http://www.w3.org/2000/svg" class="venz-chart" role="img" viewBox="-0 -0 928 384"><title>New labeled data series (6/4 15:28)</title><g transform="translate(60,30)"><style>
      .tooltip {
        opacity: 0;
        pointer-events: none;
        transition: opacity 0.2s ease-in-out;
      }
      .tooltip-bg {
        opacity: 0;
        pointer-events: none;
        transition: opacity 0.2s ease-in-out;
      }
      .hit-area:hover + .visible-dot + .tooltip-group &gt; .tooltip-bg,
      .hit-area:hover + .visible-dot + .tooltip-group &gt; .tooltip {
        opacity: 1;
      }
    </style><g class="grid" fill="none" font-size="10" font-family="sans-serif" text-anchor="end" style="stroke: currentcolor; opacity: 0.2;"><path class="domain" stroke="currentColor" d="M868,294H0V0H868"/><g class="tick" opacity="1" transform="translate(0,294)"><line stroke="currentColor" x2="868"/><text fill="currentColor" x="-3" dy="0.32em"/></g><g class="tick" opacity="1" transform="translate(0,274.4)"><line stroke="currentColor" x2="868"/><text fill="currentColor" x="-3" dy="0.32em"/></g><g class="tick" opacity="1" transform="translate(0,254.8)"><line stroke="currentColor" x2="868"/><text fill="currentColor" x="-3" dy="0.32em"/></g><g class="tick" opacity="1" transform="translate(0,235.20000000000002)"><line stroke="currentColor" x2="868"/><text fill="currentColor" x="-3" dy="0.32em"/></g><g class="tick" opacity="1" transform="translate(0,215.60000000000002)"><line stroke="currentColor" x2="868"/><text fill="currentColor" x="-3" dy="0.32em"/></g><g class="tick" opacity="1" transform="translate(0,196.00000000000003)"><line stroke="currentColor" x2="868"/><text fill="currentColor" x="-3" dy="0.32em"/></g><g class="tick" opacity="1" transform="translate(0,176.4)"><line stroke="currentColor" x2="868"/><text fill="currentColor" x="-3" dy="0.32em"/></g><g class="tick" opacity="1" transform="translate(0,156.8)"><line stroke="currentColor" x2="868"/><text fill="currentColor" x="-3" dy="0.32em"/></g><g class="tick" opacity="1" transform="translate(0,137.2)"><line stroke="currentColor" x2="868"/><text fill="currentColor" x="-3" dy="0.32em"/></g><g class="tick" opacity="1" transform="translate(0,117.60000000000001)"><line stroke="currentColor" x2="868"/><text fill="currentColor" x="-3" dy="0.32em"/></g><g class="tick" opacity="1" transform="translate(0,98.00000000000001)"><line stroke="currentColor" x2="868"/><text fill="currentColor" x="-3" dy="0.32em"/></g><g class="tick" opacity="1" transform="translate(0,78.40000000000002)"><line stroke="currentColor" x2="868"/><text fill="currentColor" x="-3" dy="0.32em"/></g><g class="tick" opacity="1" transform="translate(0,58.79999999999999)"><line stroke="currentColor" x2="868"/><text fill="currentColor" x="-3" dy="0.32em"/></g><g class="tick" opacity="1" transform="translate(0,39.19999999999999)"><line stroke="currentColor" x2="868"/><text fill="currentColor" x="-3" dy="0.32em"/></g><g class="tick" opacity="1" transform="translate(0,19.599999999999994)"><line stroke="currentColor" x2="868"/><text fill="currentColor" x="-3" dy="0.32em"/></g><g class="tick" opacity="1" transform="translate(0,0)"><line stroke="currentColor" x2="868"/><text fill="currentColor" x="-3" dy="0.32em"/></g></g><g class="grid" transform="translate(0, 294)" fill="none" font-size="10" font-family="sans-serif" text-anchor="middle" style="stroke: currentcolor; opacity: 0.2;"><path class="domain" stroke="currentColor" d="M0,-294V0H868V-294"/><g class="tick" opacity="1" transform="translate(0,0)"><line stroke="currentColor" y2="-294"/><text fill="currentColor" y="3" dy="0.71em"/></g><g class="tick" opacity="1" transform="translate(48.22222222222222,0)"><line stroke="currentColor" y2="-294"/><text fill="currentColor" y="3" dy="0.71em"/></g><g class="tick" opacity="1" transform="translate(96.44444444444444,0)"><line stroke="currentColor" y2="-294"/><text fill="currentColor" y="3" dy="0.71em"/></g><g class="tick" opacity="1" transform="translate(144.66666666666666,0)"><line stroke="currentColor" y2="-294"/><text fill="currentColor" y="3" dy="0.71em"/></g><g class="tick" opacity="1" transform="translate(192.88888888888889,0)"><line stroke="currentColor" y2="-294"/><text fill="currentColor" y="3" dy="0.71em"/></g><g class="tick" opacity="1" transform="translate(241.11111111111111,0)"><line stroke="currentColor" y2="-294"/><text fill="currentColor" y="3" dy="0.71em"/></g><g class="tick" opacity="1" transform="translate(289.3333333333333,0)"><line stroke="currentColor" y2="-294"/><text fill="currentColor" y="3" dy="0.71em"/></g><g class="tick" opacity="1" transform="translate(337.55555555555554,0)"><line stroke="currentColor" y2="-294"/><text fill="currentColor" y="3" dy="0.71em"/></g><g class="tick" opacity="1" transform="translate(385.77777777777777,0)"><line stroke="currentColor" y2="-294"/><text fill="currentColor" y="3" dy="0.71em"/></g><g class="tick" opacity="1" transform="translate(434,0)"><line stroke="currentColor" y2="-294"/><text fill="currentColor" y="3" dy="0.71em"/></g><g class="tick" opacity="1" transform="translate(482.22222222222223,0)"><line stroke="currentColor" y2="-294"/><text fill="currentColor" y="3" dy="0.71em"/></g><g class="tick" opacity="1" transform="translate(530.4444444444445,0)"><line stroke="currentColor" y2="-294"/><text fill="currentColor" y="3" dy="0.71em"/></g><g class="tick" opacity="1" transform="translate(578.6666666666666,0)"><line stroke="currentColor" y2="-294"/><text fill="currentColor" y="3" dy="0.71em"/></g><g class="tick" opacity="1" transform="translate(626.8888888888889,0)"><line stroke="currentColor" y2="-294"/><text fill="currentColor" y="3" dy="0.71em"/></g><g class="tick" opacity="1" transform="translate(675.1111111111111,0)"><line stroke="currentColor" y2="-294"/><text fill="currentColor" y="3" dy="0.71em"/></g><g class="tick" opacity="1" transform="translate(723.3333333333334,0)"><line stroke="currentColor" y2="-294"/><text fill="currentColor" y="3" dy="0.71em"/></g><g class="tick" opacity="1" transform="translate(771.5555555555555,0)"><line stroke="currentColor" y2="-294"/><text fill="currentColor" y="3" dy="0.71em"/></g><g class="tick" opacity="1" transform="translate(819.7777777777777,0)"><line stroke="currentColor" y2="-294"/><text fill="currentColor" y="3" dy="0.71em"/></g><g class="tick" opacity="1" transform="translate(868,0)"><line stroke="currentColor" y2="-294"/><text fill="currentColor" y="3" dy="0.71em"/></g></g><g fill="none" font-size="10" font-family="sans-serif" text-anchor="end"><path class="domain" stroke="currentColor" d="M-6,294H0V0H-6"/><g class="tick" opacity="1" transform="translate(0,294)"><line stroke="currentColor" x2="-6"/><text fill="currentColor" x="-9" dy="0.32em" style="fill: currentcolor;">0</text></g><g class="tick" opacity="1" transform="translate(0,274.4)"><line stroke="currentColor" x2="-6"/><text fill="currentColor" x="-9" dy="0.32em" style="fill: currentcolor;">200</text></g><g class="tick" opacity="1" transform="translate(0,254.8)"><line stroke="currentColor" x2="-6"/><text fill="currentColor" x="-9" dy="0.32em" style="fill: currentcolor;">400</text></g><g class="tick" opacity="1" transform="translate(0,235.20000000000002)"><line stroke="currentColor" x2="-6"/><text fill="currentColor" x="-9" dy="0.32em" style="fill: currentcolor;">600</text></g><g class="tick" opacity="1" transform="translate(0,215.60000000000002)"><line stroke="currentColor" x2="-6"/><text fill="currentColor" x="-9" dy="0.32em" style="fill: currentcolor;">800</text></g><g class="tick" opacity="1" transform="translate(0,196.00000000000003)"><line stroke="currentColor" x2="-6"/><text fill="currentColor" x="-9" dy="0.32em" style="fill: currentcolor;">1,000</text></g><g class="tick" opacity="1" transform="translate(0,176.4)"><line stroke="currentColor" x2="-6"/><text fill="currentColor" x="-9" dy="0.32em" style="fill: currentcolor;">1,200</text></g><g class="tick" opacity="1" transform="translate(0,156.8)"><line stroke="currentColor" x2="-6"/><text fill="currentColor" x="-9" dy="0.32em" style="fill: currentcolor;">1,400</text></g><g class="tick" opacity="1" transform="translate(0,137.2)"><line stroke="currentColor" x2="-6"/><text fill="currentColor" x="-9" dy="0.32em" style="fill: currentcolor;">1,600</text></g><g class="tick" opacity="1" transform="translate(0,117.60000000000001)"><line stroke="currentColor" x2="-6"/><text fill="currentColor" x="-9" dy="0.32em" style="fill: currentcolor;">1,800</text></g><g class="tick" opacity="1" transform="translate(0,98.00000000000001)"><line stroke="currentColor" x2="-6"/><text fill="currentColor" x="-9" dy="0.32em" style="fill: currentcolor;">2,000</text></g><g class="tick" opacity="1" transform="translate(0,78.40000000000002)"><line stroke="currentColor" x2="-6"/><text fill="currentColor" x="-9" dy="0.32em" style="fill: currentcolor;">2,200</text></g><g class="tick" opacity="1" transform="translate(0,58.79999999999999)"><line stroke="currentColor" x2="-6"/><text fill="currentColor" x="-9" dy="0.32em" style="fill: currentcolor;">2,400</text></g><g class="tick" opacity="1" transform="translate(0,39.19999999999999)"><line stroke="currentColor" x2="-6"/><text fill="currentColor" x="-9" dy="0.32em" style="fill: currentcolor;">2,600</text></g><g class="tick" opacity="1" transform="translate(0,19.599999999999994)"><line stroke="currentColor" x2="-6"/><text fill="currentColor" x="-9" dy="0.32em" style="fill: currentcolor;">2,800</text></g><g class="tick" opacity="1" transform="translate(0,0)"><line stroke="currentColor" x2="-6"/><text fill="currentColor" x="-9" dy="0.32em" style="fill: currentcolor;">3,000</text></g></g><g transform="translate(0,294)" fill="none" font-size="10" font-family="sans-serif" text-anchor="middle"><path class="domain" stroke="currentColor" d="M0,6V0H868V6"/><g class="tick" opacity="1" transform="translate(0,0)"><line stroke="currentColor" y2="6"/><text fill="currentColor" y="9" dy=".1em" transform="rotate(-45)" text-anchor="end" dx="-.8em" style="fill: currentcolor;">2023-11</text></g><g class="tick" opacity="1" transform="translate(48.22222222222222,0)"><line stroke="currentColor" y2="6"/><text fill="currentColor" y="9" dy=".1em" transform="rotate(-45)" text-anchor="end" dx="-.8em" style="fill: currentcolor;">2023-12</text></g><g class="tick" opacity="1" transform="translate(96.44444444444444,0)"><line stroke="currentColor" y2="6"/><text fill="currentColor" y="9" dy=".1em" transform="rotate(-45)" text-anchor="end" dx="-.8em" style="fill: currentcolor;">2024-01</text></g><g class="tick" opacity="1" transform="translate(144.66666666666666,0)"><line stroke="currentColor" y2="6"/><text fill="currentColor" y="9" dy=".1em" transform="rotate(-45)" text-anchor="end" dx="-.8em" style="fill: currentcolor;">2024-02</text></g><g class="tick" opacity="1" transform="translate(192.88888888888889,0)"><line stroke="currentColor" y2="6"/><text fill="currentColor" y="9" dy=".1em" transform="rotate(-45)" text-anchor="end" dx="-.8em" style="fill: currentcolor;">2024-03</text></g><g class="tick" opacity="1" transform="translate(241.11111111111111,0)"><line stroke="currentColor" y2="6"/><text fill="currentColor" y="9" dy=".1em" transform="rotate(-45)" text-anchor="end" dx="-.8em" style="fill: currentcolor;">2024-04</text></g><g class="tick" opacity="1" transform="translate(289.3333333333333,0)"><line stroke="currentColor" y2="6"/><text fill="currentColor" y="9" dy=".1em" transform="rotate(-45)" text-anchor="end" dx="-.8em" style="fill: currentcolor;">2024-05</text></g><g class="tick" opacity="1" transform="translate(337.55555555555554,0)"><line stroke="currentColor" y2="6"/><text fill="currentColor" y="9" dy=".1em" transform="rotate(-45)" text-anchor="end" dx="-.8em" style="fill: currentcolor;">2024-06</text></g><g class="tick" opacity="1" transform="translate(385.77777777777777,0)"><line stroke="currentColor" y2="6"/><text fill="currentColor" y="9" dy=".1em" transform="rotate(-45)" text-anchor="end" dx="-.8em" style="fill: currentcolor;">2024-07</text></g><g class="tick" opacity="1" transform="translate(434,0)"><line stroke="currentColor" y2="6"/><text fill="currentColor" y="9" dy=".1em" transform="rotate(-45)" text-anchor="end" dx="-.8em" style="fill: currentcolor;">2024-08</text></g><g class="tick" opacity="1" transform="translate(482.22222222222223,0)"><line stroke="currentColor" y2="6"/><text fill="currentColor" y="9" dy=".1em" transform="rotate(-45)" text-anchor="end" dx="-.8em" style="fill: currentcolor;">2024-09</text></g><g class="tick" opacity="1" transform="translate(530.4444444444445,0)"><line stroke="currentColor" y2="6"/><text fill="currentColor" y="9" dy=".1em" transform="rotate(-45)" text-anchor="end" dx="-.8em" style="fill: currentcolor;">2024-10</text></g><g class="tick" opacity="1" transform="translate(578.6666666666666,0)"><line stroke="currentColor" y2="6"/><text fill="currentColor" y="9" dy=".1em" transform="rotate(-45)" text-anchor="end" dx="-.8em" style="fill: currentcolor;">2024-11</text></g><g class="tick" opacity="1" transform="translate(626.8888888888889,0)"><line stroke="currentColor" y2="6"/><text fill="currentColor" y="9" dy=".1em" transform="rotate(-45)" text-anchor="end" dx="-.8em" style="fill: currentcolor;">2024-12</text></g><g class="tick" opacity="1" transform="translate(675.1111111111111,0)"><line stroke="currentColor" y2="6"/><text fill="currentColor" y="9" dy=".1em" transform="rotate(-45)" text-anchor="end" dx="-.8em" style="fill: currentcolor;">2025-01</text></g><g class="tick" opacity="1" transform="translate(723.3333333333334,0)"><line stroke="currentColor" y2="6"/><text fill="currentColor" y="9" dy=".1em" transform="rotate(-45)" text-anchor="end" dx="-.8em" style="fill: currentcolor;">2025-02</text></g><g class="tick" opacity="1" transform="translate(771.5555555555555,0)"><line stroke="currentColor" y2="6"/><text fill="currentColor" y="9" dy=".1em" transform="rotate(-45)" text-anchor="end" dx="-.8em" style="fill: currentcolor;">2025-03</text></g><g class="tick" opacity="1" transform="translate(819.7777777777777,0)"><line stroke="currentColor" y2="6"/><text fill="currentColor" y="9" dy=".1em" transform="rotate(-45)" text-anchor="end" dx="-.8em" style="fill: currentcolor;">2025-04</text></g><g class="tick" opacity="1" transform="translate(868,0)"><line stroke="currentColor" y2="6"/><text fill="currentColor" y="9" dy=".1em" transform="rotate(-45)" text-anchor="end" dx="-.8em" style="fill: currentcolor;">2025-05</text></g></g><text x="434" y="349" text-anchor="middle" style="fill: currentcolor; font-family: sans-serif;">month</text><text x="-147" y="-45" transform="rotate(-90)" text-anchor="middle" style="fill: currentcolor; font-family: sans-serif;">amount ($)</text><g class="legend" transform="translate(824.5999999999999, 20)"><g transform="translate(0, 0)"><text x="0" y="10" text-anchor="end" style="fill: rgb(251, 251, 251); font-family: sans-serif;">GitHub Sponsors</text><circle cx="20" cy="6" r="4" style="fill: rgb(251, 251, 251);"/></g><g transform="translate(0, 25)"><text x="0" y="10" text-anchor="end" style="fill: rgb(36, 135, 255); font-family: sans-serif;">Open Collective</text><circle cx="20" cy="6" r="4" style="fill: rgb(36, 135, 255);"/></g></g><path class="line" fill="none" stroke="#fbfbfb" stroke-width="2" d="M0,293.118C16.074,291.811,32.148,290.505,48.222,286.748C64.296,282.991,80.37,277.356,96.444,270.578C112.519,263.8,128.593,246.078,144.667,246.078C160.741,246.078,176.815,275.478,192.889,275.478C208.963,275.478,225.037,274.988,241.111,274.008C257.185,273.028,273.259,270.741,289.333,264.208C305.407,257.675,321.481,176.008,337.556,176.008C353.63,176.008,369.704,274.008,385.778,274.008C401.852,274.008,417.926,273.191,434,271.558C450.074,269.925,466.148,26.558,482.222,26.558C498.296,26.558,514.37,241.537,530.444,253.82C546.519,266.103,562.593,272.244,578.667,272.244C594.741,272.244,610.815,272.244,626.889,272.244C642.963,272.244,659.037,260.484,675.111,260.484C691.185,260.484,707.259,268.651,723.333,270.088C739.407,271.525,755.481,272.244,771.556,272.244C787.63,272.244,803.704,272.244,819.778,272.244C835.852,272.244,851.926,271.264,868,270.284"/><g transform="translate(0,293.118)"><circle r="12" fill="transparent" class="hit-area"/><circle r="3" fill="#fbfbfb" class="visible-dot"/><g class="tooltip-group"><rect class="tooltip-bg" x="7" y="-25" width="23.640625" height="20" rx="4" fill="rgba(0, 0, 0, 0.8)" stroke="rgba(255, 255, 255, 0.2)"/><text class="tooltip" y="-10" x="15" text-anchor="start" style="font-size: 12px; fill: white;">9</text></g></g><g transform="translate(48.22222222222222,286.748)"><circle r="12" fill="transparent" class="hit-area"/><circle r="3" fill="#fbfbfb" class="visible-dot"/><g class="tooltip-group"><rect class="tooltip-bg" x="-14.92578125" y="-25" width="29.8515625" height="20" rx="4" fill="rgba(0, 0, 0, 0.8)" stroke="rgba(255, 255, 255, 0.2)"/><text class="tooltip" y="-10" x="0" text-anchor="middle" style="font-size: 12px; fill: white;">74</text></g></g><g transform="translate(96.44444444444444,270.578)"><circle r="12" fill="transparent" class="hit-area"/><circle r="3" fill="#fbfbfb" class="visible-dot"/><g class="tooltip-group"><rect class="tooltip-bg" x="-19.203125" y="-25" width="38.40625" height="20" rx="4" fill="rgba(0, 0, 0, 0.8)" stroke="rgba(255, 255, 255, 0.2)"/><text class="tooltip" y="-10" x="0" text-anchor="middle" style="font-size: 12px; fill: white;">239</text></g></g><g transform="translate(144.66666666666666,246.078)"><circle r="12" fill="transparent" class="hit-area"/><circle r="3" fill="#fbfbfb" class="visible-dot"/><g class="tooltip-group"><rect class="tooltip-bg" x="-19.515625" y="-25" width="39.03125" height="20" rx="4" fill="rgba(0, 0, 0, 0.8)" stroke="rgba(255, 255, 255, 0.2)"/><text class="tooltip" y="-10" x="0" text-anchor="middle" style="font-size: 12px; fill: white;">489</text></g></g><g transform="translate(192.88888888888889,275.478)"><circle r="12" fill="transparent" class="hit-area"/><circle r="3" fill="#fbfbfb" class="visible-dot"/><g class="tooltip-group"><rect class="tooltip-bg" x="-18.4375" y="-25" width="36.875" height="20" rx="4" fill="rgba(0, 0, 0, 0.8)" stroke="rgba(255, 255, 255, 0.2)"/><text class="tooltip" y="-10" x="0" text-anchor="middle" style="font-size: 12px; fill: white;">189</text></g></g><g transform="translate(241.11111111111111,274.008)"><circle r="12" fill="transparent" class="hit-area"/><circle r="3" fill="#fbfbfb" class="visible-dot"/><g class="tooltip-group"><rect class="tooltip-bg" x="-19.26171875" y="-25" width="38.5234375" height="20" rx="4" fill="rgba(0, 0, 0, 0.8)" stroke="rgba(255, 255, 255, 0.2)"/><text class="tooltip" y="-10" x="0" text-anchor="middle" style="font-size: 12px; fill: white;">204</text></g></g><g transform="translate(289.3333333333333,264.208)"><circle r="12" fill="transparent" class="hit-area"/><circle r="3" fill="#fbfbfb" class="visible-dot"/><g class="tooltip-group"><rect class="tooltip-bg" x="-19.40234375" y="-25" width="38.8046875" height="20" rx="4" fill="rgba(0, 0, 0, 0.8)" stroke="rgba(255, 255, 255, 0.2)"/><text class="tooltip" y="-10" x="0" text-anchor="middle" style="font-size: 12px; fill: white;">304</text></g></g><g transform="translate(337.55555555555554,176.008)"><circle r="12" fill="transparent" class="hit-area"/><circle r="3" fill="#fbfbfb" class="visible-dot"/><g class="tooltip-group"><rect class="tooltip-bg" x="-22.046875" y="-25" width="44.09375" height="20" rx="4" fill="rgba(0, 0, 0, 0.8)" stroke="rgba(255, 255, 255, 0.2)"/><text class="tooltip" y="-10" x="0" text-anchor="middle" style="font-size: 12px; fill: white;">1204</text></g></g><g transform="translate(385.77777777777777,274.008)"><circle r="12" fill="transparent" class="hit-area"/><circle r="3" fill="#fbfbfb" class="visible-dot"/><g class="tooltip-group"><rect class="tooltip-bg" x="-19.26171875" y="-25" width="38.5234375" height="20" rx="4" fill="rgba(0, 0, 0, 0.8)" stroke="rgba(255, 255, 255, 0.2)"/><text class="tooltip" y="-10" x="0" text-anchor="middle" style="font-size: 12px; fill: white;">204</text></g></g><g transform="translate(434,271.558)"><circle r="12" fill="transparent" class="hit-area"/><circle r="3" fill="#fbfbfb" class="visible-dot"/><g class="tooltip-group"><rect class="tooltip-bg" x="-19.0625" y="-25" width="38.125" height="20" rx="4" fill="rgba(0, 0, 0, 0.8)" stroke="rgba(255, 255, 255, 0.2)"/><text class="tooltip" y="-10" x="0" text-anchor="middle" style="font-size: 12px; fill: white;">229</text></g></g><g transform="translate(482.22222222222223,26.558000000000014)"><circle r="12" fill="transparent" class="hit-area"/><circle r="3" fill="#fbfbfb" class="visible-dot"/><g class="tooltip-group"><rect class="tooltip-bg" x="-22.48046875" y="-25" width="44.9609375" height="20" rx="4" fill="rgba(0, 0, 0, 0.8)" stroke="rgba(255, 255, 255, 0.2)"/><text class="tooltip" y="-10" x="0" text-anchor="middle" style="font-size: 12px; fill: white;">2729</text></g></g><g transform="translate(530.4444444444445,253.82)"><circle r="12" fill="transparent" class="hit-area"/><circle r="3" fill="#fbfbfb" class="visible-dot"/><g class="tooltip-group"><rect class="tooltip-bg" x="-18.3671875" y="-25" width="36.734375" height="20" rx="4" fill="rgba(0, 0, 0, 0.8)" stroke="rgba(255, 255, 255, 0.2)"/><text class="tooltip" y="-10" x="0" text-anchor="middle" style="font-size: 12px; fill: white;">410</text></g></g><g transform="translate(578.6666666666666,272.244)"><circle r="12" fill="transparent" class="hit-area"/><circle r="3" fill="#fbfbfb" class="visible-dot"/><g class="tooltip-group"><rect class="tooltip-bg" x="-18.86328125" y="-25" width="37.7265625" height="20" rx="4" fill="rgba(0, 0, 0, 0.8)" stroke="rgba(255, 255, 255, 0.2)"/><text class="tooltip" y="-10" x="0" text-anchor="middle" style="font-size: 12px; fill: white;">222</text></g></g><g transform="translate(626.8888888888889,272.244)"><circle r="12" fill="transparent" class="hit-area"/><circle r="3" fill="#fbfbfb" class="visible-dot"/><g class="tooltip-group"><rect class="tooltip-bg" x="-18.86328125" y="-25" width="37.7265625" height="20" rx="4" fill="rgba(0, 0, 0, 0.8)" stroke="rgba(255, 255, 255, 0.2)"/><text class="tooltip" y="-10" x="0" text-anchor="middle" style="font-size: 12px; fill: white;">222</text></g></g><g transform="translate(675.1111111111111,260.484)"><circle r="12" fill="transparent" class="hit-area"/><circle r="3" fill="#fbfbfb" class="visible-dot"/><g class="tooltip-group"><rect class="tooltip-bg" x="-19.24609375" y="-25" width="38.4921875" height="20" rx="4" fill="rgba(0, 0, 0, 0.8)" stroke="rgba(255, 255, 255, 0.2)"/><text class="tooltip" y="-10" x="0" text-anchor="middle" style="font-size: 12px; fill: white;">342</text></g></g><g transform="translate(723.3333333333334,270.08799999999997)"><circle r="12" fill="transparent" class="hit-area"/><circle r="3" fill="#fbfbfb" class="visible-dot"/><g class="tooltip-group"><rect class="tooltip-bg" x="-19.2578125" y="-25" width="38.515625" height="20" rx="4" fill="rgba(0, 0, 0, 0.8)" stroke="rgba(255, 255, 255, 0.2)"/><text class="tooltip" y="-10" x="0" text-anchor="middle" style="font-size: 12px; fill: white;">244</text></g></g><g transform="translate(771.5555555555555,272.244)"><circle r="12" fill="transparent" class="hit-area"/><circle r="3" fill="#fbfbfb" class="visible-dot"/><g class="tooltip-group"><rect class="tooltip-bg" x="-18.86328125" y="-25" width="37.7265625" height="20" rx="4" fill="rgba(0, 0, 0, 0.8)" stroke="rgba(255, 255, 255, 0.2)"/><text class="tooltip" y="-10" x="0" text-anchor="middle" style="font-size: 12px; fill: white;">222</text></g></g><g transform="translate(819.7777777777777,272.244)"><circle r="12" fill="transparent" class="hit-area"/><circle r="3" fill="#fbfbfb" class="visible-dot"/><g class="tooltip-group"><rect class="tooltip-bg" x="-18.86328125" y="-25" width="37.7265625" height="20" rx="4" fill="rgba(0, 0, 0, 0.8)" stroke="rgba(255, 255, 255, 0.2)"/><text class="tooltip" y="-10" x="0" text-anchor="middle" style="font-size: 12px; fill: white;">222</text></g></g><g transform="translate(868,270.284)"><circle r="12" fill="transparent" class="hit-area"/><circle r="3" fill="#fbfbfb" class="visible-dot"/><g class="tooltip-group"><rect class="tooltip-bg" x="-45.03125" y="-25" width="38.03125" height="20" rx="4" fill="rgba(0, 0, 0, 0.8)" stroke="rgba(255, 255, 255, 0.2)"/><text class="tooltip" y="-10" x="-15" text-anchor="end" style="font-size: 12px; fill: white;">242</text></g></g><path class="line" fill="none" stroke="#2487ff" stroke-width="2" d="M0,294C16.074,294,32.148,294,48.222,294C64.296,294,80.37,294,96.444,294C112.519,294,128.593,294,144.667,294C160.741,294,176.815,294,192.889,294C208.963,294,225.037,220.5,241.111,220.5C257.185,220.5,273.259,277.503,289.333,284.102C305.407,290.701,321.481,294,337.556,294C353.63,294,369.704,290.57,385.778,290.57C401.852,290.57,417.926,291.55,434,291.55C450.074,291.55,466.148,291.55,482.222,291.55C498.296,291.55,514.37,289.59,530.444,289.59C546.519,289.59,562.593,289.59,578.667,289.59C594.741,289.59,610.815,279.79,626.889,279.79C642.963,279.79,659.037,279.79,675.111,279.79C691.185,279.79,707.259,279.79,723.333,279.79C739.407,279.79,755.481,279.79,771.556,279.79C787.63,279.79,803.704,279.79,819.778,279.79C835.852,279.79,851.926,279.79,868,279.79"/><g transform="translate(0,294)"><circle r="12" fill="transparent" class="hit-area"/><circle r="3" fill="#2487ff" class="visible-dot"/><g class="tooltip-group"><rect class="tooltip-bg" x="7" y="-25" width="23.5625" height="20" rx="4" fill="rgba(0, 0, 0, 0.8)" stroke="rgba(255, 255, 255, 0.2)"/><text class="tooltip" y="-10" x="15" text-anchor="start" style="font-size: 12px; fill: white;">0</text></g></g><g transform="translate(48.22222222222222,294)"><circle r="12" fill="transparent" class="hit-area"/><circle r="3" fill="#2487ff" class="visible-dot"/><g class="tooltip-group"><rect class="tooltip-bg" x="-11.78125" y="-25" width="23.5625" height="20" rx="4" fill="rgba(0, 0, 0, 0.8)" stroke="rgba(255, 255, 255, 0.2)"/><text class="tooltip" y="-10" x="0" text-anchor="middle" style="font-size: 12px; fill: white;">0</text></g></g><g transform="translate(96.44444444444444,294)"><circle r="12" fill="transparent" class="hit-area"/><circle r="3" fill="#2487ff" class="visible-dot"/><g class="tooltip-group"><rect class="tooltip-bg" x="-11.78125" y="-25" width="23.5625" height="20" rx="4" fill="rgba(0, 0, 0, 0.8)" stroke="rgba(255, 255, 255, 0.2)"/><text class="tooltip" y="-10" x="0" text-anchor="middle" style="font-size: 12px; fill: white;">0</text></g></g><g transform="translate(144.66666666666666,294)"><circle r="12" fill="transparent" class="hit-area"/><circle r="3" fill="#2487ff" class="visible-dot"/><g class="tooltip-group"><rect class="tooltip-bg" x="-11.78125" y="-25" width="23.5625" height="20" rx="4" fill="rgba(0, 0, 0, 0.8)" stroke="rgba(255, 255, 255, 0.2)"/><text class="tooltip" y="-10" x="0" text-anchor="middle" style="font-size: 12px; fill: white;">0</text></g></g><g transform="translate(192.88888888888889,294)"><circle r="12" fill="transparent" class="hit-area"/><circle r="3" fill="#2487ff" class="visible-dot"/><g class="tooltip-group"><rect class="tooltip-bg" x="-11.78125" y="-25" width="23.5625" height="20" rx="4" fill="rgba(0, 0, 0, 0.8)" stroke="rgba(255, 255, 255, 0.2)"/><text class="tooltip" y="-10" x="0" text-anchor="middle" style="font-size: 12px; fill: white;">0</text></g></g><g transform="translate(241.11111111111111,220.5)"><circle r="12" fill="transparent" class="hit-area"/><circle r="3" fill="#2487ff" class="visible-dot"/><g class="tooltip-group"><rect class="tooltip-bg" x="-18.84765625" y="-25" width="37.6953125" height="20" rx="4" fill="rgba(0, 0, 0, 0.8)" stroke="rgba(255, 255, 255, 0.2)"/><text class="tooltip" y="-10" x="0" text-anchor="middle" style="font-size: 12px; fill: white;">750</text></g></g><g transform="translate(289.3333333333333,284.10200000000003)"><circle r="12" fill="transparent" class="hit-area"/><circle r="3" fill="#2487ff" class="visible-dot"/><g class="tooltip-group"><rect class="tooltip-bg" x="-17.34765625" y="-25" width="34.6953125" height="20" rx="4" fill="rgba(0, 0, 0, 0.8)" stroke="rgba(255, 255, 255, 0.2)"/><text class="tooltip" y="-10" x="0" text-anchor="middle" style="font-size: 12px; fill: white;">101</text></g></g><g transform="translate(337.55555555555554,294)"><circle r="12" fill="transparent" class="hit-area"/><circle r="3" fill="#2487ff" class="visible-dot"/><g class="tooltip-group"><rect class="tooltip-bg" x="-11.78125" y="-25" width="23.5625" height="20" rx="4" fill="rgba(0, 0, 0, 0.8)" stroke="rgba(255, 255, 255, 0.2)"/><text class="tooltip" y="-10" x="0" text-anchor="middle" style="font-size: 12px; fill: white;">0</text></g></g><g transform="translate(385.77777777777777,290.57)"><circle r="12" fill="transparent" class="hit-area"/><circle r="3" fill="#2487ff" class="visible-dot"/><g class="tooltip-group"><rect class="tooltip-bg" x="-15.47265625" y="-25" width="30.9453125" height="20" rx="4" fill="rgba(0, 0, 0, 0.8)" stroke="rgba(255, 255, 255, 0.2)"/><text class="tooltip" y="-10" x="0" text-anchor="middle" style="font-size: 12px; fill: white;">35</text></g></g><g transform="translate(434,291.55)"><circle r="12" fill="transparent" class="hit-area"/><circle r="3" fill="#2487ff" class="visible-dot"/><g class="tooltip-group"><rect class="tooltip-bg" x="-15.33203125" y="-25" width="30.6640625" height="20" rx="4" fill="rgba(0, 0, 0, 0.8)" stroke="rgba(255, 255, 255, 0.2)"/><text class="tooltip" y="-10" x="0" text-anchor="middle" style="font-size: 12px; fill: white;">25</text></g></g><g transform="translate(482.22222222222223,291.55)"><circle r="12" fill="transparent" class="hit-area"/><circle r="3" fill="#2487ff" class="visible-dot"/><g class="tooltip-group"><rect class="tooltip-bg" x="-15.33203125" y="-25" width="30.6640625" height="20" rx="4" fill="rgba(0, 0, 0, 0.8)" stroke="rgba(255, 255, 255, 0.2)"/><text class="tooltip" y="-10" x="0" text-anchor="middle" style="font-size: 12px; fill: white;">25</text></g></g><g transform="translate(530.4444444444445,289.59)"><circle r="12" fill="transparent" class="hit-area"/><circle r="3" fill="#2487ff" class="visible-dot"/><g class="tooltip-group"><rect class="tooltip-bg" x="-15.5703125" y="-25" width="31.140625" height="20" rx="4" fill="rgba(0, 0, 0, 0.8)" stroke="rgba(255, 255, 255, 0.2)"/><text class="tooltip" y="-10" x="0" text-anchor="middle" style="font-size: 12px; fill: white;">45</text></g></g><g transform="translate(578.6666666666666,289.59)"><circle r="12" fill="transparent" class="hit-area"/><circle r="3" fill="#2487ff" class="visible-dot"/><g class="tooltip-group"><rect class="tooltip-bg" x="-15.5703125" y="-25" width="31.140625" height="20" rx="4" fill="rgba(0, 0, 0, 0.8)" stroke="rgba(255, 255, 255, 0.2)"/><text class="tooltip" y="-10" x="0" text-anchor="middle" style="font-size: 12px; fill: white;">45</text></g></g><g transform="translate(626.8888888888889,279.79)"><circle r="12" fill="transparent" class="hit-area"/><circle r="3" fill="#2487ff" class="visible-dot"/><g class="tooltip-group"><rect class="tooltip-bg" x="-18.35546875" y="-25" width="36.7109375" height="20" rx="4" fill="rgba(0, 0, 0, 0.8)" stroke="rgba(255, 255, 255, 0.2)"/><text class="tooltip" y="-10" x="0" text-anchor="middle" style="font-size: 12px; fill: white;">145</text></g></g><g transform="translate(675.1111111111111,279.79)"><circle r="12" fill="transparent" class="hit-area"/><circle r="3" fill="#2487ff" class="visible-dot"/><g class="tooltip-group"><rect class="tooltip-bg" x="-18.35546875" y="-25" width="36.7109375" height="20" rx="4" fill="rgba(0, 0, 0, 0.8)" stroke="rgba(255, 255, 255, 0.2)"/><text class="tooltip" y="-10" x="0" text-anchor="middle" style="font-size: 12px; fill: white;">145</text></g></g><g transform="translate(723.3333333333334,279.79)"><circle r="12" fill="transparent" class="hit-area"/><circle r="3" fill="#2487ff" class="visible-dot"/><g class="tooltip-group"><rect class="tooltip-bg" x="-18.35546875" y="-25" width="36.7109375" height="20" rx="4" fill="rgba(0, 0, 0, 0.8)" stroke="rgba(255, 255, 255, 0.2)"/><text class="tooltip" y="-10" x="0" text-anchor="middle" style="font-size: 12px; fill: white;">145</text></g></g><g transform="translate(771.5555555555555,279.79)"><circle r="12" fill="transparent" class="hit-area"/><circle r="3" fill="#2487ff" class="visible-dot"/><g class="tooltip-group"><rect class="tooltip-bg" x="-18.35546875" y="-25" width="36.7109375" height="20" rx="4" fill="rgba(0, 0, 0, 0.8)" stroke="rgba(255, 255, 255, 0.2)"/><text class="tooltip" y="-10" x="0" text-anchor="middle" style="font-size: 12px; fill: white;">145</text></g></g><g transform="translate(819.7777777777777,279.79)"><circle r="12" fill="transparent" class="hit-area"/><circle r="3" fill="#2487ff" class="visible-dot"/><g class="tooltip-group"><rect class="tooltip-bg" x="-18.35546875" y="-25" width="36.7109375" height="20" rx="4" fill="rgba(0, 0, 0, 0.8)" stroke="rgba(255, 255, 255, 0.2)"/><text class="tooltip" y="-10" x="0" text-anchor="middle" style="font-size: 12px; fill: white;">145</text></g></g><g transform="translate(868,279.79)"><circle r="12" fill="transparent" class="hit-area"/><circle r="3" fill="#2487ff" class="visible-dot"/><g class="tooltip-group"><rect class="tooltip-bg" x="-43.7109375" y="-25" width="36.7109375" height="20" rx="4" fill="rgba(0, 0, 0, 0.8)" stroke="rgba(255, 255, 255, 0.2)"/><text class="tooltip" y="-10" x="-15" text-anchor="end" style="font-size: 12px; fill: white;">145</text></g></g></g></svg>