<svg xmlns="http://www.w3.org/2000/svg" class="venz-chart" role="img" viewBox="-24 -24 976 432"><title>New labeled data series (8/1 7:12)</title><g transform="translate(60,30)"><style>
      .tooltip {
        opacity: 0;
        pointer-events: none;
        transition: opacity 0.2s ease-in-out;
      }
      .tooltip-bg {
        opacity: 0;
        pointer-events: none;
        transition: opacity 0.2s ease-in-out;
      }
      .hit-area:hover + .visible-dot + .tooltip-group &gt; .tooltip-bg,
      .hit-area:hover + .visible-dot + .tooltip-group &gt; .tooltip {
        opacity: 1;
      }
    </style><g class="grid" style="stroke: currentcolor; opacity: 0.2;" fill="none" font-size="10" font-family="sans-serif" text-anchor="end"><path class="domain" stroke="currentColor" d="M868,294H0V0H868"/><g class="tick" opacity="1" transform="translate(0,294)"><line stroke="currentColor" x2="868"/><text fill="currentColor" x="-3" dy="0.32em"/></g><g class="tick" opacity="1" transform="translate(0,274.4)"><line stroke="currentColor" x2="868"/><text fill="currentColor" x="-3" dy="0.32em"/></g><g class="tick" opacity="1" transform="translate(0,254.8)"><line stroke="currentColor" x2="868"/><text fill="currentColor" x="-3" dy="0.32em"/></g><g class="tick" opacity="1" transform="translate(0,235.20000000000002)"><line stroke="currentColor" x2="868"/><text fill="currentColor" x="-3" dy="0.32em"/></g><g class="tick" opacity="1" transform="translate(0,215.60000000000002)"><line stroke="currentColor" x2="868"/><text fill="currentColor" x="-3" dy="0.32em"/></g><g class="tick" opacity="1" transform="translate(0,196.00000000000003)"><line stroke="currentColor" x2="868"/><text fill="currentColor" x="-3" dy="0.32em"/></g><g class="tick" opacity="1" transform="translate(0,176.4)"><line stroke="currentColor" x2="868"/><text fill="currentColor" x="-3" dy="0.32em"/></g><g class="tick" opacity="1" transform="translate(0,156.8)"><line stroke="currentColor" x2="868"/><text fill="currentColor" x="-3" dy="0.32em"/></g><g class="tick" opacity="1" transform="translate(0,137.2)"><line stroke="currentColor" x2="868"/><text fill="currentColor" x="-3" dy="0.32em"/></g><g class="tick" opacity="1" transform="translate(0,117.60000000000001)"><line stroke="currentColor" x2="868"/><text fill="currentColor" x="-3" dy="0.32em"/></g><g class="tick" opacity="1" transform="translate(0,98.00000000000001)"><line stroke="currentColor" x2="868"/><text fill="currentColor" x="-3" dy="0.32em"/></g><g class="tick" opacity="1" transform="translate(0,78.40000000000002)"><line stroke="currentColor" x2="868"/><text fill="currentColor" x="-3" dy="0.32em"/></g><g class="tick" opacity="1" transform="translate(0,58.79999999999999)"><line stroke="currentColor" x2="868"/><text fill="currentColor" x="-3" dy="0.32em"/></g><g class="tick" opacity="1" transform="translate(0,39.19999999999999)"><line stroke="currentColor" x2="868"/><text fill="currentColor" x="-3" dy="0.32em"/></g><g class="tick" opacity="1" transform="translate(0,19.599999999999994)"><line stroke="currentColor" x2="868"/><text fill="currentColor" x="-3" dy="0.32em"/></g><g class="tick" opacity="1" transform="translate(0,0)"><line stroke="currentColor" x2="868"/><text fill="currentColor" x="-3" dy="0.32em"/></g></g><g class="grid" transform="translate(0, 294)" style="stroke: currentcolor; opacity: 0.2;" fill="none" font-size="10" font-family="sans-serif" text-anchor="middle"><path class="domain" stroke="currentColor" d="M0,-294V0H868V-294"/><g class="tick" opacity="1" transform="translate(0,0)"><line stroke="currentColor" y2="-294"/><text fill="currentColor" y="3" dy="0.71em"/></g><g class="tick" opacity="1" transform="translate(43.4,0)"><line stroke="currentColor" y2="-294"/><text fill="currentColor" y="3" dy="0.71em"/></g><g class="tick" opacity="1" transform="translate(86.8,0)"><line stroke="currentColor" y2="-294"/><text fill="currentColor" y="3" dy="0.71em"/></g><g class="tick" opacity="1" transform="translate(130.2,0)"><line stroke="currentColor" y2="-294"/><text fill="currentColor" y="3" dy="0.71em"/></g><g class="tick" opacity="1" transform="translate(173.6,0)"><line stroke="currentColor" y2="-294"/><text fill="currentColor" y="3" dy="0.71em"/></g><g class="tick" opacity="1" transform="translate(217,0)"><line stroke="currentColor" y2="-294"/><text fill="currentColor" y="3" dy="0.71em"/></g><g class="tick" opacity="1" transform="translate(260.4,0)"><line stroke="currentColor" y2="-294"/><text fill="currentColor" y="3" dy="0.71em"/></g><g class="tick" opacity="1" transform="translate(303.8,0)"><line stroke="currentColor" y2="-294"/><text fill="currentColor" y="3" dy="0.71em"/></g><g class="tick" opacity="1" transform="translate(347.2,0)"><line stroke="currentColor" y2="-294"/><text fill="currentColor" y="3" dy="0.71em"/></g><g class="tick" opacity="1" transform="translate(390.59999999999997,0)"><line stroke="currentColor" y2="-294"/><text fill="currentColor" y="3" dy="0.71em"/></g><g class="tick" opacity="1" transform="translate(434,0)"><line stroke="currentColor" y2="-294"/><text fill="currentColor" y="3" dy="0.71em"/></g><g class="tick" opacity="1" transform="translate(477.4,0)"><line stroke="currentColor" y2="-294"/><text fill="currentColor" y="3" dy="0.71em"/></g><g class="tick" opacity="1" transform="translate(520.8,0)"><line stroke="currentColor" y2="-294"/><text fill="currentColor" y="3" dy="0.71em"/></g><g class="tick" opacity="1" transform="translate(564.1999999999999,0)"><line stroke="currentColor" y2="-294"/><text fill="currentColor" y="3" dy="0.71em"/></g><g class="tick" opacity="1" transform="translate(607.6,0)"><line stroke="currentColor" y2="-294"/><text fill="currentColor" y="3" dy="0.71em"/></g><g class="tick" opacity="1" transform="translate(651,0)"><line stroke="currentColor" y2="-294"/><text fill="currentColor" y="3" dy="0.71em"/></g><g class="tick" opacity="1" transform="translate(694.4,0)"><line stroke="currentColor" y2="-294"/><text fill="currentColor" y="3" dy="0.71em"/></g><g class="tick" opacity="1" transform="translate(737.8,0)"><line stroke="currentColor" y2="-294"/><text fill="currentColor" y="3" dy="0.71em"/></g><g class="tick" opacity="1" transform="translate(781.1999999999999,0)"><line stroke="currentColor" y2="-294"/><text fill="currentColor" y="3" dy="0.71em"/></g><g class="tick" opacity="1" transform="translate(824.6,0)"><line stroke="currentColor" y2="-294"/><text fill="currentColor" y="3" dy="0.71em"/></g><g class="tick" opacity="1" transform="translate(868,0)"><line stroke="currentColor" y2="-294"/><text fill="currentColor" y="3" dy="0.71em"/></g></g><g fill="none" font-size="10" font-family="sans-serif" text-anchor="end"><path class="domain" stroke="currentColor" d="M-6,294H0V0H-6"/><g class="tick" opacity="1" transform="translate(0,294)"><line stroke="currentColor" x2="-6"/><text fill="currentColor" x="-9" dy="0.32em" style="fill: currentcolor;">0</text></g><g class="tick" opacity="1" transform="translate(0,274.4)"><line stroke="currentColor" x2="-6"/><text fill="currentColor" x="-9" dy="0.32em" style="fill: currentcolor;">200</text></g><g class="tick" opacity="1" transform="translate(0,254.8)"><line stroke="currentColor" x2="-6"/><text fill="currentColor" x="-9" dy="0.32em" style="fill: currentcolor;">400</text></g><g class="tick" opacity="1" transform="translate(0,235.20000000000002)"><line stroke="currentColor" x2="-6"/><text fill="currentColor" x="-9" dy="0.32em" style="fill: currentcolor;">600</text></g><g class="tick" opacity="1" transform="translate(0,215.60000000000002)"><line stroke="currentColor" x2="-6"/><text fill="currentColor" x="-9" dy="0.32em" style="fill: currentcolor;">800</text></g><g class="tick" opacity="1" transform="translate(0,196.00000000000003)"><line stroke="currentColor" x2="-6"/><text fill="currentColor" x="-9" dy="0.32em" style="fill: currentcolor;">1,000</text></g><g class="tick" opacity="1" transform="translate(0,176.4)"><line stroke="currentColor" x2="-6"/><text fill="currentColor" x="-9" dy="0.32em" style="fill: currentcolor;">1,200</text></g><g class="tick" opacity="1" transform="translate(0,156.8)"><line stroke="currentColor" x2="-6"/><text fill="currentColor" x="-9" dy="0.32em" style="fill: currentcolor;">1,400</text></g><g class="tick" opacity="1" transform="translate(0,137.2)"><line stroke="currentColor" x2="-6"/><text fill="currentColor" x="-9" dy="0.32em" style="fill: currentcolor;">1,600</text></g><g class="tick" opacity="1" transform="translate(0,117.60000000000001)"><line stroke="currentColor" x2="-6"/><text fill="currentColor" x="-9" dy="0.32em" style="fill: currentcolor;">1,800</text></g><g class="tick" opacity="1" transform="translate(0,98.00000000000001)"><line stroke="currentColor" x2="-6"/><text fill="currentColor" x="-9" dy="0.32em" style="fill: currentcolor;">2,000</text></g><g class="tick" opacity="1" transform="translate(0,78.40000000000002)"><line stroke="currentColor" x2="-6"/><text fill="currentColor" x="-9" dy="0.32em" style="fill: currentcolor;">2,200</text></g><g class="tick" opacity="1" transform="translate(0,58.79999999999999)"><line stroke="currentColor" x2="-6"/><text fill="currentColor" x="-9" dy="0.32em" style="fill: currentcolor;">2,400</text></g><g class="tick" opacity="1" transform="translate(0,39.19999999999999)"><line stroke="currentColor" x2="-6"/><text fill="currentColor" x="-9" dy="0.32em" style="fill: currentcolor;">2,600</text></g><g class="tick" opacity="1" transform="translate(0,19.599999999999994)"><line stroke="currentColor" x2="-6"/><text fill="currentColor" x="-9" dy="0.32em" style="fill: currentcolor;">2,800</text></g><g class="tick" opacity="1" transform="translate(0,0)"><line stroke="currentColor" x2="-6"/><text fill="currentColor" x="-9" dy="0.32em" style="fill: currentcolor;">3,000</text></g></g><g transform="translate(0,294)" fill="none" font-size="10" font-family="sans-serif" text-anchor="middle"><path class="domain" stroke="currentColor" d="M0,6V0H868V6"/><g class="tick" opacity="1" transform="translate(0,0)"><line stroke="currentColor" y2="6"/><text fill="currentColor" y="9" dy=".1em" style="fill: currentcolor;" transform="rotate(-45)" text-anchor="end" dx="-.8em">2023-11</text></g><g class="tick" opacity="1" transform="translate(43.4,0)"><line stroke="currentColor" y2="6"/><text fill="currentColor" y="9" dy=".1em" style="fill: currentcolor;" transform="rotate(-45)" text-anchor="end" dx="-.8em">2023-12</text></g><g class="tick" opacity="1" transform="translate(86.8,0)"><line stroke="currentColor" y2="6"/><text fill="currentColor" y="9" dy=".1em" style="fill: currentcolor;" transform="rotate(-45)" text-anchor="end" dx="-.8em">2024-01</text></g><g class="tick" opacity="1" transform="translate(130.2,0)"><line stroke="currentColor" y2="6"/><text fill="currentColor" y="9" dy=".1em" style="fill: currentcolor;" transform="rotate(-45)" text-anchor="end" dx="-.8em">2024-02</text></g><g class="tick" opacity="1" transform="translate(173.6,0)"><line stroke="currentColor" y2="6"/><text fill="currentColor" y="9" dy=".1em" style="fill: currentcolor;" transform="rotate(-45)" text-anchor="end" dx="-.8em">2024-03</text></g><g class="tick" opacity="1" transform="translate(217,0)"><line stroke="currentColor" y2="6"/><text fill="currentColor" y="9" dy=".1em" style="fill: currentcolor;" transform="rotate(-45)" text-anchor="end" dx="-.8em">2024-04</text></g><g class="tick" opacity="1" transform="translate(260.4,0)"><line stroke="currentColor" y2="6"/><text fill="currentColor" y="9" dy=".1em" style="fill: currentcolor;" transform="rotate(-45)" text-anchor="end" dx="-.8em">2024-05</text></g><g class="tick" opacity="1" transform="translate(303.8,0)"><line stroke="currentColor" y2="6"/><text fill="currentColor" y="9" dy=".1em" style="fill: currentcolor;" transform="rotate(-45)" text-anchor="end" dx="-.8em">2024-06</text></g><g class="tick" opacity="1" transform="translate(347.2,0)"><line stroke="currentColor" y2="6"/><text fill="currentColor" y="9" dy=".1em" style="fill: currentcolor;" transform="rotate(-45)" text-anchor="end" dx="-.8em">2024-07</text></g><g class="tick" opacity="1" transform="translate(390.59999999999997,0)"><line stroke="currentColor" y2="6"/><text fill="currentColor" y="9" dy=".1em" style="fill: currentcolor;" transform="rotate(-45)" text-anchor="end" dx="-.8em">2024-08</text></g><g class="tick" opacity="1" transform="translate(434,0)"><line stroke="currentColor" y2="6"/><text fill="currentColor" y="9" dy=".1em" style="fill: currentcolor;" transform="rotate(-45)" text-anchor="end" dx="-.8em">2024-09</text></g><g class="tick" opacity="1" transform="translate(477.4,0)"><line stroke="currentColor" y2="6"/><text fill="currentColor" y="9" dy=".1em" style="fill: currentcolor;" transform="rotate(-45)" text-anchor="end" dx="-.8em">2024-10</text></g><g class="tick" opacity="1" transform="translate(520.8,0)"><line stroke="currentColor" y2="6"/><text fill="currentColor" y="9" dy=".1em" style="fill: currentcolor;" transform="rotate(-45)" text-anchor="end" dx="-.8em">2024-11</text></g><g class="tick" opacity="1" transform="translate(564.1999999999999,0)"><line stroke="currentColor" y2="6"/><text fill="currentColor" y="9" dy=".1em" style="fill: currentcolor;" transform="rotate(-45)" text-anchor="end" dx="-.8em">2024-12</text></g><g class="tick" opacity="1" transform="translate(607.6,0)"><line stroke="currentColor" y2="6"/><text fill="currentColor" y="9" dy=".1em" style="fill: currentcolor;" transform="rotate(-45)" text-anchor="end" dx="-.8em">2025-01</text></g><g class="tick" opacity="1" transform="translate(651,0)"><line stroke="currentColor" y2="6"/><text fill="currentColor" y="9" dy=".1em" style="fill: currentcolor;" transform="rotate(-45)" text-anchor="end" dx="-.8em">2025-02</text></g><g class="tick" opacity="1" transform="translate(694.4,0)"><line stroke="currentColor" y2="6"/><text fill="currentColor" y="9" dy=".1em" style="fill: currentcolor;" transform="rotate(-45)" text-anchor="end" dx="-.8em">2025-03</text></g><g class="tick" opacity="1" transform="translate(737.8,0)"><line stroke="currentColor" y2="6"/><text fill="currentColor" y="9" dy=".1em" style="fill: currentcolor;" transform="rotate(-45)" text-anchor="end" dx="-.8em">2025-04</text></g><g class="tick" opacity="1" transform="translate(781.1999999999999,0)"><line stroke="currentColor" y2="6"/><text fill="currentColor" y="9" dy=".1em" style="fill: currentcolor;" transform="rotate(-45)" text-anchor="end" dx="-.8em">2025-05</text></g><g class="tick" opacity="1" transform="translate(824.6,0)"><line stroke="currentColor" y2="6"/><text fill="currentColor" y="9" dy=".1em" style="fill: currentcolor;" transform="rotate(-45)" text-anchor="end" dx="-.8em">2025-06</text></g><g class="tick" opacity="1" transform="translate(868,0)"><line stroke="currentColor" y2="6"/><text fill="currentColor" y="9" dy=".1em" style="fill: currentcolor;" transform="rotate(-45)" text-anchor="end" dx="-.8em">2025-07</text></g></g><text x="434" y="349" text-anchor="middle" style="fill: currentcolor; font-family: sans-serif;">month</text><text x="-147" y="-45" transform="rotate(-90)" text-anchor="middle" style="fill: currentcolor; font-family: sans-serif;">amount ($)</text><g class="legend" transform="translate(824.5999999999999, 20)"><g transform="translate(0, 0)"><text x="0" y="10" style="fill: rgb(251, 251, 251); font-family: sans-serif;" text-anchor="end">GitHub Sponsors</text><circle cx="20" cy="6" r="4" style="fill: rgb(251, 251, 251);"/></g><g transform="translate(0, 25)"><text x="0" y="10" style="fill: rgb(36, 135, 255); font-family: sans-serif;" text-anchor="end">Open Collective</text><circle cx="20" cy="6" r="4" style="fill: rgb(36, 135, 255);"/></g></g><path class="line" fill="none" stroke="#fbfbfb" stroke-width="2" d="M0,293.118C14.467,291.811,28.933,290.505,43.4,286.748C57.867,282.991,72.333,277.356,86.8,270.578C101.267,263.8,115.733,246.078,130.2,246.078C144.667,246.078,159.133,275.478,173.6,275.478C188.067,275.478,202.533,274.988,217,274.008C231.467,273.028,245.933,270.741,260.4,264.208C274.867,257.675,289.333,176.008,303.8,176.008C318.267,176.008,332.733,274.008,347.2,274.008C361.667,274.008,376.133,273.191,390.6,271.558C405.067,269.925,419.533,26.558,434,26.558C448.467,26.558,462.933,241.537,477.4,253.82C491.867,266.103,506.333,272.244,520.8,272.244C535.267,272.244,549.733,272.244,564.2,272.244C578.667,272.244,593.133,260.484,607.6,260.484C622.067,260.484,636.533,268.651,651,270.088C665.467,271.525,679.933,272.244,694.4,272.244C708.867,272.244,723.333,272.244,737.8,272.244C752.267,272.244,766.733,270.611,781.2,270.284C795.667,269.957,810.133,270.121,824.6,269.794C839.067,269.467,853.533,267.181,868,264.894"/><g transform="translate(0,293.118)"><circle r="12" fill="transparent" class="hit-area"/><circle r="3" fill="#fbfbfb" class="visible-dot"/><g class="tooltip-group"><rect class="tooltip-bg" x="7" y="-25" width="25.633333206176758" height="20" rx="4" fill="rgba(0, 0, 0, 0.8)" stroke="rgba(255, 255, 255, 0.2)"/><text class="tooltip" y="-10" x="15" text-anchor="start" style="font-size: 12px; fill: white;">9</text></g></g><g transform="translate(43.4,286.748)"><circle r="12" fill="transparent" class="hit-area"/><circle r="3" fill="#fbfbfb" class="visible-dot"/><g class="tooltip-group"><rect class="tooltip-bg" x="-15.925000190734863" y="-25" width="31.850000381469727" height="20" rx="4" fill="rgba(0, 0, 0, 0.8)" stroke="rgba(255, 255, 255, 0.2)"/><text class="tooltip" y="-10" x="0" text-anchor="middle" style="font-size: 12px; fill: white;">74</text></g></g><g transform="translate(86.8,270.578)"><circle r="12" fill="transparent" class="hit-area"/><circle r="3" fill="#fbfbfb" class="visible-dot"/><g class="tooltip-group"><rect class="tooltip-bg" x="-20.199999809265137" y="-25" width="40.39999961853027" height="20" rx="4" fill="rgba(0, 0, 0, 0.8)" stroke="rgba(255, 255, 255, 0.2)"/><text class="tooltip" y="-10" x="0" text-anchor="middle" style="font-size: 12px; fill: white;">239</text></g></g><g transform="translate(130.2,246.078)"><circle r="12" fill="transparent" class="hit-area"/><circle r="3" fill="#fbfbfb" class="visible-dot"/><g class="tooltip-group"><rect class="tooltip-bg" x="-20.508333206176758" y="-25" width="41.016666412353516" height="20" rx="4" fill="rgba(0, 0, 0, 0.8)" stroke="rgba(255, 255, 255, 0.2)"/><text class="tooltip" y="-10" x="0" text-anchor="middle" style="font-size: 12px; fill: white;">489</text></g></g><g transform="translate(173.6,275.478)"><circle r="12" fill="transparent" class="hit-area"/><circle r="3" fill="#fbfbfb" class="visible-dot"/><g class="tooltip-group"><rect class="tooltip-bg" x="-19.43333339691162" y="-25" width="38.86666679382324" height="20" rx="4" fill="rgba(0, 0, 0, 0.8)" stroke="rgba(255, 255, 255, 0.2)"/><text class="tooltip" y="-10" x="0" text-anchor="middle" style="font-size: 12px; fill: white;">189</text></g></g><g transform="translate(217,274.008)"><circle r="12" fill="transparent" class="hit-area"/><circle r="3" fill="#fbfbfb" class="visible-dot"/><g class="tooltip-group"><rect class="tooltip-bg" x="-20.266666412353516" y="-25" width="40.53333282470703" height="20" rx="4" fill="rgba(0, 0, 0, 0.8)" stroke="rgba(255, 255, 255, 0.2)"/><text class="tooltip" y="-10" x="0" text-anchor="middle" style="font-size: 12px; fill: white;">204</text></g></g><g transform="translate(260.4,264.208)"><circle r="12" fill="transparent" class="hit-area"/><circle r="3" fill="#fbfbfb" class="visible-dot"/><g class="tooltip-group"><rect class="tooltip-bg" x="-20.399999618530273" y="-25" width="40.79999923706055" height="20" rx="4" fill="rgba(0, 0, 0, 0.8)" stroke="rgba(255, 255, 255, 0.2)"/><text class="tooltip" y="-10" x="0" text-anchor="middle" style="font-size: 12px; fill: white;">304</text></g></g><g transform="translate(303.8,176.008)"><circle r="12" fill="transparent" class="hit-area"/><circle r="3" fill="#fbfbfb" class="visible-dot"/><g class="tooltip-group"><rect class="tooltip-bg" x="-23.050000190734863" y="-25" width="46.10000038146973" height="20" rx="4" fill="rgba(0, 0, 0, 0.8)" stroke="rgba(255, 255, 255, 0.2)"/><text class="tooltip" y="-10" x="0" text-anchor="middle" style="font-size: 12px; fill: white;">1204</text></g></g><g transform="translate(347.2,274.008)"><circle r="12" fill="transparent" class="hit-area"/><circle r="3" fill="#fbfbfb" class="visible-dot"/><g class="tooltip-group"><rect class="tooltip-bg" x="-20.266666412353516" y="-25" width="40.53333282470703" height="20" rx="4" fill="rgba(0, 0, 0, 0.8)" stroke="rgba(255, 255, 255, 0.2)"/><text class="tooltip" y="-10" x="0" text-anchor="middle" style="font-size: 12px; fill: white;">204</text></g></g><g transform="translate(390.59999999999997,271.558)"><circle r="12" fill="transparent" class="hit-area"/><circle r="3" fill="#fbfbfb" class="visible-dot"/><g class="tooltip-group"><rect class="tooltip-bg" x="-20.06666660308838" y="-25" width="40.13333320617676" height="20" rx="4" fill="rgba(0, 0, 0, 0.8)" stroke="rgba(255, 255, 255, 0.2)"/><text class="tooltip" y="-10" x="0" text-anchor="middle" style="font-size: 12px; fill: white;">229</text></g></g><g transform="translate(434,26.558000000000014)"><circle r="12" fill="transparent" class="hit-area"/><circle r="3" fill="#fbfbfb" class="visible-dot"/><g class="tooltip-group"><rect class="tooltip-bg" x="-23.483333587646484" y="-25" width="46.96666717529297" height="20" rx="4" fill="rgba(0, 0, 0, 0.8)" stroke="rgba(255, 255, 255, 0.2)"/><text class="tooltip" y="-10" x="0" text-anchor="middle" style="font-size: 12px; fill: white;">2729</text></g></g><g transform="translate(477.4,253.82)"><circle r="12" fill="transparent" class="hit-area"/><circle r="3" fill="#fbfbfb" class="visible-dot"/><g class="tooltip-group"><rect class="tooltip-bg" x="-19.366666793823242" y="-25" width="38.733333587646484" height="20" rx="4" fill="rgba(0, 0, 0, 0.8)" stroke="rgba(255, 255, 255, 0.2)"/><text class="tooltip" y="-10" x="0" text-anchor="middle" style="font-size: 12px; fill: white;">410</text></g></g><g transform="translate(520.8,272.244)"><circle r="12" fill="transparent" class="hit-area"/><circle r="3" fill="#fbfbfb" class="visible-dot"/><g class="tooltip-group"><rect class="tooltip-bg" x="-19.875" y="-25" width="39.75" height="20" rx="4" fill="rgba(0, 0, 0, 0.8)" stroke="rgba(255, 255, 255, 0.2)"/><text class="tooltip" y="-10" x="0" text-anchor="middle" style="font-size: 12px; fill: white;">222</text></g></g><g transform="translate(564.1999999999999,272.244)"><circle r="12" fill="transparent" class="hit-area"/><circle r="3" fill="#fbfbfb" class="visible-dot"/><g class="tooltip-group"><rect class="tooltip-bg" x="-19.875" y="-25" width="39.75" height="20" rx="4" fill="rgba(0, 0, 0, 0.8)" stroke="rgba(255, 255, 255, 0.2)"/><text class="tooltip" y="-10" x="0" text-anchor="middle" style="font-size: 12px; fill: white;">222</text></g></g><g transform="translate(607.6,260.484)"><circle r="12" fill="transparent" class="hit-area"/><circle r="3" fill="#fbfbfb" class="visible-dot"/><g class="tooltip-group"><rect class="tooltip-bg" x="-20.241666793823242" y="-25" width="40.483333587646484" height="20" rx="4" fill="rgba(0, 0, 0, 0.8)" stroke="rgba(255, 255, 255, 0.2)"/><text class="tooltip" y="-10" x="0" text-anchor="middle" style="font-size: 12px; fill: white;">342</text></g></g><g transform="translate(651,270.08799999999997)"><circle r="12" fill="transparent" class="hit-area"/><circle r="3" fill="#fbfbfb" class="visible-dot"/><g class="tooltip-group"><rect class="tooltip-bg" x="-20.25" y="-25" width="40.5" height="20" rx="4" fill="rgba(0, 0, 0, 0.8)" stroke="rgba(255, 255, 255, 0.2)"/><text class="tooltip" y="-10" x="0" text-anchor="middle" style="font-size: 12px; fill: white;">244</text></g></g><g transform="translate(694.4,272.244)"><circle r="12" fill="transparent" class="hit-area"/><circle r="3" fill="#fbfbfb" class="visible-dot"/><g class="tooltip-group"><rect class="tooltip-bg" x="-19.875" y="-25" width="39.75" height="20" rx="4" fill="rgba(0, 0, 0, 0.8)" stroke="rgba(255, 255, 255, 0.2)"/><text class="tooltip" y="-10" x="0" text-anchor="middle" style="font-size: 12px; fill: white;">222</text></g></g><g transform="translate(737.8,272.244)"><circle r="12" fill="transparent" class="hit-area"/><circle r="3" fill="#fbfbfb" class="visible-dot"/><g class="tooltip-group"><rect class="tooltip-bg" x="-19.875" y="-25" width="39.75" height="20" rx="4" fill="rgba(0, 0, 0, 0.8)" stroke="rgba(255, 255, 255, 0.2)"/><text class="tooltip" y="-10" x="0" text-anchor="middle" style="font-size: 12px; fill: white;">222</text></g></g><g transform="translate(781.1999999999999,270.284)"><circle r="12" fill="transparent" class="hit-area"/><circle r="3" fill="#fbfbfb" class="visible-dot"/><g class="tooltip-group"><rect class="tooltip-bg" x="-20.016666412353516" y="-25" width="40.03333282470703" height="20" rx="4" fill="rgba(0, 0, 0, 0.8)" stroke="rgba(255, 255, 255, 0.2)"/><text class="tooltip" y="-10" x="0" text-anchor="middle" style="font-size: 12px; fill: white;">242</text></g></g><g transform="translate(824.6,269.794)"><circle r="12" fill="transparent" class="hit-area"/><circle r="3" fill="#fbfbfb" class="visible-dot"/><g class="tooltip-group"><rect class="tooltip-bg" x="-19.80833339691162" y="-25" width="39.61666679382324" height="20" rx="4" fill="rgba(0, 0, 0, 0.8)" stroke="rgba(255, 255, 255, 0.2)"/><text class="tooltip" y="-10" x="0" text-anchor="middle" style="font-size: 12px; fill: white;">247</text></g></g><g transform="translate(868,264.894)"><circle r="12" fill="transparent" class="hit-area"/><circle r="3" fill="#fbfbfb" class="visible-dot"/><g class="tooltip-group"><rect class="tooltip-bg" x="-46.483333587646484" y="-25" width="39.483333587646484" height="20" rx="4" fill="rgba(0, 0, 0, 0.8)" stroke="rgba(255, 255, 255, 0.2)"/><text class="tooltip" y="-10" x="-15" text-anchor="end" style="font-size: 12px; fill: white;">297</text></g></g><path class="line" fill="none" stroke="#2487ff" stroke-width="2" d="M0,294C14.467,294,28.933,294,43.4,294C57.867,294,72.333,294,86.8,294C101.267,294,115.733,294,130.2,294C144.667,294,159.133,294,173.6,294C188.067,294,202.533,220.5,217,220.5C231.467,220.5,245.933,277.503,260.4,284.102C274.867,290.701,289.333,294,303.8,294C318.267,294,332.733,290.57,347.2,290.57C361.667,290.57,376.133,291.55,390.6,291.55C405.067,291.55,419.533,291.55,434,291.55C448.467,291.55,462.933,289.59,477.4,289.59C491.867,289.59,506.333,289.59,520.8,289.59C535.267,289.59,549.733,279.79,564.2,279.79C578.667,279.79,593.133,279.79,607.6,279.79C622.067,279.79,636.533,279.79,651,279.79C665.467,279.79,679.933,279.79,694.4,279.79C708.867,279.79,723.333,279.79,737.8,279.79C752.267,279.79,766.733,279.79,781.2,279.79C795.667,279.79,810.133,279.79,824.6,279.79C839.067,279.79,853.533,279.79,868,279.79"/><g transform="translate(0,294)"><circle r="12" fill="transparent" class="hit-area"/><circle r="3" fill="#2487ff" class="visible-dot"/><g class="tooltip-group"><rect class="tooltip-bg" x="7" y="-25" width="25.56666660308838" height="20" rx="4" fill="rgba(0, 0, 0, 0.8)" stroke="rgba(255, 255, 255, 0.2)"/><text class="tooltip" y="-10" x="15" text-anchor="start" style="font-size: 12px; fill: white;">0</text></g></g><g transform="translate(43.4,294)"><circle r="12" fill="transparent" class="hit-area"/><circle r="3" fill="#2487ff" class="visible-dot"/><g class="tooltip-group"><rect class="tooltip-bg" x="-12.78333330154419" y="-25" width="25.56666660308838" height="20" rx="4" fill="rgba(0, 0, 0, 0.8)" stroke="rgba(255, 255, 255, 0.2)"/><text class="tooltip" y="-10" x="0" text-anchor="middle" style="font-size: 12px; fill: white;">0</text></g></g><g transform="translate(86.8,294)"><circle r="12" fill="transparent" class="hit-area"/><circle r="3" fill="#2487ff" class="visible-dot"/><g class="tooltip-group"><rect class="tooltip-bg" x="-12.78333330154419" y="-25" width="25.56666660308838" height="20" rx="4" fill="rgba(0, 0, 0, 0.8)" stroke="rgba(255, 255, 255, 0.2)"/><text class="tooltip" y="-10" x="0" text-anchor="middle" style="font-size: 12px; fill: white;">0</text></g></g><g transform="translate(130.2,294)"><circle r="12" fill="transparent" class="hit-area"/><circle r="3" fill="#2487ff" class="visible-dot"/><g class="tooltip-group"><rect class="tooltip-bg" x="-12.78333330154419" y="-25" width="25.56666660308838" height="20" rx="4" fill="rgba(0, 0, 0, 0.8)" stroke="rgba(255, 255, 255, 0.2)"/><text class="tooltip" y="-10" x="0" text-anchor="middle" style="font-size: 12px; fill: white;">0</text></g></g><g transform="translate(173.6,294)"><circle r="12" fill="transparent" class="hit-area"/><circle r="3" fill="#2487ff" class="visible-dot"/><g class="tooltip-group"><rect class="tooltip-bg" x="-12.78333330154419" y="-25" width="25.56666660308838" height="20" rx="4" fill="rgba(0, 0, 0, 0.8)" stroke="rgba(255, 255, 255, 0.2)"/><text class="tooltip" y="-10" x="0" text-anchor="middle" style="font-size: 12px; fill: white;">0</text></g></g><g transform="translate(217,220.5)"><circle r="12" fill="transparent" class="hit-area"/><circle r="3" fill="#2487ff" class="visible-dot"/><g class="tooltip-group"><rect class="tooltip-bg" x="-19.850000381469727" y="-25" width="39.70000076293945" height="20" rx="4" fill="rgba(0, 0, 0, 0.8)" stroke="rgba(255, 255, 255, 0.2)"/><text class="tooltip" y="-10" x="0" text-anchor="middle" style="font-size: 12px; fill: white;">750</text></g></g><g transform="translate(260.4,284.10200000000003)"><circle r="12" fill="transparent" class="hit-area"/><circle r="3" fill="#2487ff" class="visible-dot"/><g class="tooltip-group"><rect class="tooltip-bg" x="-18.350000381469727" y="-25" width="36.70000076293945" height="20" rx="4" fill="rgba(0, 0, 0, 0.8)" stroke="rgba(255, 255, 255, 0.2)"/><text class="tooltip" y="-10" x="0" text-anchor="middle" style="font-size: 12px; fill: white;">101</text></g></g><g transform="translate(303.8,294)"><circle r="12" fill="transparent" class="hit-area"/><circle r="3" fill="#2487ff" class="visible-dot"/><g class="tooltip-group"><rect class="tooltip-bg" x="-12.78333330154419" y="-25" width="25.56666660308838" height="20" rx="4" fill="rgba(0, 0, 0, 0.8)" stroke="rgba(255, 255, 255, 0.2)"/><text class="tooltip" y="-10" x="0" text-anchor="middle" style="font-size: 12px; fill: white;">0</text></g></g><g transform="translate(347.2,290.57)"><circle r="12" fill="transparent" class="hit-area"/><circle r="3" fill="#2487ff" class="visible-dot"/><g class="tooltip-group"><rect class="tooltip-bg" x="-16.466666221618652" y="-25" width="32.933332443237305" height="20" rx="4" fill="rgba(0, 0, 0, 0.8)" stroke="rgba(255, 255, 255, 0.2)"/><text class="tooltip" y="-10" x="0" text-anchor="middle" style="font-size: 12px; fill: white;">35</text></g></g><g transform="translate(390.59999999999997,291.55)"><circle r="12" fill="transparent" class="hit-area"/><circle r="3" fill="#2487ff" class="visible-dot"/><g class="tooltip-group"><rect class="tooltip-bg" x="-16.333333015441895" y="-25" width="32.66666603088379" height="20" rx="4" fill="rgba(0, 0, 0, 0.8)" stroke="rgba(255, 255, 255, 0.2)"/><text class="tooltip" y="-10" x="0" text-anchor="middle" style="font-size: 12px; fill: white;">25</text></g></g><g transform="translate(434,291.55)"><circle r="12" fill="transparent" class="hit-area"/><circle r="3" fill="#2487ff" class="visible-dot"/><g class="tooltip-group"><rect class="tooltip-bg" x="-16.333333015441895" y="-25" width="32.66666603088379" height="20" rx="4" fill="rgba(0, 0, 0, 0.8)" stroke="rgba(255, 255, 255, 0.2)"/><text class="tooltip" y="-10" x="0" text-anchor="middle" style="font-size: 12px; fill: white;">25</text></g></g><g transform="translate(477.4,289.59)"><circle r="12" fill="transparent" class="hit-area"/><circle r="3" fill="#2487ff" class="visible-dot"/><g class="tooltip-group"><rect class="tooltip-bg" x="-16.56666660308838" y="-25" width="33.13333320617676" height="20" rx="4" fill="rgba(0, 0, 0, 0.8)" stroke="rgba(255, 255, 255, 0.2)"/><text class="tooltip" y="-10" x="0" text-anchor="middle" style="font-size: 12px; fill: white;">45</text></g></g><g transform="translate(520.8,289.59)"><circle r="12" fill="transparent" class="hit-area"/><circle r="3" fill="#2487ff" class="visible-dot"/><g class="tooltip-group"><rect class="tooltip-bg" x="-16.56666660308838" y="-25" width="33.13333320617676" height="20" rx="4" fill="rgba(0, 0, 0, 0.8)" stroke="rgba(255, 255, 255, 0.2)"/><text class="tooltip" y="-10" x="0" text-anchor="middle" style="font-size: 12px; fill: white;">45</text></g></g><g transform="translate(564.1999999999999,279.79)"><circle r="12" fill="transparent" class="hit-area"/><circle r="3" fill="#2487ff" class="visible-dot"/><g class="tooltip-group"><rect class="tooltip-bg" x="-19.350000381469727" y="-25" width="38.70000076293945" height="20" rx="4" fill="rgba(0, 0, 0, 0.8)" stroke="rgba(255, 255, 255, 0.2)"/><text class="tooltip" y="-10" x="0" text-anchor="middle" style="font-size: 12px; fill: white;">145</text></g></g><g transform="translate(607.6,279.79)"><circle r="12" fill="transparent" class="hit-area"/><circle r="3" fill="#2487ff" class="visible-dot"/><g class="tooltip-group"><rect class="tooltip-bg" x="-19.350000381469727" y="-25" width="38.70000076293945" height="20" rx="4" fill="rgba(0, 0, 0, 0.8)" stroke="rgba(255, 255, 255, 0.2)"/><text class="tooltip" y="-10" x="0" text-anchor="middle" style="font-size: 12px; fill: white;">145</text></g></g><g transform="translate(651,279.79)"><circle r="12" fill="transparent" class="hit-area"/><circle r="3" fill="#2487ff" class="visible-dot"/><g class="tooltip-group"><rect class="tooltip-bg" x="-19.350000381469727" y="-25" width="38.70000076293945" height="20" rx="4" fill="rgba(0, 0, 0, 0.8)" stroke="rgba(255, 255, 255, 0.2)"/><text class="tooltip" y="-10" x="0" text-anchor="middle" style="font-size: 12px; fill: white;">145</text></g></g><g transform="translate(694.4,279.79)"><circle r="12" fill="transparent" class="hit-area"/><circle r="3" fill="#2487ff" class="visible-dot"/><g class="tooltip-group"><rect class="tooltip-bg" x="-19.350000381469727" y="-25" width="38.70000076293945" height="20" rx="4" fill="rgba(0, 0, 0, 0.8)" stroke="rgba(255, 255, 255, 0.2)"/><text class="tooltip" y="-10" x="0" text-anchor="middle" style="font-size: 12px; fill: white;">145</text></g></g><g transform="translate(737.8,279.79)"><circle r="12" fill="transparent" class="hit-area"/><circle r="3" fill="#2487ff" class="visible-dot"/><g class="tooltip-group"><rect class="tooltip-bg" x="-19.350000381469727" y="-25" width="38.70000076293945" height="20" rx="4" fill="rgba(0, 0, 0, 0.8)" stroke="rgba(255, 255, 255, 0.2)"/><text class="tooltip" y="-10" x="0" text-anchor="middle" style="font-size: 12px; fill: white;">145</text></g></g><g transform="translate(781.1999999999999,279.79)"><circle r="12" fill="transparent" class="hit-area"/><circle r="3" fill="#2487ff" class="visible-dot"/><g class="tooltip-group"><rect class="tooltip-bg" x="-19.350000381469727" y="-25" width="38.70000076293945" height="20" rx="4" fill="rgba(0, 0, 0, 0.8)" stroke="rgba(255, 255, 255, 0.2)"/><text class="tooltip" y="-10" x="0" text-anchor="middle" style="font-size: 12px; fill: white;">145</text></g></g><g transform="translate(824.6,279.79)"><circle r="12" fill="transparent" class="hit-area"/><circle r="3" fill="#2487ff" class="visible-dot"/><g class="tooltip-group"><rect class="tooltip-bg" x="-19.350000381469727" y="-25" width="38.70000076293945" height="20" rx="4" fill="rgba(0, 0, 0, 0.8)" stroke="rgba(255, 255, 255, 0.2)"/><text class="tooltip" y="-10" x="0" text-anchor="middle" style="font-size: 12px; fill: white;">145</text></g></g><g transform="translate(868,279.79)"><circle r="12" fill="transparent" class="hit-area"/><circle r="3" fill="#2487ff" class="visible-dot"/><g class="tooltip-group"><rect class="tooltip-bg" x="-45.70000076293945" y="-25" width="38.70000076293945" height="20" rx="4" fill="rgba(0, 0, 0, 0.8)" stroke="rgba(255, 255, 255, 0.2)"/><text class="tooltip" y="-10" x="-15" text-anchor="end" style="font-size: 12px; fill: white;">145</text></g></g></g></svg>