<svg xmlns="http://www.w3.org/2000/svg" class="venz-chart" role="img" viewBox="-0 -0 928 384"><title>New labeled data series (9/17 8:15)</title><g transform="translate(60,30)"><style>
      .tooltip {
        opacity: 0;
        pointer-events: none;
        transition: opacity 0.2s ease-in-out;
      }
      .tooltip-bg {
        opacity: 0;
        pointer-events: none;
        transition: opacity 0.2s ease-in-out;
      }
      .hit-area:hover + .visible-dot + .tooltip-group &gt; .tooltip-bg,
      .hit-area:hover + .visible-dot + .tooltip-group &gt; .tooltip {
        opacity: 1;
      }
    </style><g class="grid" style="stroke: currentcolor; opacity: 0.2;" fill="none" font-size="10" font-family="sans-serif" text-anchor="end"><path class="domain" stroke="currentColor" d="M868,294H0V0H868"/><g class="tick" opacity="1" transform="translate(0,294)"><line stroke="currentColor" x2="868"/><text fill="currentColor" x="-3" dy="0.32em"/></g><g class="tick" opacity="1" transform="translate(0,274.4)"><line stroke="currentColor" x2="868"/><text fill="currentColor" x="-3" dy="0.32em"/></g><g class="tick" opacity="1" transform="translate(0,254.8)"><line stroke="currentColor" x2="868"/><text fill="currentColor" x="-3" dy="0.32em"/></g><g class="tick" opacity="1" transform="translate(0,235.20000000000002)"><line stroke="currentColor" x2="868"/><text fill="currentColor" x="-3" dy="0.32em"/></g><g class="tick" opacity="1" transform="translate(0,215.60000000000002)"><line stroke="currentColor" x2="868"/><text fill="currentColor" x="-3" dy="0.32em"/></g><g class="tick" opacity="1" transform="translate(0,196.00000000000003)"><line stroke="currentColor" x2="868"/><text fill="currentColor" x="-3" dy="0.32em"/></g><g class="tick" opacity="1" transform="translate(0,176.4)"><line stroke="currentColor" x2="868"/><text fill="currentColor" x="-3" dy="0.32em"/></g><g class="tick" opacity="1" transform="translate(0,156.8)"><line stroke="currentColor" x2="868"/><text fill="currentColor" x="-3" dy="0.32em"/></g><g class="tick" opacity="1" transform="translate(0,137.2)"><line stroke="currentColor" x2="868"/><text fill="currentColor" x="-3" dy="0.32em"/></g><g class="tick" opacity="1" transform="translate(0,117.60000000000001)"><line stroke="currentColor" x2="868"/><text fill="currentColor" x="-3" dy="0.32em"/></g><g class="tick" opacity="1" transform="translate(0,98.00000000000001)"><line stroke="currentColor" x2="868"/><text fill="currentColor" x="-3" dy="0.32em"/></g><g class="tick" opacity="1" transform="translate(0,78.40000000000002)"><line stroke="currentColor" x2="868"/><text fill="currentColor" x="-3" dy="0.32em"/></g><g class="tick" opacity="1" transform="translate(0,58.79999999999999)"><line stroke="currentColor" x2="868"/><text fill="currentColor" x="-3" dy="0.32em"/></g><g class="tick" opacity="1" transform="translate(0,39.19999999999999)"><line stroke="currentColor" x2="868"/><text fill="currentColor" x="-3" dy="0.32em"/></g><g class="tick" opacity="1" transform="translate(0,19.599999999999994)"><line stroke="currentColor" x2="868"/><text fill="currentColor" x="-3" dy="0.32em"/></g><g class="tick" opacity="1" transform="translate(0,0)"><line stroke="currentColor" x2="868"/><text fill="currentColor" x="-3" dy="0.32em"/></g></g><g class="grid" transform="translate(0, 294)" style="stroke: currentcolor; opacity: 0.2;" fill="none" font-size="10" font-family="sans-serif" text-anchor="middle"><path class="domain" stroke="currentColor" d="M0,-294V0H868V-294"/><g class="tick" opacity="1" transform="translate(0,0)"><line stroke="currentColor" y2="-294"/><text fill="currentColor" y="3" dy="0.71em"/></g><g class="tick" opacity="1" transform="translate(41.333333333333336,0)"><line stroke="currentColor" y2="-294"/><text fill="currentColor" y="3" dy="0.71em"/></g><g class="tick" opacity="1" transform="translate(82.66666666666667,0)"><line stroke="currentColor" y2="-294"/><text fill="currentColor" y="3" dy="0.71em"/></g><g class="tick" opacity="1" transform="translate(124,0)"><line stroke="currentColor" y2="-294"/><text fill="currentColor" y="3" dy="0.71em"/></g><g class="tick" opacity="1" transform="translate(165.33333333333334,0)"><line stroke="currentColor" y2="-294"/><text fill="currentColor" y="3" dy="0.71em"/></g><g class="tick" opacity="1" transform="translate(206.66666666666669,0)"><line stroke="currentColor" y2="-294"/><text fill="currentColor" y="3" dy="0.71em"/></g><g class="tick" opacity="1" transform="translate(248,0)"><line stroke="currentColor" y2="-294"/><text fill="currentColor" y="3" dy="0.71em"/></g><g class="tick" opacity="1" transform="translate(289.33333333333337,0)"><line stroke="currentColor" y2="-294"/><text fill="currentColor" y="3" dy="0.71em"/></g><g class="tick" opacity="1" transform="translate(330.6666666666667,0)"><line stroke="currentColor" y2="-294"/><text fill="currentColor" y="3" dy="0.71em"/></g><g class="tick" opacity="1" transform="translate(372,0)"><line stroke="currentColor" y2="-294"/><text fill="currentColor" y="3" dy="0.71em"/></g><g class="tick" opacity="1" transform="translate(413.33333333333337,0)"><line stroke="currentColor" y2="-294"/><text fill="currentColor" y="3" dy="0.71em"/></g><g class="tick" opacity="1" transform="translate(454.6666666666667,0)"><line stroke="currentColor" y2="-294"/><text fill="currentColor" y="3" dy="0.71em"/></g><g class="tick" opacity="1" transform="translate(496,0)"><line stroke="currentColor" y2="-294"/><text fill="currentColor" y="3" dy="0.71em"/></g><g class="tick" opacity="1" transform="translate(537.3333333333334,0)"><line stroke="currentColor" y2="-294"/><text fill="currentColor" y="3" dy="0.71em"/></g><g class="tick" opacity="1" transform="translate(578.6666666666667,0)"><line stroke="currentColor" y2="-294"/><text fill="currentColor" y="3" dy="0.71em"/></g><g class="tick" opacity="1" transform="translate(620,0)"><line stroke="currentColor" y2="-294"/><text fill="currentColor" y="3" dy="0.71em"/></g><g class="tick" opacity="1" transform="translate(661.3333333333334,0)"><line stroke="currentColor" y2="-294"/><text fill="currentColor" y="3" dy="0.71em"/></g><g class="tick" opacity="1" transform="translate(702.6666666666667,0)"><line stroke="currentColor" y2="-294"/><text fill="currentColor" y="3" dy="0.71em"/></g><g class="tick" opacity="1" transform="translate(744,0)"><line stroke="currentColor" y2="-294"/><text fill="currentColor" y="3" dy="0.71em"/></g><g class="tick" opacity="1" transform="translate(785.3333333333334,0)"><line stroke="currentColor" y2="-294"/><text fill="currentColor" y="3" dy="0.71em"/></g><g class="tick" opacity="1" transform="translate(826.6666666666667,0)"><line stroke="currentColor" y2="-294"/><text fill="currentColor" y="3" dy="0.71em"/></g><g class="tick" opacity="1" transform="translate(868,0)"><line stroke="currentColor" y2="-294"/><text fill="currentColor" y="3" dy="0.71em"/></g></g><g fill="none" font-size="10" font-family="sans-serif" text-anchor="end"><path class="domain" stroke="currentColor" d="M-6,294H0V0H-6"/><g class="tick" opacity="1" transform="translate(0,294)"><line stroke="currentColor" x2="-6"/><text fill="currentColor" x="-9" dy="0.32em" style="fill: currentcolor;">0</text></g><g class="tick" opacity="1" transform="translate(0,274.4)"><line stroke="currentColor" x2="-6"/><text fill="currentColor" x="-9" dy="0.32em" style="fill: currentcolor;">200</text></g><g class="tick" opacity="1" transform="translate(0,254.8)"><line stroke="currentColor" x2="-6"/><text fill="currentColor" x="-9" dy="0.32em" style="fill: currentcolor;">400</text></g><g class="tick" opacity="1" transform="translate(0,235.20000000000002)"><line stroke="currentColor" x2="-6"/><text fill="currentColor" x="-9" dy="0.32em" style="fill: currentcolor;">600</text></g><g class="tick" opacity="1" transform="translate(0,215.60000000000002)"><line stroke="currentColor" x2="-6"/><text fill="currentColor" x="-9" dy="0.32em" style="fill: currentcolor;">800</text></g><g class="tick" opacity="1" transform="translate(0,196.00000000000003)"><line stroke="currentColor" x2="-6"/><text fill="currentColor" x="-9" dy="0.32em" style="fill: currentcolor;">1,000</text></g><g class="tick" opacity="1" transform="translate(0,176.4)"><line stroke="currentColor" x2="-6"/><text fill="currentColor" x="-9" dy="0.32em" style="fill: currentcolor;">1,200</text></g><g class="tick" opacity="1" transform="translate(0,156.8)"><line stroke="currentColor" x2="-6"/><text fill="currentColor" x="-9" dy="0.32em" style="fill: currentcolor;">1,400</text></g><g class="tick" opacity="1" transform="translate(0,137.2)"><line stroke="currentColor" x2="-6"/><text fill="currentColor" x="-9" dy="0.32em" style="fill: currentcolor;">1,600</text></g><g class="tick" opacity="1" transform="translate(0,117.60000000000001)"><line stroke="currentColor" x2="-6"/><text fill="currentColor" x="-9" dy="0.32em" style="fill: currentcolor;">1,800</text></g><g class="tick" opacity="1" transform="translate(0,98.00000000000001)"><line stroke="currentColor" x2="-6"/><text fill="currentColor" x="-9" dy="0.32em" style="fill: currentcolor;">2,000</text></g><g class="tick" opacity="1" transform="translate(0,78.40000000000002)"><line stroke="currentColor" x2="-6"/><text fill="currentColor" x="-9" dy="0.32em" style="fill: currentcolor;">2,200</text></g><g class="tick" opacity="1" transform="translate(0,58.79999999999999)"><line stroke="currentColor" x2="-6"/><text fill="currentColor" x="-9" dy="0.32em" style="fill: currentcolor;">2,400</text></g><g class="tick" opacity="1" transform="translate(0,39.19999999999999)"><line stroke="currentColor" x2="-6"/><text fill="currentColor" x="-9" dy="0.32em" style="fill: currentcolor;">2,600</text></g><g class="tick" opacity="1" transform="translate(0,19.599999999999994)"><line stroke="currentColor" x2="-6"/><text fill="currentColor" x="-9" dy="0.32em" style="fill: currentcolor;">2,800</text></g><g class="tick" opacity="1" transform="translate(0,0)"><line stroke="currentColor" x2="-6"/><text fill="currentColor" x="-9" dy="0.32em" style="fill: currentcolor;">3,000</text></g></g><g transform="translate(0,294)" fill="none" font-size="10" font-family="sans-serif" text-anchor="middle"><path class="domain" stroke="currentColor" d="M0,6V0H868V6"/><g class="tick" opacity="1" transform="translate(0,0)"><line stroke="currentColor" y2="6"/><text fill="currentColor" y="9" dy=".1em" style="fill: currentcolor;" transform="rotate(-45)" text-anchor="end" dx="-.8em">2023-11</text></g><g class="tick" opacity="1" transform="translate(41.333333333333336,0)"><line stroke="currentColor" y2="6"/><text fill="currentColor" y="9" dy=".1em" style="fill: currentcolor;" transform="rotate(-45)" text-anchor="end" dx="-.8em">2023-12</text></g><g class="tick" opacity="1" transform="translate(82.66666666666667,0)"><line stroke="currentColor" y2="6"/><text fill="currentColor" y="9" dy=".1em" style="fill: currentcolor;" transform="rotate(-45)" text-anchor="end" dx="-.8em">2024-01</text></g><g class="tick" opacity="1" transform="translate(124,0)"><line stroke="currentColor" y2="6"/><text fill="currentColor" y="9" dy=".1em" style="fill: currentcolor;" transform="rotate(-45)" text-anchor="end" dx="-.8em">2024-02</text></g><g class="tick" opacity="1" transform="translate(165.33333333333334,0)"><line stroke="currentColor" y2="6"/><text fill="currentColor" y="9" dy=".1em" style="fill: currentcolor;" transform="rotate(-45)" text-anchor="end" dx="-.8em">2024-03</text></g><g class="tick" opacity="1" transform="translate(206.66666666666669,0)"><line stroke="currentColor" y2="6"/><text fill="currentColor" y="9" dy=".1em" style="fill: currentcolor;" transform="rotate(-45)" text-anchor="end" dx="-.8em">2024-04</text></g><g class="tick" opacity="1" transform="translate(248,0)"><line stroke="currentColor" y2="6"/><text fill="currentColor" y="9" dy=".1em" style="fill: currentcolor;" transform="rotate(-45)" text-anchor="end" dx="-.8em">2024-05</text></g><g class="tick" opacity="1" transform="translate(289.33333333333337,0)"><line stroke="currentColor" y2="6"/><text fill="currentColor" y="9" dy=".1em" style="fill: currentcolor;" transform="rotate(-45)" text-anchor="end" dx="-.8em">2024-06</text></g><g class="tick" opacity="1" transform="translate(330.6666666666667,0)"><line stroke="currentColor" y2="6"/><text fill="currentColor" y="9" dy=".1em" style="fill: currentcolor;" transform="rotate(-45)" text-anchor="end" dx="-.8em">2024-07</text></g><g class="tick" opacity="1" transform="translate(372,0)"><line stroke="currentColor" y2="6"/><text fill="currentColor" y="9" dy=".1em" style="fill: currentcolor;" transform="rotate(-45)" text-anchor="end" dx="-.8em">2024-08</text></g><g class="tick" opacity="1" transform="translate(413.33333333333337,0)"><line stroke="currentColor" y2="6"/><text fill="currentColor" y="9" dy=".1em" style="fill: currentcolor;" transform="rotate(-45)" text-anchor="end" dx="-.8em">2024-09</text></g><g class="tick" opacity="1" transform="translate(454.6666666666667,0)"><line stroke="currentColor" y2="6"/><text fill="currentColor" y="9" dy=".1em" style="fill: currentcolor;" transform="rotate(-45)" text-anchor="end" dx="-.8em">2024-10</text></g><g class="tick" opacity="1" transform="translate(496,0)"><line stroke="currentColor" y2="6"/><text fill="currentColor" y="9" dy=".1em" style="fill: currentcolor;" transform="rotate(-45)" text-anchor="end" dx="-.8em">2024-11</text></g><g class="tick" opacity="1" transform="translate(537.3333333333334,0)"><line stroke="currentColor" y2="6"/><text fill="currentColor" y="9" dy=".1em" style="fill: currentcolor;" transform="rotate(-45)" text-anchor="end" dx="-.8em">2024-12</text></g><g class="tick" opacity="1" transform="translate(578.6666666666667,0)"><line stroke="currentColor" y2="6"/><text fill="currentColor" y="9" dy=".1em" style="fill: currentcolor;" transform="rotate(-45)" text-anchor="end" dx="-.8em">2025-01</text></g><g class="tick" opacity="1" transform="translate(620,0)"><line stroke="currentColor" y2="6"/><text fill="currentColor" y="9" dy=".1em" style="fill: currentcolor;" transform="rotate(-45)" text-anchor="end" dx="-.8em">2025-02</text></g><g class="tick" opacity="1" transform="translate(661.3333333333334,0)"><line stroke="currentColor" y2="6"/><text fill="currentColor" y="9" dy=".1em" style="fill: currentcolor;" transform="rotate(-45)" text-anchor="end" dx="-.8em">2025-03</text></g><g class="tick" opacity="1" transform="translate(702.6666666666667,0)"><line stroke="currentColor" y2="6"/><text fill="currentColor" y="9" dy=".1em" style="fill: currentcolor;" transform="rotate(-45)" text-anchor="end" dx="-.8em">2025-04</text></g><g class="tick" opacity="1" transform="translate(744,0)"><line stroke="currentColor" y2="6"/><text fill="currentColor" y="9" dy=".1em" style="fill: currentcolor;" transform="rotate(-45)" text-anchor="end" dx="-.8em">2025-05</text></g><g class="tick" opacity="1" transform="translate(785.3333333333334,0)"><line stroke="currentColor" y2="6"/><text fill="currentColor" y="9" dy=".1em" style="fill: currentcolor;" transform="rotate(-45)" text-anchor="end" dx="-.8em">2025-06</text></g><g class="tick" opacity="1" transform="translate(826.6666666666667,0)"><line stroke="currentColor" y2="6"/><text fill="currentColor" y="9" dy=".1em" style="fill: currentcolor;" transform="rotate(-45)" text-anchor="end" dx="-.8em">2025-07</text></g><g class="tick" opacity="1" transform="translate(868,0)"><line stroke="currentColor" y2="6"/><text fill="currentColor" y="9" dy=".1em" style="fill: currentcolor;" transform="rotate(-45)" text-anchor="end" dx="-.8em">2025-08</text></g></g><text x="434" y="349" text-anchor="middle" style="fill: currentcolor; font-family: sans-serif;">month</text><text x="-147" y="-45" transform="rotate(-90)" text-anchor="middle" style="fill: currentcolor; font-family: sans-serif;">amount ($)</text><g class="legend" transform="translate(824.5999999999999, 20)"><g transform="translate(0, 0)"><text x="0" y="10" style="fill: rgb(251, 251, 251); font-family: sans-serif;" text-anchor="end">GitHub Sponsors</text><circle cx="20" cy="6" r="4" style="fill: rgb(251, 251, 251);"/></g><g transform="translate(0, 25)"><text x="0" y="10" style="fill: rgb(36, 135, 255); font-family: sans-serif;" text-anchor="end">Open Collective</text><circle cx="20" cy="6" r="4" style="fill: rgb(36, 135, 255);"/></g></g><path class="line" fill="none" stroke="#fbfbfb" stroke-width="2" d="M0,293.118C13.778,291.811,27.556,290.505,41.333,286.748C55.111,282.991,68.889,277.356,82.667,270.578C96.444,263.8,110.222,246.078,124,246.078C137.778,246.078,151.556,275.478,165.333,275.478C179.111,275.478,192.889,274.988,206.667,274.008C220.444,273.028,234.222,270.741,248,264.208C261.778,257.675,275.556,176.008,289.333,176.008C303.111,176.008,316.889,274.008,330.667,274.008C344.444,274.008,358.222,273.191,372,271.558C385.778,269.925,399.556,26.558,413.333,26.558C427.111,26.558,440.889,241.537,454.667,253.82C468.444,266.103,482.222,272.244,496,272.244C509.778,272.244,523.556,272.244,537.333,272.244C551.111,272.244,564.889,260.484,578.667,260.484C592.444,260.484,606.222,268.651,620,270.088C633.778,271.525,647.556,272.244,661.333,272.244C675.111,272.244,688.889,272.244,702.667,272.244C716.444,272.244,730.222,270.611,744,270.284C757.778,269.957,771.556,270.121,785.333,269.794C799.111,269.467,812.889,264.894,826.667,264.894C840.444,264.894,854.222,266.315,868,267.736"/><g transform="translate(0,293.118)"><circle r="12" fill="transparent" class="hit-area"/><circle r="3" fill="#fbfbfb" class="visible-dot"/><g class="tooltip-group"><rect class="tooltip-bg" x="7" y="-25" width="25.633333206176758" height="20" rx="4" fill="rgba(0, 0, 0, 0.8)" stroke="rgba(255, 255, 255, 0.2)"/><text class="tooltip" y="-10" x="15" text-anchor="start" style="font-size: 12px; fill: white;">9</text></g></g><g transform="translate(41.333333333333336,286.748)"><circle r="12" fill="transparent" class="hit-area"/><circle r="3" fill="#fbfbfb" class="visible-dot"/><g class="tooltip-group"><rect class="tooltip-bg" x="-15.925000190734863" y="-25" width="31.850000381469727" height="20" rx="4" fill="rgba(0, 0, 0, 0.8)" stroke="rgba(255, 255, 255, 0.2)"/><text class="tooltip" y="-10" x="0" text-anchor="middle" style="font-size: 12px; fill: white;">74</text></g></g><g transform="translate(82.66666666666667,270.578)"><circle r="12" fill="transparent" class="hit-area"/><circle r="3" fill="#fbfbfb" class="visible-dot"/><g class="tooltip-group"><rect class="tooltip-bg" x="-20.199999809265137" y="-25" width="40.39999961853027" height="20" rx="4" fill="rgba(0, 0, 0, 0.8)" stroke="rgba(255, 255, 255, 0.2)"/><text class="tooltip" y="-10" x="0" text-anchor="middle" style="font-size: 12px; fill: white;">239</text></g></g><g transform="translate(124,246.078)"><circle r="12" fill="transparent" class="hit-area"/><circle r="3" fill="#fbfbfb" class="visible-dot"/><g class="tooltip-group"><rect class="tooltip-bg" x="-20.508333206176758" y="-25" width="41.016666412353516" height="20" rx="4" fill="rgba(0, 0, 0, 0.8)" stroke="rgba(255, 255, 255, 0.2)"/><text class="tooltip" y="-10" x="0" text-anchor="middle" style="font-size: 12px; fill: white;">489</text></g></g><g transform="translate(165.33333333333334,275.478)"><circle r="12" fill="transparent" class="hit-area"/><circle r="3" fill="#fbfbfb" class="visible-dot"/><g class="tooltip-group"><rect class="tooltip-bg" x="-19.43333339691162" y="-25" width="38.86666679382324" height="20" rx="4" fill="rgba(0, 0, 0, 0.8)" stroke="rgba(255, 255, 255, 0.2)"/><text class="tooltip" y="-10" x="0" text-anchor="middle" style="font-size: 12px; fill: white;">189</text></g></g><g transform="translate(206.66666666666669,274.008)"><circle r="12" fill="transparent" class="hit-area"/><circle r="3" fill="#fbfbfb" class="visible-dot"/><g class="tooltip-group"><rect class="tooltip-bg" x="-20.266666412353516" y="-25" width="40.53333282470703" height="20" rx="4" fill="rgba(0, 0, 0, 0.8)" stroke="rgba(255, 255, 255, 0.2)"/><text class="tooltip" y="-10" x="0" text-anchor="middle" style="font-size: 12px; fill: white;">204</text></g></g><g transform="translate(248,264.208)"><circle r="12" fill="transparent" class="hit-area"/><circle r="3" fill="#fbfbfb" class="visible-dot"/><g class="tooltip-group"><rect class="tooltip-bg" x="-20.399999618530273" y="-25" width="40.79999923706055" height="20" rx="4" fill="rgba(0, 0, 0, 0.8)" stroke="rgba(255, 255, 255, 0.2)"/><text class="tooltip" y="-10" x="0" text-anchor="middle" style="font-size: 12px; fill: white;">304</text></g></g><g transform="translate(289.33333333333337,176.008)"><circle r="12" fill="transparent" class="hit-area"/><circle r="3" fill="#fbfbfb" class="visible-dot"/><g class="tooltip-group"><rect class="tooltip-bg" x="-23.050000190734863" y="-25" width="46.10000038146973" height="20" rx="4" fill="rgba(0, 0, 0, 0.8)" stroke="rgba(255, 255, 255, 0.2)"/><text class="tooltip" y="-10" x="0" text-anchor="middle" style="font-size: 12px; fill: white;">1204</text></g></g><g transform="translate(330.6666666666667,274.008)"><circle r="12" fill="transparent" class="hit-area"/><circle r="3" fill="#fbfbfb" class="visible-dot"/><g class="tooltip-group"><rect class="tooltip-bg" x="-20.266666412353516" y="-25" width="40.53333282470703" height="20" rx="4" fill="rgba(0, 0, 0, 0.8)" stroke="rgba(255, 255, 255, 0.2)"/><text class="tooltip" y="-10" x="0" text-anchor="middle" style="font-size: 12px; fill: white;">204</text></g></g><g transform="translate(372,271.558)"><circle r="12" fill="transparent" class="hit-area"/><circle r="3" fill="#fbfbfb" class="visible-dot"/><g class="tooltip-group"><rect class="tooltip-bg" x="-20.06666660308838" y="-25" width="40.13333320617676" height="20" rx="4" fill="rgba(0, 0, 0, 0.8)" stroke="rgba(255, 255, 255, 0.2)"/><text class="tooltip" y="-10" x="0" text-anchor="middle" style="font-size: 12px; fill: white;">229</text></g></g><g transform="translate(413.33333333333337,26.558000000000014)"><circle r="12" fill="transparent" class="hit-area"/><circle r="3" fill="#fbfbfb" class="visible-dot"/><g class="tooltip-group"><rect class="tooltip-bg" x="-23.483333587646484" y="-25" width="46.96666717529297" height="20" rx="4" fill="rgba(0, 0, 0, 0.8)" stroke="rgba(255, 255, 255, 0.2)"/><text class="tooltip" y="-10" x="0" text-anchor="middle" style="font-size: 12px; fill: white;">2729</text></g></g><g transform="translate(454.6666666666667,253.82)"><circle r="12" fill="transparent" class="hit-area"/><circle r="3" fill="#fbfbfb" class="visible-dot"/><g class="tooltip-group"><rect class="tooltip-bg" x="-19.366666793823242" y="-25" width="38.733333587646484" height="20" rx="4" fill="rgba(0, 0, 0, 0.8)" stroke="rgba(255, 255, 255, 0.2)"/><text class="tooltip" y="-10" x="0" text-anchor="middle" style="font-size: 12px; fill: white;">410</text></g></g><g transform="translate(496,272.244)"><circle r="12" fill="transparent" class="hit-area"/><circle r="3" fill="#fbfbfb" class="visible-dot"/><g class="tooltip-group"><rect class="tooltip-bg" x="-19.875" y="-25" width="39.75" height="20" rx="4" fill="rgba(0, 0, 0, 0.8)" stroke="rgba(255, 255, 255, 0.2)"/><text class="tooltip" y="-10" x="0" text-anchor="middle" style="font-size: 12px; fill: white;">222</text></g></g><g transform="translate(537.3333333333334,272.244)"><circle r="12" fill="transparent" class="hit-area"/><circle r="3" fill="#fbfbfb" class="visible-dot"/><g class="tooltip-group"><rect class="tooltip-bg" x="-19.875" y="-25" width="39.75" height="20" rx="4" fill="rgba(0, 0, 0, 0.8)" stroke="rgba(255, 255, 255, 0.2)"/><text class="tooltip" y="-10" x="0" text-anchor="middle" style="font-size: 12px; fill: white;">222</text></g></g><g transform="translate(578.6666666666667,260.484)"><circle r="12" fill="transparent" class="hit-area"/><circle r="3" fill="#fbfbfb" class="visible-dot"/><g class="tooltip-group"><rect class="tooltip-bg" x="-20.241666793823242" y="-25" width="40.483333587646484" height="20" rx="4" fill="rgba(0, 0, 0, 0.8)" stroke="rgba(255, 255, 255, 0.2)"/><text class="tooltip" y="-10" x="0" text-anchor="middle" style="font-size: 12px; fill: white;">342</text></g></g><g transform="translate(620,270.08799999999997)"><circle r="12" fill="transparent" class="hit-area"/><circle r="3" fill="#fbfbfb" class="visible-dot"/><g class="tooltip-group"><rect class="tooltip-bg" x="-20.25" y="-25" width="40.5" height="20" rx="4" fill="rgba(0, 0, 0, 0.8)" stroke="rgba(255, 255, 255, 0.2)"/><text class="tooltip" y="-10" x="0" text-anchor="middle" style="font-size: 12px; fill: white;">244</text></g></g><g transform="translate(661.3333333333334,272.244)"><circle r="12" fill="transparent" class="hit-area"/><circle r="3" fill="#fbfbfb" class="visible-dot"/><g class="tooltip-group"><rect class="tooltip-bg" x="-19.875" y="-25" width="39.75" height="20" rx="4" fill="rgba(0, 0, 0, 0.8)" stroke="rgba(255, 255, 255, 0.2)"/><text class="tooltip" y="-10" x="0" text-anchor="middle" style="font-size: 12px; fill: white;">222</text></g></g><g transform="translate(702.6666666666667,272.244)"><circle r="12" fill="transparent" class="hit-area"/><circle r="3" fill="#fbfbfb" class="visible-dot"/><g class="tooltip-group"><rect class="tooltip-bg" x="-19.875" y="-25" width="39.75" height="20" rx="4" fill="rgba(0, 0, 0, 0.8)" stroke="rgba(255, 255, 255, 0.2)"/><text class="tooltip" y="-10" x="0" text-anchor="middle" style="font-size: 12px; fill: white;">222</text></g></g><g transform="translate(744,270.284)"><circle r="12" fill="transparent" class="hit-area"/><circle r="3" fill="#fbfbfb" class="visible-dot"/><g class="tooltip-group"><rect class="tooltip-bg" x="-20.016666412353516" y="-25" width="40.03333282470703" height="20" rx="4" fill="rgba(0, 0, 0, 0.8)" stroke="rgba(255, 255, 255, 0.2)"/><text class="tooltip" y="-10" x="0" text-anchor="middle" style="font-size: 12px; fill: white;">242</text></g></g><g transform="translate(785.3333333333334,269.794)"><circle r="12" fill="transparent" class="hit-area"/><circle r="3" fill="#fbfbfb" class="visible-dot"/><g class="tooltip-group"><rect class="tooltip-bg" x="-19.80833339691162" y="-25" width="39.61666679382324" height="20" rx="4" fill="rgba(0, 0, 0, 0.8)" stroke="rgba(255, 255, 255, 0.2)"/><text class="tooltip" y="-10" x="0" text-anchor="middle" style="font-size: 12px; fill: white;">247</text></g></g><g transform="translate(826.6666666666667,264.894)"><circle r="12" fill="transparent" class="hit-area"/><circle r="3" fill="#fbfbfb" class="visible-dot"/><g class="tooltip-group"><rect class="tooltip-bg" x="-19.741666793823242" y="-25" width="39.483333587646484" height="20" rx="4" fill="rgba(0, 0, 0, 0.8)" stroke="rgba(255, 255, 255, 0.2)"/><text class="tooltip" y="-10" x="0" text-anchor="middle" style="font-size: 12px; fill: white;">297</text></g></g><g transform="translate(868,267.736)"><circle r="12" fill="transparent" class="hit-area"/><circle r="3" fill="#fbfbfb" class="visible-dot"/><g class="tooltip-group"><rect class="tooltip-bg" x="-47.54999923706055" y="-25" width="40.54999923706055" height="20" rx="4" fill="rgba(0, 0, 0, 0.8)" stroke="rgba(255, 255, 255, 0.2)"/><text class="tooltip" y="-10" x="-15" text-anchor="end" style="font-size: 12px; fill: white;">268</text></g></g><path class="line" fill="none" stroke="#2487ff" stroke-width="2" d="M0,294C13.778,294,27.556,294,41.333,294C55.111,294,68.889,294,82.667,294C96.444,294,110.222,294,124,294C137.778,294,151.556,294,165.333,294C179.111,294,192.889,220.5,206.667,220.5C220.444,220.5,234.222,277.503,248,284.102C261.778,290.701,275.556,294,289.333,294C303.111,294,316.889,290.57,330.667,290.57C344.444,290.57,358.222,291.55,372,291.55C385.778,291.55,399.556,291.55,413.333,291.55C427.111,291.55,440.889,289.59,454.667,289.59C468.444,289.59,482.222,289.59,496,289.59C509.778,289.59,523.556,279.79,537.333,279.79C551.111,279.79,564.889,279.79,578.667,279.79C592.444,279.79,606.222,279.79,620,279.79C633.778,279.79,647.556,279.79,661.333,279.79C675.111,279.79,688.889,279.79,702.667,279.79C716.444,279.79,730.222,279.79,744,279.79C757.778,279.79,771.556,279.79,785.333,279.79C799.111,279.79,812.889,279.79,826.667,279.79C840.444,279.79,854.222,279.79,868,279.79"/><g transform="translate(0,294)"><circle r="12" fill="transparent" class="hit-area"/><circle r="3" fill="#2487ff" class="visible-dot"/><g class="tooltip-group"><rect class="tooltip-bg" x="7" y="-25" width="25.56666660308838" height="20" rx="4" fill="rgba(0, 0, 0, 0.8)" stroke="rgba(255, 255, 255, 0.2)"/><text class="tooltip" y="-10" x="15" text-anchor="start" style="font-size: 12px; fill: white;">0</text></g></g><g transform="translate(41.333333333333336,294)"><circle r="12" fill="transparent" class="hit-area"/><circle r="3" fill="#2487ff" class="visible-dot"/><g class="tooltip-group"><rect class="tooltip-bg" x="-12.78333330154419" y="-25" width="25.56666660308838" height="20" rx="4" fill="rgba(0, 0, 0, 0.8)" stroke="rgba(255, 255, 255, 0.2)"/><text class="tooltip" y="-10" x="0" text-anchor="middle" style="font-size: 12px; fill: white;">0</text></g></g><g transform="translate(82.66666666666667,294)"><circle r="12" fill="transparent" class="hit-area"/><circle r="3" fill="#2487ff" class="visible-dot"/><g class="tooltip-group"><rect class="tooltip-bg" x="-12.78333330154419" y="-25" width="25.56666660308838" height="20" rx="4" fill="rgba(0, 0, 0, 0.8)" stroke="rgba(255, 255, 255, 0.2)"/><text class="tooltip" y="-10" x="0" text-anchor="middle" style="font-size: 12px; fill: white;">0</text></g></g><g transform="translate(124,294)"><circle r="12" fill="transparent" class="hit-area"/><circle r="3" fill="#2487ff" class="visible-dot"/><g class="tooltip-group"><rect class="tooltip-bg" x="-12.78333330154419" y="-25" width="25.56666660308838" height="20" rx="4" fill="rgba(0, 0, 0, 0.8)" stroke="rgba(255, 255, 255, 0.2)"/><text class="tooltip" y="-10" x="0" text-anchor="middle" style="font-size: 12px; fill: white;">0</text></g></g><g transform="translate(165.33333333333334,294)"><circle r="12" fill="transparent" class="hit-area"/><circle r="3" fill="#2487ff" class="visible-dot"/><g class="tooltip-group"><rect class="tooltip-bg" x="-12.78333330154419" y="-25" width="25.56666660308838" height="20" rx="4" fill="rgba(0, 0, 0, 0.8)" stroke="rgba(255, 255, 255, 0.2)"/><text class="tooltip" y="-10" x="0" text-anchor="middle" style="font-size: 12px; fill: white;">0</text></g></g><g transform="translate(206.66666666666669,220.5)"><circle r="12" fill="transparent" class="hit-area"/><circle r="3" fill="#2487ff" class="visible-dot"/><g class="tooltip-group"><rect class="tooltip-bg" x="-19.850000381469727" y="-25" width="39.70000076293945" height="20" rx="4" fill="rgba(0, 0, 0, 0.8)" stroke="rgba(255, 255, 255, 0.2)"/><text class="tooltip" y="-10" x="0" text-anchor="middle" style="font-size: 12px; fill: white;">750</text></g></g><g transform="translate(248,284.10200000000003)"><circle r="12" fill="transparent" class="hit-area"/><circle r="3" fill="#2487ff" class="visible-dot"/><g class="tooltip-group"><rect class="tooltip-bg" x="-18.350000381469727" y="-25" width="36.70000076293945" height="20" rx="4" fill="rgba(0, 0, 0, 0.8)" stroke="rgba(255, 255, 255, 0.2)"/><text class="tooltip" y="-10" x="0" text-anchor="middle" style="font-size: 12px; fill: white;">101</text></g></g><g transform="translate(289.33333333333337,294)"><circle r="12" fill="transparent" class="hit-area"/><circle r="3" fill="#2487ff" class="visible-dot"/><g class="tooltip-group"><rect class="tooltip-bg" x="-12.78333330154419" y="-25" width="25.56666660308838" height="20" rx="4" fill="rgba(0, 0, 0, 0.8)" stroke="rgba(255, 255, 255, 0.2)"/><text class="tooltip" y="-10" x="0" text-anchor="middle" style="font-size: 12px; fill: white;">0</text></g></g><g transform="translate(330.6666666666667,290.57)"><circle r="12" fill="transparent" class="hit-area"/><circle r="3" fill="#2487ff" class="visible-dot"/><g class="tooltip-group"><rect class="tooltip-bg" x="-16.466666221618652" y="-25" width="32.933332443237305" height="20" rx="4" fill="rgba(0, 0, 0, 0.8)" stroke="rgba(255, 255, 255, 0.2)"/><text class="tooltip" y="-10" x="0" text-anchor="middle" style="font-size: 12px; fill: white;">35</text></g></g><g transform="translate(372,291.55)"><circle r="12" fill="transparent" class="hit-area"/><circle r="3" fill="#2487ff" class="visible-dot"/><g class="tooltip-group"><rect class="tooltip-bg" x="-16.333333015441895" y="-25" width="32.66666603088379" height="20" rx="4" fill="rgba(0, 0, 0, 0.8)" stroke="rgba(255, 255, 255, 0.2)"/><text class="tooltip" y="-10" x="0" text-anchor="middle" style="font-size: 12px; fill: white;">25</text></g></g><g transform="translate(413.33333333333337,291.55)"><circle r="12" fill="transparent" class="hit-area"/><circle r="3" fill="#2487ff" class="visible-dot"/><g class="tooltip-group"><rect class="tooltip-bg" x="-16.333333015441895" y="-25" width="32.66666603088379" height="20" rx="4" fill="rgba(0, 0, 0, 0.8)" stroke="rgba(255, 255, 255, 0.2)"/><text class="tooltip" y="-10" x="0" text-anchor="middle" style="font-size: 12px; fill: white;">25</text></g></g><g transform="translate(454.6666666666667,289.59)"><circle r="12" fill="transparent" class="hit-area"/><circle r="3" fill="#2487ff" class="visible-dot"/><g class="tooltip-group"><rect class="tooltip-bg" x="-16.56666660308838" y="-25" width="33.13333320617676" height="20" rx="4" fill="rgba(0, 0, 0, 0.8)" stroke="rgba(255, 255, 255, 0.2)"/><text class="tooltip" y="-10" x="0" text-anchor="middle" style="font-size: 12px; fill: white;">45</text></g></g><g transform="translate(496,289.59)"><circle r="12" fill="transparent" class="hit-area"/><circle r="3" fill="#2487ff" class="visible-dot"/><g class="tooltip-group"><rect class="tooltip-bg" x="-16.56666660308838" y="-25" width="33.13333320617676" height="20" rx="4" fill="rgba(0, 0, 0, 0.8)" stroke="rgba(255, 255, 255, 0.2)"/><text class="tooltip" y="-10" x="0" text-anchor="middle" style="font-size: 12px; fill: white;">45</text></g></g><g transform="translate(537.3333333333334,279.79)"><circle r="12" fill="transparent" class="hit-area"/><circle r="3" fill="#2487ff" class="visible-dot"/><g class="tooltip-group"><rect class="tooltip-bg" x="-19.350000381469727" y="-25" width="38.70000076293945" height="20" rx="4" fill="rgba(0, 0, 0, 0.8)" stroke="rgba(255, 255, 255, 0.2)"/><text class="tooltip" y="-10" x="0" text-anchor="middle" style="font-size: 12px; fill: white;">145</text></g></g><g transform="translate(578.6666666666667,279.79)"><circle r="12" fill="transparent" class="hit-area"/><circle r="3" fill="#2487ff" class="visible-dot"/><g class="tooltip-group"><rect class="tooltip-bg" x="-19.350000381469727" y="-25" width="38.70000076293945" height="20" rx="4" fill="rgba(0, 0, 0, 0.8)" stroke="rgba(255, 255, 255, 0.2)"/><text class="tooltip" y="-10" x="0" text-anchor="middle" style="font-size: 12px; fill: white;">145</text></g></g><g transform="translate(620,279.79)"><circle r="12" fill="transparent" class="hit-area"/><circle r="3" fill="#2487ff" class="visible-dot"/><g class="tooltip-group"><rect class="tooltip-bg" x="-19.350000381469727" y="-25" width="38.70000076293945" height="20" rx="4" fill="rgba(0, 0, 0, 0.8)" stroke="rgba(255, 255, 255, 0.2)"/><text class="tooltip" y="-10" x="0" text-anchor="middle" style="font-size: 12px; fill: white;">145</text></g></g><g transform="translate(661.3333333333334,279.79)"><circle r="12" fill="transparent" class="hit-area"/><circle r="3" fill="#2487ff" class="visible-dot"/><g class="tooltip-group"><rect class="tooltip-bg" x="-19.350000381469727" y="-25" width="38.70000076293945" height="20" rx="4" fill="rgba(0, 0, 0, 0.8)" stroke="rgba(255, 255, 255, 0.2)"/><text class="tooltip" y="-10" x="0" text-anchor="middle" style="font-size: 12px; fill: white;">145</text></g></g><g transform="translate(702.6666666666667,279.79)"><circle r="12" fill="transparent" class="hit-area"/><circle r="3" fill="#2487ff" class="visible-dot"/><g class="tooltip-group"><rect class="tooltip-bg" x="-19.350000381469727" y="-25" width="38.70000076293945" height="20" rx="4" fill="rgba(0, 0, 0, 0.8)" stroke="rgba(255, 255, 255, 0.2)"/><text class="tooltip" y="-10" x="0" text-anchor="middle" style="font-size: 12px; fill: white;">145</text></g></g><g transform="translate(744,279.79)"><circle r="12" fill="transparent" class="hit-area"/><circle r="3" fill="#2487ff" class="visible-dot"/><g class="tooltip-group"><rect class="tooltip-bg" x="-19.350000381469727" y="-25" width="38.70000076293945" height="20" rx="4" fill="rgba(0, 0, 0, 0.8)" stroke="rgba(255, 255, 255, 0.2)"/><text class="tooltip" y="-10" x="0" text-anchor="middle" style="font-size: 12px; fill: white;">145</text></g></g><g transform="translate(785.3333333333334,279.79)"><circle r="12" fill="transparent" class="hit-area"/><circle r="3" fill="#2487ff" class="visible-dot"/><g class="tooltip-group"><rect class="tooltip-bg" x="-19.350000381469727" y="-25" width="38.70000076293945" height="20" rx="4" fill="rgba(0, 0, 0, 0.8)" stroke="rgba(255, 255, 255, 0.2)"/><text class="tooltip" y="-10" x="0" text-anchor="middle" style="font-size: 12px; fill: white;">145</text></g></g><g transform="translate(826.6666666666667,279.79)"><circle r="12" fill="transparent" class="hit-area"/><circle r="3" fill="#2487ff" class="visible-dot"/><g class="tooltip-group"><rect class="tooltip-bg" x="-19.350000381469727" y="-25" width="38.70000076293945" height="20" rx="4" fill="rgba(0, 0, 0, 0.8)" stroke="rgba(255, 255, 255, 0.2)"/><text class="tooltip" y="-10" x="0" text-anchor="middle" style="font-size: 12px; fill: white;">145</text></g></g><g transform="translate(868,279.79)"><circle r="12" fill="transparent" class="hit-area"/><circle r="3" fill="#2487ff" class="visible-dot"/><g class="tooltip-group"><rect class="tooltip-bg" x="-45.70000076293945" y="-25" width="38.70000076293945" height="20" rx="4" fill="rgba(0, 0, 0, 0.8)" stroke="rgba(255, 255, 255, 0.2)"/><text class="tooltip" y="-10" x="-15" text-anchor="end" style="font-size: 12px; fill: white;">145</text></g></g></g></svg>