<svg xmlns="http://www.w3.org/2000/svg" class="venz-chart" role="img" viewBox="-0 -0 928 384"><title>New labeled data series (2/2 7:45)</title><g transform="translate(60,30)"><style>
      .tooltip {
        opacity: 0;
        pointer-events: none;
        transition: opacity 0.2s ease-in-out;
      }
      .tooltip-bg {
        opacity: 0;
        pointer-events: none;
        transition: opacity 0.2s ease-in-out;
      }
      .hit-area:hover + .visible-dot + .tooltip-group &gt; .tooltip-bg,
      .hit-area:hover + .visible-dot + .tooltip-group &gt; .tooltip {
        opacity: 1;
      }
    </style><g class="grid" style="stroke: currentcolor; opacity: 0.2;" fill="none" font-size="10" font-family="sans-serif" text-anchor="end"><path class="domain" stroke="currentColor" d="M868,294H0V0H868"/><g class="tick" opacity="1" transform="translate(0,294)"><line stroke="currentColor" x2="868"/><text fill="currentColor" x="-3" dy="0.32em"/></g><g class="tick" opacity="1" transform="translate(0,274.4)"><line stroke="currentColor" x2="868"/><text fill="currentColor" x="-3" dy="0.32em"/></g><g class="tick" opacity="1" transform="translate(0,254.8)"><line stroke="currentColor" x2="868"/><text fill="currentColor" x="-3" dy="0.32em"/></g><g class="tick" opacity="1" transform="translate(0,235.20000000000002)"><line stroke="currentColor" x2="868"/><text fill="currentColor" x="-3" dy="0.32em"/></g><g class="tick" opacity="1" transform="translate(0,215.60000000000002)"><line stroke="currentColor" x2="868"/><text fill="currentColor" x="-3" dy="0.32em"/></g><g class="tick" opacity="1" transform="translate(0,196.00000000000003)"><line stroke="currentColor" x2="868"/><text fill="currentColor" x="-3" dy="0.32em"/></g><g class="tick" opacity="1" transform="translate(0,176.4)"><line stroke="currentColor" x2="868"/><text fill="currentColor" x="-3" dy="0.32em"/></g><g class="tick" opacity="1" transform="translate(0,156.8)"><line stroke="currentColor" x2="868"/><text fill="currentColor" x="-3" dy="0.32em"/></g><g class="tick" opacity="1" transform="translate(0,137.2)"><line stroke="currentColor" x2="868"/><text fill="currentColor" x="-3" dy="0.32em"/></g><g class="tick" opacity="1" transform="translate(0,117.60000000000001)"><line stroke="currentColor" x2="868"/><text fill="currentColor" x="-3" dy="0.32em"/></g><g class="tick" opacity="1" transform="translate(0,98.00000000000001)"><line stroke="currentColor" x2="868"/><text fill="currentColor" x="-3" dy="0.32em"/></g><g class="tick" opacity="1" transform="translate(0,78.40000000000002)"><line stroke="currentColor" x2="868"/><text fill="currentColor" x="-3" dy="0.32em"/></g><g class="tick" opacity="1" transform="translate(0,58.79999999999999)"><line stroke="currentColor" x2="868"/><text fill="currentColor" x="-3" dy="0.32em"/></g><g class="tick" opacity="1" transform="translate(0,39.19999999999999)"><line stroke="currentColor" x2="868"/><text fill="currentColor" x="-3" dy="0.32em"/></g><g class="tick" opacity="1" transform="translate(0,19.599999999999994)"><line stroke="currentColor" x2="868"/><text fill="currentColor" x="-3" dy="0.32em"/></g><g class="tick" opacity="1" transform="translate(0,0)"><line stroke="currentColor" x2="868"/><text fill="currentColor" x="-3" dy="0.32em"/></g></g><g class="grid" transform="translate(0, 294)" style="stroke: currentcolor; opacity: 0.2;" fill="none" font-size="10" font-family="sans-serif" text-anchor="middle"><path class="domain" stroke="currentColor" d="M0,-294V0H868V-294"/><g class="tick" opacity="1" transform="translate(0,0)"><line stroke="currentColor" y2="-294"/><text fill="currentColor" y="3" dy="0.71em"/></g><g class="tick" opacity="1" transform="translate(33.38461538461539,0)"><line stroke="currentColor" y2="-294"/><text fill="currentColor" y="3" dy="0.71em"/></g><g class="tick" opacity="1" transform="translate(66.76923076923077,0)"><line stroke="currentColor" y2="-294"/><text fill="currentColor" y="3" dy="0.71em"/></g><g class="tick" opacity="1" transform="translate(100.15384615384616,0)"><line stroke="currentColor" y2="-294"/><text fill="currentColor" y="3" dy="0.71em"/></g><g class="tick" opacity="1" transform="translate(133.53846153846155,0)"><line stroke="currentColor" y2="-294"/><text fill="currentColor" y="3" dy="0.71em"/></g><g class="tick" opacity="1" transform="translate(166.92307692307693,0)"><line stroke="currentColor" y2="-294"/><text fill="currentColor" y="3" dy="0.71em"/></g><g class="tick" opacity="1" transform="translate(200.30769230769232,0)"><line stroke="currentColor" y2="-294"/><text fill="currentColor" y="3" dy="0.71em"/></g><g class="tick" opacity="1" transform="translate(233.6923076923077,0)"><line stroke="currentColor" y2="-294"/><text fill="currentColor" y="3" dy="0.71em"/></g><g class="tick" opacity="1" transform="translate(267.0769230769231,0)"><line stroke="currentColor" y2="-294"/><text fill="currentColor" y="3" dy="0.71em"/></g><g class="tick" opacity="1" transform="translate(300.46153846153845,0)"><line stroke="currentColor" y2="-294"/><text fill="currentColor" y="3" dy="0.71em"/></g><g class="tick" opacity="1" transform="translate(333.84615384615387,0)"><line stroke="currentColor" y2="-294"/><text fill="currentColor" y="3" dy="0.71em"/></g><g class="tick" opacity="1" transform="translate(367.2307692307693,0)"><line stroke="currentColor" y2="-294"/><text fill="currentColor" y="3" dy="0.71em"/></g><g class="tick" opacity="1" transform="translate(400.61538461538464,0)"><line stroke="currentColor" y2="-294"/><text fill="currentColor" y="3" dy="0.71em"/></g><g class="tick" opacity="1" transform="translate(434,0)"><line stroke="currentColor" y2="-294"/><text fill="currentColor" y="3" dy="0.71em"/></g><g class="tick" opacity="1" transform="translate(467.3846153846154,0)"><line stroke="currentColor" y2="-294"/><text fill="currentColor" y="3" dy="0.71em"/></g><g class="tick" opacity="1" transform="translate(500.76923076923083,0)"><line stroke="currentColor" y2="-294"/><text fill="currentColor" y="3" dy="0.71em"/></g><g class="tick" opacity="1" transform="translate(534.1538461538462,0)"><line stroke="currentColor" y2="-294"/><text fill="currentColor" y="3" dy="0.71em"/></g><g class="tick" opacity="1" transform="translate(567.5384615384615,0)"><line stroke="currentColor" y2="-294"/><text fill="currentColor" y="3" dy="0.71em"/></g><g class="tick" opacity="1" transform="translate(600.9230769230769,0)"><line stroke="currentColor" y2="-294"/><text fill="currentColor" y="3" dy="0.71em"/></g><g class="tick" opacity="1" transform="translate(634.3076923076924,0)"><line stroke="currentColor" y2="-294"/><text fill="currentColor" y="3" dy="0.71em"/></g><g class="tick" opacity="1" transform="translate(667.6923076923077,0)"><line stroke="currentColor" y2="-294"/><text fill="currentColor" y="3" dy="0.71em"/></g><g class="tick" opacity="1" transform="translate(701.0769230769231,0)"><line stroke="currentColor" y2="-294"/><text fill="currentColor" y="3" dy="0.71em"/></g><g class="tick" opacity="1" transform="translate(734.4615384615386,0)"><line stroke="currentColor" y2="-294"/><text fill="currentColor" y="3" dy="0.71em"/></g><g class="tick" opacity="1" transform="translate(767.8461538461539,0)"><line stroke="currentColor" y2="-294"/><text fill="currentColor" y="3" dy="0.71em"/></g><g class="tick" opacity="1" transform="translate(801.2307692307693,0)"><line stroke="currentColor" y2="-294"/><text fill="currentColor" y="3" dy="0.71em"/></g><g class="tick" opacity="1" transform="translate(834.6153846153846,0)"><line stroke="currentColor" y2="-294"/><text fill="currentColor" y="3" dy="0.71em"/></g><g class="tick" opacity="1" transform="translate(868,0)"><line stroke="currentColor" y2="-294"/><text fill="currentColor" y="3" dy="0.71em"/></g></g><g fill="none" font-size="10" font-family="sans-serif" text-anchor="end"><path class="domain" stroke="currentColor" d="M-6,294H0V0H-6"/><g class="tick" opacity="1" transform="translate(0,294)"><line stroke="currentColor" x2="-6"/><text fill="currentColor" x="-9" dy="0.32em" style="fill: currentcolor;">0</text></g><g class="tick" opacity="1" transform="translate(0,274.4)"><line stroke="currentColor" x2="-6"/><text fill="currentColor" x="-9" dy="0.32em" style="fill: currentcolor;">200</text></g><g class="tick" opacity="1" transform="translate(0,254.8)"><line stroke="currentColor" x2="-6"/><text fill="currentColor" x="-9" dy="0.32em" style="fill: currentcolor;">400</text></g><g class="tick" opacity="1" transform="translate(0,235.20000000000002)"><line stroke="currentColor" x2="-6"/><text fill="currentColor" x="-9" dy="0.32em" style="fill: currentcolor;">600</text></g><g class="tick" opacity="1" transform="translate(0,215.60000000000002)"><line stroke="currentColor" x2="-6"/><text fill="currentColor" x="-9" dy="0.32em" style="fill: currentcolor;">800</text></g><g class="tick" opacity="1" transform="translate(0,196.00000000000003)"><line stroke="currentColor" x2="-6"/><text fill="currentColor" x="-9" dy="0.32em" style="fill: currentcolor;">1,000</text></g><g class="tick" opacity="1" transform="translate(0,176.4)"><line stroke="currentColor" x2="-6"/><text fill="currentColor" x="-9" dy="0.32em" style="fill: currentcolor;">1,200</text></g><g class="tick" opacity="1" transform="translate(0,156.8)"><line stroke="currentColor" x2="-6"/><text fill="currentColor" x="-9" dy="0.32em" style="fill: currentcolor;">1,400</text></g><g class="tick" opacity="1" transform="translate(0,137.2)"><line stroke="currentColor" x2="-6"/><text fill="currentColor" x="-9" dy="0.32em" style="fill: currentcolor;">1,600</text></g><g class="tick" opacity="1" transform="translate(0,117.60000000000001)"><line stroke="currentColor" x2="-6"/><text fill="currentColor" x="-9" dy="0.32em" style="fill: currentcolor;">1,800</text></g><g class="tick" opacity="1" transform="translate(0,98.00000000000001)"><line stroke="currentColor" x2="-6"/><text fill="currentColor" x="-9" dy="0.32em" style="fill: currentcolor;">2,000</text></g><g class="tick" opacity="1" transform="translate(0,78.40000000000002)"><line stroke="currentColor" x2="-6"/><text fill="currentColor" x="-9" dy="0.32em" style="fill: currentcolor;">2,200</text></g><g class="tick" opacity="1" transform="translate(0,58.79999999999999)"><line stroke="currentColor" x2="-6"/><text fill="currentColor" x="-9" dy="0.32em" style="fill: currentcolor;">2,400</text></g><g class="tick" opacity="1" transform="translate(0,39.19999999999999)"><line stroke="currentColor" x2="-6"/><text fill="currentColor" x="-9" dy="0.32em" style="fill: currentcolor;">2,600</text></g><g class="tick" opacity="1" transform="translate(0,19.599999999999994)"><line stroke="currentColor" x2="-6"/><text fill="currentColor" x="-9" dy="0.32em" style="fill: currentcolor;">2,800</text></g><g class="tick" opacity="1" transform="translate(0,0)"><line stroke="currentColor" x2="-6"/><text fill="currentColor" x="-9" dy="0.32em" style="fill: currentcolor;">3,000</text></g></g><g transform="translate(0,294)" fill="none" font-size="10" font-family="sans-serif" text-anchor="middle"><path class="domain" stroke="currentColor" d="M0,6V0H868V6"/><g class="tick" opacity="1" transform="translate(0,0)"><line stroke="currentColor" y2="6"/><text fill="currentColor" y="9" dy=".1em" style="fill: currentcolor;" transform="rotate(-45)" text-anchor="end" dx="-.8em">2023-11</text></g><g class="tick" opacity="1" transform="translate(33.38461538461539,0)"><line stroke="currentColor" y2="6"/><text fill="currentColor" y="9" dy=".1em" style="fill: currentcolor;" transform="rotate(-45)" text-anchor="end" dx="-.8em">2023-12</text></g><g class="tick" opacity="1" transform="translate(66.76923076923077,0)"><line stroke="currentColor" y2="6"/><text fill="currentColor" y="9" dy=".1em" style="fill: currentcolor;" transform="rotate(-45)" text-anchor="end" dx="-.8em">2024-01</text></g><g class="tick" opacity="1" transform="translate(100.15384615384616,0)"><line stroke="currentColor" y2="6"/><text fill="currentColor" y="9" dy=".1em" style="fill: currentcolor;" transform="rotate(-45)" text-anchor="end" dx="-.8em">2024-02</text></g><g class="tick" opacity="1" transform="translate(133.53846153846155,0)"><line stroke="currentColor" y2="6"/><text fill="currentColor" y="9" dy=".1em" style="fill: currentcolor;" transform="rotate(-45)" text-anchor="end" dx="-.8em">2024-03</text></g><g class="tick" opacity="1" transform="translate(166.92307692307693,0)"><line stroke="currentColor" y2="6"/><text fill="currentColor" y="9" dy=".1em" style="fill: currentcolor;" transform="rotate(-45)" text-anchor="end" dx="-.8em">2024-04</text></g><g class="tick" opacity="1" transform="translate(200.30769230769232,0)"><line stroke="currentColor" y2="6"/><text fill="currentColor" y="9" dy=".1em" style="fill: currentcolor;" transform="rotate(-45)" text-anchor="end" dx="-.8em">2024-05</text></g><g class="tick" opacity="1" transform="translate(233.6923076923077,0)"><line stroke="currentColor" y2="6"/><text fill="currentColor" y="9" dy=".1em" style="fill: currentcolor;" transform="rotate(-45)" text-anchor="end" dx="-.8em">2024-06</text></g><g class="tick" opacity="1" transform="translate(267.0769230769231,0)"><line stroke="currentColor" y2="6"/><text fill="currentColor" y="9" dy=".1em" style="fill: currentcolor;" transform="rotate(-45)" text-anchor="end" dx="-.8em">2024-07</text></g><g class="tick" opacity="1" transform="translate(300.46153846153845,0)"><line stroke="currentColor" y2="6"/><text fill="currentColor" y="9" dy=".1em" style="fill: currentcolor;" transform="rotate(-45)" text-anchor="end" dx="-.8em">2024-08</text></g><g class="tick" opacity="1" transform="translate(333.84615384615387,0)"><line stroke="currentColor" y2="6"/><text fill="currentColor" y="9" dy=".1em" style="fill: currentcolor;" transform="rotate(-45)" text-anchor="end" dx="-.8em">2024-09</text></g><g class="tick" opacity="1" transform="translate(367.2307692307693,0)"><line stroke="currentColor" y2="6"/><text fill="currentColor" y="9" dy=".1em" style="fill: currentcolor;" transform="rotate(-45)" text-anchor="end" dx="-.8em">2024-10</text></g><g class="tick" opacity="1" transform="translate(400.61538461538464,0)"><line stroke="currentColor" y2="6"/><text fill="currentColor" y="9" dy=".1em" style="fill: currentcolor;" transform="rotate(-45)" text-anchor="end" dx="-.8em">2024-11</text></g><g class="tick" opacity="1" transform="translate(434,0)"><line stroke="currentColor" y2="6"/><text fill="currentColor" y="9" dy=".1em" style="fill: currentcolor;" transform="rotate(-45)" text-anchor="end" dx="-.8em">2024-12</text></g><g class="tick" opacity="1" transform="translate(467.3846153846154,0)"><line stroke="currentColor" y2="6"/><text fill="currentColor" y="9" dy=".1em" style="fill: currentcolor;" transform="rotate(-45)" text-anchor="end" dx="-.8em">2025-01</text></g><g class="tick" opacity="1" transform="translate(500.76923076923083,0)"><line stroke="currentColor" y2="6"/><text fill="currentColor" y="9" dy=".1em" style="fill: currentcolor;" transform="rotate(-45)" text-anchor="end" dx="-.8em">2025-02</text></g><g class="tick" opacity="1" transform="translate(534.1538461538462,0)"><line stroke="currentColor" y2="6"/><text fill="currentColor" y="9" dy=".1em" style="fill: currentcolor;" transform="rotate(-45)" text-anchor="end" dx="-.8em">2025-03</text></g><g class="tick" opacity="1" transform="translate(567.5384615384615,0)"><line stroke="currentColor" y2="6"/><text fill="currentColor" y="9" dy=".1em" style="fill: currentcolor;" transform="rotate(-45)" text-anchor="end" dx="-.8em">2025-04</text></g><g class="tick" opacity="1" transform="translate(600.9230769230769,0)"><line stroke="currentColor" y2="6"/><text fill="currentColor" y="9" dy=".1em" style="fill: currentcolor;" transform="rotate(-45)" text-anchor="end" dx="-.8em">2025-05</text></g><g class="tick" opacity="1" transform="translate(634.3076923076924,0)"><line stroke="currentColor" y2="6"/><text fill="currentColor" y="9" dy=".1em" style="fill: currentcolor;" transform="rotate(-45)" text-anchor="end" dx="-.8em">2025-06</text></g><g class="tick" opacity="1" transform="translate(667.6923076923077,0)"><line stroke="currentColor" y2="6"/><text fill="currentColor" y="9" dy=".1em" style="fill: currentcolor;" transform="rotate(-45)" text-anchor="end" dx="-.8em">2025-07</text></g><g class="tick" opacity="1" transform="translate(701.0769230769231,0)"><line stroke="currentColor" y2="6"/><text fill="currentColor" y="9" dy=".1em" style="fill: currentcolor;" transform="rotate(-45)" text-anchor="end" dx="-.8em">2025-08</text></g><g class="tick" opacity="1" transform="translate(734.4615384615386,0)"><line stroke="currentColor" y2="6"/><text fill="currentColor" y="9" dy=".1em" style="fill: currentcolor;" transform="rotate(-45)" text-anchor="end" dx="-.8em">2025-09</text></g><g class="tick" opacity="1" transform="translate(767.8461538461539,0)"><line stroke="currentColor" y2="6"/><text fill="currentColor" y="9" dy=".1em" style="fill: currentcolor;" transform="rotate(-45)" text-anchor="end" dx="-.8em">2025-10</text></g><g class="tick" opacity="1" transform="translate(801.2307692307693,0)"><line stroke="currentColor" y2="6"/><text fill="currentColor" y="9" dy=".1em" style="fill: currentcolor;" transform="rotate(-45)" text-anchor="end" dx="-.8em">2025-11</text></g><g class="tick" opacity="1" transform="translate(834.6153846153846,0)"><line stroke="currentColor" y2="6"/><text fill="currentColor" y="9" dy=".1em" style="fill: currentcolor;" transform="rotate(-45)" text-anchor="end" dx="-.8em">2025-12</text></g><g class="tick" opacity="1" transform="translate(868,0)"><line stroke="currentColor" y2="6"/><text fill="currentColor" y="9" dy=".1em" style="fill: currentcolor;" transform="rotate(-45)" text-anchor="end" dx="-.8em">2026-01</text></g></g><text x="434" y="349" text-anchor="middle" style="fill: currentcolor; font-family: sans-serif;">month</text><text x="-147" y="-45" transform="rotate(-90)" text-anchor="middle" style="fill: currentcolor; font-family: sans-serif;">amount ($)</text><g class="legend" transform="translate(824.5999999999999, 20)"><g transform="translate(0, 0)"><text x="0" y="10" style="fill: rgb(251, 251, 251); font-family: sans-serif;" text-anchor="end">GitHub Sponsors</text><circle cx="20" cy="6" r="4" style="fill: rgb(251, 251, 251);"/></g><g transform="translate(0, 25)"><text x="0" y="10" style="fill: rgb(36, 135, 255); font-family: sans-serif;" text-anchor="end">Open Collective</text><circle cx="20" cy="6" r="4" style="fill: rgb(36, 135, 255);"/></g></g><path class="line" fill="none" stroke="#fbfbfb" stroke-width="2" d="M0,293.118C11.128,291.811,22.256,290.505,33.385,286.748C44.513,282.991,55.641,277.356,66.769,270.578C77.897,263.8,89.026,246.078,100.154,246.078C111.282,246.078,122.41,275.478,133.538,275.478C144.667,275.478,155.795,274.988,166.923,274.008C178.051,273.028,189.179,270.741,200.308,264.208C211.436,257.675,222.564,176.008,233.692,176.008C244.821,176.008,255.949,274.008,267.077,274.008C278.205,274.008,289.333,273.191,300.462,271.558C311.59,269.925,322.718,26.558,333.846,26.558C344.974,26.558,356.103,241.537,367.231,253.82C378.359,266.103,389.487,272.244,400.615,272.244C411.744,272.244,422.872,272.244,434,272.244C445.128,272.244,456.256,260.484,467.385,260.484C478.513,260.484,489.641,268.651,500.769,270.088C511.897,271.525,523.026,272.244,534.154,272.244C545.282,272.244,556.41,272.244,567.538,272.244C578.667,272.244,589.795,270.611,600.923,270.284C612.051,269.957,623.179,270.121,634.308,269.794C645.436,269.467,656.564,264.894,667.692,264.894C678.821,264.894,689.949,267.736,701.077,267.736C712.205,267.736,723.333,261.333,734.462,259.7C745.59,258.067,756.718,258.883,767.846,257.25C778.974,255.617,790.103,240.198,801.231,240.198C812.359,240.198,823.487,259.21,834.615,259.21C845.744,259.21,856.872,259.21,868,259.21"/><g transform="translate(0,293.118)"><circle r="12" fill="transparent" class="hit-area"/><circle r="3" fill="#fbfbfb" class="visible-dot"/><g class="tooltip-group"><rect class="tooltip-bg" x="7" y="-25" width="25.633333206176758" height="20" rx="4" fill="rgba(0, 0, 0, 0.8)" stroke="rgba(255, 255, 255, 0.2)"/><text class="tooltip" y="-10" x="15" text-anchor="start" style="font-size: 12px; fill: white;">9</text></g></g><g transform="translate(33.38461538461539,286.748)"><circle r="12" fill="transparent" class="hit-area"/><circle r="3" fill="#fbfbfb" class="visible-dot"/><g class="tooltip-group"><rect class="tooltip-bg" x="-15.925000190734863" y="-25" width="31.850000381469727" height="20" rx="4" fill="rgba(0, 0, 0, 0.8)" stroke="rgba(255, 255, 255, 0.2)"/><text class="tooltip" y="-10" x="0" text-anchor="middle" style="font-size: 12px; fill: white;">74</text></g></g><g transform="translate(66.76923076923077,270.578)"><circle r="12" fill="transparent" class="hit-area"/><circle r="3" fill="#fbfbfb" class="visible-dot"/><g class="tooltip-group"><rect class="tooltip-bg" x="-20.199999809265137" y="-25" width="40.39999961853027" height="20" rx="4" fill="rgba(0, 0, 0, 0.8)" stroke="rgba(255, 255, 255, 0.2)"/><text class="tooltip" y="-10" x="0" text-anchor="middle" style="font-size: 12px; fill: white;">239</text></g></g><g transform="translate(100.15384615384616,246.078)"><circle r="12" fill="transparent" class="hit-area"/><circle r="3" fill="#fbfbfb" class="visible-dot"/><g class="tooltip-group"><rect class="tooltip-bg" x="-20.508333206176758" y="-25" width="41.016666412353516" height="20" rx="4" fill="rgba(0, 0, 0, 0.8)" stroke="rgba(255, 255, 255, 0.2)"/><text class="tooltip" y="-10" x="0" text-anchor="middle" style="font-size: 12px; fill: white;">489</text></g></g><g transform="translate(133.53846153846155,275.478)"><circle r="12" fill="transparent" class="hit-area"/><circle r="3" fill="#fbfbfb" class="visible-dot"/><g class="tooltip-group"><rect class="tooltip-bg" x="-19.43333339691162" y="-25" width="38.86666679382324" height="20" rx="4" fill="rgba(0, 0, 0, 0.8)" stroke="rgba(255, 255, 255, 0.2)"/><text class="tooltip" y="-10" x="0" text-anchor="middle" style="font-size: 12px; fill: white;">189</text></g></g><g transform="translate(166.92307692307693,274.008)"><circle r="12" fill="transparent" class="hit-area"/><circle r="3" fill="#fbfbfb" class="visible-dot"/><g class="tooltip-group"><rect class="tooltip-bg" x="-20.266666412353516" y="-25" width="40.53333282470703" height="20" rx="4" fill="rgba(0, 0, 0, 0.8)" stroke="rgba(255, 255, 255, 0.2)"/><text class="tooltip" y="-10" x="0" text-anchor="middle" style="font-size: 12px; fill: white;">204</text></g></g><g transform="translate(200.30769230769232,264.208)"><circle r="12" fill="transparent" class="hit-area"/><circle r="3" fill="#fbfbfb" class="visible-dot"/><g class="tooltip-group"><rect class="tooltip-bg" x="-20.399999618530273" y="-25" width="40.79999923706055" height="20" rx="4" fill="rgba(0, 0, 0, 0.8)" stroke="rgba(255, 255, 255, 0.2)"/><text class="tooltip" y="-10" x="0" text-anchor="middle" style="font-size: 12px; fill: white;">304</text></g></g><g transform="translate(233.6923076923077,176.008)"><circle r="12" fill="transparent" class="hit-area"/><circle r="3" fill="#fbfbfb" class="visible-dot"/><g class="tooltip-group"><rect class="tooltip-bg" x="-23.050000190734863" y="-25" width="46.10000038146973" height="20" rx="4" fill="rgba(0, 0, 0, 0.8)" stroke="rgba(255, 255, 255, 0.2)"/><text class="tooltip" y="-10" x="0" text-anchor="middle" style="font-size: 12px; fill: white;">1204</text></g></g><g transform="translate(267.0769230769231,274.008)"><circle r="12" fill="transparent" class="hit-area"/><circle r="3" fill="#fbfbfb" class="visible-dot"/><g class="tooltip-group"><rect class="tooltip-bg" x="-20.266666412353516" y="-25" width="40.53333282470703" height="20" rx="4" fill="rgba(0, 0, 0, 0.8)" stroke="rgba(255, 255, 255, 0.2)"/><text class="tooltip" y="-10" x="0" text-anchor="middle" style="font-size: 12px; fill: white;">204</text></g></g><g transform="translate(300.46153846153845,271.558)"><circle r="12" fill="transparent" class="hit-area"/><circle r="3" fill="#fbfbfb" class="visible-dot"/><g class="tooltip-group"><rect class="tooltip-bg" x="-20.06666660308838" y="-25" width="40.13333320617676" height="20" rx="4" fill="rgba(0, 0, 0, 0.8)" stroke="rgba(255, 255, 255, 0.2)"/><text class="tooltip" y="-10" x="0" text-anchor="middle" style="font-size: 12px; fill: white;">229</text></g></g><g transform="translate(333.84615384615387,26.558000000000014)"><circle r="12" fill="transparent" class="hit-area"/><circle r="3" fill="#fbfbfb" class="visible-dot"/><g class="tooltip-group"><rect class="tooltip-bg" x="-23.483333587646484" y="-25" width="46.96666717529297" height="20" rx="4" fill="rgba(0, 0, 0, 0.8)" stroke="rgba(255, 255, 255, 0.2)"/><text class="tooltip" y="-10" x="0" text-anchor="middle" style="font-size: 12px; fill: white;">2729</text></g></g><g transform="translate(367.2307692307693,253.82)"><circle r="12" fill="transparent" class="hit-area"/><circle r="3" fill="#fbfbfb" class="visible-dot"/><g class="tooltip-group"><rect class="tooltip-bg" x="-19.366666793823242" y="-25" width="38.733333587646484" height="20" rx="4" fill="rgba(0, 0, 0, 0.8)" stroke="rgba(255, 255, 255, 0.2)"/><text class="tooltip" y="-10" x="0" text-anchor="middle" style="font-size: 12px; fill: white;">410</text></g></g><g transform="translate(400.61538461538464,272.244)"><circle r="12" fill="transparent" class="hit-area"/><circle r="3" fill="#fbfbfb" class="visible-dot"/><g class="tooltip-group"><rect class="tooltip-bg" x="-19.875" y="-25" width="39.75" height="20" rx="4" fill="rgba(0, 0, 0, 0.8)" stroke="rgba(255, 255, 255, 0.2)"/><text class="tooltip" y="-10" x="0" text-anchor="middle" style="font-size: 12px; fill: white;">222</text></g></g><g transform="translate(434,272.244)"><circle r="12" fill="transparent" class="hit-area"/><circle r="3" fill="#fbfbfb" class="visible-dot"/><g class="tooltip-group"><rect class="tooltip-bg" x="-19.875" y="-25" width="39.75" height="20" rx="4" fill="rgba(0, 0, 0, 0.8)" stroke="rgba(255, 255, 255, 0.2)"/><text class="tooltip" y="-10" x="0" text-anchor="middle" style="font-size: 12px; fill: white;">222</text></g></g><g transform="translate(467.3846153846154,260.484)"><circle r="12" fill="transparent" class="hit-area"/><circle r="3" fill="#fbfbfb" class="visible-dot"/><g class="tooltip-group"><rect class="tooltip-bg" x="-20.241666793823242" y="-25" width="40.483333587646484" height="20" rx="4" fill="rgba(0, 0, 0, 0.8)" stroke="rgba(255, 255, 255, 0.2)"/><text class="tooltip" y="-10" x="0" text-anchor="middle" style="font-size: 12px; fill: white;">342</text></g></g><g transform="translate(500.76923076923083,270.08799999999997)"><circle r="12" fill="transparent" class="hit-area"/><circle r="3" fill="#fbfbfb" class="visible-dot"/><g class="tooltip-group"><rect class="tooltip-bg" x="-20.25" y="-25" width="40.5" height="20" rx="4" fill="rgba(0, 0, 0, 0.8)" stroke="rgba(255, 255, 255, 0.2)"/><text class="tooltip" y="-10" x="0" text-anchor="middle" style="font-size: 12px; fill: white;">244</text></g></g><g transform="translate(534.1538461538462,272.244)"><circle r="12" fill="transparent" class="hit-area"/><circle r="3" fill="#fbfbfb" class="visible-dot"/><g class="tooltip-group"><rect class="tooltip-bg" x="-19.875" y="-25" width="39.75" height="20" rx="4" fill="rgba(0, 0, 0, 0.8)" stroke="rgba(255, 255, 255, 0.2)"/><text class="tooltip" y="-10" x="0" text-anchor="middle" style="font-size: 12px; fill: white;">222</text></g></g><g transform="translate(567.5384615384615,272.244)"><circle r="12" fill="transparent" class="hit-area"/><circle r="3" fill="#fbfbfb" class="visible-dot"/><g class="tooltip-group"><rect class="tooltip-bg" x="-19.875" y="-25" width="39.75" height="20" rx="4" fill="rgba(0, 0, 0, 0.8)" stroke="rgba(255, 255, 255, 0.2)"/><text class="tooltip" y="-10" x="0" text-anchor="middle" style="font-size: 12px; fill: white;">222</text></g></g><g transform="translate(600.9230769230769,270.284)"><circle r="12" fill="transparent" class="hit-area"/><circle r="3" fill="#fbfbfb" class="visible-dot"/><g class="tooltip-group"><rect class="tooltip-bg" x="-20.016666412353516" y="-25" width="40.03333282470703" height="20" rx="4" fill="rgba(0, 0, 0, 0.8)" stroke="rgba(255, 255, 255, 0.2)"/><text class="tooltip" y="-10" x="0" text-anchor="middle" style="font-size: 12px; fill: white;">242</text></g></g><g transform="translate(634.3076923076924,269.794)"><circle r="12" fill="transparent" class="hit-area"/><circle r="3" fill="#fbfbfb" class="visible-dot"/><g class="tooltip-group"><rect class="tooltip-bg" x="-19.80833339691162" y="-25" width="39.61666679382324" height="20" rx="4" fill="rgba(0, 0, 0, 0.8)" stroke="rgba(255, 255, 255, 0.2)"/><text class="tooltip" y="-10" x="0" text-anchor="middle" style="font-size: 12px; fill: white;">247</text></g></g><g transform="translate(667.6923076923077,264.894)"><circle r="12" fill="transparent" class="hit-area"/><circle r="3" fill="#fbfbfb" class="visible-dot"/><g class="tooltip-group"><rect class="tooltip-bg" x="-19.741666793823242" y="-25" width="39.483333587646484" height="20" rx="4" fill="rgba(0, 0, 0, 0.8)" stroke="rgba(255, 255, 255, 0.2)"/><text class="tooltip" y="-10" x="0" text-anchor="middle" style="font-size: 12px; fill: white;">297</text></g></g><g transform="translate(701.0769230769231,267.736)"><circle r="12" fill="transparent" class="hit-area"/><circle r="3" fill="#fbfbfb" class="visible-dot"/><g class="tooltip-group"><rect class="tooltip-bg" x="-20.274999618530273" y="-25" width="40.54999923706055" height="20" rx="4" fill="rgba(0, 0, 0, 0.8)" stroke="rgba(255, 255, 255, 0.2)"/><text class="tooltip" y="-10" x="0" text-anchor="middle" style="font-size: 12px; fill: white;">268</text></g></g><g transform="translate(734.4615384615386,259.7)"><circle r="12" fill="transparent" class="hit-area"/><circle r="3" fill="#fbfbfb" class="visible-dot"/><g class="tooltip-group"><rect class="tooltip-bg" x="-20.25" y="-25" width="40.5" height="20" rx="4" fill="rgba(0, 0, 0, 0.8)" stroke="rgba(255, 255, 255, 0.2)"/><text class="tooltip" y="-10" x="0" text-anchor="middle" style="font-size: 12px; fill: white;">350</text></g></g><g transform="translate(767.8461538461539,257.25)"><circle r="12" fill="transparent" class="hit-area"/><circle r="3" fill="#fbfbfb" class="visible-dot"/><g class="tooltip-group"><rect class="tooltip-bg" x="-19.824999809265137" y="-25" width="39.64999961853027" height="20" rx="4" fill="rgba(0, 0, 0, 0.8)" stroke="rgba(255, 255, 255, 0.2)"/><text class="tooltip" y="-10" x="0" text-anchor="middle" style="font-size: 12px; fill: white;">375</text></g></g><g transform="translate(801.2307692307693,240.19799999999998)"><circle r="12" fill="transparent" class="hit-area"/><circle r="3" fill="#fbfbfb" class="visible-dot"/><g class="tooltip-group"><rect class="tooltip-bg" x="-20.383333206176758" y="-25" width="40.766666412353516" height="20" rx="4" fill="rgba(0, 0, 0, 0.8)" stroke="rgba(255, 255, 255, 0.2)"/><text class="tooltip" y="-10" x="0" text-anchor="middle" style="font-size: 12px; fill: white;">549</text></g></g><g transform="translate(834.6153846153846,259.21000000000004)"><circle r="12" fill="transparent" class="hit-area"/><circle r="3" fill="#fbfbfb" class="visible-dot"/><g class="tooltip-group"><rect class="tooltip-bg" x="-20.175000190734863" y="-25" width="40.35000038146973" height="20" rx="4" fill="rgba(0, 0, 0, 0.8)" stroke="rgba(255, 255, 255, 0.2)"/><text class="tooltip" y="-10" x="0" text-anchor="middle" style="font-size: 12px; fill: white;">355</text></g></g><g transform="translate(868,259.21000000000004)"><circle r="12" fill="transparent" class="hit-area"/><circle r="3" fill="#fbfbfb" class="visible-dot"/><g class="tooltip-group"><rect class="tooltip-bg" x="-47.35000038146973" y="-25" width="40.35000038146973" height="20" rx="4" fill="rgba(0, 0, 0, 0.8)" stroke="rgba(255, 255, 255, 0.2)"/><text class="tooltip" y="-10" x="-15" text-anchor="end" style="font-size: 12px; fill: white;">355</text></g></g><path class="line" fill="none" stroke="#2487ff" stroke-width="2" d="M0,294C11.128,294,22.256,294,33.385,294C44.513,294,55.641,294,66.769,294C77.897,294,89.026,294,100.154,294C111.282,294,122.41,294,133.538,294C144.667,294,155.795,220.5,166.923,220.5C178.051,220.5,189.179,277.503,200.308,284.102C211.436,290.701,222.564,294,233.692,294C244.821,294,255.949,290.57,267.077,290.57C278.205,290.57,289.333,291.55,300.462,291.55C311.59,291.55,322.718,291.55,333.846,291.55C344.974,291.55,356.103,289.59,367.231,289.59C378.359,289.59,389.487,289.59,400.615,289.59C411.744,289.59,422.872,279.79,434,279.79C445.128,279.79,456.256,279.79,467.385,279.79C478.513,279.79,489.641,279.79,500.769,279.79C511.897,279.79,523.026,279.79,534.154,279.79C545.282,279.79,556.41,279.79,567.538,279.79C578.667,279.79,589.795,279.79,600.923,279.79C612.051,279.79,623.179,279.79,634.308,279.79C645.436,279.79,656.564,279.79,667.692,279.79C678.821,279.79,689.949,279.79,701.077,279.79C712.205,279.79,723.333,279.79,734.462,279.79C745.59,279.79,756.718,279.79,767.846,279.79C778.974,279.79,790.103,279.79,801.231,279.79C812.359,279.79,823.487,279.79,834.615,279.79C845.744,279.79,856.872,279.79,868,279.79"/><g transform="translate(0,294)"><circle r="12" fill="transparent" class="hit-area"/><circle r="3" fill="#2487ff" class="visible-dot"/><g class="tooltip-group"><rect class="tooltip-bg" x="7" y="-25" width="25.56666660308838" height="20" rx="4" fill="rgba(0, 0, 0, 0.8)" stroke="rgba(255, 255, 255, 0.2)"/><text class="tooltip" y="-10" x="15" text-anchor="start" style="font-size: 12px; fill: white;">0</text></g></g><g transform="translate(33.38461538461539,294)"><circle r="12" fill="transparent" class="hit-area"/><circle r="3" fill="#2487ff" class="visible-dot"/><g class="tooltip-group"><rect class="tooltip-bg" x="-12.78333330154419" y="-25" width="25.56666660308838" height="20" rx="4" fill="rgba(0, 0, 0, 0.8)" stroke="rgba(255, 255, 255, 0.2)"/><text class="tooltip" y="-10" x="0" text-anchor="middle" style="font-size: 12px; fill: white;">0</text></g></g><g transform="translate(66.76923076923077,294)"><circle r="12" fill="transparent" class="hit-area"/><circle r="3" fill="#2487ff" class="visible-dot"/><g class="tooltip-group"><rect class="tooltip-bg" x="-12.78333330154419" y="-25" width="25.56666660308838" height="20" rx="4" fill="rgba(0, 0, 0, 0.8)" stroke="rgba(255, 255, 255, 0.2)"/><text class="tooltip" y="-10" x="0" text-anchor="middle" style="font-size: 12px; fill: white;">0</text></g></g><g transform="translate(100.15384615384616,294)"><circle r="12" fill="transparent" class="hit-area"/><circle r="3" fill="#2487ff" class="visible-dot"/><g class="tooltip-group"><rect class="tooltip-bg" x="-12.78333330154419" y="-25" width="25.56666660308838" height="20" rx="4" fill="rgba(0, 0, 0, 0.8)" stroke="rgba(255, 255, 255, 0.2)"/><text class="tooltip" y="-10" x="0" text-anchor="middle" style="font-size: 12px; fill: white;">0</text></g></g><g transform="translate(133.53846153846155,294)"><circle r="12" fill="transparent" class="hit-area"/><circle r="3" fill="#2487ff" class="visible-dot"/><g class="tooltip-group"><rect class="tooltip-bg" x="-12.78333330154419" y="-25" width="25.56666660308838" height="20" rx="4" fill="rgba(0, 0, 0, 0.8)" stroke="rgba(255, 255, 255, 0.2)"/><text class="tooltip" y="-10" x="0" text-anchor="middle" style="font-size: 12px; fill: white;">0</text></g></g><g transform="translate(166.92307692307693,220.5)"><circle r="12" fill="transparent" class="hit-area"/><circle r="3" fill="#2487ff" class="visible-dot"/><g class="tooltip-group"><rect class="tooltip-bg" x="-19.850000381469727" y="-25" width="39.70000076293945" height="20" rx="4" fill="rgba(0, 0, 0, 0.8)" stroke="rgba(255, 255, 255, 0.2)"/><text class="tooltip" y="-10" x="0" text-anchor="middle" style="font-size: 12px; fill: white;">750</text></g></g><g transform="translate(200.30769230769232,284.10200000000003)"><circle r="12" fill="transparent" class="hit-area"/><circle r="3" fill="#2487ff" class="visible-dot"/><g class="tooltip-group"><rect class="tooltip-bg" x="-18.350000381469727" y="-25" width="36.70000076293945" height="20" rx="4" fill="rgba(0, 0, 0, 0.8)" stroke="rgba(255, 255, 255, 0.2)"/><text class="tooltip" y="-10" x="0" text-anchor="middle" style="font-size: 12px; fill: white;">101</text></g></g><g transform="translate(233.6923076923077,294)"><circle r="12" fill="transparent" class="hit-area"/><circle r="3" fill="#2487ff" class="visible-dot"/><g class="tooltip-group"><rect class="tooltip-bg" x="-12.78333330154419" y="-25" width="25.56666660308838" height="20" rx="4" fill="rgba(0, 0, 0, 0.8)" stroke="rgba(255, 255, 255, 0.2)"/><text class="tooltip" y="-10" x="0" text-anchor="middle" style="font-size: 12px; fill: white;">0</text></g></g><g transform="translate(267.0769230769231,290.57)"><circle r="12" fill="transparent" class="hit-area"/><circle r="3" fill="#2487ff" class="visible-dot"/><g class="tooltip-group"><rect class="tooltip-bg" x="-16.466666221618652" y="-25" width="32.933332443237305" height="20" rx="4" fill="rgba(0, 0, 0, 0.8)" stroke="rgba(255, 255, 255, 0.2)"/><text class="tooltip" y="-10" x="0" text-anchor="middle" style="font-size: 12px; fill: white;">35</text></g></g><g transform="translate(300.46153846153845,291.55)"><circle r="12" fill="transparent" class="hit-area"/><circle r="3" fill="#2487ff" class="visible-dot"/><g class="tooltip-group"><rect class="tooltip-bg" x="-16.333333015441895" y="-25" width="32.66666603088379" height="20" rx="4" fill="rgba(0, 0, 0, 0.8)" stroke="rgba(255, 255, 255, 0.2)"/><text class="tooltip" y="-10" x="0" text-anchor="middle" style="font-size: 12px; fill: white;">25</text></g></g><g transform="translate(333.84615384615387,291.55)"><circle r="12" fill="transparent" class="hit-area"/><circle r="3" fill="#2487ff" class="visible-dot"/><g class="tooltip-group"><rect class="tooltip-bg" x="-16.333333015441895" y="-25" width="32.66666603088379" height="20" rx="4" fill="rgba(0, 0, 0, 0.8)" stroke="rgba(255, 255, 255, 0.2)"/><text class="tooltip" y="-10" x="0" text-anchor="middle" style="font-size: 12px; fill: white;">25</text></g></g><g transform="translate(367.2307692307693,289.59)"><circle r="12" fill="transparent" class="hit-area"/><circle r="3" fill="#2487ff" class="visible-dot"/><g class="tooltip-group"><rect class="tooltip-bg" x="-16.56666660308838" y="-25" width="33.13333320617676" height="20" rx="4" fill="rgba(0, 0, 0, 0.8)" stroke="rgba(255, 255, 255, 0.2)"/><text class="tooltip" y="-10" x="0" text-anchor="middle" style="font-size: 12px; fill: white;">45</text></g></g><g transform="translate(400.61538461538464,289.59)"><circle r="12" fill="transparent" class="hit-area"/><circle r="3" fill="#2487ff" class="visible-dot"/><g class="tooltip-group"><rect class="tooltip-bg" x="-16.56666660308838" y="-25" width="33.13333320617676" height="20" rx="4" fill="rgba(0, 0, 0, 0.8)" stroke="rgba(255, 255, 255, 0.2)"/><text class="tooltip" y="-10" x="0" text-anchor="middle" style="font-size: 12px; fill: white;">45</text></g></g><g transform="translate(434,279.79)"><circle r="12" fill="transparent" class="hit-area"/><circle r="3" fill="#2487ff" class="visible-dot"/><g class="tooltip-group"><rect class="tooltip-bg" x="-19.350000381469727" y="-25" width="38.70000076293945" height="20" rx="4" fill="rgba(0, 0, 0, 0.8)" stroke="rgba(255, 255, 255, 0.2)"/><text class="tooltip" y="-10" x="0" text-anchor="middle" style="font-size: 12px; fill: white;">145</text></g></g><g transform="translate(467.3846153846154,279.79)"><circle r="12" fill="transparent" class="hit-area"/><circle r="3" fill="#2487ff" class="visible-dot"/><g class="tooltip-group"><rect class="tooltip-bg" x="-19.350000381469727" y="-25" width="38.70000076293945" height="20" rx="4" fill="rgba(0, 0, 0, 0.8)" stroke="rgba(255, 255, 255, 0.2)"/><text class="tooltip" y="-10" x="0" text-anchor="middle" style="font-size: 12px; fill: white;">145</text></g></g><g transform="translate(500.76923076923083,279.79)"><circle r="12" fill="transparent" class="hit-area"/><circle r="3" fill="#2487ff" class="visible-dot"/><g class="tooltip-group"><rect class="tooltip-bg" x="-19.350000381469727" y="-25" width="38.70000076293945" height="20" rx="4" fill="rgba(0, 0, 0, 0.8)" stroke="rgba(255, 255, 255, 0.2)"/><text class="tooltip" y="-10" x="0" text-anchor="middle" style="font-size: 12px; fill: white;">145</text></g></g><g transform="translate(534.1538461538462,279.79)"><circle r="12" fill="transparent" class="hit-area"/><circle r="3" fill="#2487ff" class="visible-dot"/><g class="tooltip-group"><rect class="tooltip-bg" x="-19.350000381469727" y="-25" width="38.70000076293945" height="20" rx="4" fill="rgba(0, 0, 0, 0.8)" stroke="rgba(255, 255, 255, 0.2)"/><text class="tooltip" y="-10" x="0" text-anchor="middle" style="font-size: 12px; fill: white;">145</text></g></g><g transform="translate(567.5384615384615,279.79)"><circle r="12" fill="transparent" class="hit-area"/><circle r="3" fill="#2487ff" class="visible-dot"/><g class="tooltip-group"><rect class="tooltip-bg" x="-19.350000381469727" y="-25" width="38.70000076293945" height="20" rx="4" fill="rgba(0, 0, 0, 0.8)" stroke="rgba(255, 255, 255, 0.2)"/><text class="tooltip" y="-10" x="0" text-anchor="middle" style="font-size: 12px; fill: white;">145</text></g></g><g transform="translate(600.9230769230769,279.79)"><circle r="12" fill="transparent" class="hit-area"/><circle r="3" fill="#2487ff" class="visible-dot"/><g class="tooltip-group"><rect class="tooltip-bg" x="-19.350000381469727" y="-25" width="38.70000076293945" height="20" rx="4" fill="rgba(0, 0, 0, 0.8)" stroke="rgba(255, 255, 255, 0.2)"/><text class="tooltip" y="-10" x="0" text-anchor="middle" style="font-size: 12px; fill: white;">145</text></g></g><g transform="translate(634.3076923076924,279.79)"><circle r="12" fill="transparent" class="hit-area"/><circle r="3" fill="#2487ff" class="visible-dot"/><g class="tooltip-group"><rect class="tooltip-bg" x="-19.350000381469727" y="-25" width="38.70000076293945" height="20" rx="4" fill="rgba(0, 0, 0, 0.8)" stroke="rgba(255, 255, 255, 0.2)"/><text class="tooltip" y="-10" x="0" text-anchor="middle" style="font-size: 12px; fill: white;">145</text></g></g><g transform="translate(667.6923076923077,279.79)"><circle r="12" fill="transparent" class="hit-area"/><circle r="3" fill="#2487ff" class="visible-dot"/><g class="tooltip-group"><rect class="tooltip-bg" x="-19.350000381469727" y="-25" width="38.70000076293945" height="20" rx="4" fill="rgba(0, 0, 0, 0.8)" stroke="rgba(255, 255, 255, 0.2)"/><text class="tooltip" y="-10" x="0" text-anchor="middle" style="font-size: 12px; fill: white;">145</text></g></g><g transform="translate(701.0769230769231,279.79)"><circle r="12" fill="transparent" class="hit-area"/><circle r="3" fill="#2487ff" class="visible-dot"/><g class="tooltip-group"><rect class="tooltip-bg" x="-19.350000381469727" y="-25" width="38.70000076293945" height="20" rx="4" fill="rgba(0, 0, 0, 0.8)" stroke="rgba(255, 255, 255, 0.2)"/><text class="tooltip" y="-10" x="0" text-anchor="middle" style="font-size: 12px; fill: white;">145</text></g></g><g transform="translate(734.4615384615386,279.79)"><circle r="12" fill="transparent" class="hit-area"/><circle r="3" fill="#2487ff" class="visible-dot"/><g class="tooltip-group"><rect class="tooltip-bg" x="-19.350000381469727" y="-25" width="38.70000076293945" height="20" rx="4" fill="rgba(0, 0, 0, 0.8)" stroke="rgba(255, 255, 255, 0.2)"/><text class="tooltip" y="-10" x="0" text-anchor="middle" style="font-size: 12px; fill: white;">145</text></g></g><g transform="translate(767.8461538461539,279.79)"><circle r="12" fill="transparent" class="hit-area"/><circle r="3" fill="#2487ff" class="visible-dot"/><g class="tooltip-group"><rect class="tooltip-bg" x="-19.350000381469727" y="-25" width="38.70000076293945" height="20" rx="4" fill="rgba(0, 0, 0, 0.8)" stroke="rgba(255, 255, 255, 0.2)"/><text class="tooltip" y="-10" x="0" text-anchor="middle" style="font-size: 12px; fill: white;">145</text></g></g><g transform="translate(801.2307692307693,279.79)"><circle r="12" fill="transparent" class="hit-area"/><circle r="3" fill="#2487ff" class="visible-dot"/><g class="tooltip-group"><rect class="tooltip-bg" x="-19.350000381469727" y="-25" width="38.70000076293945" height="20" rx="4" fill="rgba(0, 0, 0, 0.8)" stroke="rgba(255, 255, 255, 0.2)"/><text class="tooltip" y="-10" x="0" text-anchor="middle" style="font-size: 12px; fill: white;">145</text></g></g><g transform="translate(834.6153846153846,279.79)"><circle r="12" fill="transparent" class="hit-area"/><circle r="3" fill="#2487ff" class="visible-dot"/><g class="tooltip-group"><rect class="tooltip-bg" x="-19.350000381469727" y="-25" width="38.70000076293945" height="20" rx="4" fill="rgba(0, 0, 0, 0.8)" stroke="rgba(255, 255, 255, 0.2)"/><text class="tooltip" y="-10" x="0" text-anchor="middle" style="font-size: 12px; fill: white;">145</text></g></g><g transform="translate(868,279.79)"><circle r="12" fill="transparent" class="hit-area"/><circle r="3" fill="#2487ff" class="visible-dot"/><g class="tooltip-group"><rect class="tooltip-bg" x="-45.70000076293945" y="-25" width="38.70000076293945" height="20" rx="4" fill="rgba(0, 0, 0, 0.8)" stroke="rgba(255, 255, 255, 0.2)"/><text class="tooltip" y="-10" x="-15" text-anchor="end" style="font-size: 12px; fill: white;">145</text></g></g></g></svg>