<svg xmlns="http://www.w3.org/2000/svg" class="venz-chart" role="img" viewBox="0 0 928 384">
  <title>New labeled data series (3/2 8:27)</title>
  <g transform="translate(60,30)">
    <style>
      .tooltip {
        opacity: 0;
        pointer-events: none;
        transition: opacity 0.2s ease-in-out;
      }
      .tooltip-bg {
        opacity: 0;
        pointer-events: none;
        transition: opacity 0.2s ease-in-out;
      }
      .hit-area:hover + .visible-dot + .tooltip-group &gt; .tooltip-bg,
      .hit-area:hover + .visible-dot + .tooltip-group &gt; .tooltip {
        opacity: 1;
      }
    </style>
    <g class="grid" style="stroke: currentcolor; opacity: 0.2;" fill="none" font-size="10" font-family="sans-serif" text-anchor="end">
      <path class="domain" stroke="currentColor" d="M868,294H0V0H868"/>
      <g class="tick" opacity="1" transform="translate(0,294)">
        <line stroke="currentColor" x2="868"/>
        <text fill="currentColor" x="-3" dy="0.32em"/>
      </g>
      <g class="tick" opacity="1" transform="translate(0,273)">
        <line stroke="currentColor" x2="868"/>
        <text fill="currentColor" x="-3" dy="0.32em"/>
      </g>
      <g class="tick" opacity="1" transform="translate(0,252.00000000000003)">
        <line stroke="currentColor" x2="868"/>
        <text fill="currentColor" x="-3" dy="0.32em"/>
      </g>
      <g class="tick" opacity="1" transform="translate(0,231)">
        <line stroke="currentColor" x2="868"/>
        <text fill="currentColor" x="-3" dy="0.32em"/>
      </g>
      <g class="tick" opacity="1" transform="translate(0,210)">
        <line stroke="currentColor" x2="868"/>
        <text fill="currentColor" x="-3" dy="0.32em"/>
      </g>
      <g class="tick" opacity="1" transform="translate(0,188.99999999999997)">
        <line stroke="currentColor" x2="868"/>
        <text fill="currentColor" x="-3" dy="0.32em"/>
      </g>
      <g class="tick" opacity="1" transform="translate(0,168)">
        <line stroke="currentColor" x2="868"/>
        <text fill="currentColor" x="-3" dy="0.32em"/>
      </g>
      <g class="tick" opacity="1" transform="translate(0,147)">
        <line stroke="currentColor" x2="868"/>
        <text fill="currentColor" x="-3" dy="0.32em"/>
      </g>
      <g class="tick" opacity="1" transform="translate(0,126.00000000000001)">
        <line stroke="currentColor" x2="868"/>
        <text fill="currentColor" x="-3" dy="0.32em"/>
      </g>
      <g class="tick" opacity="1" transform="translate(0,104.99999999999999)">
        <line stroke="currentColor" x2="868"/>
        <text fill="currentColor" x="-3" dy="0.32em"/>
      </g>
      <g class="tick" opacity="1" transform="translate(0,84)">
        <line stroke="currentColor" x2="868"/>
        <text fill="currentColor" x="-3" dy="0.32em"/>
      </g>
      <g class="tick" opacity="1" transform="translate(0,63.00000000000001)">
        <line stroke="currentColor" x2="868"/>
        <text fill="currentColor" x="-3" dy="0.32em"/>
      </g>
      <g class="tick" opacity="1" transform="translate(0,42.000000000000014)">
        <line stroke="currentColor" x2="868"/>
        <text fill="currentColor" x="-3" dy="0.32em"/>
      </g>
      <g class="tick" opacity="1" transform="translate(0,20.99999999999999)">
        <line stroke="currentColor" x2="868"/>
        <text fill="currentColor" x="-3" dy="0.32em"/>
      </g>
      <g class="tick" opacity="1" transform="translate(0,0)">
        <line stroke="currentColor" x2="868"/>
        <text fill="currentColor" x="-3" dy="0.32em"/>
      </g>
    </g>
    <g class="grid" transform="translate(0, 294)" style="stroke: currentcolor; opacity: 0.2;" fill="none" font-size="10" font-family="sans-serif" text-anchor="middle">
      <path class="domain" stroke="currentColor" d="M0,-294V0H868V-294"/>
      <g class="tick" opacity="1" transform="translate(0,0)">
        <line stroke="currentColor" y2="-294"/>
        <text fill="currentColor" y="3" dy="0.71em"/>
      </g>
      <g class="tick" opacity="1" transform="translate(57.86666666666667,0)">
        <line stroke="currentColor" y2="-294"/>
        <text fill="currentColor" y="3" dy="0.71em"/>
      </g>
      <g class="tick" opacity="1" transform="translate(115.73333333333333,0)">
        <line stroke="currentColor" y2="-294"/>
        <text fill="currentColor" y="3" dy="0.71em"/>
      </g>
      <g class="tick" opacity="1" transform="translate(173.6,0)">
        <line stroke="currentColor" y2="-294"/>
        <text fill="currentColor" y="3" dy="0.71em"/>
      </g>
      <g class="tick" opacity="1" transform="translate(231.46666666666667,0)">
        <line stroke="currentColor" y2="-294"/>
        <text fill="currentColor" y="3" dy="0.71em"/>
      </g>
      <g class="tick" opacity="1" transform="translate(289.3333333333333,0)">
        <line stroke="currentColor" y2="-294"/>
        <text fill="currentColor" y="3" dy="0.71em"/>
      </g>
      <g class="tick" opacity="1" transform="translate(347.2,0)">
        <line stroke="currentColor" y2="-294"/>
        <text fill="currentColor" y="3" dy="0.71em"/>
      </g>
      <g class="tick" opacity="1" transform="translate(405.06666666666666,0)">
        <line stroke="currentColor" y2="-294"/>
        <text fill="currentColor" y="3" dy="0.71em"/>
      </g>
      <g class="tick" opacity="1" transform="translate(462.93333333333334,0)">
        <line stroke="currentColor" y2="-294"/>
        <text fill="currentColor" y="3" dy="0.71em"/>
      </g>
      <g class="tick" opacity="1" transform="translate(520.8,0)">
        <line stroke="currentColor" y2="-294"/>
        <text fill="currentColor" y="3" dy="0.71em"/>
      </g>
      <g class="tick" opacity="1" transform="translate(578.6666666666666,0)">
        <line stroke="currentColor" y2="-294"/>
        <text fill="currentColor" y="3" dy="0.71em"/>
      </g>
      <g class="tick" opacity="1" transform="translate(636.5333333333333,0)">
        <line stroke="currentColor" y2="-294"/>
        <text fill="currentColor" y="3" dy="0.71em"/>
      </g>
      <g class="tick" opacity="1" transform="translate(694.4,0)">
        <line stroke="currentColor" y2="-294"/>
        <text fill="currentColor" y="3" dy="0.71em"/>
      </g>
      <g class="tick" opacity="1" transform="translate(752.2666666666667,0)">
        <line stroke="currentColor" y2="-294"/>
        <text fill="currentColor" y="3" dy="0.71em"/>
      </g>
      <g class="tick" opacity="1" transform="translate(810.1333333333333,0)">
        <line stroke="currentColor" y2="-294"/>
        <text fill="currentColor" y="3" dy="0.71em"/>
      </g>
      <g class="tick" opacity="1" transform="translate(868,0)">
        <line stroke="currentColor" y2="-294"/>
        <text fill="currentColor" y="3" dy="0.71em"/>
      </g>
    </g>
    <g fill="none" font-size="10" font-family="sans-serif" text-anchor="end">
      <path class="domain" stroke="currentColor" d="M-6,294H0V0H-6"/>
      <g class="tick" opacity="1" transform="translate(0,294)">
        <line stroke="currentColor" x2="-6"/>
        <text fill="currentColor" x="-9" dy="0.32em" style="fill: currentcolor;">0</text>
      </g>
      <g class="tick" opacity="1" transform="translate(0,273)">
        <line stroke="currentColor" x2="-6"/>
        <text fill="currentColor" x="-9" dy="0.32em" style="fill: currentcolor;">200</text>
      </g>
      <g class="tick" opacity="1" transform="translate(0,252.00000000000003)">
        <line stroke="currentColor" x2="-6"/>
        <text fill="currentColor" x="-9" dy="0.32em" style="fill: currentcolor;">400</text>
      </g>
      <g class="tick" opacity="1" transform="translate(0,231)">
        <line stroke="currentColor" x2="-6"/>
        <text fill="currentColor" x="-9" dy="0.32em" style="fill: currentcolor;">600</text>
      </g>
      <g class="tick" opacity="1" transform="translate(0,210)">
        <line stroke="currentColor" x2="-6"/>
        <text fill="currentColor" x="-9" dy="0.32em" style="fill: currentcolor;">800</text>
      </g>
      <g class="tick" opacity="1" transform="translate(0,188.99999999999997)">
        <line stroke="currentColor" x2="-6"/>
        <text fill="currentColor" x="-9" dy="0.32em" style="fill: currentcolor;">1,000</text>
      </g>
      <g class="tick" opacity="1" transform="translate(0,168)">
        <line stroke="currentColor" x2="-6"/>
        <text fill="currentColor" x="-9" dy="0.32em" style="fill: currentcolor;">1,200</text>
      </g>
      <g class="tick" opacity="1" transform="translate(0,147)">
        <line stroke="currentColor" x2="-6"/>
        <text fill="currentColor" x="-9" dy="0.32em" style="fill: currentcolor;">1,400</text>
      </g>
      <g class="tick" opacity="1" transform="translate(0,126.00000000000001)">
        <line stroke="currentColor" x2="-6"/>
        <text fill="currentColor" x="-9" dy="0.32em" style="fill: currentcolor;">1,600</text>
      </g>
      <g class="tick" opacity="1" transform="translate(0,104.99999999999999)">
        <line stroke="currentColor" x2="-6"/>
        <text fill="currentColor" x="-9" dy="0.32em" style="fill: currentcolor;">1,800</text>
      </g>
      <g class="tick" opacity="1" transform="translate(0,84)">
        <line stroke="currentColor" x2="-6"/>
        <text fill="currentColor" x="-9" dy="0.32em" style="fill: currentcolor;">2,000</text>
      </g>
      <g class="tick" opacity="1" transform="translate(0,63.00000000000001)">
        <line stroke="currentColor" x2="-6"/>
        <text fill="currentColor" x="-9" dy="0.32em" style="fill: currentcolor;">2,200</text>
      </g>
      <g class="tick" opacity="1" transform="translate(0,42.000000000000014)">
        <line stroke="currentColor" x2="-6"/>
        <text fill="currentColor" x="-9" dy="0.32em" style="fill: currentcolor;">2,400</text>
      </g>
      <g class="tick" opacity="1" transform="translate(0,20.99999999999999)">
        <line stroke="currentColor" x2="-6"/>
        <text fill="currentColor" x="-9" dy="0.32em" style="fill: currentcolor;">2,600</text>
      </g>
      <g class="tick" opacity="1" transform="translate(0,0)">
        <line stroke="currentColor" x2="-6"/>
        <text fill="currentColor" x="-9" dy="0.32em" style="fill: currentcolor;">2,800</text>
      </g>
    </g>
    <g transform="translate(0,294)" fill="none" font-size="10" font-family="sans-serif" text-anchor="middle">
      <path class="domain" stroke="currentColor" d="M0,6V0H868V6"/>
      <g class="tick" opacity="1" transform="translate(0,0)">
        <line stroke="currentColor" y2="6"/>
        <text fill="currentColor" y="9" dy=".1em" transform="rotate(-45)" text-anchor="end" dx="-.8em" style="fill: currentcolor;">2023-11</text>
      </g>
      <g class="tick" opacity="1" transform="translate(57.86666666666667,0)">
        <line stroke="currentColor" y2="6"/>
        <text fill="currentColor" y="9" dy=".1em" transform="rotate(-45)" text-anchor="end" dx="-.8em" style="fill: currentcolor;">2023-12</text>
      </g>
      <g class="tick" opacity="1" transform="translate(115.73333333333333,0)">
        <line stroke="currentColor" y2="6"/>
        <text fill="currentColor" y="9" dy=".1em" transform="rotate(-45)" text-anchor="end" dx="-.8em" style="fill: currentcolor;">2024-01</text>
      </g>
      <g class="tick" opacity="1" transform="translate(173.6,0)">
        <line stroke="currentColor" y2="6"/>
        <text fill="currentColor" y="9" dy=".1em" transform="rotate(-45)" text-anchor="end" dx="-.8em" style="fill: currentcolor;">2024-02</text>
      </g>
      <g class="tick" opacity="1" transform="translate(231.46666666666667,0)">
        <line stroke="currentColor" y2="6"/>
        <text fill="currentColor" y="9" dy=".1em" transform="rotate(-45)" text-anchor="end" dx="-.8em" style="fill: currentcolor;">2024-03</text>
      </g>
      <g class="tick" opacity="1" transform="translate(289.3333333333333,0)">
        <line stroke="currentColor" y2="6"/>
        <text fill="currentColor" y="9" dy=".1em" transform="rotate(-45)" text-anchor="end" dx="-.8em" style="fill: currentcolor;">2024-04</text>
      </g>
      <g class="tick" opacity="1" transform="translate(347.2,0)">
        <line stroke="currentColor" y2="6"/>
        <text fill="currentColor" y="9" dy=".1em" transform="rotate(-45)" text-anchor="end" dx="-.8em" style="fill: currentcolor;">2024-05</text>
      </g>
      <g class="tick" opacity="1" transform="translate(405.06666666666666,0)">
        <line stroke="currentColor" y2="6"/>
        <text fill="currentColor" y="9" dy=".1em" transform="rotate(-45)" text-anchor="end" dx="-.8em" style="fill: currentcolor;">2024-06</text>
      </g>
      <g class="tick" opacity="1" transform="translate(462.93333333333334,0)">
        <line stroke="currentColor" y2="6"/>
        <text fill="currentColor" y="9" dy=".1em" transform="rotate(-45)" text-anchor="end" dx="-.8em" style="fill: currentcolor;">2024-07</text>
      </g>
      <g class="tick" opacity="1" transform="translate(520.8,0)">
        <line stroke="currentColor" y2="6"/>
        <text fill="currentColor" y="9" dy=".1em" transform="rotate(-45)" text-anchor="end" dx="-.8em" style="fill: currentcolor;">2024-08</text>
      </g>
      <g class="tick" opacity="1" transform="translate(578.6666666666666,0)">
        <line stroke="currentColor" y2="6"/>
        <text fill="currentColor" y="9" dy=".1em" transform="rotate(-45)" text-anchor="end" dx="-.8em" style="fill: currentcolor;">2024-09</text>
      </g>
      <g class="tick" opacity="1" transform="translate(636.5333333333333,0)">
        <line stroke="currentColor" y2="6"/>
        <text fill="currentColor" y="9" dy=".1em" transform="rotate(-45)" text-anchor="end" dx="-.8em" style="fill: currentcolor;">2024-10</text>
      </g>
      <g class="tick" opacity="1" transform="translate(694.4,0)">
        <line stroke="currentColor" y2="6"/>
        <text fill="currentColor" y="9" dy=".1em" transform="rotate(-45)" text-anchor="end" dx="-.8em" style="fill: currentcolor;">2024-11</text>
      </g>
      <g class="tick" opacity="1" transform="translate(752.2666666666667,0)">
        <line stroke="currentColor" y2="6"/>
        <text fill="currentColor" y="9" dy=".1em" transform="rotate(-45)" text-anchor="end" dx="-.8em" style="fill: currentcolor;">2024-12</text>
      </g>
      <g class="tick" opacity="1" transform="translate(810.1333333333333,0)">
        <line stroke="currentColor" y2="6"/>
        <text fill="currentColor" y="9" dy=".1em" transform="rotate(-45)" text-anchor="end" dx="-.8em" style="fill: currentcolor;">2025-01</text>
      </g>
      <g class="tick" opacity="1" transform="translate(868,0)">
        <line stroke="currentColor" y2="6"/>
        <text fill="currentColor" y="9" dy=".1em" transform="rotate(-45)" text-anchor="end" dx="-.8em" style="fill: currentcolor;">2025-02</text>
      </g>
    </g>
    <text x="434" y="354" text-anchor="middle" style="fill: currentcolor; font-family: sans-serif;">month</text>
    <text x="-147" y="-45" transform="rotate(-90)" text-anchor="middle" style="fill: currentcolor; font-family: sans-serif;">amount ($)</text>
    <g class="legend" transform="translate(43.400000000000006, 20)">
      <g transform="translate(0, 0)">
        <text x="0" y="10" style="fill: rgb(251, 251, 251); font-family: sans-serif;" text-anchor="start">GitHub Sponsors</text>
        <circle cx="-15" cy="6" r="4" style="fill: rgb(251, 251, 251);"/>
      </g>
      <g transform="translate(0, 25)">
        <text x="0" y="10" style="fill: rgb(31, 135, 255); font-family: sans-serif;" text-anchor="start">OpenCollective</text>
        <circle cx="-15" cy="6" r="4" style="fill: rgb(31, 135, 255);"/>
      </g>
    </g>
    <path class="line" fill="none" stroke="#fbfbfb" stroke-width="2" d="M0,293.055C19.289,291.655,38.578,290.255,57.867,286.23C77.156,282.205,96.444,276.167,115.733,268.905C135.022,261.642,154.311,242.655,173.6,242.655C192.889,242.655,212.178,274.155,231.467,274.155C250.756,274.155,270.044,273.63,289.333,272.58C308.622,271.53,327.911,269.08,347.2,262.08C366.489,255.08,385.778,167.58,405.067,167.58C424.356,167.58,443.644,272.58,462.933,272.58C482.222,272.58,501.511,271.705,520.8,269.955C540.089,268.205,559.378,7.455,578.667,7.455C597.956,7.455,617.244,237.79,636.533,250.95C655.822,264.11,675.111,270.69,694.4,270.69C713.689,270.69,732.978,270.69,752.267,270.69C771.556,270.69,790.844,258.09,810.133,258.09C829.422,258.09,848.711,263.235,868,268.38"/>
    <g transform="translate(0,293.055)">
      <circle r="12" fill="transparent" class="hit-area"/>
      <circle r="2" fill="#fbfbfb" class="visible-dot"/>
      <g class="tooltip-group">
        <rect class="tooltip-bg" x="2" y="-25" width="23.640625" height="20" rx="4" fill="var(--background-rgb)" stroke="rgba(255, 255, 255, 0.2)"/>
        <text class="tooltip" y="-10" x="10" text-anchor="start" style="font-size: 12px; fill: rgb(251, 251, 251);">9</text>
      </g>
    </g>
    <g transform="translate(57.86666666666667,286.22999999999996)">
      <circle r="12" fill="transparent" class="hit-area"/>
      <circle r="2" fill="#fbfbfb" class="visible-dot"/>
      <g class="tooltip-group">
        <rect class="tooltip-bg" x="-14.92578125" y="-25" width="29.8515625" height="20" rx="4" fill="var(--background-rgb)" stroke="rgba(255, 255, 255, 0.2)"/>
        <text class="tooltip" y="-10" x="0" text-anchor="middle" style="font-size: 12px; fill: rgb(251, 251, 251);">74</text>
      </g>
    </g>
    <g transform="translate(115.73333333333333,268.905)">
      <circle r="12" fill="transparent" class="hit-area"/>
      <circle r="2" fill="#fbfbfb" class="visible-dot"/>
      <g class="tooltip-group">
        <rect class="tooltip-bg" x="-19.203125" y="-25" width="38.40625" height="20" rx="4" fill="var(--background-rgb)" stroke="rgba(255, 255, 255, 0.2)"/>
        <text class="tooltip" y="-10" x="0" text-anchor="middle" style="font-size: 12px; fill: rgb(251, 251, 251);">239</text>
      </g>
    </g>
    <g transform="translate(173.6,242.655)">
      <circle r="12" fill="transparent" class="hit-area"/>
      <circle r="2" fill="#fbfbfb" class="visible-dot"/>
      <g class="tooltip-group">
        <rect class="tooltip-bg" x="-19.515625" y="-25" width="39.03125" height="20" rx="4" fill="var(--background-rgb)" stroke="rgba(255, 255, 255, 0.2)"/>
        <text class="tooltip" y="-10" x="0" text-anchor="middle" style="font-size: 12px; fill: rgb(251, 251, 251);">489</text>
      </g>
    </g>
    <g transform="translate(231.46666666666667,274.155)">
      <circle r="12" fill="transparent" class="hit-area"/>
      <circle r="2" fill="#fbfbfb" class="visible-dot"/>
      <g class="tooltip-group">
        <rect class="tooltip-bg" x="-18.4375" y="-25" width="36.875" height="20" rx="4" fill="var(--background-rgb)" stroke="rgba(255, 255, 255, 0.2)"/>
        <text class="tooltip" y="-10" x="0" text-anchor="middle" style="font-size: 12px; fill: rgb(251, 251, 251);">189</text>
      </g>
    </g>
    <g transform="translate(289.3333333333333,272.58)">
      <circle r="12" fill="transparent" class="hit-area"/>
      <circle r="2" fill="#fbfbfb" class="visible-dot"/>
      <g class="tooltip-group">
        <rect class="tooltip-bg" x="-19.26171875" y="-25" width="38.5234375" height="20" rx="4" fill="var(--background-rgb)" stroke="rgba(255, 255, 255, 0.2)"/>
        <text class="tooltip" y="-10" x="0" text-anchor="middle" style="font-size: 12px; fill: rgb(251, 251, 251);">204</text>
      </g>
    </g>
    <g transform="translate(347.2,262.08)">
      <circle r="12" fill="transparent" class="hit-area"/>
      <circle r="2" fill="#fbfbfb" class="visible-dot"/>
      <g class="tooltip-group">
        <rect class="tooltip-bg" x="-19.40234375" y="-25" width="38.8046875" height="20" rx="4" fill="var(--background-rgb)" stroke="rgba(255, 255, 255, 0.2)"/>
        <text class="tooltip" y="-10" x="0" text-anchor="middle" style="font-size: 12px; fill: rgb(251, 251, 251);">304</text>
      </g>
    </g>
    <g transform="translate(405.06666666666666,167.58)">
      <circle r="12" fill="transparent" class="hit-area"/>
      <circle r="2" fill="#fbfbfb" class="visible-dot"/>
      <g class="tooltip-group">
        <rect class="tooltip-bg" x="-22.046875" y="-25" width="44.09375" height="20" rx="4" fill="var(--background-rgb)" stroke="rgba(255, 255, 255, 0.2)"/>
        <text class="tooltip" y="-10" x="0" text-anchor="middle" style="font-size: 12px; fill: rgb(251, 251, 251);">1204</text>
      </g>
    </g>
    <g transform="translate(462.93333333333334,272.58)">
      <circle r="12" fill="transparent" class="hit-area"/>
      <circle r="2" fill="#fbfbfb" class="visible-dot"/>
      <g class="tooltip-group">
        <rect class="tooltip-bg" x="-19.26171875" y="-25" width="38.5234375" height="20" rx="4" fill="var(--background-rgb)" stroke="rgba(255, 255, 255, 0.2)"/>
        <text class="tooltip" y="-10" x="0" text-anchor="middle" style="font-size: 12px; fill: rgb(251, 251, 251);">204</text>
      </g>
    </g>
    <g transform="translate(520.8,269.95500000000004)">
      <circle r="12" fill="transparent" class="hit-area"/>
      <circle r="2" fill="#fbfbfb" class="visible-dot"/>
      <g class="tooltip-group">
        <rect class="tooltip-bg" x="-19.0625" y="-25" width="38.125" height="20" rx="4" fill="var(--background-rgb)" stroke="rgba(255, 255, 255, 0.2)"/>
        <text class="tooltip" y="-10" x="0" text-anchor="middle" style="font-size: 12px; fill: rgb(251, 251, 251);">229</text>
      </g>
    </g>
    <g transform="translate(578.6666666666666,7.455)">
      <circle r="12" fill="transparent" class="hit-area"/>
      <circle r="2" fill="#fbfbfb" class="visible-dot"/>
      <g class="tooltip-group">
        <rect class="tooltip-bg" x="-22.48046875" y="-25" width="44.9609375" height="20" rx="4" fill="var(--background-rgb)" stroke="rgba(255, 255, 255, 0.2)"/>
        <text class="tooltip" y="-10" x="0" text-anchor="middle" style="font-size: 12px; fill: rgb(251, 251, 251);">2729</text>
      </g>
    </g>
    <g transform="translate(636.5333333333333,250.95)">
      <circle r="12" fill="transparent" class="hit-area"/>
      <circle r="2" fill="#fbfbfb" class="visible-dot"/>
      <g class="tooltip-group">
        <rect class="tooltip-bg" x="-18.3671875" y="-25" width="36.734375" height="20" rx="4" fill="var(--background-rgb)" stroke="rgba(255, 255, 255, 0.2)"/>
        <text class="tooltip" y="-10" x="0" text-anchor="middle" style="font-size: 12px; fill: rgb(251, 251, 251);">410</text>
      </g>
    </g>
    <g transform="translate(694.4,270.69)">
      <circle r="12" fill="transparent" class="hit-area"/>
      <circle r="2" fill="#fbfbfb" class="visible-dot"/>
      <g class="tooltip-group">
        <rect class="tooltip-bg" x="-18.86328125" y="-25" width="37.7265625" height="20" rx="4" fill="var(--background-rgb)" stroke="rgba(255, 255, 255, 0.2)"/>
        <text class="tooltip" y="-10" x="0" text-anchor="middle" style="font-size: 12px; fill: rgb(251, 251, 251);">222</text>
      </g>
    </g>
    <g transform="translate(752.2666666666667,270.69)">
      <circle r="12" fill="transparent" class="hit-area"/>
      <circle r="2" fill="#fbfbfb" class="visible-dot"/>
      <g class="tooltip-group">
        <rect class="tooltip-bg" x="-18.86328125" y="-25" width="37.7265625" height="20" rx="4" fill="var(--background-rgb)" stroke="rgba(255, 255, 255, 0.2)"/>
        <text class="tooltip" y="-10" x="0" text-anchor="middle" style="font-size: 12px; fill: rgb(251, 251, 251);">222</text>
      </g>
    </g>
    <g transform="translate(810.1333333333333,258.09000000000003)">
      <circle r="12" fill="transparent" class="hit-area"/>
      <circle r="2" fill="#fbfbfb" class="visible-dot"/>
      <g class="tooltip-group">
        <rect class="tooltip-bg" x="-19.24609375" y="-25" width="38.4921875" height="20" rx="4" fill="var(--background-rgb)" stroke="rgba(255, 255, 255, 0.2)"/>
        <text class="tooltip" y="-10" x="0" text-anchor="middle" style="font-size: 12px; fill: rgb(251, 251, 251);">342</text>
      </g>
    </g>
    <g transform="translate(868,268.38)">
      <circle r="12" fill="transparent" class="hit-area"/>
      <circle r="2" fill="#fbfbfb" class="visible-dot"/>
      <g class="tooltip-group">
        <rect class="tooltip-bg" x="-40.515625" y="-25" width="38.515625" height="20" rx="4" fill="var(--background-rgb)" stroke="rgba(255, 255, 255, 0.2)"/>
        <text class="tooltip" y="-10" x="-10" text-anchor="end" style="font-size: 12px; fill: rgb(251, 251, 251);">244</text>
      </g>
    </g>
    <path class="line" fill="none" stroke="#1f87ff" stroke-width="2" d="M0,294C19.289,294,38.578,294,57.867,294C77.156,294,96.444,294,115.733,294C135.022,294,154.311,294,173.6,294C192.889,294,212.178,294,231.467,294C250.756,294,270.044,215.25,289.333,215.25C308.622,215.25,327.911,276.325,347.2,283.395C366.489,290.465,385.778,294,405.067,294C424.356,294,443.644,290.325,462.933,290.325C482.222,290.325,501.511,291.375,520.8,291.375C540.089,291.375,559.378,291.375,578.667,291.375C597.956,291.375,617.244,289.275,636.533,289.275C655.822,289.275,675.111,289.275,694.4,289.275C713.689,289.275,732.978,278.775,752.267,278.775C771.556,278.775,790.844,278.775,810.133,278.775C829.422,278.775,848.711,278.775,868,278.775"/>
    <g transform="translate(0,294)">
      <circle r="12" fill="transparent" class="hit-area"/>
      <circle r="2" fill="#1f87ff" class="visible-dot"/>
      <g class="tooltip-group">
        <rect class="tooltip-bg" x="2" y="-25" width="23.5625" height="20" rx="4" fill="var(--background-rgb)" stroke="rgba(255, 255, 255, 0.2)"/>
        <text class="tooltip" y="-10" x="10" text-anchor="start" style="font-size: 12px; fill: rgb(31, 135, 255);">0</text>
      </g>
    </g>
    <g transform="translate(57.86666666666667,294)">
      <circle r="12" fill="transparent" class="hit-area"/>
      <circle r="2" fill="#1f87ff" class="visible-dot"/>
      <g class="tooltip-group">
        <rect class="tooltip-bg" x="-11.78125" y="-25" width="23.5625" height="20" rx="4" fill="var(--background-rgb)" stroke="rgba(255, 255, 255, 0.2)"/>
        <text class="tooltip" y="-10" x="0" text-anchor="middle" style="font-size: 12px; fill: rgb(31, 135, 255);">0</text>
      </g>
    </g>
    <g transform="translate(115.73333333333333,294)">
      <circle r="12" fill="transparent" class="hit-area"/>
      <circle r="2" fill="#1f87ff" class="visible-dot"/>
      <g class="tooltip-group">
        <rect class="tooltip-bg" x="-11.78125" y="-25" width="23.5625" height="20" rx="4" fill="var(--background-rgb)" stroke="rgba(255, 255, 255, 0.2)"/>
        <text class="tooltip" y="-10" x="0" text-anchor="middle" style="font-size: 12px; fill: rgb(31, 135, 255);">0</text>
      </g>
    </g>
    <g transform="translate(173.6,294)">
      <circle r="12" fill="transparent" class="hit-area"/>
      <circle r="2" fill="#1f87ff" class="visible-dot"/>
      <g class="tooltip-group">
        <rect class="tooltip-bg" x="-11.78125" y="-25" width="23.5625" height="20" rx="4" fill="var(--background-rgb)" stroke="rgba(255, 255, 255, 0.2)"/>
        <text class="tooltip" y="-10" x="0" text-anchor="middle" style="font-size: 12px; fill: rgb(31, 135, 255);">0</text>
      </g>
    </g>
    <g transform="translate(231.46666666666667,294)">
      <circle r="12" fill="transparent" class="hit-area"/>
      <circle r="2" fill="#1f87ff" class="visible-dot"/>
      <g class="tooltip-group">
        <rect class="tooltip-bg" x="-11.78125" y="-25" width="23.5625" height="20" rx="4" fill="var(--background-rgb)" stroke="rgba(255, 255, 255, 0.2)"/>
        <text class="tooltip" y="-10" x="0" text-anchor="middle" style="font-size: 12px; fill: rgb(31, 135, 255);">0</text>
      </g>
    </g>
    <g transform="translate(289.3333333333333,215.25000000000003)">
      <circle r="12" fill="transparent" class="hit-area"/>
      <circle r="2" fill="#1f87ff" class="visible-dot"/>
      <g class="tooltip-group">
        <rect class="tooltip-bg" x="-18.84765625" y="-25" width="37.6953125" height="20" rx="4" fill="var(--background-rgb)" stroke="rgba(255, 255, 255, 0.2)"/>
        <text class="tooltip" y="-10" x="0" text-anchor="middle" style="font-size: 12px; fill: rgb(31, 135, 255);">750</text>
      </g>
    </g>
    <g transform="translate(347.2,283.39500000000004)">
      <circle r="12" fill="transparent" class="hit-area"/>
      <circle r="2" fill="#1f87ff" class="visible-dot"/>
      <g class="tooltip-group">
        <rect class="tooltip-bg" x="-17.34765625" y="-25" width="34.6953125" height="20" rx="4" fill="var(--background-rgb)" stroke="rgba(255, 255, 255, 0.2)"/>
        <text class="tooltip" y="-10" x="0" text-anchor="middle" style="font-size: 12px; fill: rgb(31, 135, 255);">101</text>
      </g>
    </g>
    <g transform="translate(405.06666666666666,294)">
      <circle r="12" fill="transparent" class="hit-area"/>
      <circle r="2" fill="#1f87ff" class="visible-dot"/>
      <g class="tooltip-group">
        <rect class="tooltip-bg" x="-11.78125" y="-25" width="23.5625" height="20" rx="4" fill="var(--background-rgb)" stroke="rgba(255, 255, 255, 0.2)"/>
        <text class="tooltip" y="-10" x="0" text-anchor="middle" style="font-size: 12px; fill: rgb(31, 135, 255);">0</text>
      </g>
    </g>
    <g transform="translate(462.93333333333334,290.325)">
      <circle r="12" fill="transparent" class="hit-area"/>
      <circle r="2" fill="#1f87ff" class="visible-dot"/>
      <g class="tooltip-group">
        <rect class="tooltip-bg" x="-15.47265625" y="-25" width="30.9453125" height="20" rx="4" fill="var(--background-rgb)" stroke="rgba(255, 255, 255, 0.2)"/>
        <text class="tooltip" y="-10" x="0" text-anchor="middle" style="font-size: 12px; fill: rgb(31, 135, 255);">35</text>
      </g>
    </g>
    <g transform="translate(520.8,291.375)">
      <circle r="12" fill="transparent" class="hit-area"/>
      <circle r="2" fill="#1f87ff" class="visible-dot"/>
      <g class="tooltip-group">
        <rect class="tooltip-bg" x="-15.33203125" y="-25" width="30.6640625" height="20" rx="4" fill="var(--background-rgb)" stroke="rgba(255, 255, 255, 0.2)"/>
        <text class="tooltip" y="-10" x="0" text-anchor="middle" style="font-size: 12px; fill: rgb(31, 135, 255);">25</text>
      </g>
    </g>
    <g transform="translate(578.6666666666666,291.375)">
      <circle r="12" fill="transparent" class="hit-area"/>
      <circle r="2" fill="#1f87ff" class="visible-dot"/>
      <g class="tooltip-group">
        <rect class="tooltip-bg" x="-15.33203125" y="-25" width="30.6640625" height="20" rx="4" fill="var(--background-rgb)" stroke="rgba(255, 255, 255, 0.2)"/>
        <text class="tooltip" y="-10" x="0" text-anchor="middle" style="font-size: 12px; fill: rgb(31, 135, 255);">25</text>
      </g>
    </g>
    <g transform="translate(636.5333333333333,289.27500000000003)">
      <circle r="12" fill="transparent" class="hit-area"/>
      <circle r="2" fill="#1f87ff" class="visible-dot"/>
      <g class="tooltip-group">
        <rect class="tooltip-bg" x="-15.5703125" y="-25" width="31.140625" height="20" rx="4" fill="var(--background-rgb)" stroke="rgba(255, 255, 255, 0.2)"/>
        <text class="tooltip" y="-10" x="0" text-anchor="middle" style="font-size: 12px; fill: rgb(31, 135, 255);">45</text>
      </g>
    </g>
    <g transform="translate(694.4,289.27500000000003)">
      <circle r="12" fill="transparent" class="hit-area"/>
      <circle r="2" fill="#1f87ff" class="visible-dot"/>
      <g class="tooltip-group">
        <rect class="tooltip-bg" x="-15.5703125" y="-25" width="31.140625" height="20" rx="4" fill="var(--background-rgb)" stroke="rgba(255, 255, 255, 0.2)"/>
        <text class="tooltip" y="-10" x="0" text-anchor="middle" style="font-size: 12px; fill: rgb(31, 135, 255);">45</text>
      </g>
    </g>
    <g transform="translate(752.2666666666667,278.775)">
      <circle r="12" fill="transparent" class="hit-area"/>
      <circle r="2" fill="#1f87ff" class="visible-dot"/>
      <g class="tooltip-group">
        <rect class="tooltip-bg" x="-18.35546875" y="-25" width="36.7109375" height="20" rx="4" fill="var(--background-rgb)" stroke="rgba(255, 255, 255, 0.2)"/>
        <text class="tooltip" y="-10" x="0" text-anchor="middle" style="font-size: 12px; fill: rgb(31, 135, 255);">145</text>
      </g>
    </g>
    <g transform="translate(810.1333333333333,278.775)">
      <circle r="12" fill="transparent" class="hit-area"/>
      <circle r="2" fill="#1f87ff" class="visible-dot"/>
      <g class="tooltip-group">
        <rect class="tooltip-bg" x="-18.35546875" y="-25" width="36.7109375" height="20" rx="4" fill="var(--background-rgb)" stroke="rgba(255, 255, 255, 0.2)"/>
        <text class="tooltip" y="-10" x="0" text-anchor="middle" style="font-size: 12px; fill: rgb(31, 135, 255);">145</text>
      </g>
    </g>
    <g transform="translate(868,278.775)">
      <circle r="12" fill="transparent" class="hit-area"/>
      <circle r="2" fill="#1f87ff" class="visible-dot"/>
      <g class="tooltip-group">
        <rect class="tooltip-bg" x="-38.7109375" y="-25" width="36.7109375" height="20" rx="4" fill="var(--background-rgb)" stroke="rgba(255, 255, 255, 0.2)"/>
        <text class="tooltip" y="-10" x="-10" text-anchor="end" style="font-size: 12px; fill: rgb(31, 135, 255);">145</text>
      </g>
    </g>
  </g>
</svg>
