<svg xmlns="http://www.w3.org/2000/svg" class="venz-chart" role="img" viewBox="-0 -0 928 384"><title>New labeled data series (1/1 12:42)</title><g transform="translate(60,30)"><style>
      .tooltip {
        opacity: 0;
        pointer-events: none;
        transition: opacity 0.2s ease-in-out;
      }
      .tooltip-bg {
        opacity: 0;
        pointer-events: none;
        transition: opacity 0.2s ease-in-out;
      }
      .hit-area:hover + .visible-dot + .tooltip-group &gt; .tooltip-bg,
      .hit-area:hover + .visible-dot + .tooltip-group &gt; .tooltip {
        opacity: 1;
      }
    </style><g class="grid" style="stroke: currentcolor; opacity: 0.2;" fill="none" font-size="10" font-family="sans-serif" text-anchor="end"><path class="domain" stroke="currentColor" d="M868,294H0V0H868"/><g class="tick" opacity="1" transform="translate(0,294)"><line stroke="currentColor" x2="868"/><text fill="currentColor" x="-3" dy="0.32em"/></g><g class="tick" opacity="1" transform="translate(0,274.4)"><line stroke="currentColor" x2="868"/><text fill="currentColor" x="-3" dy="0.32em"/></g><g class="tick" opacity="1" transform="translate(0,254.8)"><line stroke="currentColor" x2="868"/><text fill="currentColor" x="-3" dy="0.32em"/></g><g class="tick" opacity="1" transform="translate(0,235.20000000000002)"><line stroke="currentColor" x2="868"/><text fill="currentColor" x="-3" dy="0.32em"/></g><g class="tick" opacity="1" transform="translate(0,215.60000000000002)"><line stroke="currentColor" x2="868"/><text fill="currentColor" x="-3" dy="0.32em"/></g><g class="tick" opacity="1" transform="translate(0,196.00000000000003)"><line stroke="currentColor" x2="868"/><text fill="currentColor" x="-3" dy="0.32em"/></g><g class="tick" opacity="1" transform="translate(0,176.4)"><line stroke="currentColor" x2="868"/><text fill="currentColor" x="-3" dy="0.32em"/></g><g class="tick" opacity="1" transform="translate(0,156.8)"><line stroke="currentColor" x2="868"/><text fill="currentColor" x="-3" dy="0.32em"/></g><g class="tick" opacity="1" transform="translate(0,137.2)"><line stroke="currentColor" x2="868"/><text fill="currentColor" x="-3" dy="0.32em"/></g><g class="tick" opacity="1" transform="translate(0,117.60000000000001)"><line stroke="currentColor" x2="868"/><text fill="currentColor" x="-3" dy="0.32em"/></g><g class="tick" opacity="1" transform="translate(0,98.00000000000001)"><line stroke="currentColor" x2="868"/><text fill="currentColor" x="-3" dy="0.32em"/></g><g class="tick" opacity="1" transform="translate(0,78.40000000000002)"><line stroke="currentColor" x2="868"/><text fill="currentColor" x="-3" dy="0.32em"/></g><g class="tick" opacity="1" transform="translate(0,58.79999999999999)"><line stroke="currentColor" x2="868"/><text fill="currentColor" x="-3" dy="0.32em"/></g><g class="tick" opacity="1" transform="translate(0,39.19999999999999)"><line stroke="currentColor" x2="868"/><text fill="currentColor" x="-3" dy="0.32em"/></g><g class="tick" opacity="1" transform="translate(0,19.599999999999994)"><line stroke="currentColor" x2="868"/><text fill="currentColor" x="-3" dy="0.32em"/></g><g class="tick" opacity="1" transform="translate(0,0)"><line stroke="currentColor" x2="868"/><text fill="currentColor" x="-3" dy="0.32em"/></g></g><g class="grid" transform="translate(0, 294)" style="stroke: currentcolor; opacity: 0.2;" fill="none" font-size="10" font-family="sans-serif" text-anchor="middle"><path class="domain" stroke="currentColor" d="M0,-294V0H868V-294"/><g class="tick" opacity="1" transform="translate(0,0)"><line stroke="currentColor" y2="-294"/><text fill="currentColor" y="3" dy="0.71em"/></g><g class="tick" opacity="1" transform="translate(34.72,0)"><line stroke="currentColor" y2="-294"/><text fill="currentColor" y="3" dy="0.71em"/></g><g class="tick" opacity="1" transform="translate(69.44,0)"><line stroke="currentColor" y2="-294"/><text fill="currentColor" y="3" dy="0.71em"/></g><g class="tick" opacity="1" transform="translate(104.16,0)"><line stroke="currentColor" y2="-294"/><text fill="currentColor" y="3" dy="0.71em"/></g><g class="tick" opacity="1" transform="translate(138.88,0)"><line stroke="currentColor" y2="-294"/><text fill="currentColor" y="3" dy="0.71em"/></g><g class="tick" opacity="1" transform="translate(173.6,0)"><line stroke="currentColor" y2="-294"/><text fill="currentColor" y="3" dy="0.71em"/></g><g class="tick" opacity="1" transform="translate(208.32,0)"><line stroke="currentColor" y2="-294"/><text fill="currentColor" y="3" dy="0.71em"/></g><g class="tick" opacity="1" transform="translate(243.04,0)"><line stroke="currentColor" y2="-294"/><text fill="currentColor" y="3" dy="0.71em"/></g><g class="tick" opacity="1" transform="translate(277.76,0)"><line stroke="currentColor" y2="-294"/><text fill="currentColor" y="3" dy="0.71em"/></g><g class="tick" opacity="1" transform="translate(312.48,0)"><line stroke="currentColor" y2="-294"/><text fill="currentColor" y="3" dy="0.71em"/></g><g class="tick" opacity="1" transform="translate(347.2,0)"><line stroke="currentColor" y2="-294"/><text fill="currentColor" y="3" dy="0.71em"/></g><g class="tick" opacity="1" transform="translate(381.91999999999996,0)"><line stroke="currentColor" y2="-294"/><text fill="currentColor" y="3" dy="0.71em"/></g><g class="tick" opacity="1" transform="translate(416.64,0)"><line stroke="currentColor" y2="-294"/><text fill="currentColor" y="3" dy="0.71em"/></g><g class="tick" opacity="1" transform="translate(451.36,0)"><line stroke="currentColor" y2="-294"/><text fill="currentColor" y="3" dy="0.71em"/></g><g class="tick" opacity="1" transform="translate(486.08,0)"><line stroke="currentColor" y2="-294"/><text fill="currentColor" y="3" dy="0.71em"/></g><g class="tick" opacity="1" transform="translate(520.8,0)"><line stroke="currentColor" y2="-294"/><text fill="currentColor" y="3" dy="0.71em"/></g><g class="tick" opacity="1" transform="translate(555.52,0)"><line stroke="currentColor" y2="-294"/><text fill="currentColor" y="3" dy="0.71em"/></g><g class="tick" opacity="1" transform="translate(590.24,0)"><line stroke="currentColor" y2="-294"/><text fill="currentColor" y="3" dy="0.71em"/></g><g class="tick" opacity="1" transform="translate(624.96,0)"><line stroke="currentColor" y2="-294"/><text fill="currentColor" y="3" dy="0.71em"/></g><g class="tick" opacity="1" transform="translate(659.68,0)"><line stroke="currentColor" y2="-294"/><text fill="currentColor" y="3" dy="0.71em"/></g><g class="tick" opacity="1" transform="translate(694.4,0)"><line stroke="currentColor" y2="-294"/><text fill="currentColor" y="3" dy="0.71em"/></g><g class="tick" opacity="1" transform="translate(729.12,0)"><line stroke="currentColor" y2="-294"/><text fill="currentColor" y="3" dy="0.71em"/></g><g class="tick" opacity="1" transform="translate(763.8399999999999,0)"><line stroke="currentColor" y2="-294"/><text fill="currentColor" y="3" dy="0.71em"/></g><g class="tick" opacity="1" transform="translate(798.56,0)"><line stroke="currentColor" y2="-294"/><text fill="currentColor" y="3" dy="0.71em"/></g><g class="tick" opacity="1" transform="translate(833.28,0)"><line stroke="currentColor" y2="-294"/><text fill="currentColor" y="3" dy="0.71em"/></g><g class="tick" opacity="1" transform="translate(868,0)"><line stroke="currentColor" y2="-294"/><text fill="currentColor" y="3" dy="0.71em"/></g></g><g fill="none" font-size="10" font-family="sans-serif" text-anchor="end"><path class="domain" stroke="currentColor" d="M-6,294H0V0H-6"/><g class="tick" opacity="1" transform="translate(0,294)"><line stroke="currentColor" x2="-6"/><text fill="currentColor" x="-9" dy="0.32em" style="fill: currentcolor;">0</text></g><g class="tick" opacity="1" transform="translate(0,274.4)"><line stroke="currentColor" x2="-6"/><text fill="currentColor" x="-9" dy="0.32em" style="fill: currentcolor;">200</text></g><g class="tick" opacity="1" transform="translate(0,254.8)"><line stroke="currentColor" x2="-6"/><text fill="currentColor" x="-9" dy="0.32em" style="fill: currentcolor;">400</text></g><g class="tick" opacity="1" transform="translate(0,235.20000000000002)"><line stroke="currentColor" x2="-6"/><text fill="currentColor" x="-9" dy="0.32em" style="fill: currentcolor;">600</text></g><g class="tick" opacity="1" transform="translate(0,215.60000000000002)"><line stroke="currentColor" x2="-6"/><text fill="currentColor" x="-9" dy="0.32em" style="fill: currentcolor;">800</text></g><g class="tick" opacity="1" transform="translate(0,196.00000000000003)"><line stroke="currentColor" x2="-6"/><text fill="currentColor" x="-9" dy="0.32em" style="fill: currentcolor;">1,000</text></g><g class="tick" opacity="1" transform="translate(0,176.4)"><line stroke="currentColor" x2="-6"/><text fill="currentColor" x="-9" dy="0.32em" style="fill: currentcolor;">1,200</text></g><g class="tick" opacity="1" transform="translate(0,156.8)"><line stroke="currentColor" x2="-6"/><text fill="currentColor" x="-9" dy="0.32em" style="fill: currentcolor;">1,400</text></g><g class="tick" opacity="1" transform="translate(0,137.2)"><line stroke="currentColor" x2="-6"/><text fill="currentColor" x="-9" dy="0.32em" style="fill: currentcolor;">1,600</text></g><g class="tick" opacity="1" transform="translate(0,117.60000000000001)"><line stroke="currentColor" x2="-6"/><text fill="currentColor" x="-9" dy="0.32em" style="fill: currentcolor;">1,800</text></g><g class="tick" opacity="1" transform="translate(0,98.00000000000001)"><line stroke="currentColor" x2="-6"/><text fill="currentColor" x="-9" dy="0.32em" style="fill: currentcolor;">2,000</text></g><g class="tick" opacity="1" transform="translate(0,78.40000000000002)"><line stroke="currentColor" x2="-6"/><text fill="currentColor" x="-9" dy="0.32em" style="fill: currentcolor;">2,200</text></g><g class="tick" opacity="1" transform="translate(0,58.79999999999999)"><line stroke="currentColor" x2="-6"/><text fill="currentColor" x="-9" dy="0.32em" style="fill: currentcolor;">2,400</text></g><g class="tick" opacity="1" transform="translate(0,39.19999999999999)"><line stroke="currentColor" x2="-6"/><text fill="currentColor" x="-9" dy="0.32em" style="fill: currentcolor;">2,600</text></g><g class="tick" opacity="1" transform="translate(0,19.599999999999994)"><line stroke="currentColor" x2="-6"/><text fill="currentColor" x="-9" dy="0.32em" style="fill: currentcolor;">2,800</text></g><g class="tick" opacity="1" transform="translate(0,0)"><line stroke="currentColor" x2="-6"/><text fill="currentColor" x="-9" dy="0.32em" style="fill: currentcolor;">3,000</text></g></g><g transform="translate(0,294)" fill="none" font-size="10" font-family="sans-serif" text-anchor="middle"><path class="domain" stroke="currentColor" d="M0,6V0H868V6"/><g class="tick" opacity="1" transform="translate(0,0)"><line stroke="currentColor" y2="6"/><text fill="currentColor" y="9" dy=".1em" style="fill: currentcolor;" transform="rotate(-45)" text-anchor="end" dx="-.8em">2023-11</text></g><g class="tick" opacity="1" transform="translate(34.72,0)"><line stroke="currentColor" y2="6"/><text fill="currentColor" y="9" dy=".1em" style="fill: currentcolor;" transform="rotate(-45)" text-anchor="end" dx="-.8em">2023-12</text></g><g class="tick" opacity="1" transform="translate(69.44,0)"><line stroke="currentColor" y2="6"/><text fill="currentColor" y="9" dy=".1em" style="fill: currentcolor;" transform="rotate(-45)" text-anchor="end" dx="-.8em">2024-01</text></g><g class="tick" opacity="1" transform="translate(104.16,0)"><line stroke="currentColor" y2="6"/><text fill="currentColor" y="9" dy=".1em" style="fill: currentcolor;" transform="rotate(-45)" text-anchor="end" dx="-.8em">2024-02</text></g><g class="tick" opacity="1" transform="translate(138.88,0)"><line stroke="currentColor" y2="6"/><text fill="currentColor" y="9" dy=".1em" style="fill: currentcolor;" transform="rotate(-45)" text-anchor="end" dx="-.8em">2024-03</text></g><g class="tick" opacity="1" transform="translate(173.6,0)"><line stroke="currentColor" y2="6"/><text fill="currentColor" y="9" dy=".1em" style="fill: currentcolor;" transform="rotate(-45)" text-anchor="end" dx="-.8em">2024-04</text></g><g class="tick" opacity="1" transform="translate(208.32,0)"><line stroke="currentColor" y2="6"/><text fill="currentColor" y="9" dy=".1em" style="fill: currentcolor;" transform="rotate(-45)" text-anchor="end" dx="-.8em">2024-05</text></g><g class="tick" opacity="1" transform="translate(243.04,0)"><line stroke="currentColor" y2="6"/><text fill="currentColor" y="9" dy=".1em" style="fill: currentcolor;" transform="rotate(-45)" text-anchor="end" dx="-.8em">2024-06</text></g><g class="tick" opacity="1" transform="translate(277.76,0)"><line stroke="currentColor" y2="6"/><text fill="currentColor" y="9" dy=".1em" style="fill: currentcolor;" transform="rotate(-45)" text-anchor="end" dx="-.8em">2024-07</text></g><g class="tick" opacity="1" transform="translate(312.48,0)"><line stroke="currentColor" y2="6"/><text fill="currentColor" y="9" dy=".1em" style="fill: currentcolor;" transform="rotate(-45)" text-anchor="end" dx="-.8em">2024-08</text></g><g class="tick" opacity="1" transform="translate(347.2,0)"><line stroke="currentColor" y2="6"/><text fill="currentColor" y="9" dy=".1em" style="fill: currentcolor;" transform="rotate(-45)" text-anchor="end" dx="-.8em">2024-09</text></g><g class="tick" opacity="1" transform="translate(381.91999999999996,0)"><line stroke="currentColor" y2="6"/><text fill="currentColor" y="9" dy=".1em" style="fill: currentcolor;" transform="rotate(-45)" text-anchor="end" dx="-.8em">2024-10</text></g><g class="tick" opacity="1" transform="translate(416.64,0)"><line stroke="currentColor" y2="6"/><text fill="currentColor" y="9" dy=".1em" style="fill: currentcolor;" transform="rotate(-45)" text-anchor="end" dx="-.8em">2024-11</text></g><g class="tick" opacity="1" transform="translate(451.36,0)"><line stroke="currentColor" y2="6"/><text fill="currentColor" y="9" dy=".1em" style="fill: currentcolor;" transform="rotate(-45)" text-anchor="end" dx="-.8em">2024-12</text></g><g class="tick" opacity="1" transform="translate(486.08,0)"><line stroke="currentColor" y2="6"/><text fill="currentColor" y="9" dy=".1em" style="fill: currentcolor;" transform="rotate(-45)" text-anchor="end" dx="-.8em">2025-01</text></g><g class="tick" opacity="1" transform="translate(520.8,0)"><line stroke="currentColor" y2="6"/><text fill="currentColor" y="9" dy=".1em" style="fill: currentcolor;" transform="rotate(-45)" text-anchor="end" dx="-.8em">2025-02</text></g><g class="tick" opacity="1" transform="translate(555.52,0)"><line stroke="currentColor" y2="6"/><text fill="currentColor" y="9" dy=".1em" style="fill: currentcolor;" transform="rotate(-45)" text-anchor="end" dx="-.8em">2025-03</text></g><g class="tick" opacity="1" transform="translate(590.24,0)"><line stroke="currentColor" y2="6"/><text fill="currentColor" y="9" dy=".1em" style="fill: currentcolor;" transform="rotate(-45)" text-anchor="end" dx="-.8em">2025-04</text></g><g class="tick" opacity="1" transform="translate(624.96,0)"><line stroke="currentColor" y2="6"/><text fill="currentColor" y="9" dy=".1em" style="fill: currentcolor;" transform="rotate(-45)" text-anchor="end" dx="-.8em">2025-05</text></g><g class="tick" opacity="1" transform="translate(659.68,0)"><line stroke="currentColor" y2="6"/><text fill="currentColor" y="9" dy=".1em" style="fill: currentcolor;" transform="rotate(-45)" text-anchor="end" dx="-.8em">2025-06</text></g><g class="tick" opacity="1" transform="translate(694.4,0)"><line stroke="currentColor" y2="6"/><text fill="currentColor" y="9" dy=".1em" style="fill: currentcolor;" transform="rotate(-45)" text-anchor="end" dx="-.8em">2025-07</text></g><g class="tick" opacity="1" transform="translate(729.12,0)"><line stroke="currentColor" y2="6"/><text fill="currentColor" y="9" dy=".1em" style="fill: currentcolor;" transform="rotate(-45)" text-anchor="end" dx="-.8em">2025-08</text></g><g class="tick" opacity="1" transform="translate(763.8399999999999,0)"><line stroke="currentColor" y2="6"/><text fill="currentColor" y="9" dy=".1em" style="fill: currentcolor;" transform="rotate(-45)" text-anchor="end" dx="-.8em">2025-09</text></g><g class="tick" opacity="1" transform="translate(798.56,0)"><line stroke="currentColor" y2="6"/><text fill="currentColor" y="9" dy=".1em" style="fill: currentcolor;" transform="rotate(-45)" text-anchor="end" dx="-.8em">2025-10</text></g><g class="tick" opacity="1" transform="translate(833.28,0)"><line stroke="currentColor" y2="6"/><text fill="currentColor" y="9" dy=".1em" style="fill: currentcolor;" transform="rotate(-45)" text-anchor="end" dx="-.8em">2025-11</text></g><g class="tick" opacity="1" transform="translate(868,0)"><line stroke="currentColor" y2="6"/><text fill="currentColor" y="9" dy=".1em" style="fill: currentcolor;" transform="rotate(-45)" text-anchor="end" dx="-.8em">2025-12</text></g></g><text x="434" y="349" text-anchor="middle" style="fill: currentcolor; font-family: sans-serif;">month</text><text x="-147" y="-45" transform="rotate(-90)" text-anchor="middle" style="fill: currentcolor; font-family: sans-serif;">amount ($)</text><g class="legend" transform="translate(824.5999999999999, 20)"><g transform="translate(0, 0)"><text x="0" y="10" style="fill: rgb(251, 251, 251); font-family: sans-serif;" text-anchor="end">GitHub Sponsors</text><circle cx="20" cy="6" r="4" style="fill: rgb(251, 251, 251);"/></g><g transform="translate(0, 25)"><text x="0" y="10" style="fill: rgb(36, 135, 255); font-family: sans-serif;" text-anchor="end">Open Collective</text><circle cx="20" cy="6" r="4" style="fill: rgb(36, 135, 255);"/></g></g><path class="line" fill="none" stroke="#fbfbfb" stroke-width="2" d="M0,293.118C11.573,291.811,23.147,290.505,34.72,286.748C46.293,282.991,57.867,277.356,69.44,270.578C81.013,263.8,92.587,246.078,104.16,246.078C115.733,246.078,127.307,275.478,138.88,275.478C150.453,275.478,162.027,274.988,173.6,274.008C185.173,273.028,196.747,270.741,208.32,264.208C219.893,257.675,231.467,176.008,243.04,176.008C254.613,176.008,266.187,274.008,277.76,274.008C289.333,274.008,300.907,273.191,312.48,271.558C324.053,269.925,335.627,26.558,347.2,26.558C358.773,26.558,370.347,241.537,381.92,253.82C393.493,266.103,405.067,272.244,416.64,272.244C428.213,272.244,439.787,272.244,451.36,272.244C462.933,272.244,474.507,260.484,486.08,260.484C497.653,260.484,509.227,268.651,520.8,270.088C532.373,271.525,543.947,272.244,555.52,272.244C567.093,272.244,578.667,272.244,590.24,272.244C601.813,272.244,613.387,270.611,624.96,270.284C636.533,269.957,648.107,270.121,659.68,269.794C671.253,269.467,682.827,264.894,694.4,264.894C705.973,264.894,717.547,267.736,729.12,267.736C740.693,267.736,752.267,261.333,763.84,259.7C775.413,258.067,786.987,258.883,798.56,257.25C810.133,255.617,821.707,240.198,833.28,240.198C844.853,240.198,856.427,249.704,868,259.21"/><g transform="translate(0,293.118)"><circle r="12" fill="transparent" class="hit-area"/><circle r="3" fill="#fbfbfb" class="visible-dot"/><g class="tooltip-group"><rect class="tooltip-bg" x="7" y="-25" width="25.633333206176758" height="20" rx="4" fill="rgba(0, 0, 0, 0.8)" stroke="rgba(255, 255, 255, 0.2)"/><text class="tooltip" y="-10" x="15" text-anchor="start" style="font-size: 12px; fill: white;">9</text></g></g><g transform="translate(34.72,286.748)"><circle r="12" fill="transparent" class="hit-area"/><circle r="3" fill="#fbfbfb" class="visible-dot"/><g class="tooltip-group"><rect class="tooltip-bg" x="-15.925000190734863" y="-25" width="31.850000381469727" height="20" rx="4" fill="rgba(0, 0, 0, 0.8)" stroke="rgba(255, 255, 255, 0.2)"/><text class="tooltip" y="-10" x="0" text-anchor="middle" style="font-size: 12px; fill: white;">74</text></g></g><g transform="translate(69.44,270.578)"><circle r="12" fill="transparent" class="hit-area"/><circle r="3" fill="#fbfbfb" class="visible-dot"/><g class="tooltip-group"><rect class="tooltip-bg" x="-20.199999809265137" y="-25" width="40.39999961853027" height="20" rx="4" fill="rgba(0, 0, 0, 0.8)" stroke="rgba(255, 255, 255, 0.2)"/><text class="tooltip" y="-10" x="0" text-anchor="middle" style="font-size: 12px; fill: white;">239</text></g></g><g transform="translate(104.16,246.078)"><circle r="12" fill="transparent" class="hit-area"/><circle r="3" fill="#fbfbfb" class="visible-dot"/><g class="tooltip-group"><rect class="tooltip-bg" x="-20.508333206176758" y="-25" width="41.016666412353516" height="20" rx="4" fill="rgba(0, 0, 0, 0.8)" stroke="rgba(255, 255, 255, 0.2)"/><text class="tooltip" y="-10" x="0" text-anchor="middle" style="font-size: 12px; fill: white;">489</text></g></g><g transform="translate(138.88,275.478)"><circle r="12" fill="transparent" class="hit-area"/><circle r="3" fill="#fbfbfb" class="visible-dot"/><g class="tooltip-group"><rect class="tooltip-bg" x="-19.43333339691162" y="-25" width="38.86666679382324" height="20" rx="4" fill="rgba(0, 0, 0, 0.8)" stroke="rgba(255, 255, 255, 0.2)"/><text class="tooltip" y="-10" x="0" text-anchor="middle" style="font-size: 12px; fill: white;">189</text></g></g><g transform="translate(173.6,274.008)"><circle r="12" fill="transparent" class="hit-area"/><circle r="3" fill="#fbfbfb" class="visible-dot"/><g class="tooltip-group"><rect class="tooltip-bg" x="-20.266666412353516" y="-25" width="40.53333282470703" height="20" rx="4" fill="rgba(0, 0, 0, 0.8)" stroke="rgba(255, 255, 255, 0.2)"/><text class="tooltip" y="-10" x="0" text-anchor="middle" style="font-size: 12px; fill: white;">204</text></g></g><g transform="translate(208.32,264.208)"><circle r="12" fill="transparent" class="hit-area"/><circle r="3" fill="#fbfbfb" class="visible-dot"/><g class="tooltip-group"><rect class="tooltip-bg" x="-20.399999618530273" y="-25" width="40.79999923706055" height="20" rx="4" fill="rgba(0, 0, 0, 0.8)" stroke="rgba(255, 255, 255, 0.2)"/><text class="tooltip" y="-10" x="0" text-anchor="middle" style="font-size: 12px; fill: white;">304</text></g></g><g transform="translate(243.04,176.008)"><circle r="12" fill="transparent" class="hit-area"/><circle r="3" fill="#fbfbfb" class="visible-dot"/><g class="tooltip-group"><rect class="tooltip-bg" x="-23.050000190734863" y="-25" width="46.10000038146973" height="20" rx="4" fill="rgba(0, 0, 0, 0.8)" stroke="rgba(255, 255, 255, 0.2)"/><text class="tooltip" y="-10" x="0" text-anchor="middle" style="font-size: 12px; fill: white;">1204</text></g></g><g transform="translate(277.76,274.008)"><circle r="12" fill="transparent" class="hit-area"/><circle r="3" fill="#fbfbfb" class="visible-dot"/><g class="tooltip-group"><rect class="tooltip-bg" x="-20.266666412353516" y="-25" width="40.53333282470703" height="20" rx="4" fill="rgba(0, 0, 0, 0.8)" stroke="rgba(255, 255, 255, 0.2)"/><text class="tooltip" y="-10" x="0" text-anchor="middle" style="font-size: 12px; fill: white;">204</text></g></g><g transform="translate(312.48,271.558)"><circle r="12" fill="transparent" class="hit-area"/><circle r="3" fill="#fbfbfb" class="visible-dot"/><g class="tooltip-group"><rect class="tooltip-bg" x="-20.06666660308838" y="-25" width="40.13333320617676" height="20" rx="4" fill="rgba(0, 0, 0, 0.8)" stroke="rgba(255, 255, 255, 0.2)"/><text class="tooltip" y="-10" x="0" text-anchor="middle" style="font-size: 12px; fill: white;">229</text></g></g><g transform="translate(347.2,26.558000000000014)"><circle r="12" fill="transparent" class="hit-area"/><circle r="3" fill="#fbfbfb" class="visible-dot"/><g class="tooltip-group"><rect class="tooltip-bg" x="-23.483333587646484" y="-25" width="46.96666717529297" height="20" rx="4" fill="rgba(0, 0, 0, 0.8)" stroke="rgba(255, 255, 255, 0.2)"/><text class="tooltip" y="-10" x="0" text-anchor="middle" style="font-size: 12px; fill: white;">2729</text></g></g><g transform="translate(381.91999999999996,253.82)"><circle r="12" fill="transparent" class="hit-area"/><circle r="3" fill="#fbfbfb" class="visible-dot"/><g class="tooltip-group"><rect class="tooltip-bg" x="-19.366666793823242" y="-25" width="38.733333587646484" height="20" rx="4" fill="rgba(0, 0, 0, 0.8)" stroke="rgba(255, 255, 255, 0.2)"/><text class="tooltip" y="-10" x="0" text-anchor="middle" style="font-size: 12px; fill: white;">410</text></g></g><g transform="translate(416.64,272.244)"><circle r="12" fill="transparent" class="hit-area"/><circle r="3" fill="#fbfbfb" class="visible-dot"/><g class="tooltip-group"><rect class="tooltip-bg" x="-19.875" y="-25" width="39.75" height="20" rx="4" fill="rgba(0, 0, 0, 0.8)" stroke="rgba(255, 255, 255, 0.2)"/><text class="tooltip" y="-10" x="0" text-anchor="middle" style="font-size: 12px; fill: white;">222</text></g></g><g transform="translate(451.36,272.244)"><circle r="12" fill="transparent" class="hit-area"/><circle r="3" fill="#fbfbfb" class="visible-dot"/><g class="tooltip-group"><rect class="tooltip-bg" x="-19.875" y="-25" width="39.75" height="20" rx="4" fill="rgba(0, 0, 0, 0.8)" stroke="rgba(255, 255, 255, 0.2)"/><text class="tooltip" y="-10" x="0" text-anchor="middle" style="font-size: 12px; fill: white;">222</text></g></g><g transform="translate(486.08,260.484)"><circle r="12" fill="transparent" class="hit-area"/><circle r="3" fill="#fbfbfb" class="visible-dot"/><g class="tooltip-group"><rect class="tooltip-bg" x="-20.241666793823242" y="-25" width="40.483333587646484" height="20" rx="4" fill="rgba(0, 0, 0, 0.8)" stroke="rgba(255, 255, 255, 0.2)"/><text class="tooltip" y="-10" x="0" text-anchor="middle" style="font-size: 12px; fill: white;">342</text></g></g><g transform="translate(520.8,270.08799999999997)"><circle r="12" fill="transparent" class="hit-area"/><circle r="3" fill="#fbfbfb" class="visible-dot"/><g class="tooltip-group"><rect class="tooltip-bg" x="-20.25" y="-25" width="40.5" height="20" rx="4" fill="rgba(0, 0, 0, 0.8)" stroke="rgba(255, 255, 255, 0.2)"/><text class="tooltip" y="-10" x="0" text-anchor="middle" style="font-size: 12px; fill: white;">244</text></g></g><g transform="translate(555.52,272.244)"><circle r="12" fill="transparent" class="hit-area"/><circle r="3" fill="#fbfbfb" class="visible-dot"/><g class="tooltip-group"><rect class="tooltip-bg" x="-19.875" y="-25" width="39.75" height="20" rx="4" fill="rgba(0, 0, 0, 0.8)" stroke="rgba(255, 255, 255, 0.2)"/><text class="tooltip" y="-10" x="0" text-anchor="middle" style="font-size: 12px; fill: white;">222</text></g></g><g transform="translate(590.24,272.244)"><circle r="12" fill="transparent" class="hit-area"/><circle r="3" fill="#fbfbfb" class="visible-dot"/><g class="tooltip-group"><rect class="tooltip-bg" x="-19.875" y="-25" width="39.75" height="20" rx="4" fill="rgba(0, 0, 0, 0.8)" stroke="rgba(255, 255, 255, 0.2)"/><text class="tooltip" y="-10" x="0" text-anchor="middle" style="font-size: 12px; fill: white;">222</text></g></g><g transform="translate(624.96,270.284)"><circle r="12" fill="transparent" class="hit-area"/><circle r="3" fill="#fbfbfb" class="visible-dot"/><g class="tooltip-group"><rect class="tooltip-bg" x="-20.016666412353516" y="-25" width="40.03333282470703" height="20" rx="4" fill="rgba(0, 0, 0, 0.8)" stroke="rgba(255, 255, 255, 0.2)"/><text class="tooltip" y="-10" x="0" text-anchor="middle" style="font-size: 12px; fill: white;">242</text></g></g><g transform="translate(659.68,269.794)"><circle r="12" fill="transparent" class="hit-area"/><circle r="3" fill="#fbfbfb" class="visible-dot"/><g class="tooltip-group"><rect class="tooltip-bg" x="-19.80833339691162" y="-25" width="39.61666679382324" height="20" rx="4" fill="rgba(0, 0, 0, 0.8)" stroke="rgba(255, 255, 255, 0.2)"/><text class="tooltip" y="-10" x="0" text-anchor="middle" style="font-size: 12px; fill: white;">247</text></g></g><g transform="translate(694.4,264.894)"><circle r="12" fill="transparent" class="hit-area"/><circle r="3" fill="#fbfbfb" class="visible-dot"/><g class="tooltip-group"><rect class="tooltip-bg" x="-19.741666793823242" y="-25" width="39.483333587646484" height="20" rx="4" fill="rgba(0, 0, 0, 0.8)" stroke="rgba(255, 255, 255, 0.2)"/><text class="tooltip" y="-10" x="0" text-anchor="middle" style="font-size: 12px; fill: white;">297</text></g></g><g transform="translate(729.12,267.736)"><circle r="12" fill="transparent" class="hit-area"/><circle r="3" fill="#fbfbfb" class="visible-dot"/><g class="tooltip-group"><rect class="tooltip-bg" x="-20.274999618530273" y="-25" width="40.54999923706055" height="20" rx="4" fill="rgba(0, 0, 0, 0.8)" stroke="rgba(255, 255, 255, 0.2)"/><text class="tooltip" y="-10" x="0" text-anchor="middle" style="font-size: 12px; fill: white;">268</text></g></g><g transform="translate(763.8399999999999,259.7)"><circle r="12" fill="transparent" class="hit-area"/><circle r="3" fill="#fbfbfb" class="visible-dot"/><g class="tooltip-group"><rect class="tooltip-bg" x="-20.25" y="-25" width="40.5" height="20" rx="4" fill="rgba(0, 0, 0, 0.8)" stroke="rgba(255, 255, 255, 0.2)"/><text class="tooltip" y="-10" x="0" text-anchor="middle" style="font-size: 12px; fill: white;">350</text></g></g><g transform="translate(798.56,257.25)"><circle r="12" fill="transparent" class="hit-area"/><circle r="3" fill="#fbfbfb" class="visible-dot"/><g class="tooltip-group"><rect class="tooltip-bg" x="-19.824999809265137" y="-25" width="39.64999961853027" height="20" rx="4" fill="rgba(0, 0, 0, 0.8)" stroke="rgba(255, 255, 255, 0.2)"/><text class="tooltip" y="-10" x="0" text-anchor="middle" style="font-size: 12px; fill: white;">375</text></g></g><g transform="translate(833.28,240.19799999999998)"><circle r="12" fill="transparent" class="hit-area"/><circle r="3" fill="#fbfbfb" class="visible-dot"/><g class="tooltip-group"><rect class="tooltip-bg" x="-20.383333206176758" y="-25" width="40.766666412353516" height="20" rx="4" fill="rgba(0, 0, 0, 0.8)" stroke="rgba(255, 255, 255, 0.2)"/><text class="tooltip" y="-10" x="0" text-anchor="middle" style="font-size: 12px; fill: white;">549</text></g></g><g transform="translate(868,259.21000000000004)"><circle r="12" fill="transparent" class="hit-area"/><circle r="3" fill="#fbfbfb" class="visible-dot"/><g class="tooltip-group"><rect class="tooltip-bg" x="-47.35000038146973" y="-25" width="40.35000038146973" height="20" rx="4" fill="rgba(0, 0, 0, 0.8)" stroke="rgba(255, 255, 255, 0.2)"/><text class="tooltip" y="-10" x="-15" text-anchor="end" style="font-size: 12px; fill: white;">355</text></g></g><path class="line" fill="none" stroke="#2487ff" stroke-width="2" d="M0,294C11.573,294,23.147,294,34.72,294C46.293,294,57.867,294,69.44,294C81.013,294,92.587,294,104.16,294C115.733,294,127.307,294,138.88,294C150.453,294,162.027,220.5,173.6,220.5C185.173,220.5,196.747,277.503,208.32,284.102C219.893,290.701,231.467,294,243.04,294C254.613,294,266.187,290.57,277.76,290.57C289.333,290.57,300.907,291.55,312.48,291.55C324.053,291.55,335.627,291.55,347.2,291.55C358.773,291.55,370.347,289.59,381.92,289.59C393.493,289.59,405.067,289.59,416.64,289.59C428.213,289.59,439.787,279.79,451.36,279.79C462.933,279.79,474.507,279.79,486.08,279.79C497.653,279.79,509.227,279.79,520.8,279.79C532.373,279.79,543.947,279.79,555.52,279.79C567.093,279.79,578.667,279.79,590.24,279.79C601.813,279.79,613.387,279.79,624.96,279.79C636.533,279.79,648.107,279.79,659.68,279.79C671.253,279.79,682.827,279.79,694.4,279.79C705.973,279.79,717.547,279.79,729.12,279.79C740.693,279.79,752.267,279.79,763.84,279.79C775.413,279.79,786.987,279.79,798.56,279.79C810.133,279.79,821.707,279.79,833.28,279.79C844.853,279.79,856.427,279.79,868,279.79"/><g transform="translate(0,294)"><circle r="12" fill="transparent" class="hit-area"/><circle r="3" fill="#2487ff" class="visible-dot"/><g class="tooltip-group"><rect class="tooltip-bg" x="7" y="-25" width="25.56666660308838" height="20" rx="4" fill="rgba(0, 0, 0, 0.8)" stroke="rgba(255, 255, 255, 0.2)"/><text class="tooltip" y="-10" x="15" text-anchor="start" style="font-size: 12px; fill: white;">0</text></g></g><g transform="translate(34.72,294)"><circle r="12" fill="transparent" class="hit-area"/><circle r="3" fill="#2487ff" class="visible-dot"/><g class="tooltip-group"><rect class="tooltip-bg" x="-12.78333330154419" y="-25" width="25.56666660308838" height="20" rx="4" fill="rgba(0, 0, 0, 0.8)" stroke="rgba(255, 255, 255, 0.2)"/><text class="tooltip" y="-10" x="0" text-anchor="middle" style="font-size: 12px; fill: white;">0</text></g></g><g transform="translate(69.44,294)"><circle r="12" fill="transparent" class="hit-area"/><circle r="3" fill="#2487ff" class="visible-dot"/><g class="tooltip-group"><rect class="tooltip-bg" x="-12.78333330154419" y="-25" width="25.56666660308838" height="20" rx="4" fill="rgba(0, 0, 0, 0.8)" stroke="rgba(255, 255, 255, 0.2)"/><text class="tooltip" y="-10" x="0" text-anchor="middle" style="font-size: 12px; fill: white;">0</text></g></g><g transform="translate(104.16,294)"><circle r="12" fill="transparent" class="hit-area"/><circle r="3" fill="#2487ff" class="visible-dot"/><g class="tooltip-group"><rect class="tooltip-bg" x="-12.78333330154419" y="-25" width="25.56666660308838" height="20" rx="4" fill="rgba(0, 0, 0, 0.8)" stroke="rgba(255, 255, 255, 0.2)"/><text class="tooltip" y="-10" x="0" text-anchor="middle" style="font-size: 12px; fill: white;">0</text></g></g><g transform="translate(138.88,294)"><circle r="12" fill="transparent" class="hit-area"/><circle r="3" fill="#2487ff" class="visible-dot"/><g class="tooltip-group"><rect class="tooltip-bg" x="-12.78333330154419" y="-25" width="25.56666660308838" height="20" rx="4" fill="rgba(0, 0, 0, 0.8)" stroke="rgba(255, 255, 255, 0.2)"/><text class="tooltip" y="-10" x="0" text-anchor="middle" style="font-size: 12px; fill: white;">0</text></g></g><g transform="translate(173.6,220.5)"><circle r="12" fill="transparent" class="hit-area"/><circle r="3" fill="#2487ff" class="visible-dot"/><g class="tooltip-group"><rect class="tooltip-bg" x="-19.850000381469727" y="-25" width="39.70000076293945" height="20" rx="4" fill="rgba(0, 0, 0, 0.8)" stroke="rgba(255, 255, 255, 0.2)"/><text class="tooltip" y="-10" x="0" text-anchor="middle" style="font-size: 12px; fill: white;">750</text></g></g><g transform="translate(208.32,284.10200000000003)"><circle r="12" fill="transparent" class="hit-area"/><circle r="3" fill="#2487ff" class="visible-dot"/><g class="tooltip-group"><rect class="tooltip-bg" x="-18.350000381469727" y="-25" width="36.70000076293945" height="20" rx="4" fill="rgba(0, 0, 0, 0.8)" stroke="rgba(255, 255, 255, 0.2)"/><text class="tooltip" y="-10" x="0" text-anchor="middle" style="font-size: 12px; fill: white;">101</text></g></g><g transform="translate(243.04,294)"><circle r="12" fill="transparent" class="hit-area"/><circle r="3" fill="#2487ff" class="visible-dot"/><g class="tooltip-group"><rect class="tooltip-bg" x="-12.78333330154419" y="-25" width="25.56666660308838" height="20" rx="4" fill="rgba(0, 0, 0, 0.8)" stroke="rgba(255, 255, 255, 0.2)"/><text class="tooltip" y="-10" x="0" text-anchor="middle" style="font-size: 12px; fill: white;">0</text></g></g><g transform="translate(277.76,290.57)"><circle r="12" fill="transparent" class="hit-area"/><circle r="3" fill="#2487ff" class="visible-dot"/><g class="tooltip-group"><rect class="tooltip-bg" x="-16.466666221618652" y="-25" width="32.933332443237305" height="20" rx="4" fill="rgba(0, 0, 0, 0.8)" stroke="rgba(255, 255, 255, 0.2)"/><text class="tooltip" y="-10" x="0" text-anchor="middle" style="font-size: 12px; fill: white;">35</text></g></g><g transform="translate(312.48,291.55)"><circle r="12" fill="transparent" class="hit-area"/><circle r="3" fill="#2487ff" class="visible-dot"/><g class="tooltip-group"><rect class="tooltip-bg" x="-16.333333015441895" y="-25" width="32.66666603088379" height="20" rx="4" fill="rgba(0, 0, 0, 0.8)" stroke="rgba(255, 255, 255, 0.2)"/><text class="tooltip" y="-10" x="0" text-anchor="middle" style="font-size: 12px; fill: white;">25</text></g></g><g transform="translate(347.2,291.55)"><circle r="12" fill="transparent" class="hit-area"/><circle r="3" fill="#2487ff" class="visible-dot"/><g class="tooltip-group"><rect class="tooltip-bg" x="-16.333333015441895" y="-25" width="32.66666603088379" height="20" rx="4" fill="rgba(0, 0, 0, 0.8)" stroke="rgba(255, 255, 255, 0.2)"/><text class="tooltip" y="-10" x="0" text-anchor="middle" style="font-size: 12px; fill: white;">25</text></g></g><g transform="translate(381.91999999999996,289.59)"><circle r="12" fill="transparent" class="hit-area"/><circle r="3" fill="#2487ff" class="visible-dot"/><g class="tooltip-group"><rect class="tooltip-bg" x="-16.56666660308838" y="-25" width="33.13333320617676" height="20" rx="4" fill="rgba(0, 0, 0, 0.8)" stroke="rgba(255, 255, 255, 0.2)"/><text class="tooltip" y="-10" x="0" text-anchor="middle" style="font-size: 12px; fill: white;">45</text></g></g><g transform="translate(416.64,289.59)"><circle r="12" fill="transparent" class="hit-area"/><circle r="3" fill="#2487ff" class="visible-dot"/><g class="tooltip-group"><rect class="tooltip-bg" x="-16.56666660308838" y="-25" width="33.13333320617676" height="20" rx="4" fill="rgba(0, 0, 0, 0.8)" stroke="rgba(255, 255, 255, 0.2)"/><text class="tooltip" y="-10" x="0" text-anchor="middle" style="font-size: 12px; fill: white;">45</text></g></g><g transform="translate(451.36,279.79)"><circle r="12" fill="transparent" class="hit-area"/><circle r="3" fill="#2487ff" class="visible-dot"/><g class="tooltip-group"><rect class="tooltip-bg" x="-19.350000381469727" y="-25" width="38.70000076293945" height="20" rx="4" fill="rgba(0, 0, 0, 0.8)" stroke="rgba(255, 255, 255, 0.2)"/><text class="tooltip" y="-10" x="0" text-anchor="middle" style="font-size: 12px; fill: white;">145</text></g></g><g transform="translate(486.08,279.79)"><circle r="12" fill="transparent" class="hit-area"/><circle r="3" fill="#2487ff" class="visible-dot"/><g class="tooltip-group"><rect class="tooltip-bg" x="-19.350000381469727" y="-25" width="38.70000076293945" height="20" rx="4" fill="rgba(0, 0, 0, 0.8)" stroke="rgba(255, 255, 255, 0.2)"/><text class="tooltip" y="-10" x="0" text-anchor="middle" style="font-size: 12px; fill: white;">145</text></g></g><g transform="translate(520.8,279.79)"><circle r="12" fill="transparent" class="hit-area"/><circle r="3" fill="#2487ff" class="visible-dot"/><g class="tooltip-group"><rect class="tooltip-bg" x="-19.350000381469727" y="-25" width="38.70000076293945" height="20" rx="4" fill="rgba(0, 0, 0, 0.8)" stroke="rgba(255, 255, 255, 0.2)"/><text class="tooltip" y="-10" x="0" text-anchor="middle" style="font-size: 12px; fill: white;">145</text></g></g><g transform="translate(555.52,279.79)"><circle r="12" fill="transparent" class="hit-area"/><circle r="3" fill="#2487ff" class="visible-dot"/><g class="tooltip-group"><rect class="tooltip-bg" x="-19.350000381469727" y="-25" width="38.70000076293945" height="20" rx="4" fill="rgba(0, 0, 0, 0.8)" stroke="rgba(255, 255, 255, 0.2)"/><text class="tooltip" y="-10" x="0" text-anchor="middle" style="font-size: 12px; fill: white;">145</text></g></g><g transform="translate(590.24,279.79)"><circle r="12" fill="transparent" class="hit-area"/><circle r="3" fill="#2487ff" class="visible-dot"/><g class="tooltip-group"><rect class="tooltip-bg" x="-19.350000381469727" y="-25" width="38.70000076293945" height="20" rx="4" fill="rgba(0, 0, 0, 0.8)" stroke="rgba(255, 255, 255, 0.2)"/><text class="tooltip" y="-10" x="0" text-anchor="middle" style="font-size: 12px; fill: white;">145</text></g></g><g transform="translate(624.96,279.79)"><circle r="12" fill="transparent" class="hit-area"/><circle r="3" fill="#2487ff" class="visible-dot"/><g class="tooltip-group"><rect class="tooltip-bg" x="-19.350000381469727" y="-25" width="38.70000076293945" height="20" rx="4" fill="rgba(0, 0, 0, 0.8)" stroke="rgba(255, 255, 255, 0.2)"/><text class="tooltip" y="-10" x="0" text-anchor="middle" style="font-size: 12px; fill: white;">145</text></g></g><g transform="translate(659.68,279.79)"><circle r="12" fill="transparent" class="hit-area"/><circle r="3" fill="#2487ff" class="visible-dot"/><g class="tooltip-group"><rect class="tooltip-bg" x="-19.350000381469727" y="-25" width="38.70000076293945" height="20" rx="4" fill="rgba(0, 0, 0, 0.8)" stroke="rgba(255, 255, 255, 0.2)"/><text class="tooltip" y="-10" x="0" text-anchor="middle" style="font-size: 12px; fill: white;">145</text></g></g><g transform="translate(694.4,279.79)"><circle r="12" fill="transparent" class="hit-area"/><circle r="3" fill="#2487ff" class="visible-dot"/><g class="tooltip-group"><rect class="tooltip-bg" x="-19.350000381469727" y="-25" width="38.70000076293945" height="20" rx="4" fill="rgba(0, 0, 0, 0.8)" stroke="rgba(255, 255, 255, 0.2)"/><text class="tooltip" y="-10" x="0" text-anchor="middle" style="font-size: 12px; fill: white;">145</text></g></g><g transform="translate(729.12,279.79)"><circle r="12" fill="transparent" class="hit-area"/><circle r="3" fill="#2487ff" class="visible-dot"/><g class="tooltip-group"><rect class="tooltip-bg" x="-19.350000381469727" y="-25" width="38.70000076293945" height="20" rx="4" fill="rgba(0, 0, 0, 0.8)" stroke="rgba(255, 255, 255, 0.2)"/><text class="tooltip" y="-10" x="0" text-anchor="middle" style="font-size: 12px; fill: white;">145</text></g></g><g transform="translate(763.8399999999999,279.79)"><circle r="12" fill="transparent" class="hit-area"/><circle r="3" fill="#2487ff" class="visible-dot"/><g class="tooltip-group"><rect class="tooltip-bg" x="-19.350000381469727" y="-25" width="38.70000076293945" height="20" rx="4" fill="rgba(0, 0, 0, 0.8)" stroke="rgba(255, 255, 255, 0.2)"/><text class="tooltip" y="-10" x="0" text-anchor="middle" style="font-size: 12px; fill: white;">145</text></g></g><g transform="translate(798.56,279.79)"><circle r="12" fill="transparent" class="hit-area"/><circle r="3" fill="#2487ff" class="visible-dot"/><g class="tooltip-group"><rect class="tooltip-bg" x="-19.350000381469727" y="-25" width="38.70000076293945" height="20" rx="4" fill="rgba(0, 0, 0, 0.8)" stroke="rgba(255, 255, 255, 0.2)"/><text class="tooltip" y="-10" x="0" text-anchor="middle" style="font-size: 12px; fill: white;">145</text></g></g><g transform="translate(833.28,279.79)"><circle r="12" fill="transparent" class="hit-area"/><circle r="3" fill="#2487ff" class="visible-dot"/><g class="tooltip-group"><rect class="tooltip-bg" x="-19.350000381469727" y="-25" width="38.70000076293945" height="20" rx="4" fill="rgba(0, 0, 0, 0.8)" stroke="rgba(255, 255, 255, 0.2)"/><text class="tooltip" y="-10" x="0" text-anchor="middle" style="font-size: 12px; fill: white;">145</text></g></g><g transform="translate(868,279.79)"><circle r="12" fill="transparent" class="hit-area"/><circle r="3" fill="#2487ff" class="visible-dot"/><g class="tooltip-group"><rect class="tooltip-bg" x="-45.70000076293945" y="-25" width="38.70000076293945" height="20" rx="4" fill="rgba(0, 0, 0, 0.8)" stroke="rgba(255, 255, 255, 0.2)"/><text class="tooltip" y="-10" x="-15" text-anchor="end" style="font-size: 12px; fill: white;">145</text></g></g></g></svg>