<svg xmlns="http://www.w3.org/2000/svg" viewBox="0 0 425 425">
  <style>
      .scissors {
        fill: #fff;
        opacity: .8;
        stroke: #fff;
        stroke-miterlimit: 10;
        fill-rule: evenodd;
      }

      .bg {
        fill: #f56e0f;
        stroke-width: 0px;
      }
  </style>
  <g>
    <rect class="bg" x="0" y="0" width="425" height="425" rx="80" ry="80"/>
    <path class="scissors" d="M251.038 82.2053C269.347 55.6723 290.507 43.6241 313.977 45.2396L214.997 217.84C212.621 224.508 208.24 230.276 202.454 234.353C197.081 237.882 194.166 237.462 188.832 239.371C184.044 240.96 180.076 244.374 177.791 248.872L175.954 254.73C174.303 259.958 171.701 265.187 175.593 270.287C178.16 273.641 183.03 274.888 189.469 274.667C195.058 275.803 200.346 278.097 204.994 281.401C209.762 284.94 213.825 289.341 216.971 294.376C226.156 312.2 226.769 331.856 213.892 354.488C199.716 381.161 179.994 390.408 157.33 390.072C142.644 388.098 132.574 381.348 126.354 370.668C116.796 354.258 116.949 336.55 123.161 319.181C127.766 307.481 133.489 296.254 140.251 285.654L157.721 241.869L159.428 243.483L251.038 82.2053ZM339.275 233.699C371.387 230.865 392.307 218.404 402.482 197.192L238.046 197.969L217.073 233.788L339.275 233.699ZM165.076 214.288C162.863 215 160.54 215.314 158.218 215.213L152.216 213.921C146.854 212.777 141.021 212.46 138.505 206.559C136.841 202.648 138.16 197.798 141.543 192.328C143.291 186.86 143.87 181.085 143.242 175.378C142.526 169.528 140.726 163.863 137.932 158.673C126.959 141.89 110.152 131.636 84.1262 131.693C54.0839 131.02 36.244 143.498 25.3542 163.377C19.7265 177.06 20.6825 189.241 26.8631 199.853C36.3543 216.148 51.8988 224.866 70.0586 228.009C82.5059 229.787 95.0968 230.349 107.653 229.686L152.967 235.92L153.875 234.317L153.772 233.825L154.154 233.848L165.076 214.288ZM121.908 189.921C127.466 178.857 122.642 168.468 113.869 160.994C106.841 154.989 97.3893 151.777 85.7723 151.33C74.0726 150.949 62.5421 154.202 52.7661 160.64C34.4504 173.672 40.9135 192.989 58.0492 203.174C65.951 207.774 75.0602 209.873 84.178 209.196C91.2266 208.853 98.1703 207.35 104.729 204.746C112.064 202.057 118.173 196.797 121.922 189.944L121.908 189.921ZM203.133 212.227C204.079 213.85 204.521 215.718 204.405 217.594C204.288 219.469 203.618 221.268 202.479 222.762C201.34 224.257 199.782 225.379 198.005 225.988C196.227 226.597 194.309 226.665 192.492 226.183C190.676 225.701 189.044 224.691 187.802 223.281C186.56 221.871 185.764 220.124 185.516 218.261C185.267 216.398 185.577 214.504 186.406 212.817C187.235 211.131 188.545 209.728 190.172 208.787C191.248 208.16 192.438 207.752 193.672 207.585C194.907 207.419 196.162 207.498 197.366 207.817C198.57 208.137 199.699 208.691 200.689 209.447C201.678 210.204 202.509 211.148 203.133 212.227ZM181.886 292.896C194.251 293.521 200.894 302.819 203.067 314.138C204.837 323.237 202.954 333.02 197.677 343.46C192.181 353.777 183.639 362.149 173.214 367.438C152.83 376.917 139.216 361.764 138.811 341.834C138.706 332.696 141.38 323.742 146.478 316.159C150.244 310.19 154.979 304.89 160.488 300.478C166.453 295.431 174.047 292.72 181.859 292.85L181.886 292.896Z"/>
  </g>
</svg>
