<svg xmlns="http://www.w3.org/2000/svg" fill="none" viewBox="0 0 239 54">
  <g clip-path="url(#a)">
    <path fill="#F6821F" d="m51.027 36.435.378-1.33c.459-1.573.288-3.038-.477-4.105-.702-.986-1.872-1.564-3.294-1.637l-26.907-.343a.526.526 0 0 1-.423-.226.544.544 0 0 1-.054-.489c.09-.262.35-.47.62-.479l27.151-.343c3.222-.145 6.705-2.776 7.929-5.977l1.547-4.07a.895.895 0 0 0 .063-.343c0-.064-.009-.127-.018-.19-1.745-7.948-8.81-13.89-17.242-13.89-7.775 0-14.38 5.046-16.747 12.054a7.947 7.947 0 0 0-5.589-1.555c-3.734.37-6.731 3.39-7.1 7.143a7.996 7.996 0 0 0 .207 2.795C4.978 23.63.09 28.649.09 34.807c0 .56.046 1.103.118 1.646a.525.525 0 0 0 .522.452l49.666.009h.018a.663.663 0 0 0 .612-.48Z"/>
    <path fill="#FBAD41" d="M59.99 17.736c-.251 0-.495.01-.746.018a.248.248 0 0 0-.117.027.433.433 0 0 0-.27.29l-1.062 3.671c-.46 1.573-.288 3.038.477 4.105.702.986 1.872 1.565 3.293 1.637l5.733.344c.17.009.315.09.405.226a.546.546 0 0 1 .063.488c-.09.262-.351.47-.621.48l-5.958.343c-3.23.154-6.722 2.776-7.946 5.977l-.432 1.13a.32.32 0 0 0 .28.434h20.527a.56.56 0 0 0 .53-.398c.36-1.275.55-2.613.55-4.005 0-8.148-6.588-14.767-14.706-14.767Z"/>
    <path fill="currentColor" d="M97.309 24.363h3.392v9.323h5.94v2.984h-9.332V24.363ZM110.16 30.55v-.037c0-3.535 2.835-6.402 6.614-6.402 3.781 0 6.579 2.83 6.579 6.366v.036c0 3.536-2.834 6.402-6.614 6.402s-6.579-2.83-6.579-6.365Zm9.728 0v-.037c0-1.772-1.277-3.327-3.149-3.327-1.854 0-3.096 1.51-3.096 3.291v.036c0 1.773 1.278 3.328 3.131 3.328 1.873 0 3.114-1.51 3.114-3.291ZM127.51 31.272v-6.909h3.446v6.845c0 1.773.891 2.623 2.259 2.623 1.367 0 2.259-.805 2.259-2.532v-6.927h3.446V31.2c0 3.979-2.258 5.715-5.741 5.715-3.483-.018-5.669-1.79-5.669-5.642ZM144.123 24.363h4.724c4.375 0 6.912 2.532 6.912 6.086v.036c0 3.554-2.574 6.194-6.984 6.194h-4.652V24.363Zm4.779 9.287c2.033 0 3.375-1.121 3.375-3.11v-.037c0-1.971-1.35-3.11-3.375-3.11h-1.386v6.257h1.386ZM160.689 24.363h9.81v2.984h-6.407v2.098h5.795v2.83h-5.795v4.395h-3.403V24.363ZM175.225 24.363h3.392v9.323h5.931v2.984h-9.323V24.363ZM193.429 24.273h3.276l5.219 12.398h-3.645l-.891-2.198h-4.724l-.873 2.198h-3.572l5.21-12.398Zm2.97 7.542-1.368-3.5-1.386 3.5h2.754ZM206.289 24.363h5.796c1.871 0 3.168.498 3.987 1.338.719.706 1.088 1.655 1.088 2.867v.036c0 1.881-.999 3.129-2.519 3.78l2.924 4.295h-3.923l-2.467-3.725h-1.493v3.725h-3.393V24.363Zm5.633 5.905c1.152 0 1.819-.56 1.819-1.456v-.036c0-.968-.703-1.456-1.836-1.456h-2.223v2.957h2.24v-.009ZM222.057 24.363h9.853v2.903h-6.488v1.863h5.876v2.685h-5.876v1.953H232v2.903h-9.943V24.363ZM89.875 31.996c-.477 1.076-1.476 1.845-2.808 1.845-1.853 0-3.131-1.546-3.131-3.328v-.036c0-1.772 1.242-3.291 3.095-3.291 1.395 0 2.466.868 2.916 2.043h3.582c-.576-2.93-3.132-5.118-6.462-5.118-3.78 0-6.614 2.867-6.614 6.402v.037c0 3.535 2.799 6.366 6.578 6.366 3.231 0 5.76-2.107 6.426-4.929h-3.582v.01Z"/>
  </g>
  <defs>
    <clipPath id="a">
      <path fill="#fff" d="M.092 2H232v35.929H.092z"/>
    </clipPath>
  </defs>
</svg>
