<svg xmlns="http://www.w3.org/2000/svg" viewBox="0 0 800.5 203.19">
  <style type="text/css">
    .st0{fill-rule:evenodd;clip-rule:evenodd;fill:#632CA6;} [data-theme="dark"] .st0 { fill:currentColor;} [data-theme="dark"] .datadog-light { display: none; } [data-theme="light"] .datadog-dark { display: none; }
  </style>
  <g>
    <g>
      <path class="st0" d="M260.87,144.65h-37.4v-86.1h37.4c26.94,0,40.43,13.57,40.43,40.7C301.29,129.51,287.81,144.65,260.87,144.65z
            M239.45,130.79h19c17.9,0,26.84-10.51,26.84-31.55c0-17.91-8.95-26.87-26.84-26.87h-19L239.45,130.79L239.45,130.79z"/>
      <polygon class="st0" points="318.04,144.65 301.62,144.65 338.25,58.55 355.44,58.55 392.85,144.65 375.66,144.65 364.8,121.17
            337.17,121.17 342.66,107.32 360.58,107.32 346.46,74.98"/>
      <polygon class="st0" points="383.82,58.55 449.28,58.55 449.28,72.39 424.55,72.39 424.55,144.65 408.57,144.65 408.57,72.39
            383.82,72.39"/>
      <polygon class="st0" points="457.5,144.65 441.08,144.65 477.71,58.55 494.9,58.55 532.31,144.65 515.1,144.65 504.24,121.17
            476.61,121.17 482.1,107.32 500.02,107.32 485.91,74.98"/>
      <path class="st0" d="M580.32,144.65h-37.4v-86.1h37.4c26.96,0,40.43,13.57,40.43,40.7C620.75,129.51,607.28,144.65,580.32,144.65z
            M558.91,130.79h19c17.89,0,26.86-10.51,26.86-31.55c0-17.91-8.96-26.87-26.86-26.87h-19V130.79z"/>
      <path class="st0" d="M631.58,101.72c0-29.2,14.45-43.79,43.33-43.79c28.44,0,42.64,14.59,42.64,43.79
            c0,29.03-14.21,43.55-42.64,43.55C647.31,145.27,632.87,130.75,631.58,101.72z M674.91,131.39c17.36,0,26.05-10.01,26.05-30.05
            c0-19.72-8.69-29.59-26.05-29.59c-17.82,0-26.73,9.87-26.73,29.59C648.18,121.38,657.09,131.39,674.91,131.39z"/>
      <path class="st0" d="M784.26,109.81v20.16c-3.69,0.96-6.99,1.44-9.9,1.44c-19.55,0-29.31-10.34-29.31-31.01
            c0-19.09,10.36-28.62,31.07-28.62c8.65,0,16.69,1.61,24.13,4.82V62.14c-7.44-2.8-15.89-4.21-25.34-4.21
            c-30.97,0-46.46,14.15-46.46,42.47c0,29.9,15.22,44.87,45.67,44.87c10.47,0,19.17-1.52,26.13-4.58V95.64h-25.82l-5.4,14.16
            L784.26,109.81L784.26,109.81z"/>
    </g>

    <g class="datadog-dark">
      <path class="st0" d="M167.2,98.4l-54.9,10c-1.4,1.8-4.7,4.8-6.3,5.6c-6.9,3.5-11.6,2.5-15.7,1.4c-2.6-0.7-4.1-1-6.3-2l-13.4,1.8
            l8.1,67.9l94.1-17L167.2,98.4z M83.4,176.7l-0.8-7.4L98,145.9l17.4,5.1l15-25.1l18,11.9l13.7-28.7l4.9,52.2L83.4,176.7z M79.5,110
            c-6.8-4.4-13.8-10.6-16.9-14.1c-0.5-0.4-0.4-2.1-0.4-2.1c2.8,2.2,14.3,10.4,26.4,14.1c4.3,1.3,10.9,1.8,16.6-1.4
            c4.4-2.5,9.6-6.8,12.7-11.2l0.6,1c0,0.7-1.5,3.9-2.2,5.2c1.3,0.8,2.3,1,3.8,1.4l10.1-1.6c3.6-5.8,6.2-15.2,3.4-24.2
            c-1.6-5.1-9.8-15.4-10.4-15.9c-2.1-2,0.3-9.6-3.7-18c-4.3-8.8-15.6-18-20.5-22.1c1.4,1,10.3,4.6,14.4,9.6c0.4-0.5,0.6-3.2,0.9-3.9
            c-3.6-4.6-3.8-12.9-3.8-15.1c0-4.1-2.1-8.7-2.1-8.7s3.6,2.8,4.5,7.7c1.1,5.7,3.4,10.3,6.5,14.1c5.8,7.2,11,10.9,13.7,8.2
            c3.2-3.2-3.2-17.5-11.3-25.5c-9.5-9.3-12-8.1-17.5-6.1c-4.4,1.5-6.8,14.2-18.4,13.9c-2-0.2-7-0.4-9.5-0.3c1.3-1.8,2.4-3.2,2.4-3.2
            s-3.9,1.6-7.2,3.6l-0.3-0.4c1.1-2.4,2.3-3.8,2.3-3.8s-3.1,1.9-5.9,4.1c0.5-2.8,2.5-4.6,2.5-4.6s-3.9,0.7-8.9,6.2
            c-5.7,1.5-7,2.6-11.6,4.6c-7.4-1.6-10.8-4.2-14.1-9c-2.5-3.6-7-4.2-11.6-2.3c-6.7,2.8-15.1,6.5-15.1,6.5s2.8-0.1,5.6,0
            c-3.9,1.5-7.7,3.5-7.7,3.5s1.8-0.1,4.1,0c-1.6,1.3-2.4,1.9-3.9,2.9c-3.6,2.6-6.5,5.6-6.5,5.6s2.4-1.1,4.6-1.7
            c-1.5,3.5-4.6,6.1-4,10.4c0.5,3.9,5.3,12,11.6,17c0.5,0.4,9,8.3,15.4,5.1c6.4-3.2,8.9-6.1,10-10.5c1.2-5.1,0.5-8.9-2.1-19.9
            c-0.9-3.6-3.1-11.1-4.2-14.6l0.2-0.2c2.1,4.4,7.4,16.1,9.6,23.9c3.4,12.2,2.3,18.4,0.8,20.7c-4.7,6.8-16.6,7.8-22,4
            c-0.8,13.1,2.1,18.9,3.1,21.8c-0.5,3.3,1.7,9.6,1.7,9.6s0.2-2.8,1.2-4.3c0.3,3.3,1.9,7.3,1.9,7.3s-0.1-2.4,0.7-4.5
            c1.1,1.8,1.9,2.2,2.9,3.6c1,3.6,3,6.2,3,6.2s-0.3-1.9-0.2-3.9c5,4.8,5.8,11.8,6.3,17.1c1.4,14.7-23.2,26.4-28,35.6
            c-3.6,5.4-5.8,14.1,0.3,19.2c14.8,12.3,9.1,15.7,16.5,21.1c10.2,7.4,22.9,4.1,27.2-1.9c6-8.4,4.5-16.3,2.2-23.7
            c-1.8-5.8-6.5-15.4-12.4-19.1c-6-3.8-11.9-4.5-16.8-4l0.5-0.5c7.1-1.4,14.6-0.6,20,2.8c6.1,3.9,11.7,10.7,14.6,21
            c3.3-0.5,3.8-0.7,6.8-1.1L65,111.6L79.5,110z M113.8,43.3c6.3,2.9,5.5,8.5,5.6,11.8c0.1,0.9,0,1.6-0.1,2c-0.9-0.5-2.2-0.8-4.4-0.7
            c-0.6,0-1.3,0.1-1.9,0.2c-2.3-1.2-3.7-3.7-5-6.3c-0.1-0.2-0.2-0.5-0.3-0.7c0-0.1-0.1-0.2-0.1-0.3c0,0,0-0.1,0-0.1
            c-0.7-2.2-0.2-2.7,0.1-3.3s1.4-1.3-0.2-1.8c-0.1,0-0.3-0.1-0.5-0.1C108.1,42.6,111.4,42.2,113.8,43.3z M106,79.9
            c1.2-0.9,6.8-2.7,12-3.4c2.7-0.3,6.6-0.5,7.4,0c1.6,0.9,1.6,3.7,0.5,6.3c-1.6,3.8-3.9,7.9-6.6,8.2c-4.3,0.6-8.3-1.7-12.9-5.2
            C104.8,84.6,103.8,81.6,106,79.9z M65.6,51.4c6.8-4.6,15.5-2.8,14-1.4c-2.8,2.7,0.9,1.9,1.3,6.8c0.3,3.6-0.9,5.6-1.9,6.7
            c-2.1,0.3-4.7,0.8-7.8,1.8c-1.8,0.6-3.4,1.2-4.8,1.9c-0.4-0.2-0.8-0.5-1.2-0.9C60.5,62.1,60.7,54.8,65.6,51.4z"/>
    </g>

    <g class="datadog-light">
      <g>
        <path class="st0" d="M158.87,144.16L142,133.04l-14.07,23.5l-16.36-4.78l-14.41,21.99l0.74,6.92l78.33-14.43l-4.55-48.94
              L158.87,144.16z M85.82,123.07l12.57-1.73c2.03,0.91,3.45,1.26,5.89,1.88c3.8,0.99,8.19,1.94,14.7-1.34
              c1.51-0.75,4.67-3.64,5.94-5.28l51.49-9.34l5.25,63.57l-88.21,15.9L85.82,123.07z M181.46,100.16l-5.08,0.97L166.62,0.25
              L0.25,19.54l20.5,166.33l19.47-2.83c-1.55-2.22-3.98-4.91-8.11-8.35c-5.74-4.76-3.71-12.86-0.32-17.97
              c4.47-8.63,27.54-19.61,26.23-33.41c-0.47-5.02-1.27-11.55-5.93-16.03c-0.17,1.86,0.14,3.65,0.14,3.65s-1.91-2.44-2.87-5.77
              c-0.95-1.28-1.69-1.68-2.7-3.39c-0.72,1.97-0.62,4.26-0.62,4.26s-1.56-3.7-1.82-6.82c-0.93,1.4-1.16,4.05-1.16,4.05
              s-2.03-5.83-1.57-8.97c-0.93-2.73-3.68-8.15-2.9-20.47c5.08,3.56,16.26,2.71,20.61-3.71c1.45-2.13,2.44-7.93-0.72-19.36
              c-2.03-7.33-7.05-18.25-9.01-22.4l-0.23,0.17c1.03,3.34,3.16,10.33,3.98,13.73c2.47,10.29,3.13,13.87,1.97,18.61
              c-0.99,4.12-3.35,6.82-9.35,9.84c-6,3.03-13.96-4.34-14.47-4.74c-5.83-4.64-10.34-12.22-10.84-15.9
              c-0.52-4.03,2.32-6.45,3.76-9.74c-2.05,0.59-4.34,1.63-4.34,1.63s2.73-2.83,6.1-5.27c1.4-0.92,2.21-1.51,3.68-2.73
              c-2.13-0.03-3.86,0.02-3.86,0.02s3.55-1.92,7.23-3.31c-2.69-0.12-5.27-0.02-5.27-0.02S35.75,27.1,42,24.5
              c4.3-1.76,8.5-1.24,10.86,2.17c3.1,4.47,6.35,6.9,13.25,8.41c4.24-1.88,5.52-2.84,10.84-4.29c4.68-5.15,8.36-5.82,8.36-5.82
              s-1.82,1.67-2.31,4.3c2.66-2.09,5.57-3.84,5.57-3.84s-1.13,1.39-2.18,3.6l0.24,0.36c3.1-1.86,6.74-3.32,6.74-3.32
              s-1.04,1.32-2.26,3.02c2.34-0.02,7.08,0.1,8.91,0.31c10.86,0.24,13.11-11.6,17.28-13.08c5.22-1.86,7.55-2.99,16.44,5.74
              c7.63,7.5,13.59,20.91,10.63,23.92c-2.48,2.49-7.38-0.97-12.8-7.74c-2.87-3.58-5.03-7.81-6.05-13.19
              c-0.86-4.54-4.19-7.17-4.19-7.17s1.93,4.31,1.93,8.11c0,2.08,0.26,9.84,3.59,14.19c-0.33,0.64-0.48,3.15-0.85,3.63
              c-3.87-4.68-12.19-8.03-13.54-9.02c4.59,3.76,15.14,12.4,19.19,20.68c3.83,7.83,1.57,15.01,3.51,16.87
              c0.55,0.53,8.24,10.11,9.72,14.93c2.58,8.39,0.15,17.21-3.22,22.68l-9.43,1.47c-1.38-0.38-2.31-0.58-3.55-1.29
              c0.68-1.21,2.04-4.22,2.05-4.84l-0.53-0.93c-2.94,4.16-7.85,8.2-11.94,10.52c-5.35,3.03-11.51,2.56-15.52,1.32
              c-11.39-3.51-22.16-11.21-24.75-13.23c0,0-0.08,1.61,0.41,1.98c2.87,3.24,9.45,9.1,15.81,13.18l-13.55,1.49l6.41,49.89
              c-2.84,0.41-3.28,0.61-6.39,1.05c-2.74-9.68-7.98-16.01-13.71-19.69c-5.05-3.25-12.02-3.98-18.7-2.66l-0.43,0.5
              c4.64-0.48,10.12,0.19,15.74,3.75c5.52,3.49,9.97,12.51,11.61,17.94c2.1,6.94,3.55,14.36-2.1,22.23
              c-4.02,5.59-15.74,8.68-25.22,2c2.53,4.07,5.95,7.4,10.55,8.02c6.84,0.93,13.33-0.26,17.79-4.84c3.81-3.92,5.84-12.12,5.3-20.75
              l6.03-0.87l2.18,15.49l99.88-12.03L181.46,100.16z M120.69,58.08c-0.28,0.64-0.72,1.05-0.06,3.12l0.04,0.12l0.1,0.27l0.27,0.62
              c1.19,2.42,2.49,4.71,4.66,5.88c0.56-0.09,1.15-0.16,1.75-0.19c2.04-0.09,3.33,0.23,4.15,0.68c0.07-0.41,0.09-1,0.04-1.88
              c-0.16-3.07,0.61-8.29-5.29-11.04c-2.23-1.03-5.35-0.72-6.39,0.58c0.19,0.02,0.36,0.06,0.49,0.11
              C122.04,56.89,120.98,57.43,120.69,58.08 M137.23,86.73c-0.77-0.43-4.39-0.26-6.93,0.04c-4.84,0.57-10.07,2.25-11.22,3.14
              c-2.08,1.61-1.14,4.42,0.4,5.57c4.32,3.22,8.1,5.39,12.09,4.86c2.45-0.32,4.61-4.2,6.14-7.73
              C138.77,90.19,138.77,87.58,137.23,86.73 M94.36,61.88c1.37-1.3-6.8-3-13.14,1.32c-4.67,3.19-4.82,10.03-0.35,13.9
              c0.45,0.38,0.82,0.66,1.16,0.88c1.31-0.62,2.8-1.24,4.51-1.79c2.9-0.94,5.3-1.43,7.28-1.68c0.95-1.06,2.05-2.92,1.77-6.29
              C95.22,63.63,91.75,64.36,94.36,61.88"/>
      </g>
    </g>
  </g>
</svg>
