<svg xmlns="http://www.w3.org/2000/svg" viewBox="0 -3 300 100" fill="currentColor" aria-hidden="true">
  <path d="M0 70.8c0-19.5 13-26.4 27.3-26.4 6.1 0 12 1 15.1 2.3l.3 13.6h-1.4L33 47.2c-1.5-.7-2.8-.9-5.4-.9-7.6 0-11.5 8.8-11.4 23.3.1 17.3 3.1 25.1 10.2 25.1 1.8 0 3.2-.2 4.2-.7V75.5l-4.7-2.7v-1.5h22.5V73l-4.6 2.5v18.3a50.1 50.1 0 0 1-17 2.9C10.5 96.7 0 89 0 70.8Z"></path>
  <path d="m142.8 57.9 1.2.1v11h.3c1.6-8 5.2-11 9.5-11 .7 0 1.5 0 1.9.2v11.2c-.7-.2-2-.2-3.1-.2-3.4 0-6 .6-8.2 1.6v21.7l3.4 1.9v1.4h-19.5v-1.4l3.5-2V63l-4.1-1.2v-1l15-2.8Z"></path>
  <path d="M110.2 74v-4.9c0-7.4-1.6-9.9-6.2-9.9l-1.6.2-8.2 11h-1.1V60.3c3.5-1.1 7.9-2.4 13.7-2.4 10 0 15.8 2.8 15.8 11.1v24l3.6 1v1c-1.4.8-4.2 1.6-7.3 1.6-5 0-7.3-1.6-8.4-4.3h-.4c-2 2.8-5 4.4-9.7 4.4-6 0-10-3.7-10-10S94.2 77 102 75.5l8.1-1.6Zm0 16.6V75.8l-2.5.2c-4 .3-5.3 2.8-5.3 8.3 0 6 2 7.6 4.7 7.6 1.5 0 2.4-.5 3.1-1.3Z"></path>
  <path d="M47.5 61.7v-1.1l15-2.7 1.7.2v29.6c0 3.6 1.7 4.7 4.6 4.7 1.9 0 3.6-.7 4.9-2.3V63.5l-4.1-1.8v-1.1l15-2.7 1.6.1v34l4 1.7v1l-14.9 1.9-1.5-.1V92h-.4a16.8 16.8 0 0 1-11.3 4.7c-7.2 0-10.5-4.2-10.5-10.7V63.5l-4.1-1.8Z"></path>
  <path d="M261.5 92.5V63l-4.2-1.4v-1.5l15-2.7h1.5V62h.5c3.2-2.9 8-4.7 12.8-4.7 6.5 0 9.4 3 9.4 10v25.1l3.5 2v1.4h-19.5v-1.4l3.5-2V68c0-3.8-1.7-5.3-4.8-5.3-2 0-3.6.5-5.1 1.6v28.3l3.4 1.9v1.4h-19.6v-1.4l3.6-2Z"></path>
  <path d="m214 57.8 1.4.2v34.5l3.4 1.9v1.4h-19.5v-1.4l3.5-2v-29l-4.2-1.6v-1.2l15.5-2.8Zm1.5-9.3c0 3.7-3.1 6.4-6.7 6.4a6.4 6.4 0 0 1-6.6-6.4c0-3.6 2.9-6.4 6.6-6.4 3.6 0 6.7 2.8 6.7 6.4Z"></path>
  <path d="M239.8 74v-4.9c0-7.4-1.7-9.9-6.2-9.9l-1.6.2-8.2 11h-1.1V60.3c3.5-1.1 7.9-2.4 13.7-2.4 10 0 15.8 2.8 15.8 11.1v24l3.6 1v1c-1.4.8-4.2 1.6-7.4 1.6-5 0-7.3-1.6-8.4-4.3h-.3c-2 2.8-5 4.4-9.7 4.4-6 0-10-3.7-10-10s3.8-9.6 11.7-11.1l8-1.6Zm0 16.6V75.8l-2.5.2c-4 .3-5.4 2.8-5.4 8.3 0 6 2 7.6 4.8 7.6 1.5 0 2.4-.5 3-1.3Z"></path>
  <path d="M180.6 58.8V47.2l-4.1-1.4v-1l15.2-2.7 1.5.2V92l4.2 1.5v1.3l-15 2-1.2-.2v-4h-.4a13.4 13.4 0 0 1-10 4.1c-8.1 0-14.1-6.2-14.1-19 0-13.5 7-20 17.5-20 3 0 5.3.5 6.4 1.1Zm0 31.8V61c-1-.6-1.7-1.4-4.2-1.3-4 .2-6.6 6.3-6.6 17.2 0 9.8 1.9 15.3 7.3 15.1 1.5 0 2.7-.6 3.5-1.3Z"></path>
  <path d="m68.1 51.6 5.2-2.7V8.5h-4L60 21.1h-1.1l.6-14h41.3l.6 14H100L90.8 8.5h-4v40.3l5.2 2.7V53H68.1v-1.3Z"></path>
  <path d="M105.4 49.8V5l-4-1.6v-.8L115.9 0h1.5v21.2l.4-.4c3.2-2.8 7.8-4.5 12.4-4.5 6.3 0 9.1 3.5 9.1 10.2v23.3l3.4 1.8V53h-18.9v-1.4l3.4-1.8V26.4c0-3.7-1.6-5.1-4.6-5.1a8 8 0 0 0-5 1.6v27l3.3 1.8V53h-19v-1.3l3.5-2Z"></path>
  <path d="M153.7 36c.4 7.4 3.7 13.1 11.6 13.1 3.8 0 6.5-1.7 9-3v1.4c-1.9 2.7-6.9 6.5-13.8 6.5-12.2 0-18.5-6.8-18.5-18.5 0-11.5 6.8-18.6 17.9-18.6 10.3 0 15.7 5.2 15.7 18.8v.3h-21.9Zm-.2-1.7 10.8-.6c0-9.2-1.6-15.3-4.8-15.3-3.3 0-6 7-6 16Z"></path>
</svg>
