<svg xmlns="http://www.w3.org/2000/svg" xml:space="preserve" viewBox="0 0 192 192">
  <path d="m169.474 143.901-68.703 39.695a9.48 9.48 0 0 1-9.542 0l-68.703-39.695c-2.958-1.717-4.77-4.866-4.77-8.206v-79.39c0-3.435 1.812-6.489 4.77-8.206L91.23 8.404a9.48 9.48 0 0 1 9.542 0l68.703 39.695c2.958 1.717 4.77 4.866 4.77 8.206v79.39c-.095 3.34-1.908 6.489-4.77 8.206z" style="clip-rule:evenodd;fill:#8d6748;fill-rule:evenodd"/>
  <path d="M95.905 22.049c.954 0 1.813.286 2.671.763l59.352 34.256a5.49 5.49 0 0 1 2.672 4.676v68.512a5.49 5.49 0 0 1-2.672 4.676l-59.352 34.256c-.858.477-1.717.763-2.671.763a5.13 5.13 0 0 1-2.672-.763L33.88 134.932a5.49 5.49 0 0 1-2.672-4.676V61.744a5.49 5.49 0 0 1 2.672-4.676l59.352-34.256c.859-.477 1.813-.763 2.672-.763m0-2.863a7.838 7.838 0 0 0-4.104 1.145L32.45 54.587c-2.576 1.432-4.103 4.199-4.103 7.062v68.512c0 2.958 1.527 5.63 4.103 7.06L91.8 171.479a7.837 7.837 0 0 0 4.104 1.145 7.838 7.838 0 0 0 4.103-1.145l59.351-34.256c2.577-1.432 4.103-4.199 4.103-7.061V61.649c0-2.958-1.526-5.63-4.103-7.062l-59.351-34.256a7.838 7.838 0 0 0-4.103-1.145z" style="fill:currentColor"/>
  <path d="M103.6 69.6c0-.5-.4-1-1-1H83.8c-.5 0-1 .4-1 1 0 3.4.5 15.1 5.5 20.8.2.2.4.3.7.3h8.4c.3 0 .5-.1.7-.3 5-5.6 5.5-17.3 5.5-20.8zm-7.4 18.2h-5.9c-.3 0-.5-.1-.7-.3-3.4-4-3.8-12-3.9-14.8 0-.5.4-1 1-1h13.2c.5 0 1 .4 1 1 0 2.8-.5 10.7-3.9 14.8-.3.2-.5.3-.8.3zM95.1 66.6s3.6-2.1 1.4-5.9c-1.3-2-1.9-3.7-1.4-4.4-1.3 1.6-3.5 3.3-1.1 6.9.8.9 1.2 2.8 1.1 3.4zM91.1 66.9s2.4-1.4.9-4c-.9-1.3-1.3-2.5-.9-2.9-.9 1.1-2.3 2.2-.7 4.7.5.5.7 1.8.7 2.2z" style="fill:currentColor" transform="matrix(.9542 0 0 .9542 5.494 -4.764)"/>
  <path d="M99.3 78.5c-.4 2.7-1.2 5.8-2.9 7.8-.2.2-.4.3-.6.3h-5c-.2 0-.5-.1-.6-.3-1.2-1.5-2-3.5-2.5-5.6 0 0 5.8.8 9.1-.4 2.4-.9 2.5-1.8 2.5-1.8zM33.6 94.7h3.7l6.1 9.4 6.1-9.4h3.7v20h-3.5v-14.3l-6.3 9.4h-.1l-6.2-9.3v14.3h-3.5V94.7zM71.3 115c-1.5 0-2.9-.3-4.2-.8-1.3-.5-2.4-1.3-3.3-2.2-.9-.9-1.6-2-2.1-3.3-.5-1.2-.8-2.6-.8-4v-.1c0-1.4.3-2.7.8-4 .5-1.2 1.2-2.3 2.2-3.3.9-.9 2-1.7 3.3-2.2 1.3-.6 2.7-.8 4.2-.8s2.9.3 4.2.8c1.3.5 2.4 1.3 3.3 2.2.9.9 1.6 2 2.1 3.3.5 1.2.8 2.6.8 4v.1c0 1.4-.3 2.7-.8 4-.5 1.2-1.2 2.3-2.2 3.3-.9.9-2 1.7-3.3 2.2-1.3.6-2.7.8-4.2.8zm0-3.2c1 0 1.9-.2 2.7-.6.8-.4 1.5-.9 2.1-1.5.6-.6 1-1.4 1.4-2.2.3-.9.5-1.8.5-2.7v-.1c0-1-.2-1.9-.5-2.8-.3-.9-.8-1.6-1.4-2.3-.6-.6-1.3-1.1-2.1-1.5-.8-.4-1.7-.6-2.7-.6-1 0-1.9.2-2.7.6-.8.4-1.5.9-2.1 1.5-.6.6-1 1.4-1.4 2.2-.3.9-.5 1.8-.5 2.7v.1c0 1 .2 1.9.5 2.8.3.9.8 1.6 1.4 2.3.6.6 1.3 1.1 2.1 1.5.8.4 1.8.6 2.7.6zM98.7 115c-1.5 0-2.8-.3-4-.8-1.2-.5-2.3-1.3-3.2-2.2-.9-.9-1.6-2-2.1-3.3-.5-1.3-.8-2.6-.8-4v-.1c0-1.4.3-2.8.8-4 .5-1.2 1.2-2.3 2.1-3.3.9-.9 2-1.7 3.3-2.2 1.3-.5 2.6-.8 4.2-.8.9 0 1.7.1 2.5.2.8.2 1.4.4 2.1.6.6.3 1.2.6 1.7 1s1 .8 1.5 1.3l-2.3 2.6c-.8-.7-1.6-1.3-2.5-1.8-.9-.5-1.9-.7-3.1-.7-1 0-1.8.2-2.6.6-.8.4-1.5.9-2.1 1.5-.6.6-1 1.4-1.4 2.2-.3.9-.5 1.8-.5 2.7v.1c0 1 .2 1.9.5 2.8.3.9.8 1.6 1.4 2.3.6.6 1.3 1.2 2.1 1.5.8.3 1.7.6 2.6.6 1.2 0 2.3-.2 3.1-.7.8-.5 1.7-1.1 2.6-1.9l2.3 2.3c-.5.6-1 1-1.6 1.5-.6.5-1.2.8-1.8 1.1-.6.3-1.4.6-2.1.7-.9.2-1.8.2-2.7.2zM113.9 94.7h3.5v8.3h9.6v-8.3h3.5v20H127v-8.4h-9.6v8.4h-3.5v-20zM146 94.6h3.2l8.8 20.1h-3.7l-2-4.8h-9.4l-2.1 4.8h-3.6l8.8-20.1zm5 12.2-3.4-8-3.4 8h6.8z" style="fill:currentColor" transform="matrix(.9542 0 0 .9542 5.494 -4.764)"/>
  <path d="M35.169 110.695H156.83v1.05H35.169zM156.83 74.817h-51.717c0 .381-.096.668-.096 1.05h51.814v-1.05zM35.17 74.817v1.05h48.76c0-.382-.096-.669-.096-1.05H35.169z" style="fill:currentColor"/>
</svg>
