<svg xmlns="http://www.w3.org/2000/svg" viewBox="0 0 32 32">
  <path fill="#56b3b4" d="M21.714 8.571h1.143a.57.57 0 0 1 .571.571a.57.57 0 0 1-.571.571h-1.143a.57.57 0 0 1-.571-.571a.57.57 0 0 1 .571-.571"/>
  <path fill="#ea5e5e" d="M4.571 26.857h5.714a.57.57 0 0 1 .571.571a.57.57 0 0 1-.571.571H4.571a.57.57 0 0 1-.571-.57a.57.57 0 0 1 .571-.572"/>
  <path fill="#bf85bf" d="M18.286 17.714h3.429a.57.57 0 0 1 .571.571a.57.57 0 0 1-.571.571h-3.429a.57.57 0 0 1-.571-.571a.57.57 0 0 1 .571-.571"/>
  <path fill="#ea5e5e" d="M11.429 17.714H16a.57.57 0 0 1 .571.571a.57.57 0 0 1-.571.571h-4.571a.57.57 0 0 1-.571-.571a.57.57 0 0 1 .571-.571"/>
  <path fill="#56b3b4" d="M4.571 17.714h4.572a.57.57 0 0 1 .571.571a.57.57 0 0 1-.571.571H4.571a.57.57 0 0 1-.571-.57a.57.57 0 0 1 .571-.572"/>
  <path fill="#bf85bf" d="M4.571 22.286h5.714a.57.57 0 0 1 .571.571a.57.57 0 0 1-.571.571H4.571A.57.57 0 0 1 4 22.857a.57.57 0 0 1 .571-.571m0-9.143h5.714a.57.57 0 0 1 .571.571a.57.57 0 0 1-.571.571H4.571A.57.57 0 0 1 4 13.714a.57.57 0 0 1 .571-.571"/>
  <path fill="#f7ba3e" d="M10.286 6.286h11.428a.57.57 0 0 1 .571.571a.57.57 0 0 1-.571.571H10.286a.57.57 0 0 1-.571-.571a.57.57 0 0 1 .571-.571"/>
  <path fill="#ea5e5e" d="M4.571 6.286H8a.57.57 0 0 1 .571.571a.57.57 0 0 1-.571.572H4.571A.57.57 0 0 1 4 6.857a.57.57 0 0 1 .571-.571"/>
  <path fill="#f7ba3e" d="M9.143 24.571h1.143a.57.57 0 0 1 .571.571a.57.57 0 0 1-.571.571H9.143a.57.57 0 0 1-.571-.571a.57.57 0 0 1 .571-.571"/>
  <path fill="#56b3b4" d="M9.143 10.857h1.143a.57.57 0 0 1 .571.571a.57.57 0 0 1-.571.571H9.143a.57.57 0 0 1-.571-.571a.57.57 0 0 1 .571-.571M4.571 24.571h2.286a.57.57 0 0 1 .571.571a.57.57 0 0 1-.571.571H4.571a.57.57 0 0 1-.571-.57a.57.57 0 0 1 .571-.572"/>
  <path fill="#f7ba3e" d="M4.571 10.857h2.286a.57.57 0 0 1 .571.571a.57.57 0 0 1-.571.572H4.571A.57.57 0 0 1 4 11.429a.57.57 0 0 1 .571-.572"/>
  <path fill="#4d616e" d="M19.429 24.571h1.143a.57.57 0 0 1 .571.571a.57.57 0 0 1-.571.571h-1.143a.57.57 0 0 1-.571-.571a.57.57 0 0 1 .571-.571m-6.858 0h4.571a.57.57 0 0 1 .571.571a.57.57 0 0 1-.571.571h-4.571a.57.57 0 0 1-.571-.57a.57.57 0 0 1 .571-.572m10.286 0h4.571a.57.57 0 0 1 .571.571a.57.57 0 0 1-.571.571h-4.571a.57.57 0 0 1-.571-.571a.57.57 0 0 1 .571-.571" opacity="0.5"/>
  <path fill="#56b3b4" d="M13.714 15.429h9.143a.57.57 0 0 1 .571.571a.57.57 0 0 1-.571.571h-9.143a.57.57 0 0 1-.571-.571a.57.57 0 0 1 .571-.571"/>
  <path fill="#f7ba3e" d="M8 15.429h3.429A.57.57 0 0 1 12 16a.57.57 0 0 1-.571.571H8A.57.57 0 0 1 7.429 16A.57.57 0 0 1 8 15.429"/>
  <path fill="#ea5e5e" d="M4.571 15.429h1.143a.57.57 0 0 1 .572.571a.57.57 0 0 1-.571.571H4.571A.57.57 0 0 1 4 16a.57.57 0 0 1 .571-.571"/>
  <path fill="#bf85bf" d="M14.857 8.571h4.571a.57.57 0 0 1 .572.572a.57.57 0 0 1-.571.571h-4.572a.57.57 0 0 1-.571-.571a.57.57 0 0 1 .571-.572"/>
  <path fill="#56b3b4" d="M4.571 8.571h8a.57.57 0 0 1 .571.571a.57.57 0 0 1-.571.571h-8A.57.57 0 0 1 4 9.143a.57.57 0 0 1 .571-.572"/>
  <path fill="#f7ba3e" d="M8 20h10.286a.57.57 0 0 1 .571.571a.57.57 0 0 1-.571.571H8a.57.57 0 0 1-.571-.571A.57.57 0 0 1 8 20"/>
  <path fill="#bf85bf" d="M4.571 20h1.143a.57.57 0 0 1 .571.571a.57.57 0 0 1-.571.571H4.571A.57.57 0 0 1 4 20.571A.57.57 0 0 1 4.571 20"/>
  <path fill="#ea5e5e" d="M18.286 10.857H24a.57.57 0 0 1 .571.571A.57.57 0 0 1 24 12h-5.714a.57.57 0 0 1-.571-.571a.57.57 0 0 1 .571-.572"/>
  <path fill="#f7ba3e" d="M18.286 13.143H24a.57.57 0 0 1 .571.571a.57.57 0 0 1-.571.571h-5.714a.57.57 0 0 1-.571-.571a.57.57 0 0 1 .571-.571"/>
  <path fill="#56b3b4" d="M4.571 4h13.715a.57.57 0 0 1 .571.571a.57.57 0 0 1-.571.571H4.571A.57.57 0 0 1 4 4.571A.57.57 0 0 1 4.571 4"/>
  <path fill="#4d616e" d="M20.571 4h6.857a.57.57 0 0 1 .572.571a.57.57 0 0 1-.571.571h-6.858A.57.57 0 0 1 20 4.571A.57.57 0 0 1 20.571 4m0 16h2.286a.57.57 0 0 1 .571.571a.57.57 0 0 1-.571.571h-2.286a.57.57 0 0 1-.571-.571a.57.57 0 0 1 .571-.571m4.572 0h2.286a.57.57 0 0 1 .571.571a.57.57 0 0 1-.571.571h-2.286a.57.57 0 0 1-.571-.571a.57.57 0 0 1 .571-.571M24 17.714h3.429a.57.57 0 0 1 .571.571a.57.57 0 0 1-.571.571H24a.57.57 0 0 1-.571-.571a.57.57 0 0 1 .571-.571m0-11.428h3.429a.57.57 0 0 1 .571.571a.57.57 0 0 1-.571.571H24a.57.57 0 0 1-.571-.571a.57.57 0 0 1 .571-.571m1.143 9.143h2.286A.57.57 0 0 1 28 16a.57.57 0 0 1-.571.571h-2.286a.57.57 0 0 1-.572-.571a.57.57 0 0 1 .572-.571m0-6.858h2.286a.57.57 0 0 1 .571.572a.57.57 0 0 1-.571.571h-2.286a.57.57 0 0 1-.571-.571a.57.57 0 0 1 .571-.572m1.143 2.286h1.143a.57.57 0 0 1 .571.571a.57.57 0 0 1-.571.571h-1.143a.57.57 0 0 1-.571-.571a.57.57 0 0 1 .571-.571m0 2.286h1.143a.57.57 0 0 1 .571.571a.57.57 0 0 1-.571.571h-1.143a.57.57 0 0 1-.571-.571a.57.57 0 0 1 .571-.571m-9.143 9.143h10.286a.57.57 0 0 1 .571.571a.57.57 0 0 1-.571.571H17.143a.57.57 0 0 1-.571-.571a.57.57 0 0 1 .571-.571m-4.572 0h2.286a.57.57 0 0 1 .571.571a.57.57 0 0 1-.571.571h-2.286a.57.57 0 0 1-.571-.571a.57.57 0 0 1 .571-.571m9.143 4.571h5.714a.57.57 0 0 1 .571.571a.57.57 0 0 1-.571.571h-5.714a.57.57 0 0 1-.571-.571a.57.57 0 0 1 .571-.571m-9.143 0h6.857a.57.57 0 0 1 .571.571a.57.57 0 0 1-.571.571h-6.857a.57.57 0 0 1-.571-.57a.57.57 0 0 1 .571-.572m0-16H16a.57.57 0 0 1 .571.571A.57.57 0 0 1 16 12h-3.429a.57.57 0 0 1-.571-.571a.57.57 0 0 1 .571-.572m0 2.286H16a.57.57 0 0 1 .571.571a.57.57 0 0 1-.571.571h-3.429a.57.57 0 0 1-.571-.571a.57.57 0 0 1 .571-.571" opacity="0.5"/>
</svg>
