<svg xmlns="http://www.w3.org/2000/svg" fill="none" viewBox="0 0 160 160"><g fill="#3b45fd"><path d="M80 0c4.15 0 8.227.316 12.207.925L91.063 8.34A73 73 0 0 0 80 7.5a73 73 0 0 0-11.062.839L67.793.925A80.6 80.6 0 0 1 80 0m18.985 2.266-1.78 7.288a72 72 0 0 1 20.439 8.473l3.895-6.411a79.5 79.5 0 0 0-22.554-9.35m28.294 13.194-4.432 6.05a73 73 0 0 1 15.643 15.643l6.051-4.432a80.5 80.5 0 0 0-17.262-17.262m21.105 23.003-6.411 3.894a72 72 0 0 1 8.473 20.44l7.288-1.78a79.5 79.5 0 0 0-9.35-22.554m10.691 29.331-7.414 1.145c.553 3.607.839 7.3.839 11.062s-.286 7.456-.839 11.063l7.414 1.144A81 81 0 0 0 160 80c0-4.15-.316-8.227-.925-12.207m-17.102 49.852a72 72 0 0 0 8.473-20.44l7.288 1.78a79.5 79.5 0 0 1-9.35 22.554zm-3.483 5.202 6.051 4.432a80.5 80.5 0 0 1-17.262 17.262l-4.433-6.051a72.9 72.9 0 0 0 15.644-15.643m-20.846 19.126 3.894 6.411a79.5 79.5 0 0 1-22.554 9.35l-1.78-7.288a72 72 0 0 0 20.44-8.473m-26.582 9.688 1.145 7.414c-3.98.609-8.057.925-12.207.925s-8.227-.316-12.207-.925l1.144-7.413c3.605.552 7.3.838 11.063.838a73 73 0 0 0 11.062-.839m-28.267-1.213-1.78 7.286a79.4 79.4 0 0 1-17.278-6.406l-7.593 1.772-1.704-7.304 10.26-2.394 2.44 1.243a72 72 0 0 0 15.654 5.803m-34.684-3.175 1.704 7.304-13.015 3.036c-8.66 2.021-16.433-5.752-14.412-14.412l3.036-13.015 7.304 1.704-3.037 13.015c-.757 3.248 2.157 6.162 5.405 5.405zM14.204 125.56 6.9 123.856l1.772-7.593a79.4 79.4 0 0 1-6.406-17.279l7.286-1.78a72 72 0 0 0 5.803 15.655l1.243 2.441zM8.338 91.062.925 92.207A80.6 80.6 0 0 1 0 80c0-4.15.316-8.227.925-12.207l7.414 1.144A73 73 0 0 0 7.5 80c0 3.763.286 7.457.838 11.062m1.216-28.267-7.288-1.78a79.5 79.5 0 0 1 9.35-22.554l6.41 3.895a72 72 0 0 0-8.472 20.439M21.51 37.153l-6.05-4.432a80.5 80.5 0 0 1 17.26-17.262l4.433 6.05A73 73 0 0 0 21.51 37.154m20.846-19.127-3.894-6.412a79.5 79.5 0 0 1 22.554-9.349l1.78 7.288a72 72 0 0 0-20.44 8.473"/><path d="M145 80c0 35.899-29.101 65-65 65-11.387 0-22.09-2.928-31.396-8.072a4.14 4.14 0 0 0-2.94-.426l-28.913 6.747 6.747-28.914a4.14 4.14 0 0 0-.426-2.939C17.928 102.089 15 91.386 15 80c0-35.898 29.102-65 65-65 35.899 0 65 29.102 65 65"/></g></svg>