<svg xmlns="http://www.w3.org/2000/svg" fill="none" viewBox="0 0 164 23">
  <g clip-path="url(#aa)">
    <g fill="#F34E3F" clip-path="url(#bb)">
      <path d="m8.473 6.007 2.549.68L9.286.199l-2.94.79 1.047 3.935c.14.528.554.943 1.08 1.083ZM4.165 19.222l5.56-5.55 2.023 7.56 2.94-.79-2.93-10.977L.783 6.539 0 9.494l7.553 2.02-5.536 5.54 2.148 2.168ZM14.531 10.199l.683 2.56a1.53 1.53 0 0 0 1.08 1.08l3.957 1.052.782-2.955-6.502-1.737ZM16.868 2.208l-2.53 2.527c-.279.28-.438.65-.449 1.047l-.04 1.602 1.482.052c-.02 0 .019 0 0 0 .405 0 .787-.159 1.073-.445l2.612-2.615-2.148-2.168Z"/>
    </g>
  </g>
  <path fill="currentColor" d="M35.862 10.131c-.898-.376-2.021-.691-3.37-.943-.92-.192-1.609-.362-2.069-.51-.46-.148-.8-.337-1.023-.566-.222-.229-.333-.544-.333-.942 0-.474.129-.84.388-1.099.26-.259.613-.44 1.058-.544.444-.102 1-.154 1.668-.154.8 0 1.598.096 2.392.289.794.193 1.649.496 2.569.91l.489-2.753c-.831-.4-1.702-.696-2.615-.887a13.746 13.746 0 0 0-2.835-.29c-1.171 0-2.24.181-3.203.544-.964.363-1.736.888-2.314 1.576-.578.687-.868 1.527-.868 2.519 0 .872.223 1.605.667 2.197.445.592 1.098 1.068 1.958 1.431.86.363 1.958.662 3.293.899.949.193 1.66.366 2.135.522.475.155.846.37 1.112.644.267.274.401.67.401 1.187 0 .474-.152.847-.456 1.12-.303.275-.704.46-1.201.556-.497.095-1.094.143-1.79.143-.964 0-2.022-.126-3.17-.376-1.149-.25-2.139-.592-2.97-1.02l-.29 2.73c.801.458 1.761.806 2.881 1.042a17.32 17.32 0 0 0 3.593.354c1.275 0 2.327-.18 3.336-.543 1.008-.362 1.813-.895 2.414-1.598.6-.702.9-1.557.9-2.562 0-.932-.233-1.717-.7-2.352-.466-.636-1.149-1.143-2.045-1.52l-.002-.004ZM49.71 6.824c-1.023-.54-2.166-.81-3.426-.81-1.26 0-2.44.27-3.448.81a5.945 5.945 0 0 0-2.368 2.263c-.572.97-.857 2.06-.857 3.274s.281 2.278.846 3.24a6.034 6.034 0 0 0 2.368 2.275c1.016.555 2.168.833 3.459.833 1.29 0 2.403-.278 3.426-.833a6.076 6.076 0 0 0 2.392-2.286c.57-.969.856-2.052.856-3.25 0-1.2-.285-2.3-.856-3.262a5.938 5.938 0 0 0-2.392-2.252v-.002Zm-.2 7.467a3.357 3.357 0 0 1-1.313 1.32 3.786 3.786 0 0 1-1.891.477c-.696 0-1.372-.158-1.935-.476a3.477 3.477 0 0 1-1.334-1.332c-.327-.57-.49-1.224-.49-1.964s.164-1.384.49-1.93a3.498 3.498 0 0 1 1.334-1.288c.563-.31 1.202-.465 1.913-.465.711 0 1.35.154 1.913.465a3.295 3.295 0 0 1 1.312 1.31c.312.563.467 1.213.467 1.953s-.155 1.369-.467 1.93ZM63.344 13.501a4.704 4.704 0 0 1-.19.436 3.809 3.809 0 0 1-1.323 1.51 3.371 3.371 0 0 1-1.89.554c-.92 0-1.606-.248-2.057-.744-.453-.496-.679-1.201-.679-2.119v-6.88h-2.957v7.324c0 1.035.207 1.938.623 2.707.415.77.993 1.361 1.736 1.775.741.413 1.594.622 2.558.622 1.453 0 2.603-.37 3.448-1.11a5.16 5.16 0 0 0 .734-.796v1.662h2.958V6.259h-2.958V13.5h-.003ZM74.488 6.037c-1.393 0-2.44.459-3.136 1.375-.165.218-.313.46-.445.728V6.259h-2.959v12.183h2.96v-5.015c0-1.36.292-2.452.878-3.272.585-.821 1.383-1.232 2.39-1.232h.735c.148.015.282.022.401.022h.356L76 6.193a7.784 7.784 0 0 0-1.513-.155v-.001ZM80.817 9.065c.571-.302 1.22-.454 1.947-.454.593 0 1.15.089 1.668.265.52.179 1.045.466 1.58.866l1.223-2.197c-.727-.533-1.468-.92-2.225-1.164-.756-.244-1.587-.366-2.49-.366-1.202 0-2.299.263-3.293.788a5.912 5.912 0 0 0-2.358 2.24c-.578.97-.868 2.076-.868 3.318 0 1.243.282 2.341.846 3.296a5.783 5.783 0 0 0 2.347 2.22c1 .524 2.102.787 3.304.787.918 0 1.738-.115 2.457-.344.72-.229 1.48-.611 2.28-1.143l-1.18-2.152a7.006 7.006 0 0 1-1.613.81 5.097 5.097 0 0 1-1.657.278c-.727 0-1.379-.148-1.959-.444a3.3 3.3 0 0 1-1.367-1.298c-.334-.57-.501-1.239-.501-2.008 0-.77.166-1.454.5-2.008a3.441 3.441 0 0 1 1.358-1.288v-.002ZM96.8 6.735c-.905-.465-1.9-.698-2.981-.698-1.291 0-2.43.27-3.415.81a5.66 5.66 0 0 0-2.281 2.251c-.534.962-.8 2.05-.8 3.262 0 1.212.281 2.26.845 3.229.563.97 1.357 1.727 2.38 2.275 1.023.548 2.172.82 3.448.82.89 0 1.683-.093 2.38-.278a6.618 6.618 0 0 0 2.001-.92l-.756-2.42a5.453 5.453 0 0 1-1.647.788 6.4 6.4 0 0 1-1.823.278c-.8 0-1.49-.143-2.07-.433a3.047 3.047 0 0 1-1.334-1.276 3.578 3.578 0 0 1-.37-1.043h8.956c.103-.295.19-.61.255-.943.068-.333.1-.684.1-1.054 0-1.005-.255-1.916-.767-2.73-.512-.813-1.22-1.453-2.124-1.919l.002.001Zm-6.107 3.607a2.962 2.962 0 0 1 1.202-1.298c.526-.303 1.153-.455 1.88-.455.652 0 1.215.13 1.69.387.475.26.822.655 1.045 1.188.13.311.206.667.23 1.066h-6.347c.068-.32.167-.617.3-.888ZM110.924 7.923a4.566 4.566 0 0 0-1.846-1.431c-.742-.318-1.616-.477-2.626-.477-1.097 0-2.08.259-2.946.777a5.495 5.495 0 0 0-2.046 2.152c-.497.917-.746 1.945-.746 3.084 0 1.14.249 2.106.746 2.985a5.484 5.484 0 0 0 2.069 2.086c.882.511 1.872.766 2.97.766.979 0 1.836-.155 2.569-.466a4.312 4.312 0 0 0 1.813-1.42v.577c0 1.094-.353 1.96-1.058 2.595-.704.636-1.679.955-2.924.955-.816 0-1.61-.122-2.38-.366a7.461 7.461 0 0 1-2.069-1.01l-1.156 2.087c.8.547 1.701.966 2.702 1.253 1.001.29 2.08.433 3.236.433 2.076 0 3.701-.554 4.872-1.664 1.171-1.11 1.757-2.655 1.757-4.638V6.259h-2.935v1.664h-.002Zm-.501 5.98a3.22 3.22 0 0 1-1.301 1.243c-.55.29-1.187.433-1.913.433a3.651 3.651 0 0 1-1.813-.455 3.294 3.294 0 0 1-1.278-1.277 3.605 3.605 0 0 1-.467-1.819c0-.665.155-1.32.467-1.875a3.373 3.373 0 0 1 1.278-1.298 3.574 3.574 0 0 1 1.813-.466c.726 0 1.365.144 1.913.433.547.289.981.706 1.301 1.253.319.548.478 1.184.478 1.908 0 .725-.159 1.38-.478 1.92ZM118.954 7.412c-.165.218-.313.46-.445.728V6.259h-2.959v12.183h2.959v-5.015c0-1.36.293-2.452.879-3.272.585-.82 1.383-1.232 2.391-1.232h.734c.148.015.282.022.401.022h.356l.333-2.752a7.784 7.784 0 0 0-1.513-.155c-1.393 0-2.44.46-3.136 1.376v-.002ZM133.69 7.357c-.957-.894-2.406-1.342-4.348-1.342-1.483 0-2.975.244-4.471.733l.355 2.596a8.685 8.685 0 0 1 1.802-.544 10.522 10.522 0 0 1 2.002-.19c1.038 0 1.821.2 2.346.6.526.4.79.991.79 1.775v.093a57.242 57.242 0 0 0-1.579-.117 37.01 37.01 0 0 0-2.181-.067c-1.601 0-2.788.363-3.559 1.088-.771.724-1.156 1.657-1.156 2.796 0 .754.171 1.427.512 2.019a3.522 3.522 0 0 0 1.479 1.386c.646.333 1.39.5 2.236.5.845 0 1.572-.122 2.224-.366.652-.244 1.179-.561 1.579-.955a4.33 4.33 0 0 0 .445-.51v1.587h2.959v-7.256c0-1.656-.478-2.933-1.435-3.828v.002Zm-2.947 8.388c-.488.274-1.105.41-1.846.41-.742 0-1.368-.128-1.791-.388-.423-.26-.634-.64-.634-1.143 0-.533.214-.94.645-1.22.43-.281 1.156-.422 2.181-.422.563 0 1.075.01 1.535.033.451.022.895.061 1.333.119a3.495 3.495 0 0 1-.343 1.5 2.55 2.55 0 0 1-1.08 1.11ZM146.903 6.835a5.713 5.713 0 0 0-2.992-.82c-.845 0-1.631.144-2.357.433a5.4 5.4 0 0 0-1.891 1.253V6.26h-2.959v16h2.959v-5.216c.341.37.737.674 1.19.91a6.89 6.89 0 0 0 1.424.555c.497.133 1.034.2 1.614.2 1.112 0 2.12-.263 3.025-.788.905-.525 1.62-1.269 2.146-2.23.526-.962.789-2.064.789-3.307 0-1.242-.263-2.304-.789-3.274a5.867 5.867 0 0 0-2.157-2.275l-.002.001Zm-.445 7.445a3.285 3.285 0 0 1-1.267 1.299c-.541.31-1.153.466-1.836.466-.726 0-1.371-.148-1.934-.444a3.069 3.069 0 0 1-1.302-1.288c-.304-.561-.456-1.212-.456-1.953 0-.741.155-1.406.467-1.954a3.353 3.353 0 0 1 1.302-1.287c.556-.311 1.197-.466 1.923-.466.683 0 1.294.155 1.836.466.541.31.964.75 1.267 1.32.304.57.456 1.217.456 1.941 0 .725-.152 1.343-.456 1.898v.002ZM162.775 8.41a4.364 4.364 0 0 0-1.736-1.774c-.741-.414-1.594-.622-2.558-.622-1.454 0-2.602.37-3.448 1.11a5.14 5.14 0 0 0-.734.795V2.064h-2.959v16.378h2.959v-7.244c.056-.148.118-.293.189-.435.319-.636.76-1.14 1.324-1.51a3.368 3.368 0 0 1 1.891-.555c.92 0 1.605.248 2.056.744.452.496.679 1.203.679 2.12v6.879h2.959v-7.323c0-1.036-.208-1.939-.624-2.707h.002Z"/>
  <defs>
    <clipPath id="aa">
      <path fill="currentColor" d="M0 .199h21.034v21.034H0z"/>
    </clipPath>
    <clipPath id="bb">
      <path fill="currentColor" d="M0 .199h21.034v21.034H0z"/>
    </clipPath>
  </defs>
</svg>
