<svg xmlns="http://www.w3.org/2000/svg" viewBox="0 0 818 223" fill="none">
  <path fill="currentColor" fill-rule="evenodd" d="M128.759 45.638c12.602 0 22.818-10.216 22.818-22.819C151.577 10.217 141.361 0 128.759 0c-12.603 0-22.819 10.217-22.819 22.819 0 12.603 10.216 22.819 22.819 22.819ZM184.043 123.199v-.019L60.863 0c-17.822 17.823-17.722 46.619.101 64.442l39.199 39.199-.066.067 22.215 22.214c.807.807 1.341 1.921 1.341 3.152 0 1.265-.59 2.386-1.437 3.197l-25.91 25.91a4.44 4.44 0 0 1-6.278 0l-25.992-25.993a4.439 4.439 0 0 1 0-6.278c17.734-18.925 4.497-41.58-3.696-49.255l-5.795-5.795L2.6 122.805a8.878 8.878 0 0 0 0 12.555l84.257 84.257a8.876 8.876 0 0 0 12.554 0l84.077-84.077a8.392 8.392 0 0 0 2.987-6.426 8.387 8.387 0 0 0-2.432-5.915ZM300.643 104.22c-20.552-2.691-24.019-6.909-24.019-15.345 0-8.552 7.934-13.864 20.706-13.864 14.075 0 21.077 4.579 23.41 15.312l.072.332h11.859l-.061-.48c-2.016-15.886-14.545-24.635-35.28-24.635-19.13 0-33.014 10.228-33.014 24.321 0 17.686 16.455 22.317 34.234 24.686 18.518 2.603 24.164 6.447 24.164 16.454 0 9.39-9.542 16.205-22.69 16.205-20.702 0-24.914-9.122-26.382-18.979l-.053-.361h-12.731l.058.478c1.586 12.926 9.657 28.334 39.108 28.334 20.195 0 35.424-11.357 35.424-26.416 0-17.725-13.317-23.106-34.805-26.042ZM419.634 66.647h-72.125v11.295h29.484v77.627h13.158V77.942h29.483V66.647ZM447.382 119.996 463.5 77.088l16.117 42.908h-32.235Zm8.327-53.349-35.206 88.922h12.519l9.78-25.374h41.255l9.922 25.374h13.08l-34.633-88.922h-16.717ZM508.888 77.942h29.484v77.627h13.159V77.942h29.482V66.647h-72.125v11.295ZM613.369 116.499h24.97v-11.174h-24.97V77.942h49.202V66.647H600.21v88.922h62.361v-11.295h-49.202v-27.775ZM697.083 66.647h-13.16v88.922h59.51v-11.295h-46.35V66.647ZM804.257 66.647l-25.294 40.544-26.279-40.544h-14.907l34.259 50.2v38.722h13.158v-38.605l32.391-50.317h-13.328Z" clip-rule="evenodd"/>
</svg>
