<svg xmlns="http://www.w3.org/2000/svg" viewBox="0 0 634.6 177.4">
  <path d="M138.2 23.5c7.9 11.1 11 24.8 8.6 38.2-1.1 6.3-3.6 12.3-7.1 17.7 5.2 9.8 6.9 21.1 4.9 32-2.4 13.1-10.1 24.6-21.4 31.7l-41.3 26.3c-23.5 15-56.1 8-72.5-15.6-7.9-10.9-11-24.7-8.6-38.1 1.1-6.3 3.6-12.3 7.1-17.7C2.7 88.2 1 76.9 3 66c2.4-13.1 10.1-24.7 21.4-31.7L65.7 7.9c23.5-15 56-8 72.5 15.6" style="fill:#ff3e00"/>
  <path d="M61.6 156.2c3-.8 5.8-2 8.4-3.7l41.3-26.3c6.8-4.3 11.5-11.2 12.9-19.1 1.4-8-.4-16.3-5.2-23-7.8-11.3-21.9-16.5-35.2-13.1-3 .8-5.8 2-8.4 3.7l-15.8 10c-.8.5-1.6.9-2.5 1.1-4 1-8.3-.5-10.6-3.9-1.4-2-2-4.5-1.6-6.9.4-2.4 1.8-4.5 3.9-5.7L90.1 43c.8-.5 1.6-.9 2.5-1.1 4-1 8.3.5 10.6 3.9 1.3 1.8 1.9 4 1.7 6.1v1.5c-.1 0 1.4.5 1.4.5 5.8 1.8 11.3 4.5 16.2 8.1l2.1 1.6.8-2.4c.4-1.3.7-2.6 1-3.9 1.4-8-.4-16.3-5.2-23C113.4 23 99.3 17.8 86 21.2c-3 .8-5.8 2-8.4 3.7L36.3 51.2c-6.8 4.3-11.5 11.2-12.9 19.1-1.4 8 .4 16.3 5.2 23 7.8 11.3 21.9 16.5 35.2 13.1 3-.8 5.8-2 8.4-3.7L88 92.6c.8-.5 1.6-.9 2.5-1.1 4-1 8.3.5 10.6 3.9 1.4 2 2 4.5 1.6 6.9-.4 2.4-1.8 4.5-3.9 5.8l-41.3 26.3c-.8.5-1.6.9-2.5 1.1-4 1-8.3-.5-10.6-3.9-1.3-1.8-1.9-4-1.7-6.1V124c.1 0-1.4-.5-1.4-.5-5.8-1.8-11.3-4.5-16.2-8.1l-2.1-1.6-.8 2.4c-.4 1.3-.7 2.6-1 3.9-1.4 8 .4 16.3 5.2 23 7.8 11.3 21.9 16.5 35.2 13.1" style="fill:#fff"/>
  <path d="M242 127.9c-6.2.2-12.3-1.6-17.4-4.9-4.8-3.2-8.4-8-10.2-13.5l10.6-3.9c1.5 3.4 3.9 6.3 6.9 8.4 3.1 2.1 6.8 3.2 10.5 3.1 3.6.2 7.1-.9 10-3 2.5-2.1 3.9-5.4 3.7-8.7 0-1.5-.3-3-1-4.4-.6-1.2-1.4-2.3-2.3-3.3-1.2-1.1-2.5-2-4-2.7-1.8-.9-3.3-1.6-4.5-2.1-1.2-.5-2.9-1.1-5.3-1.9-2.9-1-5.1-1.8-6.5-2.4-2-.8-3.9-1.8-5.7-2.9-2-1-3.8-2.4-5.3-4-1.3-1.6-2.4-3.3-3.2-5.3-3.1-7.5-1-16.1 5.1-21.3 4.3-3.8 10.2-5.7 17.7-5.7 6.2 0 11.3 1.4 15.3 4.1 3.9 2.6 6.7 6.5 8.1 10.9l-10.4 3.5c-1-2.3-2.8-4.3-5-5.6-2.7-1.5-5.7-2.2-8.8-2.1-3-.2-6 .7-8.5 2.4-2.1 1.6-3.2 4.1-3.1 6.7 0 2 .9 3.9 2.4 5.2 1.4 1.4 3.1 2.6 5 3.4 1.7.7 4.4 1.7 7.9 2.9 2.2.8 3.8 1.4 4.8 1.8 1 .4 2.6 1.1 4.6 2 1.6.7 3.2 1.6 4.7 2.5 1.3 1 2.6 2 3.8 3.1 1.3 1.1 2.4 2.5 3.3 4 .8 1.5 1.5 3.2 1.9 4.9.6 2 .8 4.1.8 6.1 0 7.1-2.4 12.6-7.3 16.6-4.8 4-11.1 6-18.6 6Zm69.4-1.3-26-75.8h12.1l17.2 52.9c1 2.8 1.7 5.7 2.4 8.7.6-2.9 1.4-5.8 2.4-8.7l17-52.9h12l-25.9 75.8h-11.3Zm60.2 0V50.8h47v10.6h-35.8v20.8h23.1v10.6h-23.1V116h38.1v10.6h-49.4Zm78.1 0V50.8H461v65h37.1v10.8h-48.3Zm90.8-65v65h-11.3v-65h-21.5V50.8h54.2v10.8h-21.5Zm44.7 65V50.8h47v10.6h-35.8v20.8h23.1v10.6h-23.1V116h38.1v10.6h-49.4Z" style="fill:#4a4a55"/>
</svg>
